  0
SECTION
  2
HEADER
  9
$ACADVER
  1
AC1009
  9
$FILLMODE
 70
1
  9
$EXTMIN
 10
0.0000
 20
0.0000
 30
0.0000
  9
$EXTMAX
 10
27.6100
 20
33.0100
 30
0.0000
  0
ENDSEC
  0
SECTION
  2
TABLES
  0
TABLE
  2
LTYPE
 70
1
  0
LTYPE
  2
CONTINUOUS
 70
64
  3
Solid line
 72
65
 73
0
 40
0
  0
ENDTAB
  0
TABLE
  2
LAYER
 70
255
  0
LAYER
  2
1
 70
64
 62
22
  6
CONTINUOUS
  0
LAYER
  2
16
 70
64
 62
175
  6
CONTINUOUS
  0
LAYER
  2
17
 70
64
 62
82
  6
CONTINUOUS
  0
LAYER
  2
18
 70
64
 62
82
  6
CONTINUOUS
  0
LAYER
  2
19
 70
64
 62
53
  6
CONTINUOUS
  0
LAYER
  2
20
 70
64
 62
7
  6
CONTINUOUS
  0
LAYER
  2
21
 70
64
 62
253
  6
CONTINUOUS
  0
LAYER
  2
22
 70
64
 62
253
  6
CONTINUOUS
  0
LAYER
  2
23
 70
64
 62
7
  6
CONTINUOUS
  0
LAYER
  2
24
 70
64
 62
7
  6
CONTINUOUS
  0
LAYER
  2
25
 70
64
 62
253
  6
CONTINUOUS
  0
LAYER
  2
26
 70
64
 62
253
  6
CONTINUOUS
  0
LAYER
  2
27
 70
64
 62
253
  6
CONTINUOUS
  0
LAYER
  2
28
 70
64
 62
253
  6
CONTINUOUS
  0
LAYER
  2
39
 70
64
 62
22
  6
CONTINUOUS
  0
LAYER
  2
40
 70
64
 62
175
  6
CONTINUOUS
  0
LAYER
  2
41
 70
64
 62
22
  6
CONTINUOUS
  0
LAYER
  2
42
 70
64
 62
175
  6
CONTINUOUS
  0
LAYER
  2
43
 70
64
 62
82
  6
CONTINUOUS
  0
LAYER
  2
48
 70
64
 62
253
  6
CONTINUOUS
  0
LAYER
  2
49
 70
64
 62
253
  6
CONTINUOUS
  0
LAYER
  2
51
 70
64
 62
253
  6
CONTINUOUS
  0
LAYER
  2
52
 70
64
 62
253
  6
CONTINUOUS
  0
LAYER
  2
101
 70
64
 62
1
  6
CONTINUOUS
  0
LAYER
  2
102
 70
64
 62
253
  6
CONTINUOUS
  0
LAYER
  2
103
 70
64
 62
253
  6
CONTINUOUS
  0
LAYER
  2
104
 70
64
 62
251
  6
CONTINUOUS
  0
LAYER
  2
105
 70
64
 62
253
  6
CONTINUOUS
  0
LAYER
  2
106
 70
64
 62
253
  6
CONTINUOUS
  0
LAYER
  2
107
 70
64
 62
253
  6
CONTINUOUS
  0
LAYER
  2
108
 70
64
 62
3
  6
CONTINUOUS
  0
LAYER
  2
109
 70
64
 62
4
  6
CONTINUOUS
  0
LAYER
  2
110
 70
64
 62
253
  6
CONTINUOUS
  0
LAYER
  2
111
 70
64
 62
253
  6
CONTINUOUS
  0
LAYER
  2
112
 70
64
 62
253
  6
CONTINUOUS
  0
LAYER
  2
113
 70
64
 62
22
  6
CONTINUOUS
  0
LAYER
  2
114
 70
64
 62
253
  6
CONTINUOUS
  0
LAYER
  2
115
 70
64
 62
253
  6
CONTINUOUS
  0
LAYER
  2
116
 70
64
 62
5
  6
CONTINUOUS
  0
LAYER
  2
118
 70
64
 62
253
  6
CONTINUOUS
  0
LAYER
  2
121
 70
64
 62
253
  6
CONTINUOUS
  0
LAYER
  2
122
 70
64
 62
253
  6
CONTINUOUS
  0
LAYER
  2
123
 70
64
 62
253
  6
CONTINUOUS
  0
LAYER
  2
124
 70
64
 62
253
  6
CONTINUOUS
  0
LAYER
  2
125
 70
64
 62
253
  6
CONTINUOUS
  0
LAYER
  2
126
 70
64
 62
253
  6
CONTINUOUS
  0
LAYER
  2
127
 70
64
 62
253
  6
CONTINUOUS
  0
LAYER
  2
128
 70
64
 62
253
  6
CONTINUOUS
  0
LAYER
  2
129
 70
64
 62
253
  6
CONTINUOUS
  0
LAYER
  2
131
 70
64
 62
253
  6
CONTINUOUS
  0
LAYER
  2
132
 70
64
 62
253
  6
CONTINUOUS
  0
LAYER
  2
144
 70
64
 62
253
  6
CONTINUOUS
  0
LAYER
  2
150
 70
64
 62
253
  6
CONTINUOUS
  0
LAYER
  2
151
 70
64
 62
253
  6
CONTINUOUS
  0
LAYER
  2
152
 70
64
 62
253
  6
CONTINUOUS
  0
LAYER
  2
153
 70
64
 62
253
  6
CONTINUOUS
  0
LAYER
  2
154
 70
64
 62
253
  6
CONTINUOUS
  0
LAYER
  2
155
 70
64
 62
253
  6
CONTINUOUS
  0
LAYER
  2
199
 70
64
 62
253
  6
CONTINUOUS
  0
LAYER
  2
200
 70
64
 62
175
  6
CONTINUOUS
  0
LAYER
  2
201
 70
64
 62
82
  6
CONTINUOUS
  0
LAYER
  2
202
 70
64
 62
140
  6
CONTINUOUS
  0
LAYER
  2
203
 70
64
 62
22
  6
CONTINUOUS
  0
LAYER
  2
204
 70
64
 62
213
  6
CONTINUOUS
  0
LAYER
  2
205
 70
64
 62
53
  6
CONTINUOUS
  0
LAYER
  2
206
 70
64
 62
253
  6
CONTINUOUS
  0
LAYER
  2
207
 70
64
 62
250
  6
CONTINUOUS
  0
LAYER
  2
208
 70
64
 62
5
  6
CONTINUOUS
  0
LAYER
  2
209
 70
64
 62
253
  6
CONTINUOUS
  0
LAYER
  2
210
 70
64
 62
253
  6
CONTINUOUS
  0
LAYER
  2
211
 70
64
 62
253
  6
CONTINUOUS
  0
LAYER
  2
212
 70
64
 62
253
  6
CONTINUOUS
  0
LAYER
  2
213
 70
64
 62
253
  6
CONTINUOUS
  0
LAYER
  2
214
 70
64
 62
253
  6
CONTINUOUS
  0
LAYER
  2
215
 70
64
 62
253
  6
CONTINUOUS
  0
LAYER
  2
216
 70
64
 62
253
  6
CONTINUOUS
  0
LAYER
  2
225
 70
64
 62
253
  6
CONTINUOUS
  0
LAYER
  2
226
 70
64
 62
253
  6
CONTINUOUS
  0
LAYER
  2
227
 70
64
 62
253
  6
CONTINUOUS
  0
LAYER
  2
228
 70
64
 62
253
  6
CONTINUOUS
  0
LAYER
  2
229
 70
64
 62
253
  6
CONTINUOUS
  0
LAYER
  2
230
 70
64
 62
253
  6
CONTINUOUS
  0
LAYER
  2
231
 70
64
 62
253
  6
CONTINUOUS
  0
LAYER
  2
248
 70
64
 62
253
  6
CONTINUOUS
  0
LAYER
  2
249
 70
64
 62
253
  6
CONTINUOUS
  0
LAYER
  2
254
 70
64
 62
253
  6
CONTINUOUS
  0
LAYER
  2
255
 70
64
 62
253
  6
CONTINUOUS
  0
ENDTAB
  0
ENDSEC
  0
SECTION
  2
BLOCKS
  0
BLOCK
  8
0
  2
RECT
 70
64
 10
0.0000
 20
0.0000
 30
0.0000
  3
RECT
  0
SOLID
  8
0
 10
-0.5000
 20
-0.5000
 30
0.0000
 11
0.5000
 21
-0.5000
 31
0.0000
 12
-0.5000
 22
0.5000
 32
0.0000
 13
0.5000
 23
0.5000
 33
0.0000
  0
ENDBLK
  8
0
  0
BLOCK
  8
0
  2
PIE
 70
64
 10
0.0000
 20
0.0000
 30
0.0000
  3
PIE
  0
POLYLINE
  8
0
 66
1
 10
0.0000
 20
0.0000
 30
0.0000
 40
0.5000
 41
0.5000
 70
0
  0
VERTEX
  8
0
 10
0.0000
 20
-0.2500
 30
0.0000
 42
1.0000
  0
VERTEX
  8
0
 10
0.0000
 20
0.2500
 30
0.0000
 42
1.0000
  0
VERTEX
  8
0
 10
0.0000
 20
-0.2500
 30
0.0000
  0
SEQEND
  8
0
  0
ENDBLK
  8
0
  0
BLOCK
  8
0
  2
OCTAGONP
 70
64
 10
0.0000
 20
0.0000
 30
0.0000
  3
OCTAGONP
  0
POLYLINE
  8
0
 66
1
 10
0.0000
 20
0.0000
 30
0.0000
 40
0.5000
 41
0.5000
 70
0
  0
VERTEX
  8
0
 10
-0.2500
 20
-0.1036
 30
0.0000
  0
VERTEX
  8
0
 10
-0.2500
 20
0.1036
 30
0.0000
  0
VERTEX
  8
0
 10
-0.1036
 20
0.2500
 30
0.0000
  0
VERTEX
  8
0
 10
0.1036
 20
0.2500
 30
0.0000
  0
VERTEX
  8
0
 10
0.2500
 20
0.1036
 30
0.0000
  0
VERTEX
  8
0
 10
0.2500
 20
-0.1036
 30
0.0000
  0
VERTEX
  8
0
 10
0.1036
 20
-0.2500
 30
0.0000
  0
VERTEX
  8
0
 10
-0.1036
 20
-0.2500
 30
0.0000
  0
VERTEX
  8
0
 10
-0.2500
 20
-0.1036
 30
0.0000
  0
VERTEX
  8
0
 10
-0.2500
 20
0.1036
 30
0.0000
  0
SEQEND
  8
0
  0
ENDBLK
  8
0
  0
BLOCK
  8
0
  2
SQUAREP
 70
64
 10
0.0000
 20
0.0000
 30
0.0000
  3
SQUAREP
  0
SOLID
  8
0
 10
-0.5000
 20
-0.5000
 30
0.0000
 11
0.5000
 21
-0.5000
 31
0.0000
 12
-0.5000
 22
0.5000
 32
0.0000
 13
0.5000
 23
0.5000
 33
0.0000
  0
ENDBLK
  8
0
  0
BLOCK
  8
0
  2
ROUNDP
 70
64
 10
0.0000
 20
0.0000
 30
0.0000
  3
ROUNDP
  0
POLYLINE
  8
0
 66
1
 10
0.0000
 20
0.0000
 30
0.0000
 40
0.5000
 41
0.5000
 70
0
  0
VERTEX
  8
0
 10
0.0000
 20
-0.2500
 30
0.0000
 42
1.0000
  0
VERTEX
  8
0
 10
0.0000
 20
0.2500
 30
0.0000
 42
1.0000
  0
VERTEX
  8
0
 10
0.0000
 20
-0.2500
 30
0.0000
  0
SEQEND
  8
0
  0
ENDBLK
  8
0
  0
BLOCK
  8
0
  2
ANNULUSP
 70
64
 10
0.0000
 20
0.0000
 30
0.0000
  3
ANNULUSP
  0
POLYLINE
  8
0
 66
1
 10
0.0000
 20
0.0000
 30
0.0000
 40
0.5000
 41
0.5000
 70
0
  0
VERTEX
  8
0
 10
0.0000
 20
-0.2500
 30
0.0000
 42
1.0000
  0
VERTEX
  8
0
 10
0.0000
 20
0.2500
 30
0.0000
 42
1.0000
  0
VERTEX
  8
0
 10
0.0000
 20
-0.2500
 30
0.0000
  0
SEQEND
  8
0
  0
ENDBLK
  8
0
  0
BLOCK
  8
0
  2
THERMALP
 70
64
 10
0.0000
 20
0.0000
 30
0.0000
  3
THERMALP
  0
POLYLINE
  8
0
 66
1
 10
0.0000
 20
0.0000
 30
0.0000
 40
0.1000
 41
0.1000
 70
0
  0
VERTEX
  8
0
 10
-0.2379
 20
0.4500
 30
0.0000
  0
VERTEX
  8
0
 10
0.2379
 20
0.4500
 30
0.0000
  0
SEQEND
  8
0
  0
POLYLINE
  8
0
 66
1
 10
0.0000
 20
0.0000
 30
0.0000
 40
0.0500
 41
0.0500
 70
0
  0
VERTEX
  8
0
 10
0.2379
 20
0.4250
 30
0.0000
 42
1.0000
  0
VERTEX
  8
0
 10
0.2379
 20
0.4750
 30
0.0000
  0
SEQEND
  8
0
  0
POLYLINE
  8
0
 66
1
 10
0.0000
 20
0.0000
 30
0.0000
 40
0.0500
 41
0.0500
 70
0
  0
VERTEX
  8
0
 10
-0.2379
 20
0.4750
 30
0.0000
 42
1.0000
  0
VERTEX
  8
0
 10
-0.2379
 20
0.4250
 30
0.0000
  0
SEQEND
  8
0
  0
POLYLINE
  8
0
 66
1
 10
0.0000
 20
0.0000
 30
0.0000
 40
0.1000
 41
0.1000
 70
0
  0
VERTEX
  8
0
 10
0.4500
 20
0.2379
 30
0.0000
  0
VERTEX
  8
0
 10
0.4500
 20
-0.2379
 30
0.0000
  0
SEQEND
  8
0
  0
POLYLINE
  8
0
 66
1
 10
0.0000
 20
0.0000
 30
0.0000
 40
0.0500
 41
0.0500
 70
0
  0
VERTEX
  8
0
 10
0.4250
 20
-0.2379
 30
0.0000
 42
1.0000
  0
VERTEX
  8
0
 10
0.4750
 20
-0.2379
 30
0.0000
  0
SEQEND
  8
0
  0
POLYLINE
  8
0
 66
1
 10
0.0000
 20
0.0000
 30
0.0000
 40
0.0500
 41
0.0500
 70
0
  0
VERTEX
  8
0
 10
0.4750
 20
0.2379
 30
0.0000
 42
1.0000
  0
VERTEX
  8
0
 10
0.4250
 20
0.2379
 30
0.0000
  0
SEQEND
  8
0
  0
POLYLINE
  8
0
 66
1
 10
0.0000
 20
0.0000
 30
0.0000
 40
0.1000
 41
0.1000
 70
0
  0
VERTEX
  8
0
 10
0.2379
 20
-0.4500
 30
0.0000
  0
VERTEX
  8
0
 10
-0.2379
 20
-0.4500
 30
0.0000
  0
SEQEND
  8
0
  0
POLYLINE
  8
0
 66
1
 10
0.0000
 20
0.0000
 30
0.0000
 40
0.0500
 41
0.0500
 70
0
  0
VERTEX
  8
0
 10
-0.2379
 20
-0.4250
 30
0.0000
 42
1.0000
  0
VERTEX
  8
0
 10
-0.2379
 20
-0.4750
 30
0.0000
  0
SEQEND
  8
0
  0
POLYLINE
  8
0
 66
1
 10
0.0000
 20
0.0000
 30
0.0000
 40
0.0500
 41
0.0500
 70
0
  0
VERTEX
  8
0
 10
0.2379
 20
-0.4750
 30
0.0000
 42
1.0000
  0
VERTEX
  8
0
 10
0.2379
 20
-0.4250
 30
0.0000
  0
SEQEND
  8
0
  0
POLYLINE
  8
0
 66
1
 10
0.0000
 20
0.0000
 30
0.0000
 40
0.1000
 41
0.1000
 70
0
  0
VERTEX
  8
0
 10
-0.4500
 20
-0.2379
 30
0.0000
  0
VERTEX
  8
0
 10
-0.4500
 20
0.2379
 30
0.0000
  0
SEQEND
  8
0
  0
POLYLINE
  8
0
 66
1
 10
0.0000
 20
0.0000
 30
0.0000
 40
0.0500
 41
0.0500
 70
0
  0
VERTEX
  8
0
 10
-0.4250
 20
0.2379
 30
0.0000
 42
1.0000
  0
VERTEX
  8
0
 10
-0.4750
 20
0.2379
 30
0.0000
  0
SEQEND
  8
0
  0
POLYLINE
  8
0
 66
1
 10
0.0000
 20
0.0000
 30
0.0000
 40
0.0500
 41
0.0500
 70
0
  0
VERTEX
  8
0
 10
-0.4750
 20
-0.2379
 30
0.0000
 42
1.0000
  0
VERTEX
  8
0
 10
-0.4250
 20
-0.2379
 30
0.0000
  0
SEQEND
  8
0
  0
ENDBLK
  8
0
  0
BLOCK
  8
0
  2
OCTAGONV
 70
64
 10
0.0000
 20
0.0000
 30
0.0000
  3
OCTAGONV
  0
POLYLINE
  8
0
 66
1
 10
0.0000
 20
0.0000
 30
0.0000
 40
0.5000
 41
0.5000
 70
0
  0
VERTEX
  8
0
 10
-0.2500
 20
-0.1036
 30
0.0000
  0
VERTEX
  8
0
 10
-0.2500
 20
0.1036
 30
0.0000
  0
VERTEX
  8
0
 10
-0.1036
 20
0.2500
 30
0.0000
  0
VERTEX
  8
0
 10
0.1036
 20
0.2500
 30
0.0000
  0
VERTEX
  8
0
 10
0.2500
 20
0.1036
 30
0.0000
  0
VERTEX
  8
0
 10
0.2500
 20
-0.1036
 30
0.0000
  0
VERTEX
  8
0
 10
0.1036
 20
-0.2500
 30
0.0000
  0
VERTEX
  8
0
 10
-0.1036
 20
-0.2500
 30
0.0000
  0
VERTEX
  8
0
 10
-0.2500
 20
-0.1036
 30
0.0000
  0
VERTEX
  8
0
 10
-0.2500
 20
0.1036
 30
0.0000
  0
SEQEND
  8
0
  0
ENDBLK
  8
0
  0
BLOCK
  8
0
  2
SQUAREV
 70
64
 10
0.0000
 20
0.0000
 30
0.0000
  3
SQUAREV
  0
SOLID
  8
0
 10
-0.5000
 20
-0.5000
 30
0.0000
 11
0.5000
 21
-0.5000
 31
0.0000
 12
-0.5000
 22
0.5000
 32
0.0000
 13
0.5000
 23
0.5000
 33
0.0000
  0
ENDBLK
  8
0
  0
BLOCK
  8
0
  2
ROUNDV
 70
64
 10
0.0000
 20
0.0000
 30
0.0000
  3
ROUNDV
  0
POLYLINE
  8
0
 66
1
 10
0.0000
 20
0.0000
 30
0.0000
 40
0.5000
 41
0.5000
 70
0
  0
VERTEX
  8
0
 10
0.0000
 20
-0.2500
 30
0.0000
 42
1.0000
  0
VERTEX
  8
0
 10
0.0000
 20
0.2500
 30
0.0000
 42
1.0000
  0
VERTEX
  8
0
 10
0.0000
 20
-0.2500
 30
0.0000
  0
SEQEND
  8
0
  0
ENDBLK
  8
0
  0
BLOCK
  8
0
  2
ANNULUSV
 70
64
 10
0.0000
 20
0.0000
 30
0.0000
  3
ANNULUSV
  0
POLYLINE
  8
0
 66
1
 10
0.0000
 20
0.0000
 30
0.0000
 40
0.5000
 41
0.5000
 70
0
  0
VERTEX
  8
0
 10
0.0000
 20
-0.2500
 30
0.0000
 42
1.0000
  0
VERTEX
  8
0
 10
0.0000
 20
0.2500
 30
0.0000
 42
1.0000
  0
VERTEX
  8
0
 10
0.0000
 20
-0.2500
 30
0.0000
  0
SEQEND
  8
0
  0
ENDBLK
  8
0
  0
BLOCK
  8
0
  2
THERMALV
 70
64
 10
0.0000
 20
0.0000
 30
0.0000
  3
THERMALV
  0
POLYLINE
  8
0
 66
1
 10
0.0000
 20
0.0000
 30
0.0000
 40
0.1000
 41
0.1000
 70
0
  0
VERTEX
  8
0
 10
-0.2379
 20
0.4500
 30
0.0000
  0
VERTEX
  8
0
 10
0.2379
 20
0.4500
 30
0.0000
  0
SEQEND
  8
0
  0
POLYLINE
  8
0
 66
1
 10
0.0000
 20
0.0000
 30
0.0000
 40
0.0500
 41
0.0500
 70
0
  0
VERTEX
  8
0
 10
0.2379
 20
0.4250
 30
0.0000
 42
1.0000
  0
VERTEX
  8
0
 10
0.2379
 20
0.4750
 30
0.0000
  0
SEQEND
  8
0
  0
POLYLINE
  8
0
 66
1
 10
0.0000
 20
0.0000
 30
0.0000
 40
0.0500
 41
0.0500
 70
0
  0
VERTEX
  8
0
 10
-0.2379
 20
0.4750
 30
0.0000
 42
1.0000
  0
VERTEX
  8
0
 10
-0.2379
 20
0.4250
 30
0.0000
  0
SEQEND
  8
0
  0
POLYLINE
  8
0
 66
1
 10
0.0000
 20
0.0000
 30
0.0000
 40
0.1000
 41
0.1000
 70
0
  0
VERTEX
  8
0
 10
0.4500
 20
0.2379
 30
0.0000
  0
VERTEX
  8
0
 10
0.4500
 20
-0.2379
 30
0.0000
  0
SEQEND
  8
0
  0
POLYLINE
  8
0
 66
1
 10
0.0000
 20
0.0000
 30
0.0000
 40
0.0500
 41
0.0500
 70
0
  0
VERTEX
  8
0
 10
0.4250
 20
-0.2379
 30
0.0000
 42
1.0000
  0
VERTEX
  8
0
 10
0.4750
 20
-0.2379
 30
0.0000
  0
SEQEND
  8
0
  0
POLYLINE
  8
0
 66
1
 10
0.0000
 20
0.0000
 30
0.0000
 40
0.0500
 41
0.0500
 70
0
  0
VERTEX
  8
0
 10
0.4750
 20
0.2379
 30
0.0000
 42
1.0000
  0
VERTEX
  8
0
 10
0.4250
 20
0.2379
 30
0.0000
  0
SEQEND
  8
0
  0
POLYLINE
  8
0
 66
1
 10
0.0000
 20
0.0000
 30
0.0000
 40
0.1000
 41
0.1000
 70
0
  0
VERTEX
  8
0
 10
0.2379
 20
-0.4500
 30
0.0000
  0
VERTEX
  8
0
 10
-0.2379
 20
-0.4500
 30
0.0000
  0
SEQEND
  8
0
  0
POLYLINE
  8
0
 66
1
 10
0.0000
 20
0.0000
 30
0.0000
 40
0.0500
 41
0.0500
 70
0
  0
VERTEX
  8
0
 10
-0.2379
 20
-0.4250
 30
0.0000
 42
1.0000
  0
VERTEX
  8
0
 10
-0.2379
 20
-0.4750
 30
0.0000
  0
SEQEND
  8
0
  0
POLYLINE
  8
0
 66
1
 10
0.0000
 20
0.0000
 30
0.0000
 40
0.0500
 41
0.0500
 70
0
  0
VERTEX
  8
0
 10
0.2379
 20
-0.4750
 30
0.0000
 42
1.0000
  0
VERTEX
  8
0
 10
0.2379
 20
-0.4250
 30
0.0000
  0
SEQEND
  8
0
  0
POLYLINE
  8
0
 66
1
 10
0.0000
 20
0.0000
 30
0.0000
 40
0.1000
 41
0.1000
 70
0
  0
VERTEX
  8
0
 10
-0.4500
 20
-0.2379
 30
0.0000
  0
VERTEX
  8
0
 10
-0.4500
 20
0.2379
 30
0.0000
  0
SEQEND
  8
0
  0
POLYLINE
  8
0
 66
1
 10
0.0000
 20
0.0000
 30
0.0000
 40
0.0500
 41
0.0500
 70
0
  0
VERTEX
  8
0
 10
-0.4250
 20
0.2379
 30
0.0000
 42
1.0000
  0
VERTEX
  8
0
 10
-0.4750
 20
0.2379
 30
0.0000
  0
SEQEND
  8
0
  0
POLYLINE
  8
0
 66
1
 10
0.0000
 20
0.0000
 30
0.0000
 40
0.0500
 41
0.0500
 70
0
  0
VERTEX
  8
0
 10
-0.4750
 20
-0.2379
 30
0.0000
 42
1.0000
  0
VERTEX
  8
0
 10
-0.4250
 20
-0.2379
 30
0.0000
  0
SEQEND
  8
0
  0
ENDBLK
  8
0
  0
ENDSEC
  0
SECTION
  2
ENTITIES
  0
LINE
  8
20
 10
0.0000
 20
0.0000
 30
0.0000
 11
27.6100
 21
0.0000
 31
0.0000
  0
LINE
  8
20
 10
27.6100
 20
0.0000
 30
0.0000
 11
27.6100
 21
33.0100
 31
0.0000
  0
LINE
  8
20
 10
27.6100
 20
33.0100
 30
0.0000
 11
0.0000
 21
33.0100
 31
0.0000
  0
LINE
  8
20
 10
0.0000
 20
33.0100
 30
0.0000
 11
0.0000
 21
0.0000
 31
0.0000
  0
POINT
  8
23
 10
7.6200
 20
17.7800
 30
0.0000
  0
POLYLINE
  8
21
 66
1
 10
0.0000
 20
0.0000
 30
0.0000
 40
0.2032
 41
0.2032
 70
0
  0
VERTEX
  8
21
 10
8.8900
 20
3.1750
 30
0.0000
  0
VERTEX
  8
21
 10
8.8900
 20
1.9050
 30
0.0000
  0
SEQEND
  8
0
  0
POLYLINE
  8
21
 66
1
 10
0.0000
 20
0.0000
 30
0.0000
 40
0.1016
 41
0.1016
 70
0
  0
VERTEX
  8
21
 10
8.8392
 20
1.9050
 30
0.0000
 42
1.0000
  0
VERTEX
  8
21
 10
8.9408
 20
1.9050
 30
0.0000
  0
SEQEND
  8
0
  0
POLYLINE
  8
21
 66
1
 10
0.0000
 20
0.0000
 30
0.0000
 40
0.1016
 41
0.1016
 70
0
  0
VERTEX
  8
21
 10
8.9408
 20
3.1750
 30
0.0000
 42
1.0000
  0
VERTEX
  8
21
 10
8.8392
 20
3.1750
 30
0.0000
  0
SEQEND
  8
0
  0
POLYLINE
  8
21
 66
1
 10
0.0000
 20
0.0000
 30
0.0000
 40
0.2032
 41
0.2032
 70
0
  0
VERTEX
  8
21
 10
8.8900
 20
1.9050
 30
0.0000
  0
VERTEX
  8
21
 10
8.2550
 20
1.2700
 30
0.0000
  0
SEQEND
  8
0
  0
POLYLINE
  8
21
 66
1
 10
0.0000
 20
0.0000
 30
0.0000
 40
0.1016
 41
0.1016
 70
0
  0
VERTEX
  8
21
 10
8.2191
 20
1.3059
 30
0.0000
 42
1.0000
  0
VERTEX
  8
21
 10
8.2909
 20
1.2341
 30
0.0000
  0
SEQEND
  8
0
  0
POLYLINE
  8
21
 66
1
 10
0.0000
 20
0.0000
 30
0.0000
 40
0.1016
 41
0.1016
 70
0
  0
VERTEX
  8
21
 10
8.9259
 20
1.8691
 30
0.0000
 42
1.0000
  0
VERTEX
  8
21
 10
8.8541
 20
1.9409
 30
0.0000
  0
SEQEND
  8
0
  0
POLYLINE
  8
21
 66
1
 10
0.0000
 20
0.0000
 30
0.0000
 40
0.2032
 41
0.2032
 70
0
  0
VERTEX
  8
21
 10
6.9850
 20
1.2700
 30
0.0000
  0
VERTEX
  8
21
 10
6.3500
 20
1.9050
 30
0.0000
  0
SEQEND
  8
0
  0
POLYLINE
  8
21
 66
1
 10
0.0000
 20
0.0000
 30
0.0000
 40
0.1016
 41
0.1016
 70
0
  0
VERTEX
  8
21
 10
6.3859
 20
1.9409
 30
0.0000
 42
1.0000
  0
VERTEX
  8
21
 10
6.3141
 20
1.8691
 30
0.0000
  0
SEQEND
  8
0
  0
POLYLINE
  8
21
 66
1
 10
0.0000
 20
0.0000
 30
0.0000
 40
0.1016
 41
0.1016
 70
0
  0
VERTEX
  8
21
 10
6.9491
 20
1.2341
 30
0.0000
 42
1.0000
  0
VERTEX
  8
21
 10
7.0209
 20
1.3059
 30
0.0000
  0
SEQEND
  8
0
  0
POLYLINE
  8
21
 66
1
 10
0.0000
 20
0.0000
 30
0.0000
 40
0.2032
 41
0.2032
 70
0
  0
VERTEX
  8
21
 10
8.2550
 20
6.3500
 30
0.0000
  0
VERTEX
  8
21
 10
8.8900
 20
5.7150
 30
0.0000
  0
SEQEND
  8
0
  0
POLYLINE
  8
21
 66
1
 10
0.0000
 20
0.0000
 30
0.0000
 40
0.1016
 41
0.1016
 70
0
  0
VERTEX
  8
21
 10
8.8541
 20
5.6791
 30
0.0000
 42
1.0000
  0
VERTEX
  8
21
 10
8.9259
 20
5.7509
 30
0.0000
  0
SEQEND
  8
0
  0
POLYLINE
  8
21
 66
1
 10
0.0000
 20
0.0000
 30
0.0000
 40
0.1016
 41
0.1016
 70
0
  0
VERTEX
  8
21
 10
8.2909
 20
6.3859
 30
0.0000
 42
1.0000
  0
VERTEX
  8
21
 10
8.2191
 20
6.3141
 30
0.0000
  0
SEQEND
  8
0
  0
POLYLINE
  8
21
 66
1
 10
0.0000
 20
0.0000
 30
0.0000
 40
0.2032
 41
0.2032
 70
0
  0
VERTEX
  8
21
 10
8.8900
 20
5.7150
 30
0.0000
  0
VERTEX
  8
21
 10
8.8900
 20
4.4450
 30
0.0000
  0
SEQEND
  8
0
  0
POLYLINE
  8
21
 66
1
 10
0.0000
 20
0.0000
 30
0.0000
 40
0.1016
 41
0.1016
 70
0
  0
VERTEX
  8
21
 10
8.8392
 20
4.4450
 30
0.0000
 42
1.0000
  0
VERTEX
  8
21
 10
8.9408
 20
4.4450
 30
0.0000
  0
SEQEND
  8
0
  0
POLYLINE
  8
21
 66
1
 10
0.0000
 20
0.0000
 30
0.0000
 40
0.1016
 41
0.1016
 70
0
  0
VERTEX
  8
21
 10
8.9408
 20
5.7150
 30
0.0000
 42
1.0000
  0
VERTEX
  8
21
 10
8.8392
 20
5.7150
 30
0.0000
  0
SEQEND
  8
0
  0
POLYLINE
  8
21
 66
1
 10
0.0000
 20
0.0000
 30
0.0000
 40
0.2032
 41
0.2032
 70
0
  0
VERTEX
  8
21
 10
8.8900
 20
4.4450
 30
0.0000
  0
VERTEX
  8
21
 10
8.2550
 20
3.8100
 30
0.0000
  0
SEQEND
  8
0
  0
POLYLINE
  8
21
 66
1
 10
0.0000
 20
0.0000
 30
0.0000
 40
0.1016
 41
0.1016
 70
0
  0
VERTEX
  8
21
 10
8.2191
 20
3.8459
 30
0.0000
 42
1.0000
  0
VERTEX
  8
21
 10
8.2909
 20
3.7741
 30
0.0000
  0
SEQEND
  8
0
  0
POLYLINE
  8
21
 66
1
 10
0.0000
 20
0.0000
 30
0.0000
 40
0.1016
 41
0.1016
 70
0
  0
VERTEX
  8
21
 10
8.9259
 20
4.4091
 30
0.0000
 42
1.0000
  0
VERTEX
  8
21
 10
8.8541
 20
4.4809
 30
0.0000
  0
SEQEND
  8
0
  0
POLYLINE
  8
21
 66
1
 10
0.0000
 20
0.0000
 30
0.0000
 40
0.2032
 41
0.2032
 70
0
  0
VERTEX
  8
21
 10
6.9850
 20
3.8100
 30
0.0000
  0
VERTEX
  8
21
 10
6.3500
 20
4.4450
 30
0.0000
  0
SEQEND
  8
0
  0
POLYLINE
  8
21
 66
1
 10
0.0000
 20
0.0000
 30
0.0000
 40
0.1016
 41
0.1016
 70
0
  0
VERTEX
  8
21
 10
6.3859
 20
4.4809
 30
0.0000
 42
1.0000
  0
VERTEX
  8
21
 10
6.3141
 20
4.4091
 30
0.0000
  0
SEQEND
  8
0
  0
POLYLINE
  8
21
 66
1
 10
0.0000
 20
0.0000
 30
0.0000
 40
0.1016
 41
0.1016
 70
0
  0
VERTEX
  8
21
 10
6.9491
 20
3.7741
 30
0.0000
 42
1.0000
  0
VERTEX
  8
21
 10
7.0209
 20
3.8459
 30
0.0000
  0
SEQEND
  8
0
  0
POLYLINE
  8
21
 66
1
 10
0.0000
 20
0.0000
 30
0.0000
 40
0.2032
 41
0.2032
 70
0
  0
VERTEX
  8
21
 10
6.3500
 20
4.4450
 30
0.0000
  0
VERTEX
  8
21
 10
6.3500
 20
5.7150
 30
0.0000
  0
SEQEND
  8
0
  0
POLYLINE
  8
21
 66
1
 10
0.0000
 20
0.0000
 30
0.0000
 40
0.1016
 41
0.1016
 70
0
  0
VERTEX
  8
21
 10
6.4008
 20
5.7150
 30
0.0000
 42
1.0000
  0
VERTEX
  8
21
 10
6.2992
 20
5.7150
 30
0.0000
  0
SEQEND
  8
0
  0
POLYLINE
  8
21
 66
1
 10
0.0000
 20
0.0000
 30
0.0000
 40
0.1016
 41
0.1016
 70
0
  0
VERTEX
  8
21
 10
6.2992
 20
4.4450
 30
0.0000
 42
1.0000
  0
VERTEX
  8
21
 10
6.4008
 20
4.4450
 30
0.0000
  0
SEQEND
  8
0
  0
POLYLINE
  8
21
 66
1
 10
0.0000
 20
0.0000
 30
0.0000
 40
0.2032
 41
0.2032
 70
0
  0
VERTEX
  8
21
 10
6.3500
 20
5.7150
 30
0.0000
  0
VERTEX
  8
21
 10
6.9850
 20
6.3500
 30
0.0000
  0
SEQEND
  8
0
  0
POLYLINE
  8
21
 66
1
 10
0.0000
 20
0.0000
 30
0.0000
 40
0.1016
 41
0.1016
 70
0
  0
VERTEX
  8
21
 10
7.0209
 20
6.3141
 30
0.0000
 42
1.0000
  0
VERTEX
  8
21
 10
6.9491
 20
6.3859
 30
0.0000
  0
SEQEND
  8
0
  0
POLYLINE
  8
21
 66
1
 10
0.0000
 20
0.0000
 30
0.0000
 40
0.1016
 41
0.1016
 70
0
  0
VERTEX
  8
21
 10
6.3141
 20
5.7509
 30
0.0000
 42
1.0000
  0
VERTEX
  8
21
 10
6.3859
 20
5.6791
 30
0.0000
  0
SEQEND
  8
0
  0
POLYLINE
  8
21
 66
1
 10
0.0000
 20
0.0000
 30
0.0000
 40
0.2032
 41
0.2032
 70
0
  0
VERTEX
  8
21
 10
8.8900
 20
3.1750
 30
0.0000
  0
VERTEX
  8
21
 10
8.2550
 20
3.8100
 30
0.0000
  0
SEQEND
  8
0
  0
POLYLINE
  8
21
 66
1
 10
0.0000
 20
0.0000
 30
0.0000
 40
0.1016
 41
0.1016
 70
0
  0
VERTEX
  8
21
 10
8.2909
 20
3.8459
 30
0.0000
 42
1.0000
  0
VERTEX
  8
21
 10
8.2191
 20
3.7741
 30
0.0000
  0
SEQEND
  8
0
  0
POLYLINE
  8
21
 66
1
 10
0.0000
 20
0.0000
 30
0.0000
 40
0.1016
 41
0.1016
 70
0
  0
VERTEX
  8
21
 10
8.8541
 20
3.1391
 30
0.0000
 42
1.0000
  0
VERTEX
  8
21
 10
8.9259
 20
3.2109
 30
0.0000
  0
SEQEND
  8
0
  0
POLYLINE
  8
21
 66
1
 10
0.0000
 20
0.0000
 30
0.0000
 40
0.2032
 41
0.2032
 70
0
  0
VERTEX
  8
21
 10
6.9850
 20
3.8100
 30
0.0000
  0
VERTEX
  8
21
 10
6.3500
 20
3.1750
 30
0.0000
  0
SEQEND
  8
0
  0
POLYLINE
  8
21
 66
1
 10
0.0000
 20
0.0000
 30
0.0000
 40
0.1016
 41
0.1016
 70
0
  0
VERTEX
  8
21
 10
6.3141
 20
3.2109
 30
0.0000
 42
1.0000
  0
VERTEX
  8
21
 10
6.3859
 20
3.1391
 30
0.0000
  0
SEQEND
  8
0
  0
POLYLINE
  8
21
 66
1
 10
0.0000
 20
0.0000
 30
0.0000
 40
0.1016
 41
0.1016
 70
0
  0
VERTEX
  8
21
 10
7.0209
 20
3.7741
 30
0.0000
 42
1.0000
  0
VERTEX
  8
21
 10
6.9491
 20
3.8459
 30
0.0000
  0
SEQEND
  8
0
  0
POLYLINE
  8
21
 66
1
 10
0.0000
 20
0.0000
 30
0.0000
 40
0.2032
 41
0.2032
 70
0
  0
VERTEX
  8
21
 10
6.3500
 20
1.9050
 30
0.0000
  0
VERTEX
  8
21
 10
6.3500
 20
3.1750
 30
0.0000
  0
SEQEND
  8
0
  0
POLYLINE
  8
21
 66
1
 10
0.0000
 20
0.0000
 30
0.0000
 40
0.1016
 41
0.1016
 70
0
  0
VERTEX
  8
21
 10
6.4008
 20
3.1750
 30
0.0000
 42
1.0000
  0
VERTEX
  8
21
 10
6.2992
 20
3.1750
 30
0.0000
  0
SEQEND
  8
0
  0
POLYLINE
  8
21
 66
1
 10
0.0000
 20
0.0000
 30
0.0000
 40
0.1016
 41
0.1016
 70
0
  0
VERTEX
  8
21
 10
6.2992
 20
1.9050
 30
0.0000
 42
1.0000
  0
VERTEX
  8
21
 10
6.4008
 20
1.9050
 30
0.0000
  0
SEQEND
  8
0
  0
POLYLINE
  8
21
 66
1
 10
0.0000
 20
0.0000
 30
0.0000
 40
0.2032
 41
0.2032
 70
0
  0
VERTEX
  8
21
 10
8.8900
 20
10.7950
 30
0.0000
  0
VERTEX
  8
21
 10
8.8900
 20
9.5250
 30
0.0000
  0
SEQEND
  8
0
  0
POLYLINE
  8
21
 66
1
 10
0.0000
 20
0.0000
 30
0.0000
 40
0.1016
 41
0.1016
 70
0
  0
VERTEX
  8
21
 10
8.8392
 20
9.5250
 30
0.0000
 42
1.0000
  0
VERTEX
  8
21
 10
8.9408
 20
9.5250
 30
0.0000
  0
SEQEND
  8
0
  0
POLYLINE
  8
21
 66
1
 10
0.0000
 20
0.0000
 30
0.0000
 40
0.1016
 41
0.1016
 70
0
  0
VERTEX
  8
21
 10
8.9408
 20
10.7950
 30
0.0000
 42
1.0000
  0
VERTEX
  8
21
 10
8.8392
 20
10.7950
 30
0.0000
  0
SEQEND
  8
0
  0
POLYLINE
  8
21
 66
1
 10
0.0000
 20
0.0000
 30
0.0000
 40
0.2032
 41
0.2032
 70
0
  0
VERTEX
  8
21
 10
8.8900
 20
9.5250
 30
0.0000
  0
VERTEX
  8
21
 10
8.2550
 20
8.8900
 30
0.0000
  0
SEQEND
  8
0
  0
POLYLINE
  8
21
 66
1
 10
0.0000
 20
0.0000
 30
0.0000
 40
0.1016
 41
0.1016
 70
0
  0
VERTEX
  8
21
 10
8.2191
 20
8.9259
 30
0.0000
 42
1.0000
  0
VERTEX
  8
21
 10
8.2909
 20
8.8541
 30
0.0000
  0
SEQEND
  8
0
  0
POLYLINE
  8
21
 66
1
 10
0.0000
 20
0.0000
 30
0.0000
 40
0.1016
 41
0.1016
 70
0
  0
VERTEX
  8
21
 10
8.9259
 20
9.4891
 30
0.0000
 42
1.0000
  0
VERTEX
  8
21
 10
8.8541
 20
9.5609
 30
0.0000
  0
SEQEND
  8
0
  0
POLYLINE
  8
21
 66
1
 10
0.0000
 20
0.0000
 30
0.0000
 40
0.2032
 41
0.2032
 70
0
  0
VERTEX
  8
21
 10
6.9850
 20
8.8900
 30
0.0000
  0
VERTEX
  8
21
 10
6.3500
 20
9.5250
 30
0.0000
  0
SEQEND
  8
0
  0
POLYLINE
  8
21
 66
1
 10
0.0000
 20
0.0000
 30
0.0000
 40
0.1016
 41
0.1016
 70
0
  0
VERTEX
  8
21
 10
6.3859
 20
9.5609
 30
0.0000
 42
1.0000
  0
VERTEX
  8
21
 10
6.3141
 20
9.4891
 30
0.0000
  0
SEQEND
  8
0
  0
POLYLINE
  8
21
 66
1
 10
0.0000
 20
0.0000
 30
0.0000
 40
0.1016
 41
0.1016
 70
0
  0
VERTEX
  8
21
 10
6.9491
 20
8.8541
 30
0.0000
 42
1.0000
  0
VERTEX
  8
21
 10
7.0209
 20
8.9259
 30
0.0000
  0
SEQEND
  8
0
  0
POLYLINE
  8
21
 66
1
 10
0.0000
 20
0.0000
 30
0.0000
 40
0.2032
 41
0.2032
 70
0
  0
VERTEX
  8
21
 10
8.2550
 20
8.8900
 30
0.0000
  0
VERTEX
  8
21
 10
8.8900
 20
8.2550
 30
0.0000
  0
SEQEND
  8
0
  0
POLYLINE
  8
21
 66
1
 10
0.0000
 20
0.0000
 30
0.0000
 40
0.1016
 41
0.1016
 70
0
  0
VERTEX
  8
21
 10
8.8541
 20
8.2191
 30
0.0000
 42
1.0000
  0
VERTEX
  8
21
 10
8.9259
 20
8.2909
 30
0.0000
  0
SEQEND
  8
0
  0
POLYLINE
  8
21
 66
1
 10
0.0000
 20
0.0000
 30
0.0000
 40
0.1016
 41
0.1016
 70
0
  0
VERTEX
  8
21
 10
8.2909
 20
8.9259
 30
0.0000
 42
1.0000
  0
VERTEX
  8
21
 10
8.2191
 20
8.8541
 30
0.0000
  0
SEQEND
  8
0
  0
POLYLINE
  8
21
 66
1
 10
0.0000
 20
0.0000
 30
0.0000
 40
0.2032
 41
0.2032
 70
0
  0
VERTEX
  8
21
 10
8.8900
 20
8.2550
 30
0.0000
  0
VERTEX
  8
21
 10
8.8900
 20
6.9850
 30
0.0000
  0
SEQEND
  8
0
  0
POLYLINE
  8
21
 66
1
 10
0.0000
 20
0.0000
 30
0.0000
 40
0.1016
 41
0.1016
 70
0
  0
VERTEX
  8
21
 10
8.8392
 20
6.9850
 30
0.0000
 42
1.0000
  0
VERTEX
  8
21
 10
8.9408
 20
6.9850
 30
0.0000
  0
SEQEND
  8
0
  0
POLYLINE
  8
21
 66
1
 10
0.0000
 20
0.0000
 30
0.0000
 40
0.1016
 41
0.1016
 70
0
  0
VERTEX
  8
21
 10
8.9408
 20
8.2550
 30
0.0000
 42
1.0000
  0
VERTEX
  8
21
 10
8.8392
 20
8.2550
 30
0.0000
  0
SEQEND
  8
0
  0
POLYLINE
  8
21
 66
1
 10
0.0000
 20
0.0000
 30
0.0000
 40
0.2032
 41
0.2032
 70
0
  0
VERTEX
  8
21
 10
8.8900
 20
6.9850
 30
0.0000
  0
VERTEX
  8
21
 10
8.2550
 20
6.3500
 30
0.0000
  0
SEQEND
  8
0
  0
POLYLINE
  8
21
 66
1
 10
0.0000
 20
0.0000
 30
0.0000
 40
0.1016
 41
0.1016
 70
0
  0
VERTEX
  8
21
 10
8.2191
 20
6.3859
 30
0.0000
 42
1.0000
  0
VERTEX
  8
21
 10
8.2909
 20
6.3141
 30
0.0000
  0
SEQEND
  8
0
  0
POLYLINE
  8
21
 66
1
 10
0.0000
 20
0.0000
 30
0.0000
 40
0.1016
 41
0.1016
 70
0
  0
VERTEX
  8
21
 10
8.9259
 20
6.9491
 30
0.0000
 42
1.0000
  0
VERTEX
  8
21
 10
8.8541
 20
7.0209
 30
0.0000
  0
SEQEND
  8
0
  0
POLYLINE
  8
21
 66
1
 10
0.0000
 20
0.0000
 30
0.0000
 40
0.2032
 41
0.2032
 70
0
  0
VERTEX
  8
21
 10
6.9850
 20
6.3500
 30
0.0000
  0
VERTEX
  8
21
 10
6.3500
 20
6.9850
 30
0.0000
  0
SEQEND
  8
0
  0
POLYLINE
  8
21
 66
1
 10
0.0000
 20
0.0000
 30
0.0000
 40
0.1016
 41
0.1016
 70
0
  0
VERTEX
  8
21
 10
6.3859
 20
7.0209
 30
0.0000
 42
1.0000
  0
VERTEX
  8
21
 10
6.3141
 20
6.9491
 30
0.0000
  0
SEQEND
  8
0
  0
POLYLINE
  8
21
 66
1
 10
0.0000
 20
0.0000
 30
0.0000
 40
0.1016
 41
0.1016
 70
0
  0
VERTEX
  8
21
 10
6.9491
 20
6.3141
 30
0.0000
 42
1.0000
  0
VERTEX
  8
21
 10
7.0209
 20
6.3859
 30
0.0000
  0
SEQEND
  8
0
  0
POLYLINE
  8
21
 66
1
 10
0.0000
 20
0.0000
 30
0.0000
 40
0.2032
 41
0.2032
 70
0
  0
VERTEX
  8
21
 10
6.3500
 20
6.9850
 30
0.0000
  0
VERTEX
  8
21
 10
6.3500
 20
8.2550
 30
0.0000
  0
SEQEND
  8
0
  0
POLYLINE
  8
21
 66
1
 10
0.0000
 20
0.0000
 30
0.0000
 40
0.1016
 41
0.1016
 70
0
  0
VERTEX
  8
21
 10
6.4008
 20
8.2550
 30
0.0000
 42
1.0000
  0
VERTEX
  8
21
 10
6.2992
 20
8.2550
 30
0.0000
  0
SEQEND
  8
0
  0
POLYLINE
  8
21
 66
1
 10
0.0000
 20
0.0000
 30
0.0000
 40
0.1016
 41
0.1016
 70
0
  0
VERTEX
  8
21
 10
6.2992
 20
6.9850
 30
0.0000
 42
1.0000
  0
VERTEX
  8
21
 10
6.4008
 20
6.9850
 30
0.0000
  0
SEQEND
  8
0
  0
POLYLINE
  8
21
 66
1
 10
0.0000
 20
0.0000
 30
0.0000
 40
0.2032
 41
0.2032
 70
0
  0
VERTEX
  8
21
 10
6.3500
 20
8.2550
 30
0.0000
  0
VERTEX
  8
21
 10
6.9850
 20
8.8900
 30
0.0000
  0
SEQEND
  8
0
  0
POLYLINE
  8
21
 66
1
 10
0.0000
 20
0.0000
 30
0.0000
 40
0.1016
 41
0.1016
 70
0
  0
VERTEX
  8
21
 10
7.0209
 20
8.8541
 30
0.0000
 42
1.0000
  0
VERTEX
  8
21
 10
6.9491
 20
8.9259
 30
0.0000
  0
SEQEND
  8
0
  0
POLYLINE
  8
21
 66
1
 10
0.0000
 20
0.0000
 30
0.0000
 40
0.1016
 41
0.1016
 70
0
  0
VERTEX
  8
21
 10
6.3141
 20
8.2909
 30
0.0000
 42
1.0000
  0
VERTEX
  8
21
 10
6.3859
 20
8.2191
 30
0.0000
  0
SEQEND
  8
0
  0
POLYLINE
  8
21
 66
1
 10
0.0000
 20
0.0000
 30
0.0000
 40
0.2032
 41
0.2032
 70
0
  0
VERTEX
  8
21
 10
8.2550
 20
13.9700
 30
0.0000
  0
VERTEX
  8
21
 10
8.8900
 20
13.3350
 30
0.0000
  0
SEQEND
  8
0
  0
POLYLINE
  8
21
 66
1
 10
0.0000
 20
0.0000
 30
0.0000
 40
0.1016
 41
0.1016
 70
0
  0
VERTEX
  8
21
 10
8.8541
 20
13.2991
 30
0.0000
 42
1.0000
  0
VERTEX
  8
21
 10
8.9259
 20
13.3709
 30
0.0000
  0
SEQEND
  8
0
  0
POLYLINE
  8
21
 66
1
 10
0.0000
 20
0.0000
 30
0.0000
 40
0.1016
 41
0.1016
 70
0
  0
VERTEX
  8
21
 10
8.2909
 20
14.0059
 30
0.0000
 42
1.0000
  0
VERTEX
  8
21
 10
8.2191
 20
13.9341
 30
0.0000
  0
SEQEND
  8
0
  0
POLYLINE
  8
21
 66
1
 10
0.0000
 20
0.0000
 30
0.0000
 40
0.2032
 41
0.2032
 70
0
  0
VERTEX
  8
21
 10
8.8900
 20
13.3350
 30
0.0000
  0
VERTEX
  8
21
 10
8.8900
 20
12.0650
 30
0.0000
  0
SEQEND
  8
0
  0
POLYLINE
  8
21
 66
1
 10
0.0000
 20
0.0000
 30
0.0000
 40
0.1016
 41
0.1016
 70
0
  0
VERTEX
  8
21
 10
8.8392
 20
12.0650
 30
0.0000
 42
1.0000
  0
VERTEX
  8
21
 10
8.9408
 20
12.0650
 30
0.0000
  0
SEQEND
  8
0
  0
POLYLINE
  8
21
 66
1
 10
0.0000
 20
0.0000
 30
0.0000
 40
0.1016
 41
0.1016
 70
0
  0
VERTEX
  8
21
 10
8.9408
 20
13.3350
 30
0.0000
 42
1.0000
  0
VERTEX
  8
21
 10
8.8392
 20
13.3350
 30
0.0000
  0
SEQEND
  8
0
  0
POLYLINE
  8
21
 66
1
 10
0.0000
 20
0.0000
 30
0.0000
 40
0.2032
 41
0.2032
 70
0
  0
VERTEX
  8
21
 10
8.8900
 20
12.0650
 30
0.0000
  0
VERTEX
  8
21
 10
8.2550
 20
11.4300
 30
0.0000
  0
SEQEND
  8
0
  0
POLYLINE
  8
21
 66
1
 10
0.0000
 20
0.0000
 30
0.0000
 40
0.1016
 41
0.1016
 70
0
  0
VERTEX
  8
21
 10
8.2191
 20
11.4659
 30
0.0000
 42
1.0000
  0
VERTEX
  8
21
 10
8.2909
 20
11.3941
 30
0.0000
  0
SEQEND
  8
0
  0
POLYLINE
  8
21
 66
1
 10
0.0000
 20
0.0000
 30
0.0000
 40
0.1016
 41
0.1016
 70
0
  0
VERTEX
  8
21
 10
8.9259
 20
12.0291
 30
0.0000
 42
1.0000
  0
VERTEX
  8
21
 10
8.8541
 20
12.1009
 30
0.0000
  0
SEQEND
  8
0
  0
POLYLINE
  8
21
 66
1
 10
0.0000
 20
0.0000
 30
0.0000
 40
0.2032
 41
0.2032
 70
0
  0
VERTEX
  8
21
 10
6.9850
 20
11.4300
 30
0.0000
  0
VERTEX
  8
21
 10
6.3500
 20
12.0650
 30
0.0000
  0
SEQEND
  8
0
  0
POLYLINE
  8
21
 66
1
 10
0.0000
 20
0.0000
 30
0.0000
 40
0.1016
 41
0.1016
 70
0
  0
VERTEX
  8
21
 10
6.3859
 20
12.1009
 30
0.0000
 42
1.0000
  0
VERTEX
  8
21
 10
6.3141
 20
12.0291
 30
0.0000
  0
SEQEND
  8
0
  0
POLYLINE
  8
21
 66
1
 10
0.0000
 20
0.0000
 30
0.0000
 40
0.1016
 41
0.1016
 70
0
  0
VERTEX
  8
21
 10
6.9491
 20
11.3941
 30
0.0000
 42
1.0000
  0
VERTEX
  8
21
 10
7.0209
 20
11.4659
 30
0.0000
  0
SEQEND
  8
0
  0
POLYLINE
  8
21
 66
1
 10
0.0000
 20
0.0000
 30
0.0000
 40
0.2032
 41
0.2032
 70
0
  0
VERTEX
  8
21
 10
6.3500
 20
12.0650
 30
0.0000
  0
VERTEX
  8
21
 10
6.3500
 20
13.3350
 30
0.0000
  0
SEQEND
  8
0
  0
POLYLINE
  8
21
 66
1
 10
0.0000
 20
0.0000
 30
0.0000
 40
0.1016
 41
0.1016
 70
0
  0
VERTEX
  8
21
 10
6.4008
 20
13.3350
 30
0.0000
 42
1.0000
  0
VERTEX
  8
21
 10
6.2992
 20
13.3350
 30
0.0000
  0
SEQEND
  8
0
  0
POLYLINE
  8
21
 66
1
 10
0.0000
 20
0.0000
 30
0.0000
 40
0.1016
 41
0.1016
 70
0
  0
VERTEX
  8
21
 10
6.2992
 20
12.0650
 30
0.0000
 42
1.0000
  0
VERTEX
  8
21
 10
6.4008
 20
12.0650
 30
0.0000
  0
SEQEND
  8
0
  0
POLYLINE
  8
21
 66
1
 10
0.0000
 20
0.0000
 30
0.0000
 40
0.2032
 41
0.2032
 70
0
  0
VERTEX
  8
21
 10
6.3500
 20
13.3350
 30
0.0000
  0
VERTEX
  8
21
 10
6.9850
 20
13.9700
 30
0.0000
  0
SEQEND
  8
0
  0
POLYLINE
  8
21
 66
1
 10
0.0000
 20
0.0000
 30
0.0000
 40
0.1016
 41
0.1016
 70
0
  0
VERTEX
  8
21
 10
7.0209
 20
13.9341
 30
0.0000
 42
1.0000
  0
VERTEX
  8
21
 10
6.9491
 20
14.0059
 30
0.0000
  0
SEQEND
  8
0
  0
POLYLINE
  8
21
 66
1
 10
0.0000
 20
0.0000
 30
0.0000
 40
0.1016
 41
0.1016
 70
0
  0
VERTEX
  8
21
 10
6.3141
 20
13.3709
 30
0.0000
 42
1.0000
  0
VERTEX
  8
21
 10
6.3859
 20
13.2991
 30
0.0000
  0
SEQEND
  8
0
  0
POLYLINE
  8
21
 66
1
 10
0.0000
 20
0.0000
 30
0.0000
 40
0.2032
 41
0.2032
 70
0
  0
VERTEX
  8
21
 10
8.8900
 20
10.7950
 30
0.0000
  0
VERTEX
  8
21
 10
8.2550
 20
11.4300
 30
0.0000
  0
SEQEND
  8
0
  0
POLYLINE
  8
21
 66
1
 10
0.0000
 20
0.0000
 30
0.0000
 40
0.1016
 41
0.1016
 70
0
  0
VERTEX
  8
21
 10
8.2909
 20
11.4659
 30
0.0000
 42
1.0000
  0
VERTEX
  8
21
 10
8.2191
 20
11.3941
 30
0.0000
  0
SEQEND
  8
0
  0
POLYLINE
  8
21
 66
1
 10
0.0000
 20
0.0000
 30
0.0000
 40
0.1016
 41
0.1016
 70
0
  0
VERTEX
  8
21
 10
8.8541
 20
10.7591
 30
0.0000
 42
1.0000
  0
VERTEX
  8
21
 10
8.9259
 20
10.8309
 30
0.0000
  0
SEQEND
  8
0
  0
POLYLINE
  8
21
 66
1
 10
0.0000
 20
0.0000
 30
0.0000
 40
0.2032
 41
0.2032
 70
0
  0
VERTEX
  8
21
 10
6.9850
 20
11.4300
 30
0.0000
  0
VERTEX
  8
21
 10
6.3500
 20
10.7950
 30
0.0000
  0
SEQEND
  8
0
  0
POLYLINE
  8
21
 66
1
 10
0.0000
 20
0.0000
 30
0.0000
 40
0.1016
 41
0.1016
 70
0
  0
VERTEX
  8
21
 10
6.3141
 20
10.8309
 30
0.0000
 42
1.0000
  0
VERTEX
  8
21
 10
6.3859
 20
10.7591
 30
0.0000
  0
SEQEND
  8
0
  0
POLYLINE
  8
21
 66
1
 10
0.0000
 20
0.0000
 30
0.0000
 40
0.1016
 41
0.1016
 70
0
  0
VERTEX
  8
21
 10
7.0209
 20
11.3941
 30
0.0000
 42
1.0000
  0
VERTEX
  8
21
 10
6.9491
 20
11.4659
 30
0.0000
  0
SEQEND
  8
0
  0
POLYLINE
  8
21
 66
1
 10
0.0000
 20
0.0000
 30
0.0000
 40
0.2032
 41
0.2032
 70
0
  0
VERTEX
  8
21
 10
6.3500
 20
9.5250
 30
0.0000
  0
VERTEX
  8
21
 10
6.3500
 20
10.7950
 30
0.0000
  0
SEQEND
  8
0
  0
POLYLINE
  8
21
 66
1
 10
0.0000
 20
0.0000
 30
0.0000
 40
0.1016
 41
0.1016
 70
0
  0
VERTEX
  8
21
 10
6.4008
 20
10.7950
 30
0.0000
 42
1.0000
  0
VERTEX
  8
21
 10
6.2992
 20
10.7950
 30
0.0000
  0
SEQEND
  8
0
  0
POLYLINE
  8
21
 66
1
 10
0.0000
 20
0.0000
 30
0.0000
 40
0.1016
 41
0.1016
 70
0
  0
VERTEX
  8
21
 10
6.2992
 20
9.5250
 30
0.0000
 42
1.0000
  0
VERTEX
  8
21
 10
6.4008
 20
9.5250
 30
0.0000
  0
SEQEND
  8
0
  0
POLYLINE
  8
21
 66
1
 10
0.0000
 20
0.0000
 30
0.0000
 40
0.2032
 41
0.2032
 70
0
  0
VERTEX
  8
21
 10
8.8900
 20
18.4150
 30
0.0000
  0
VERTEX
  8
21
 10
8.8900
 20
17.1450
 30
0.0000
  0
SEQEND
  8
0
  0
POLYLINE
  8
21
 66
1
 10
0.0000
 20
0.0000
 30
0.0000
 40
0.1016
 41
0.1016
 70
0
  0
VERTEX
  8
21
 10
8.8392
 20
17.1450
 30
0.0000
 42
1.0000
  0
VERTEX
  8
21
 10
8.9408
 20
17.1450
 30
0.0000
  0
SEQEND
  8
0
  0
POLYLINE
  8
21
 66
1
 10
0.0000
 20
0.0000
 30
0.0000
 40
0.1016
 41
0.1016
 70
0
  0
VERTEX
  8
21
 10
8.9408
 20
18.4150
 30
0.0000
 42
1.0000
  0
VERTEX
  8
21
 10
8.8392
 20
18.4150
 30
0.0000
  0
SEQEND
  8
0
  0
POLYLINE
  8
21
 66
1
 10
0.0000
 20
0.0000
 30
0.0000
 40
0.2032
 41
0.2032
 70
0
  0
VERTEX
  8
21
 10
8.8900
 20
17.1450
 30
0.0000
  0
VERTEX
  8
21
 10
8.2550
 20
16.5100
 30
0.0000
  0
SEQEND
  8
0
  0
POLYLINE
  8
21
 66
1
 10
0.0000
 20
0.0000
 30
0.0000
 40
0.1016
 41
0.1016
 70
0
  0
VERTEX
  8
21
 10
8.2191
 20
16.5459
 30
0.0000
 42
1.0000
  0
VERTEX
  8
21
 10
8.2909
 20
16.4741
 30
0.0000
  0
SEQEND
  8
0
  0
POLYLINE
  8
21
 66
1
 10
0.0000
 20
0.0000
 30
0.0000
 40
0.1016
 41
0.1016
 70
0
  0
VERTEX
  8
21
 10
8.9259
 20
17.1091
 30
0.0000
 42
1.0000
  0
VERTEX
  8
21
 10
8.8541
 20
17.1809
 30
0.0000
  0
SEQEND
  8
0
  0
POLYLINE
  8
21
 66
1
 10
0.0000
 20
0.0000
 30
0.0000
 40
0.2032
 41
0.2032
 70
0
  0
VERTEX
  8
21
 10
6.9850
 20
16.5100
 30
0.0000
  0
VERTEX
  8
21
 10
6.3500
 20
17.1450
 30
0.0000
  0
SEQEND
  8
0
  0
POLYLINE
  8
21
 66
1
 10
0.0000
 20
0.0000
 30
0.0000
 40
0.1016
 41
0.1016
 70
0
  0
VERTEX
  8
21
 10
6.3859
 20
17.1809
 30
0.0000
 42
1.0000
  0
VERTEX
  8
21
 10
6.3141
 20
17.1091
 30
0.0000
  0
SEQEND
  8
0
  0
POLYLINE
  8
21
 66
1
 10
0.0000
 20
0.0000
 30
0.0000
 40
0.1016
 41
0.1016
 70
0
  0
VERTEX
  8
21
 10
6.9491
 20
16.4741
 30
0.0000
 42
1.0000
  0
VERTEX
  8
21
 10
7.0209
 20
16.5459
 30
0.0000
  0
SEQEND
  8
0
  0
POLYLINE
  8
21
 66
1
 10
0.0000
 20
0.0000
 30
0.0000
 40
0.2032
 41
0.2032
 70
0
  0
VERTEX
  8
21
 10
8.2550
 20
16.5100
 30
0.0000
  0
VERTEX
  8
21
 10
8.8900
 20
15.8750
 30
0.0000
  0
SEQEND
  8
0
  0
POLYLINE
  8
21
 66
1
 10
0.0000
 20
0.0000
 30
0.0000
 40
0.1016
 41
0.1016
 70
0
  0
VERTEX
  8
21
 10
8.8541
 20
15.8391
 30
0.0000
 42
1.0000
  0
VERTEX
  8
21
 10
8.9259
 20
15.9109
 30
0.0000
  0
SEQEND
  8
0
  0
POLYLINE
  8
21
 66
1
 10
0.0000
 20
0.0000
 30
0.0000
 40
0.1016
 41
0.1016
 70
0
  0
VERTEX
  8
21
 10
8.2909
 20
16.5459
 30
0.0000
 42
1.0000
  0
VERTEX
  8
21
 10
8.2191
 20
16.4741
 30
0.0000
  0
SEQEND
  8
0
  0
POLYLINE
  8
21
 66
1
 10
0.0000
 20
0.0000
 30
0.0000
 40
0.2032
 41
0.2032
 70
0
  0
VERTEX
  8
21
 10
8.8900
 20
15.8750
 30
0.0000
  0
VERTEX
  8
21
 10
8.8900
 20
14.6050
 30
0.0000
  0
SEQEND
  8
0
  0
POLYLINE
  8
21
 66
1
 10
0.0000
 20
0.0000
 30
0.0000
 40
0.1016
 41
0.1016
 70
0
  0
VERTEX
  8
21
 10
8.8392
 20
14.6050
 30
0.0000
 42
1.0000
  0
VERTEX
  8
21
 10
8.9408
 20
14.6050
 30
0.0000
  0
SEQEND
  8
0
  0
POLYLINE
  8
21
 66
1
 10
0.0000
 20
0.0000
 30
0.0000
 40
0.1016
 41
0.1016
 70
0
  0
VERTEX
  8
21
 10
8.9408
 20
15.8750
 30
0.0000
 42
1.0000
  0
VERTEX
  8
21
 10
8.8392
 20
15.8750
 30
0.0000
  0
SEQEND
  8
0
  0
POLYLINE
  8
21
 66
1
 10
0.0000
 20
0.0000
 30
0.0000
 40
0.2032
 41
0.2032
 70
0
  0
VERTEX
  8
21
 10
8.8900
 20
14.6050
 30
0.0000
  0
VERTEX
  8
21
 10
8.2550
 20
13.9700
 30
0.0000
  0
SEQEND
  8
0
  0
POLYLINE
  8
21
 66
1
 10
0.0000
 20
0.0000
 30
0.0000
 40
0.1016
 41
0.1016
 70
0
  0
VERTEX
  8
21
 10
8.2191
 20
14.0059
 30
0.0000
 42
1.0000
  0
VERTEX
  8
21
 10
8.2909
 20
13.9341
 30
0.0000
  0
SEQEND
  8
0
  0
POLYLINE
  8
21
 66
1
 10
0.0000
 20
0.0000
 30
0.0000
 40
0.1016
 41
0.1016
 70
0
  0
VERTEX
  8
21
 10
8.9259
 20
14.5691
 30
0.0000
 42
1.0000
  0
VERTEX
  8
21
 10
8.8541
 20
14.6409
 30
0.0000
  0
SEQEND
  8
0
  0
POLYLINE
  8
21
 66
1
 10
0.0000
 20
0.0000
 30
0.0000
 40
0.2032
 41
0.2032
 70
0
  0
VERTEX
  8
21
 10
6.9850
 20
13.9700
 30
0.0000
  0
VERTEX
  8
21
 10
6.3500
 20
14.6050
 30
0.0000
  0
SEQEND
  8
0
  0
POLYLINE
  8
21
 66
1
 10
0.0000
 20
0.0000
 30
0.0000
 40
0.1016
 41
0.1016
 70
0
  0
VERTEX
  8
21
 10
6.3859
 20
14.6409
 30
0.0000
 42
1.0000
  0
VERTEX
  8
21
 10
6.3141
 20
14.5691
 30
0.0000
  0
SEQEND
  8
0
  0
POLYLINE
  8
21
 66
1
 10
0.0000
 20
0.0000
 30
0.0000
 40
0.1016
 41
0.1016
 70
0
  0
VERTEX
  8
21
 10
6.9491
 20
13.9341
 30
0.0000
 42
1.0000
  0
VERTEX
  8
21
 10
7.0209
 20
14.0059
 30
0.0000
  0
SEQEND
  8
0
  0
POLYLINE
  8
21
 66
1
 10
0.0000
 20
0.0000
 30
0.0000
 40
0.2032
 41
0.2032
 70
0
  0
VERTEX
  8
21
 10
6.3500
 20
14.6050
 30
0.0000
  0
VERTEX
  8
21
 10
6.3500
 20
15.8750
 30
0.0000
  0
SEQEND
  8
0
  0
POLYLINE
  8
21
 66
1
 10
0.0000
 20
0.0000
 30
0.0000
 40
0.1016
 41
0.1016
 70
0
  0
VERTEX
  8
21
 10
6.4008
 20
15.8750
 30
0.0000
 42
1.0000
  0
VERTEX
  8
21
 10
6.2992
 20
15.8750
 30
0.0000
  0
SEQEND
  8
0
  0
POLYLINE
  8
21
 66
1
 10
0.0000
 20
0.0000
 30
0.0000
 40
0.1016
 41
0.1016
 70
0
  0
VERTEX
  8
21
 10
6.2992
 20
14.6050
 30
0.0000
 42
1.0000
  0
VERTEX
  8
21
 10
6.4008
 20
14.6050
 30
0.0000
  0
SEQEND
  8
0
  0
POLYLINE
  8
21
 66
1
 10
0.0000
 20
0.0000
 30
0.0000
 40
0.2032
 41
0.2032
 70
0
  0
VERTEX
  8
21
 10
6.3500
 20
15.8750
 30
0.0000
  0
VERTEX
  8
21
 10
6.9850
 20
16.5100
 30
0.0000
  0
SEQEND
  8
0
  0
POLYLINE
  8
21
 66
1
 10
0.0000
 20
0.0000
 30
0.0000
 40
0.1016
 41
0.1016
 70
0
  0
VERTEX
  8
21
 10
7.0209
 20
16.4741
 30
0.0000
 42
1.0000
  0
VERTEX
  8
21
 10
6.9491
 20
16.5459
 30
0.0000
  0
SEQEND
  8
0
  0
POLYLINE
  8
21
 66
1
 10
0.0000
 20
0.0000
 30
0.0000
 40
0.1016
 41
0.1016
 70
0
  0
VERTEX
  8
21
 10
6.3141
 20
15.9109
 30
0.0000
 42
1.0000
  0
VERTEX
  8
21
 10
6.3859
 20
15.8391
 30
0.0000
  0
SEQEND
  8
0
  0
POLYLINE
  8
21
 66
1
 10
0.0000
 20
0.0000
 30
0.0000
 40
0.2032
 41
0.2032
 70
0
  0
VERTEX
  8
21
 10
8.2550
 20
19.0500
 30
0.0000
  0
VERTEX
  8
21
 10
6.9850
 20
19.0500
 30
0.0000
  0
SEQEND
  8
0
  0
POLYLINE
  8
21
 66
1
 10
0.0000
 20
0.0000
 30
0.0000
 40
0.1016
 41
0.1016
 70
0
  0
VERTEX
  8
21
 10
6.9850
 20
19.1008
 30
0.0000
 42
1.0000
  0
VERTEX
  8
21
 10
6.9850
 20
18.9992
 30
0.0000
  0
SEQEND
  8
0
  0
POLYLINE
  8
21
 66
1
 10
0.0000
 20
0.0000
 30
0.0000
 40
0.1016
 41
0.1016
 70
0
  0
VERTEX
  8
21
 10
8.2550
 20
18.9992
 30
0.0000
 42
1.0000
  0
VERTEX
  8
21
 10
8.2550
 20
19.1008
 30
0.0000
  0
SEQEND
  8
0
  0
POLYLINE
  8
21
 66
1
 10
0.0000
 20
0.0000
 30
0.0000
 40
0.2032
 41
0.2032
 70
0
  0
VERTEX
  8
21
 10
8.8900
 20
18.4150
 30
0.0000
  0
VERTEX
  8
21
 10
8.2550
 20
19.0500
 30
0.0000
  0
SEQEND
  8
0
  0
POLYLINE
  8
21
 66
1
 10
0.0000
 20
0.0000
 30
0.0000
 40
0.1016
 41
0.1016
 70
0
  0
VERTEX
  8
21
 10
8.2909
 20
19.0859
 30
0.0000
 42
1.0000
  0
VERTEX
  8
21
 10
8.2191
 20
19.0141
 30
0.0000
  0
SEQEND
  8
0
  0
POLYLINE
  8
21
 66
1
 10
0.0000
 20
0.0000
 30
0.0000
 40
0.1016
 41
0.1016
 70
0
  0
VERTEX
  8
21
 10
8.8541
 20
18.3791
 30
0.0000
 42
1.0000
  0
VERTEX
  8
21
 10
8.9259
 20
18.4509
 30
0.0000
  0
SEQEND
  8
0
  0
POLYLINE
  8
21
 66
1
 10
0.0000
 20
0.0000
 30
0.0000
 40
0.2032
 41
0.2032
 70
0
  0
VERTEX
  8
21
 10
6.9850
 20
19.0500
 30
0.0000
  0
VERTEX
  8
21
 10
6.3500
 20
18.4150
 30
0.0000
  0
SEQEND
  8
0
  0
POLYLINE
  8
21
 66
1
 10
0.0000
 20
0.0000
 30
0.0000
 40
0.1016
 41
0.1016
 70
0
  0
VERTEX
  8
21
 10
6.3141
 20
18.4509
 30
0.0000
 42
1.0000
  0
VERTEX
  8
21
 10
6.3859
 20
18.3791
 30
0.0000
  0
SEQEND
  8
0
  0
POLYLINE
  8
21
 66
1
 10
0.0000
 20
0.0000
 30
0.0000
 40
0.1016
 41
0.1016
 70
0
  0
VERTEX
  8
21
 10
7.0209
 20
19.0141
 30
0.0000
 42
1.0000
  0
VERTEX
  8
21
 10
6.9491
 20
19.0859
 30
0.0000
  0
SEQEND
  8
0
  0
POLYLINE
  8
21
 66
1
 10
0.0000
 20
0.0000
 30
0.0000
 40
0.2032
 41
0.2032
 70
0
  0
VERTEX
  8
21
 10
6.3500
 20
17.1450
 30
0.0000
  0
VERTEX
  8
21
 10
6.3500
 20
18.4150
 30
0.0000
  0
SEQEND
  8
0
  0
POLYLINE
  8
21
 66
1
 10
0.0000
 20
0.0000
 30
0.0000
 40
0.1016
 41
0.1016
 70
0
  0
VERTEX
  8
21
 10
6.4008
 20
18.4150
 30
0.0000
 42
1.0000
  0
VERTEX
  8
21
 10
6.2992
 20
18.4150
 30
0.0000
  0
SEQEND
  8
0
  0
POLYLINE
  8
21
 66
1
 10
0.0000
 20
0.0000
 30
0.0000
 40
0.1016
 41
0.1016
 70
0
  0
VERTEX
  8
21
 10
6.2992
 20
17.1450
 30
0.0000
 42
1.0000
  0
VERTEX
  8
21
 10
6.4008
 20
17.1450
 30
0.0000
  0
SEQEND
  8
0
  0
POLYLINE
  8
21
 66
1
 10
0.0000
 20
0.0000
 30
0.0000
 40
0.2032
 41
0.2032
 70
0
  0
VERTEX
  8
21
 10
8.2550
 20
1.2700
 30
0.0000
  0
VERTEX
  8
21
 10
6.9850
 20
1.2700
 30
0.0000
  0
SEQEND
  8
0
  0
POLYLINE
  8
21
 66
1
 10
0.0000
 20
0.0000
 30
0.0000
 40
0.1016
 41
0.1016
 70
0
  0
VERTEX
  8
21
 10
6.9850
 20
1.3208
 30
0.0000
 42
1.0000
  0
VERTEX
  8
21
 10
6.9850
 20
1.2192
 30
0.0000
  0
SEQEND
  8
0
  0
POLYLINE
  8
21
 66
1
 10
0.0000
 20
0.0000
 30
0.0000
 40
0.1016
 41
0.1016
 70
0
  0
VERTEX
  8
21
 10
8.2550
 20
1.2192
 30
0.0000
 42
1.0000
  0
VERTEX
  8
21
 10
8.2550
 20
1.3208
 30
0.0000
  0
SEQEND
  8
0
  0
INSERT
  8
51
  2
RECT
 10
7.6200
 20
2.5400
 30
0.0000
 41
0.5080
 42
0.5080
 43
1.0000
 50
270.0000
  0
INSERT
  8
51
  2
RECT
 10
7.6200
 20
5.0800
 30
0.0000
 41
0.5080
 42
0.5080
 43
1.0000
 50
270.0000
  0
INSERT
  8
51
  2
RECT
 10
7.6200
 20
7.6200
 30
0.0000
 41
0.5080
 42
0.5080
 43
1.0000
 50
270.0000
  0
INSERT
  8
51
  2
RECT
 10
7.6200
 20
10.1600
 30
0.0000
 41
0.5080
 42
0.5080
 43
1.0000
 50
270.0000
  0
INSERT
  8
51
  2
RECT
 10
7.6200
 20
12.7000
 30
0.0000
 41
0.5080
 42
0.5080
 43
1.0000
 50
270.0000
  0
INSERT
  8
51
  2
RECT
 10
7.6200
 20
15.2400
 30
0.0000
 41
0.5080
 42
0.5080
 43
1.0000
 50
270.0000
  0
INSERT
  8
51
  2
RECT
 10
7.6200
 20
17.7800
 30
0.0000
 41
0.5080
 42
0.5080
 43
1.0000
 50
270.0000
  0
INSERT
  8
17
  2
ROUNDP
 10
7.6200
 20
17.7800
 30
0.0000
 41
1.8796
 42
1.8796
 43
1.0000
 50
0.0000
  0
INSERT
  8
17
  2
ROUNDP
 10
7.6200
 20
17.7800
 30
0.0000
 41
1.8796
 42
1.8796
 43
1.0000
 50
0.0000
  0
INSERT
  8
17
  2
ROUNDP
 10
7.6200
 20
15.2400
 30
0.0000
 41
1.8796
 42
1.8796
 43
1.0000
 50
0.0000
  0
INSERT
  8
17
  2
ROUNDP
 10
7.6200
 20
15.2400
 30
0.0000
 41
1.8796
 42
1.8796
 43
1.0000
 50
0.0000
  0
INSERT
  8
17
  2
ROUNDP
 10
7.6200
 20
12.7000
 30
0.0000
 41
1.8796
 42
1.8796
 43
1.0000
 50
0.0000
  0
INSERT
  8
17
  2
ROUNDP
 10
7.6200
 20
12.7000
 30
0.0000
 41
1.8796
 42
1.8796
 43
1.0000
 50
0.0000
  0
INSERT
  8
17
  2
ROUNDP
 10
7.6200
 20
10.1600
 30
0.0000
 41
1.8796
 42
1.8796
 43
1.0000
 50
0.0000
  0
INSERT
  8
17
  2
ROUNDP
 10
7.6200
 20
10.1600
 30
0.0000
 41
1.8796
 42
1.8796
 43
1.0000
 50
0.0000
  0
INSERT
  8
17
  2
ROUNDP
 10
7.6200
 20
7.6200
 30
0.0000
 41
1.8796
 42
1.8796
 43
1.0000
 50
0.0000
  0
INSERT
  8
17
  2
ROUNDP
 10
7.6200
 20
7.6200
 30
0.0000
 41
1.8796
 42
1.8796
 43
1.0000
 50
0.0000
  0
INSERT
  8
17
  2
ROUNDP
 10
7.6200
 20
5.0800
 30
0.0000
 41
1.8796
 42
1.8796
 43
1.0000
 50
0.0000
  0
INSERT
  8
17
  2
ROUNDP
 10
7.6200
 20
5.0800
 30
0.0000
 41
1.8796
 42
1.8796
 43
1.0000
 50
0.0000
  0
INSERT
  8
17
  2
ROUNDP
 10
7.6200
 20
2.5400
 30
0.0000
 41
1.8796
 42
1.8796
 43
1.0000
 50
0.0000
  0
INSERT
  8
17
  2
ROUNDP
 10
7.6200
 20
2.5400
 30
0.0000
 41
1.8796
 42
1.8796
 43
1.0000
 50
0.0000
  0
POINT
  8
23
 10
20.3200
 20
2.4800
 30
0.0000
  0
POLYLINE
  8
21
 66
1
 10
0.0000
 20
0.0000
 30
0.0000
 40
0.2032
 41
0.2032
 70
0
  0
VERTEX
  8
21
 10
19.0500
 20
17.0850
 30
0.0000
  0
VERTEX
  8
21
 10
19.0500
 20
18.3550
 30
0.0000
  0
SEQEND
  8
0
  0
POLYLINE
  8
21
 66
1
 10
0.0000
 20
0.0000
 30
0.0000
 40
0.1016
 41
0.1016
 70
0
  0
VERTEX
  8
21
 10
19.1008
 20
18.3550
 30
0.0000
 42
1.0000
  0
VERTEX
  8
21
 10
18.9992
 20
18.3550
 30
0.0000
  0
SEQEND
  8
0
  0
POLYLINE
  8
21
 66
1
 10
0.0000
 20
0.0000
 30
0.0000
 40
0.1016
 41
0.1016
 70
0
  0
VERTEX
  8
21
 10
18.9992
 20
17.0850
 30
0.0000
 42
1.0000
  0
VERTEX
  8
21
 10
19.1008
 20
17.0850
 30
0.0000
  0
SEQEND
  8
0
  0
POLYLINE
  8
21
 66
1
 10
0.0000
 20
0.0000
 30
0.0000
 40
0.2032
 41
0.2032
 70
0
  0
VERTEX
  8
21
 10
19.0500
 20
18.3550
 30
0.0000
  0
VERTEX
  8
21
 10
19.6850
 20
18.9900
 30
0.0000
  0
SEQEND
  8
0
  0
POLYLINE
  8
21
 66
1
 10
0.0000
 20
0.0000
 30
0.0000
 40
0.1016
 41
0.1016
 70
0
  0
VERTEX
  8
21
 10
19.7209
 20
18.9541
 30
0.0000
 42
1.0000
  0
VERTEX
  8
21
 10
19.6491
 20
19.0259
 30
0.0000
  0
SEQEND
  8
0
  0
POLYLINE
  8
21
 66
1
 10
0.0000
 20
0.0000
 30
0.0000
 40
0.1016
 41
0.1016
 70
0
  0
VERTEX
  8
21
 10
19.0141
 20
18.3909
 30
0.0000
 42
1.0000
  0
VERTEX
  8
21
 10
19.0859
 20
18.3191
 30
0.0000
  0
SEQEND
  8
0
  0
POLYLINE
  8
21
 66
1
 10
0.0000
 20
0.0000
 30
0.0000
 40
0.2032
 41
0.2032
 70
0
  0
VERTEX
  8
21
 10
20.9550
 20
18.9900
 30
0.0000
  0
VERTEX
  8
21
 10
21.5900
 20
18.3550
 30
0.0000
  0
SEQEND
  8
0
  0
POLYLINE
  8
21
 66
1
 10
0.0000
 20
0.0000
 30
0.0000
 40
0.1016
 41
0.1016
 70
0
  0
VERTEX
  8
21
 10
21.5541
 20
18.3191
 30
0.0000
 42
1.0000
  0
VERTEX
  8
21
 10
21.6259
 20
18.3909
 30
0.0000
  0
SEQEND
  8
0
  0
POLYLINE
  8
21
 66
1
 10
0.0000
 20
0.0000
 30
0.0000
 40
0.1016
 41
0.1016
 70
0
  0
VERTEX
  8
21
 10
20.9909
 20
19.0259
 30
0.0000
 42
1.0000
  0
VERTEX
  8
21
 10
20.9191
 20
18.9541
 30
0.0000
  0
SEQEND
  8
0
  0
POLYLINE
  8
21
 66
1
 10
0.0000
 20
0.0000
 30
0.0000
 40
0.2032
 41
0.2032
 70
0
  0
VERTEX
  8
21
 10
19.6850
 20
13.9100
 30
0.0000
  0
VERTEX
  8
21
 10
19.0500
 20
14.5450
 30
0.0000
  0
SEQEND
  8
0
  0
POLYLINE
  8
21
 66
1
 10
0.0000
 20
0.0000
 30
0.0000
 40
0.1016
 41
0.1016
 70
0
  0
VERTEX
  8
21
 10
19.0859
 20
14.5809
 30
0.0000
 42
1.0000
  0
VERTEX
  8
21
 10
19.0141
 20
14.5091
 30
0.0000
  0
SEQEND
  8
0
  0
POLYLINE
  8
21
 66
1
 10
0.0000
 20
0.0000
 30
0.0000
 40
0.1016
 41
0.1016
 70
0
  0
VERTEX
  8
21
 10
19.6491
 20
13.8741
 30
0.0000
 42
1.0000
  0
VERTEX
  8
21
 10
19.7209
 20
13.9459
 30
0.0000
  0
SEQEND
  8
0
  0
POLYLINE
  8
21
 66
1
 10
0.0000
 20
0.0000
 30
0.0000
 40
0.2032
 41
0.2032
 70
0
  0
VERTEX
  8
21
 10
19.0500
 20
14.5450
 30
0.0000
  0
VERTEX
  8
21
 10
19.0500
 20
15.8150
 30
0.0000
  0
SEQEND
  8
0
  0
POLYLINE
  8
21
 66
1
 10
0.0000
 20
0.0000
 30
0.0000
 40
0.1016
 41
0.1016
 70
0
  0
VERTEX
  8
21
 10
19.1008
 20
15.8150
 30
0.0000
 42
1.0000
  0
VERTEX
  8
21
 10
18.9992
 20
15.8150
 30
0.0000
  0
SEQEND
  8
0
  0
POLYLINE
  8
21
 66
1
 10
0.0000
 20
0.0000
 30
0.0000
 40
0.1016
 41
0.1016
 70
0
  0
VERTEX
  8
21
 10
18.9992
 20
14.5450
 30
0.0000
 42
1.0000
  0
VERTEX
  8
21
 10
19.1008
 20
14.5450
 30
0.0000
  0
SEQEND
  8
0
  0
POLYLINE
  8
21
 66
1
 10
0.0000
 20
0.0000
 30
0.0000
 40
0.2032
 41
0.2032
 70
0
  0
VERTEX
  8
21
 10
19.0500
 20
15.8150
 30
0.0000
  0
VERTEX
  8
21
 10
19.6850
 20
16.4500
 30
0.0000
  0
SEQEND
  8
0
  0
POLYLINE
  8
21
 66
1
 10
0.0000
 20
0.0000
 30
0.0000
 40
0.1016
 41
0.1016
 70
0
  0
VERTEX
  8
21
 10
19.7209
 20
16.4141
 30
0.0000
 42
1.0000
  0
VERTEX
  8
21
 10
19.6491
 20
16.4859
 30
0.0000
  0
SEQEND
  8
0
  0
POLYLINE
  8
21
 66
1
 10
0.0000
 20
0.0000
 30
0.0000
 40
0.1016
 41
0.1016
 70
0
  0
VERTEX
  8
21
 10
19.0141
 20
15.8509
 30
0.0000
 42
1.0000
  0
VERTEX
  8
21
 10
19.0859
 20
15.7791
 30
0.0000
  0
SEQEND
  8
0
  0
POLYLINE
  8
21
 66
1
 10
0.0000
 20
0.0000
 30
0.0000
 40
0.2032
 41
0.2032
 70
0
  0
VERTEX
  8
21
 10
20.9550
 20
16.4500
 30
0.0000
  0
VERTEX
  8
21
 10
21.5900
 20
15.8150
 30
0.0000
  0
SEQEND
  8
0
  0
POLYLINE
  8
21
 66
1
 10
0.0000
 20
0.0000
 30
0.0000
 40
0.1016
 41
0.1016
 70
0
  0
VERTEX
  8
21
 10
21.5541
 20
15.7791
 30
0.0000
 42
1.0000
  0
VERTEX
  8
21
 10
21.6259
 20
15.8509
 30
0.0000
  0
SEQEND
  8
0
  0
POLYLINE
  8
21
 66
1
 10
0.0000
 20
0.0000
 30
0.0000
 40
0.1016
 41
0.1016
 70
0
  0
VERTEX
  8
21
 10
20.9909
 20
16.4859
 30
0.0000
 42
1.0000
  0
VERTEX
  8
21
 10
20.9191
 20
16.4141
 30
0.0000
  0
SEQEND
  8
0
  0
POLYLINE
  8
21
 66
1
 10
0.0000
 20
0.0000
 30
0.0000
 40
0.2032
 41
0.2032
 70
0
  0
VERTEX
  8
21
 10
21.5900
 20
15.8150
 30
0.0000
  0
VERTEX
  8
21
 10
21.5900
 20
14.5450
 30
0.0000
  0
SEQEND
  8
0
  0
POLYLINE
  8
21
 66
1
 10
0.0000
 20
0.0000
 30
0.0000
 40
0.1016
 41
0.1016
 70
0
  0
VERTEX
  8
21
 10
21.5392
 20
14.5450
 30
0.0000
 42
1.0000
  0
VERTEX
  8
21
 10
21.6408
 20
14.5450
 30
0.0000
  0
SEQEND
  8
0
  0
POLYLINE
  8
21
 66
1
 10
0.0000
 20
0.0000
 30
0.0000
 40
0.1016
 41
0.1016
 70
0
  0
VERTEX
  8
21
 10
21.6408
 20
15.8150
 30
0.0000
 42
1.0000
  0
VERTEX
  8
21
 10
21.5392
 20
15.8150
 30
0.0000
  0
SEQEND
  8
0
  0
POLYLINE
  8
21
 66
1
 10
0.0000
 20
0.0000
 30
0.0000
 40
0.2032
 41
0.2032
 70
0
  0
VERTEX
  8
21
 10
21.5900
 20
14.5450
 30
0.0000
  0
VERTEX
  8
21
 10
20.9550
 20
13.9100
 30
0.0000
  0
SEQEND
  8
0
  0
POLYLINE
  8
21
 66
1
 10
0.0000
 20
0.0000
 30
0.0000
 40
0.1016
 41
0.1016
 70
0
  0
VERTEX
  8
21
 10
20.9191
 20
13.9459
 30
0.0000
 42
1.0000
  0
VERTEX
  8
21
 10
20.9909
 20
13.8741
 30
0.0000
  0
SEQEND
  8
0
  0
POLYLINE
  8
21
 66
1
 10
0.0000
 20
0.0000
 30
0.0000
 40
0.1016
 41
0.1016
 70
0
  0
VERTEX
  8
21
 10
21.6259
 20
14.5091
 30
0.0000
 42
1.0000
  0
VERTEX
  8
21
 10
21.5541
 20
14.5809
 30
0.0000
  0
SEQEND
  8
0
  0
POLYLINE
  8
21
 66
1
 10
0.0000
 20
0.0000
 30
0.0000
 40
0.2032
 41
0.2032
 70
0
  0
VERTEX
  8
21
 10
19.0500
 20
17.0850
 30
0.0000
  0
VERTEX
  8
21
 10
19.6850
 20
16.4500
 30
0.0000
  0
SEQEND
  8
0
  0
POLYLINE
  8
21
 66
1
 10
0.0000
 20
0.0000
 30
0.0000
 40
0.1016
 41
0.1016
 70
0
  0
VERTEX
  8
21
 10
19.6491
 20
16.4141
 30
0.0000
 42
1.0000
  0
VERTEX
  8
21
 10
19.7209
 20
16.4859
 30
0.0000
  0
SEQEND
  8
0
  0
POLYLINE
  8
21
 66
1
 10
0.0000
 20
0.0000
 30
0.0000
 40
0.1016
 41
0.1016
 70
0
  0
VERTEX
  8
21
 10
19.0859
 20
17.1209
 30
0.0000
 42
1.0000
  0
VERTEX
  8
21
 10
19.0141
 20
17.0491
 30
0.0000
  0
SEQEND
  8
0
  0
POLYLINE
  8
21
 66
1
 10
0.0000
 20
0.0000
 30
0.0000
 40
0.2032
 41
0.2032
 70
0
  0
VERTEX
  8
21
 10
20.9550
 20
16.4500
 30
0.0000
  0
VERTEX
  8
21
 10
21.5900
 20
17.0850
 30
0.0000
  0
SEQEND
  8
0
  0
POLYLINE
  8
21
 66
1
 10
0.0000
 20
0.0000
 30
0.0000
 40
0.1016
 41
0.1016
 70
0
  0
VERTEX
  8
21
 10
21.6259
 20
17.0491
 30
0.0000
 42
1.0000
  0
VERTEX
  8
21
 10
21.5541
 20
17.1209
 30
0.0000
  0
SEQEND
  8
0
  0
POLYLINE
  8
21
 66
1
 10
0.0000
 20
0.0000
 30
0.0000
 40
0.1016
 41
0.1016
 70
0
  0
VERTEX
  8
21
 10
20.9191
 20
16.4859
 30
0.0000
 42
1.0000
  0
VERTEX
  8
21
 10
20.9909
 20
16.4141
 30
0.0000
  0
SEQEND
  8
0
  0
POLYLINE
  8
21
 66
1
 10
0.0000
 20
0.0000
 30
0.0000
 40
0.2032
 41
0.2032
 70
0
  0
VERTEX
  8
21
 10
21.5900
 20
18.3550
 30
0.0000
  0
VERTEX
  8
21
 10
21.5900
 20
17.0850
 30
0.0000
  0
SEQEND
  8
0
  0
POLYLINE
  8
21
 66
1
 10
0.0000
 20
0.0000
 30
0.0000
 40
0.1016
 41
0.1016
 70
0
  0
VERTEX
  8
21
 10
21.5392
 20
17.0850
 30
0.0000
 42
1.0000
  0
VERTEX
  8
21
 10
21.6408
 20
17.0850
 30
0.0000
  0
SEQEND
  8
0
  0
POLYLINE
  8
21
 66
1
 10
0.0000
 20
0.0000
 30
0.0000
 40
0.1016
 41
0.1016
 70
0
  0
VERTEX
  8
21
 10
21.6408
 20
18.3550
 30
0.0000
 42
1.0000
  0
VERTEX
  8
21
 10
21.5392
 20
18.3550
 30
0.0000
  0
SEQEND
  8
0
  0
POLYLINE
  8
21
 66
1
 10
0.0000
 20
0.0000
 30
0.0000
 40
0.2032
 41
0.2032
 70
0
  0
VERTEX
  8
21
 10
19.0500
 20
9.4650
 30
0.0000
  0
VERTEX
  8
21
 10
19.0500
 20
10.7350
 30
0.0000
  0
SEQEND
  8
0
  0
POLYLINE
  8
21
 66
1
 10
0.0000
 20
0.0000
 30
0.0000
 40
0.1016
 41
0.1016
 70
0
  0
VERTEX
  8
21
 10
19.1008
 20
10.7350
 30
0.0000
 42
1.0000
  0
VERTEX
  8
21
 10
18.9992
 20
10.7350
 30
0.0000
  0
SEQEND
  8
0
  0
POLYLINE
  8
21
 66
1
 10
0.0000
 20
0.0000
 30
0.0000
 40
0.1016
 41
0.1016
 70
0
  0
VERTEX
  8
21
 10
18.9992
 20
9.4650
 30
0.0000
 42
1.0000
  0
VERTEX
  8
21
 10
19.1008
 20
9.4650
 30
0.0000
  0
SEQEND
  8
0
  0
POLYLINE
  8
21
 66
1
 10
0.0000
 20
0.0000
 30
0.0000
 40
0.2032
 41
0.2032
 70
0
  0
VERTEX
  8
21
 10
19.0500
 20
10.7350
 30
0.0000
  0
VERTEX
  8
21
 10
19.6850
 20
11.3700
 30
0.0000
  0
SEQEND
  8
0
  0
POLYLINE
  8
21
 66
1
 10
0.0000
 20
0.0000
 30
0.0000
 40
0.1016
 41
0.1016
 70
0
  0
VERTEX
  8
21
 10
19.7209
 20
11.3341
 30
0.0000
 42
1.0000
  0
VERTEX
  8
21
 10
19.6491
 20
11.4059
 30
0.0000
  0
SEQEND
  8
0
  0
POLYLINE
  8
21
 66
1
 10
0.0000
 20
0.0000
 30
0.0000
 40
0.1016
 41
0.1016
 70
0
  0
VERTEX
  8
21
 10
19.0141
 20
10.7709
 30
0.0000
 42
1.0000
  0
VERTEX
  8
21
 10
19.0859
 20
10.6991
 30
0.0000
  0
SEQEND
  8
0
  0
POLYLINE
  8
21
 66
1
 10
0.0000
 20
0.0000
 30
0.0000
 40
0.2032
 41
0.2032
 70
0
  0
VERTEX
  8
21
 10
20.9550
 20
11.3700
 30
0.0000
  0
VERTEX
  8
21
 10
21.5900
 20
10.7350
 30
0.0000
  0
SEQEND
  8
0
  0
POLYLINE
  8
21
 66
1
 10
0.0000
 20
0.0000
 30
0.0000
 40
0.1016
 41
0.1016
 70
0
  0
VERTEX
  8
21
 10
21.5541
 20
10.6991
 30
0.0000
 42
1.0000
  0
VERTEX
  8
21
 10
21.6259
 20
10.7709
 30
0.0000
  0
SEQEND
  8
0
  0
POLYLINE
  8
21
 66
1
 10
0.0000
 20
0.0000
 30
0.0000
 40
0.1016
 41
0.1016
 70
0
  0
VERTEX
  8
21
 10
20.9909
 20
11.4059
 30
0.0000
 42
1.0000
  0
VERTEX
  8
21
 10
20.9191
 20
11.3341
 30
0.0000
  0
SEQEND
  8
0
  0
POLYLINE
  8
21
 66
1
 10
0.0000
 20
0.0000
 30
0.0000
 40
0.2032
 41
0.2032
 70
0
  0
VERTEX
  8
21
 10
19.6850
 20
11.3700
 30
0.0000
  0
VERTEX
  8
21
 10
19.0500
 20
12.0050
 30
0.0000
  0
SEQEND
  8
0
  0
POLYLINE
  8
21
 66
1
 10
0.0000
 20
0.0000
 30
0.0000
 40
0.1016
 41
0.1016
 70
0
  0
VERTEX
  8
21
 10
19.0859
 20
12.0409
 30
0.0000
 42
1.0000
  0
VERTEX
  8
21
 10
19.0141
 20
11.9691
 30
0.0000
  0
SEQEND
  8
0
  0
POLYLINE
  8
21
 66
1
 10
0.0000
 20
0.0000
 30
0.0000
 40
0.1016
 41
0.1016
 70
0
  0
VERTEX
  8
21
 10
19.6491
 20
11.3341
 30
0.0000
 42
1.0000
  0
VERTEX
  8
21
 10
19.7209
 20
11.4059
 30
0.0000
  0
SEQEND
  8
0
  0
POLYLINE
  8
21
 66
1
 10
0.0000
 20
0.0000
 30
0.0000
 40
0.2032
 41
0.2032
 70
0
  0
VERTEX
  8
21
 10
19.0500
 20
12.0050
 30
0.0000
  0
VERTEX
  8
21
 10
19.0500
 20
13.2750
 30
0.0000
  0
SEQEND
  8
0
  0
POLYLINE
  8
21
 66
1
 10
0.0000
 20
0.0000
 30
0.0000
 40
0.1016
 41
0.1016
 70
0
  0
VERTEX
  8
21
 10
19.1008
 20
13.2750
 30
0.0000
 42
1.0000
  0
VERTEX
  8
21
 10
18.9992
 20
13.2750
 30
0.0000
  0
SEQEND
  8
0
  0
POLYLINE
  8
21
 66
1
 10
0.0000
 20
0.0000
 30
0.0000
 40
0.1016
 41
0.1016
 70
0
  0
VERTEX
  8
21
 10
18.9992
 20
12.0050
 30
0.0000
 42
1.0000
  0
VERTEX
  8
21
 10
19.1008
 20
12.0050
 30
0.0000
  0
SEQEND
  8
0
  0
POLYLINE
  8
21
 66
1
 10
0.0000
 20
0.0000
 30
0.0000
 40
0.2032
 41
0.2032
 70
0
  0
VERTEX
  8
21
 10
19.0500
 20
13.2750
 30
0.0000
  0
VERTEX
  8
21
 10
19.6850
 20
13.9100
 30
0.0000
  0
SEQEND
  8
0
  0
POLYLINE
  8
21
 66
1
 10
0.0000
 20
0.0000
 30
0.0000
 40
0.1016
 41
0.1016
 70
0
  0
VERTEX
  8
21
 10
19.7209
 20
13.8741
 30
0.0000
 42
1.0000
  0
VERTEX
  8
21
 10
19.6491
 20
13.9459
 30
0.0000
  0
SEQEND
  8
0
  0
POLYLINE
  8
21
 66
1
 10
0.0000
 20
0.0000
 30
0.0000
 40
0.1016
 41
0.1016
 70
0
  0
VERTEX
  8
21
 10
19.0141
 20
13.3109
 30
0.0000
 42
1.0000
  0
VERTEX
  8
21
 10
19.0859
 20
13.2391
 30
0.0000
  0
SEQEND
  8
0
  0
POLYLINE
  8
21
 66
1
 10
0.0000
 20
0.0000
 30
0.0000
 40
0.2032
 41
0.2032
 70
0
  0
VERTEX
  8
21
 10
20.9550
 20
13.9100
 30
0.0000
  0
VERTEX
  8
21
 10
21.5900
 20
13.2750
 30
0.0000
  0
SEQEND
  8
0
  0
POLYLINE
  8
21
 66
1
 10
0.0000
 20
0.0000
 30
0.0000
 40
0.1016
 41
0.1016
 70
0
  0
VERTEX
  8
21
 10
21.5541
 20
13.2391
 30
0.0000
 42
1.0000
  0
VERTEX
  8
21
 10
21.6259
 20
13.3109
 30
0.0000
  0
SEQEND
  8
0
  0
POLYLINE
  8
21
 66
1
 10
0.0000
 20
0.0000
 30
0.0000
 40
0.1016
 41
0.1016
 70
0
  0
VERTEX
  8
21
 10
20.9909
 20
13.9459
 30
0.0000
 42
1.0000
  0
VERTEX
  8
21
 10
20.9191
 20
13.8741
 30
0.0000
  0
SEQEND
  8
0
  0
POLYLINE
  8
21
 66
1
 10
0.0000
 20
0.0000
 30
0.0000
 40
0.2032
 41
0.2032
 70
0
  0
VERTEX
  8
21
 10
21.5900
 20
13.2750
 30
0.0000
  0
VERTEX
  8
21
 10
21.5900
 20
12.0050
 30
0.0000
  0
SEQEND
  8
0
  0
POLYLINE
  8
21
 66
1
 10
0.0000
 20
0.0000
 30
0.0000
 40
0.1016
 41
0.1016
 70
0
  0
VERTEX
  8
21
 10
21.5392
 20
12.0050
 30
0.0000
 42
1.0000
  0
VERTEX
  8
21
 10
21.6408
 20
12.0050
 30
0.0000
  0
SEQEND
  8
0
  0
POLYLINE
  8
21
 66
1
 10
0.0000
 20
0.0000
 30
0.0000
 40
0.1016
 41
0.1016
 70
0
  0
VERTEX
  8
21
 10
21.6408
 20
13.2750
 30
0.0000
 42
1.0000
  0
VERTEX
  8
21
 10
21.5392
 20
13.2750
 30
0.0000
  0
SEQEND
  8
0
  0
POLYLINE
  8
21
 66
1
 10
0.0000
 20
0.0000
 30
0.0000
 40
0.2032
 41
0.2032
 70
0
  0
VERTEX
  8
21
 10
21.5900
 20
12.0050
 30
0.0000
  0
VERTEX
  8
21
 10
20.9550
 20
11.3700
 30
0.0000
  0
SEQEND
  8
0
  0
POLYLINE
  8
21
 66
1
 10
0.0000
 20
0.0000
 30
0.0000
 40
0.1016
 41
0.1016
 70
0
  0
VERTEX
  8
21
 10
20.9191
 20
11.4059
 30
0.0000
 42
1.0000
  0
VERTEX
  8
21
 10
20.9909
 20
11.3341
 30
0.0000
  0
SEQEND
  8
0
  0
POLYLINE
  8
21
 66
1
 10
0.0000
 20
0.0000
 30
0.0000
 40
0.1016
 41
0.1016
 70
0
  0
VERTEX
  8
21
 10
21.6259
 20
11.9691
 30
0.0000
 42
1.0000
  0
VERTEX
  8
21
 10
21.5541
 20
12.0409
 30
0.0000
  0
SEQEND
  8
0
  0
POLYLINE
  8
21
 66
1
 10
0.0000
 20
0.0000
 30
0.0000
 40
0.2032
 41
0.2032
 70
0
  0
VERTEX
  8
21
 10
19.6850
 20
6.2900
 30
0.0000
  0
VERTEX
  8
21
 10
19.0500
 20
6.9250
 30
0.0000
  0
SEQEND
  8
0
  0
POLYLINE
  8
21
 66
1
 10
0.0000
 20
0.0000
 30
0.0000
 40
0.1016
 41
0.1016
 70
0
  0
VERTEX
  8
21
 10
19.0859
 20
6.9609
 30
0.0000
 42
1.0000
  0
VERTEX
  8
21
 10
19.0141
 20
6.8891
 30
0.0000
  0
SEQEND
  8
0
  0
POLYLINE
  8
21
 66
1
 10
0.0000
 20
0.0000
 30
0.0000
 40
0.1016
 41
0.1016
 70
0
  0
VERTEX
  8
21
 10
19.6491
 20
6.2541
 30
0.0000
 42
1.0000
  0
VERTEX
  8
21
 10
19.7209
 20
6.3259
 30
0.0000
  0
SEQEND
  8
0
  0
POLYLINE
  8
21
 66
1
 10
0.0000
 20
0.0000
 30
0.0000
 40
0.2032
 41
0.2032
 70
0
  0
VERTEX
  8
21
 10
19.0500
 20
6.9250
 30
0.0000
  0
VERTEX
  8
21
 10
19.0500
 20
8.1950
 30
0.0000
  0
SEQEND
  8
0
  0
POLYLINE
  8
21
 66
1
 10
0.0000
 20
0.0000
 30
0.0000
 40
0.1016
 41
0.1016
 70
0
  0
VERTEX
  8
21
 10
19.1008
 20
8.1950
 30
0.0000
 42
1.0000
  0
VERTEX
  8
21
 10
18.9992
 20
8.1950
 30
0.0000
  0
SEQEND
  8
0
  0
POLYLINE
  8
21
 66
1
 10
0.0000
 20
0.0000
 30
0.0000
 40
0.1016
 41
0.1016
 70
0
  0
VERTEX
  8
21
 10
18.9992
 20
6.9250
 30
0.0000
 42
1.0000
  0
VERTEX
  8
21
 10
19.1008
 20
6.9250
 30
0.0000
  0
SEQEND
  8
0
  0
POLYLINE
  8
21
 66
1
 10
0.0000
 20
0.0000
 30
0.0000
 40
0.2032
 41
0.2032
 70
0
  0
VERTEX
  8
21
 10
19.0500
 20
8.1950
 30
0.0000
  0
VERTEX
  8
21
 10
19.6850
 20
8.8300
 30
0.0000
  0
SEQEND
  8
0
  0
POLYLINE
  8
21
 66
1
 10
0.0000
 20
0.0000
 30
0.0000
 40
0.1016
 41
0.1016
 70
0
  0
VERTEX
  8
21
 10
19.7209
 20
8.7941
 30
0.0000
 42
1.0000
  0
VERTEX
  8
21
 10
19.6491
 20
8.8659
 30
0.0000
  0
SEQEND
  8
0
  0
POLYLINE
  8
21
 66
1
 10
0.0000
 20
0.0000
 30
0.0000
 40
0.1016
 41
0.1016
 70
0
  0
VERTEX
  8
21
 10
19.0141
 20
8.2309
 30
0.0000
 42
1.0000
  0
VERTEX
  8
21
 10
19.0859
 20
8.1591
 30
0.0000
  0
SEQEND
  8
0
  0
POLYLINE
  8
21
 66
1
 10
0.0000
 20
0.0000
 30
0.0000
 40
0.2032
 41
0.2032
 70
0
  0
VERTEX
  8
21
 10
20.9550
 20
8.8300
 30
0.0000
  0
VERTEX
  8
21
 10
21.5900
 20
8.1950
 30
0.0000
  0
SEQEND
  8
0
  0
POLYLINE
  8
21
 66
1
 10
0.0000
 20
0.0000
 30
0.0000
 40
0.1016
 41
0.1016
 70
0
  0
VERTEX
  8
21
 10
21.5541
 20
8.1591
 30
0.0000
 42
1.0000
  0
VERTEX
  8
21
 10
21.6259
 20
8.2309
 30
0.0000
  0
SEQEND
  8
0
  0
POLYLINE
  8
21
 66
1
 10
0.0000
 20
0.0000
 30
0.0000
 40
0.1016
 41
0.1016
 70
0
  0
VERTEX
  8
21
 10
20.9909
 20
8.8659
 30
0.0000
 42
1.0000
  0
VERTEX
  8
21
 10
20.9191
 20
8.7941
 30
0.0000
  0
SEQEND
  8
0
  0
POLYLINE
  8
21
 66
1
 10
0.0000
 20
0.0000
 30
0.0000
 40
0.2032
 41
0.2032
 70
0
  0
VERTEX
  8
21
 10
21.5900
 20
8.1950
 30
0.0000
  0
VERTEX
  8
21
 10
21.5900
 20
6.9250
 30
0.0000
  0
SEQEND
  8
0
  0
POLYLINE
  8
21
 66
1
 10
0.0000
 20
0.0000
 30
0.0000
 40
0.1016
 41
0.1016
 70
0
  0
VERTEX
  8
21
 10
21.5392
 20
6.9250
 30
0.0000
 42
1.0000
  0
VERTEX
  8
21
 10
21.6408
 20
6.9250
 30
0.0000
  0
SEQEND
  8
0
  0
POLYLINE
  8
21
 66
1
 10
0.0000
 20
0.0000
 30
0.0000
 40
0.1016
 41
0.1016
 70
0
  0
VERTEX
  8
21
 10
21.6408
 20
8.1950
 30
0.0000
 42
1.0000
  0
VERTEX
  8
21
 10
21.5392
 20
8.1950
 30
0.0000
  0
SEQEND
  8
0
  0
POLYLINE
  8
21
 66
1
 10
0.0000
 20
0.0000
 30
0.0000
 40
0.2032
 41
0.2032
 70
0
  0
VERTEX
  8
21
 10
21.5900
 20
6.9250
 30
0.0000
  0
VERTEX
  8
21
 10
20.9550
 20
6.2900
 30
0.0000
  0
SEQEND
  8
0
  0
POLYLINE
  8
21
 66
1
 10
0.0000
 20
0.0000
 30
0.0000
 40
0.1016
 41
0.1016
 70
0
  0
VERTEX
  8
21
 10
20.9191
 20
6.3259
 30
0.0000
 42
1.0000
  0
VERTEX
  8
21
 10
20.9909
 20
6.2541
 30
0.0000
  0
SEQEND
  8
0
  0
POLYLINE
  8
21
 66
1
 10
0.0000
 20
0.0000
 30
0.0000
 40
0.1016
 41
0.1016
 70
0
  0
VERTEX
  8
21
 10
21.6259
 20
6.8891
 30
0.0000
 42
1.0000
  0
VERTEX
  8
21
 10
21.5541
 20
6.9609
 30
0.0000
  0
SEQEND
  8
0
  0
POLYLINE
  8
21
 66
1
 10
0.0000
 20
0.0000
 30
0.0000
 40
0.2032
 41
0.2032
 70
0
  0
VERTEX
  8
21
 10
19.0500
 20
9.4650
 30
0.0000
  0
VERTEX
  8
21
 10
19.6850
 20
8.8300
 30
0.0000
  0
SEQEND
  8
0
  0
POLYLINE
  8
21
 66
1
 10
0.0000
 20
0.0000
 30
0.0000
 40
0.1016
 41
0.1016
 70
0
  0
VERTEX
  8
21
 10
19.6491
 20
8.7941
 30
0.0000
 42
1.0000
  0
VERTEX
  8
21
 10
19.7209
 20
8.8659
 30
0.0000
  0
SEQEND
  8
0
  0
POLYLINE
  8
21
 66
1
 10
0.0000
 20
0.0000
 30
0.0000
 40
0.1016
 41
0.1016
 70
0
  0
VERTEX
  8
21
 10
19.0859
 20
9.5009
 30
0.0000
 42
1.0000
  0
VERTEX
  8
21
 10
19.0141
 20
9.4291
 30
0.0000
  0
SEQEND
  8
0
  0
POLYLINE
  8
21
 66
1
 10
0.0000
 20
0.0000
 30
0.0000
 40
0.2032
 41
0.2032
 70
0
  0
VERTEX
  8
21
 10
20.9550
 20
8.8300
 30
0.0000
  0
VERTEX
  8
21
 10
21.5900
 20
9.4650
 30
0.0000
  0
SEQEND
  8
0
  0
POLYLINE
  8
21
 66
1
 10
0.0000
 20
0.0000
 30
0.0000
 40
0.1016
 41
0.1016
 70
0
  0
VERTEX
  8
21
 10
21.6259
 20
9.4291
 30
0.0000
 42
1.0000
  0
VERTEX
  8
21
 10
21.5541
 20
9.5009
 30
0.0000
  0
SEQEND
  8
0
  0
POLYLINE
  8
21
 66
1
 10
0.0000
 20
0.0000
 30
0.0000
 40
0.1016
 41
0.1016
 70
0
  0
VERTEX
  8
21
 10
20.9191
 20
8.8659
 30
0.0000
 42
1.0000
  0
VERTEX
  8
21
 10
20.9909
 20
8.7941
 30
0.0000
  0
SEQEND
  8
0
  0
POLYLINE
  8
21
 66
1
 10
0.0000
 20
0.0000
 30
0.0000
 40
0.2032
 41
0.2032
 70
0
  0
VERTEX
  8
21
 10
21.5900
 20
10.7350
 30
0.0000
  0
VERTEX
  8
21
 10
21.5900
 20
9.4650
 30
0.0000
  0
SEQEND
  8
0
  0
POLYLINE
  8
21
 66
1
 10
0.0000
 20
0.0000
 30
0.0000
 40
0.1016
 41
0.1016
 70
0
  0
VERTEX
  8
21
 10
21.5392
 20
9.4650
 30
0.0000
 42
1.0000
  0
VERTEX
  8
21
 10
21.6408
 20
9.4650
 30
0.0000
  0
SEQEND
  8
0
  0
POLYLINE
  8
21
 66
1
 10
0.0000
 20
0.0000
 30
0.0000
 40
0.1016
 41
0.1016
 70
0
  0
VERTEX
  8
21
 10
21.6408
 20
10.7350
 30
0.0000
 42
1.0000
  0
VERTEX
  8
21
 10
21.5392
 20
10.7350
 30
0.0000
  0
SEQEND
  8
0
  0
POLYLINE
  8
21
 66
1
 10
0.0000
 20
0.0000
 30
0.0000
 40
0.2032
 41
0.2032
 70
0
  0
VERTEX
  8
21
 10
19.0500
 20
1.8450
 30
0.0000
  0
VERTEX
  8
21
 10
19.0500
 20
3.1150
 30
0.0000
  0
SEQEND
  8
0
  0
POLYLINE
  8
21
 66
1
 10
0.0000
 20
0.0000
 30
0.0000
 40
0.1016
 41
0.1016
 70
0
  0
VERTEX
  8
21
 10
19.1008
 20
3.1150
 30
0.0000
 42
1.0000
  0
VERTEX
  8
21
 10
18.9992
 20
3.1150
 30
0.0000
  0
SEQEND
  8
0
  0
POLYLINE
  8
21
 66
1
 10
0.0000
 20
0.0000
 30
0.0000
 40
0.1016
 41
0.1016
 70
0
  0
VERTEX
  8
21
 10
18.9992
 20
1.8450
 30
0.0000
 42
1.0000
  0
VERTEX
  8
21
 10
19.1008
 20
1.8450
 30
0.0000
  0
SEQEND
  8
0
  0
POLYLINE
  8
21
 66
1
 10
0.0000
 20
0.0000
 30
0.0000
 40
0.2032
 41
0.2032
 70
0
  0
VERTEX
  8
21
 10
19.0500
 20
3.1150
 30
0.0000
  0
VERTEX
  8
21
 10
19.6850
 20
3.7500
 30
0.0000
  0
SEQEND
  8
0
  0
POLYLINE
  8
21
 66
1
 10
0.0000
 20
0.0000
 30
0.0000
 40
0.1016
 41
0.1016
 70
0
  0
VERTEX
  8
21
 10
19.7209
 20
3.7141
 30
0.0000
 42
1.0000
  0
VERTEX
  8
21
 10
19.6491
 20
3.7859
 30
0.0000
  0
SEQEND
  8
0
  0
POLYLINE
  8
21
 66
1
 10
0.0000
 20
0.0000
 30
0.0000
 40
0.1016
 41
0.1016
 70
0
  0
VERTEX
  8
21
 10
19.0141
 20
3.1509
 30
0.0000
 42
1.0000
  0
VERTEX
  8
21
 10
19.0859
 20
3.0791
 30
0.0000
  0
SEQEND
  8
0
  0
POLYLINE
  8
21
 66
1
 10
0.0000
 20
0.0000
 30
0.0000
 40
0.2032
 41
0.2032
 70
0
  0
VERTEX
  8
21
 10
20.9550
 20
3.7500
 30
0.0000
  0
VERTEX
  8
21
 10
21.5900
 20
3.1150
 30
0.0000
  0
SEQEND
  8
0
  0
POLYLINE
  8
21
 66
1
 10
0.0000
 20
0.0000
 30
0.0000
 40
0.1016
 41
0.1016
 70
0
  0
VERTEX
  8
21
 10
21.5541
 20
3.0791
 30
0.0000
 42
1.0000
  0
VERTEX
  8
21
 10
21.6259
 20
3.1509
 30
0.0000
  0
SEQEND
  8
0
  0
POLYLINE
  8
21
 66
1
 10
0.0000
 20
0.0000
 30
0.0000
 40
0.1016
 41
0.1016
 70
0
  0
VERTEX
  8
21
 10
20.9909
 20
3.7859
 30
0.0000
 42
1.0000
  0
VERTEX
  8
21
 10
20.9191
 20
3.7141
 30
0.0000
  0
SEQEND
  8
0
  0
POLYLINE
  8
21
 66
1
 10
0.0000
 20
0.0000
 30
0.0000
 40
0.2032
 41
0.2032
 70
0
  0
VERTEX
  8
21
 10
19.6850
 20
3.7500
 30
0.0000
  0
VERTEX
  8
21
 10
19.0500
 20
4.3850
 30
0.0000
  0
SEQEND
  8
0
  0
POLYLINE
  8
21
 66
1
 10
0.0000
 20
0.0000
 30
0.0000
 40
0.1016
 41
0.1016
 70
0
  0
VERTEX
  8
21
 10
19.0859
 20
4.4209
 30
0.0000
 42
1.0000
  0
VERTEX
  8
21
 10
19.0141
 20
4.3491
 30
0.0000
  0
SEQEND
  8
0
  0
POLYLINE
  8
21
 66
1
 10
0.0000
 20
0.0000
 30
0.0000
 40
0.1016
 41
0.1016
 70
0
  0
VERTEX
  8
21
 10
19.6491
 20
3.7141
 30
0.0000
 42
1.0000
  0
VERTEX
  8
21
 10
19.7209
 20
3.7859
 30
0.0000
  0
SEQEND
  8
0
  0
POLYLINE
  8
21
 66
1
 10
0.0000
 20
0.0000
 30
0.0000
 40
0.2032
 41
0.2032
 70
0
  0
VERTEX
  8
21
 10
19.0500
 20
4.3850
 30
0.0000
  0
VERTEX
  8
21
 10
19.0500
 20
5.6550
 30
0.0000
  0
SEQEND
  8
0
  0
POLYLINE
  8
21
 66
1
 10
0.0000
 20
0.0000
 30
0.0000
 40
0.1016
 41
0.1016
 70
0
  0
VERTEX
  8
21
 10
19.1008
 20
5.6550
 30
0.0000
 42
1.0000
  0
VERTEX
  8
21
 10
18.9992
 20
5.6550
 30
0.0000
  0
SEQEND
  8
0
  0
POLYLINE
  8
21
 66
1
 10
0.0000
 20
0.0000
 30
0.0000
 40
0.1016
 41
0.1016
 70
0
  0
VERTEX
  8
21
 10
18.9992
 20
4.3850
 30
0.0000
 42
1.0000
  0
VERTEX
  8
21
 10
19.1008
 20
4.3850
 30
0.0000
  0
SEQEND
  8
0
  0
POLYLINE
  8
21
 66
1
 10
0.0000
 20
0.0000
 30
0.0000
 40
0.2032
 41
0.2032
 70
0
  0
VERTEX
  8
21
 10
19.0500
 20
5.6550
 30
0.0000
  0
VERTEX
  8
21
 10
19.6850
 20
6.2900
 30
0.0000
  0
SEQEND
  8
0
  0
POLYLINE
  8
21
 66
1
 10
0.0000
 20
0.0000
 30
0.0000
 40
0.1016
 41
0.1016
 70
0
  0
VERTEX
  8
21
 10
19.7209
 20
6.2541
 30
0.0000
 42
1.0000
  0
VERTEX
  8
21
 10
19.6491
 20
6.3259
 30
0.0000
  0
SEQEND
  8
0
  0
POLYLINE
  8
21
 66
1
 10
0.0000
 20
0.0000
 30
0.0000
 40
0.1016
 41
0.1016
 70
0
  0
VERTEX
  8
21
 10
19.0141
 20
5.6909
 30
0.0000
 42
1.0000
  0
VERTEX
  8
21
 10
19.0859
 20
5.6191
 30
0.0000
  0
SEQEND
  8
0
  0
POLYLINE
  8
21
 66
1
 10
0.0000
 20
0.0000
 30
0.0000
 40
0.2032
 41
0.2032
 70
0
  0
VERTEX
  8
21
 10
20.9550
 20
6.2900
 30
0.0000
  0
VERTEX
  8
21
 10
21.5900
 20
5.6550
 30
0.0000
  0
SEQEND
  8
0
  0
POLYLINE
  8
21
 66
1
 10
0.0000
 20
0.0000
 30
0.0000
 40
0.1016
 41
0.1016
 70
0
  0
VERTEX
  8
21
 10
21.5541
 20
5.6191
 30
0.0000
 42
1.0000
  0
VERTEX
  8
21
 10
21.6259
 20
5.6909
 30
0.0000
  0
SEQEND
  8
0
  0
POLYLINE
  8
21
 66
1
 10
0.0000
 20
0.0000
 30
0.0000
 40
0.1016
 41
0.1016
 70
0
  0
VERTEX
  8
21
 10
20.9909
 20
6.3259
 30
0.0000
 42
1.0000
  0
VERTEX
  8
21
 10
20.9191
 20
6.2541
 30
0.0000
  0
SEQEND
  8
0
  0
POLYLINE
  8
21
 66
1
 10
0.0000
 20
0.0000
 30
0.0000
 40
0.2032
 41
0.2032
 70
0
  0
VERTEX
  8
21
 10
21.5900
 20
5.6550
 30
0.0000
  0
VERTEX
  8
21
 10
21.5900
 20
4.3850
 30
0.0000
  0
SEQEND
  8
0
  0
POLYLINE
  8
21
 66
1
 10
0.0000
 20
0.0000
 30
0.0000
 40
0.1016
 41
0.1016
 70
0
  0
VERTEX
  8
21
 10
21.5392
 20
4.3850
 30
0.0000
 42
1.0000
  0
VERTEX
  8
21
 10
21.6408
 20
4.3850
 30
0.0000
  0
SEQEND
  8
0
  0
POLYLINE
  8
21
 66
1
 10
0.0000
 20
0.0000
 30
0.0000
 40
0.1016
 41
0.1016
 70
0
  0
VERTEX
  8
21
 10
21.6408
 20
5.6550
 30
0.0000
 42
1.0000
  0
VERTEX
  8
21
 10
21.5392
 20
5.6550
 30
0.0000
  0
SEQEND
  8
0
  0
POLYLINE
  8
21
 66
1
 10
0.0000
 20
0.0000
 30
0.0000
 40
0.2032
 41
0.2032
 70
0
  0
VERTEX
  8
21
 10
21.5900
 20
4.3850
 30
0.0000
  0
VERTEX
  8
21
 10
20.9550
 20
3.7500
 30
0.0000
  0
SEQEND
  8
0
  0
POLYLINE
  8
21
 66
1
 10
0.0000
 20
0.0000
 30
0.0000
 40
0.1016
 41
0.1016
 70
0
  0
VERTEX
  8
21
 10
20.9191
 20
3.7859
 30
0.0000
 42
1.0000
  0
VERTEX
  8
21
 10
20.9909
 20
3.7141
 30
0.0000
  0
SEQEND
  8
0
  0
POLYLINE
  8
21
 66
1
 10
0.0000
 20
0.0000
 30
0.0000
 40
0.1016
 41
0.1016
 70
0
  0
VERTEX
  8
21
 10
21.6259
 20
4.3491
 30
0.0000
 42
1.0000
  0
VERTEX
  8
21
 10
21.5541
 20
4.4209
 30
0.0000
  0
SEQEND
  8
0
  0
POLYLINE
  8
21
 66
1
 10
0.0000
 20
0.0000
 30
0.0000
 40
0.2032
 41
0.2032
 70
0
  0
VERTEX
  8
21
 10
19.6850
 20
1.2100
 30
0.0000
  0
VERTEX
  8
21
 10
20.9550
 20
1.2100
 30
0.0000
  0
SEQEND
  8
0
  0
POLYLINE
  8
21
 66
1
 10
0.0000
 20
0.0000
 30
0.0000
 40
0.1016
 41
0.1016
 70
0
  0
VERTEX
  8
21
 10
20.9550
 20
1.1592
 30
0.0000
 42
1.0000
  0
VERTEX
  8
21
 10
20.9550
 20
1.2608
 30
0.0000
  0
SEQEND
  8
0
  0
POLYLINE
  8
21
 66
1
 10
0.0000
 20
0.0000
 30
0.0000
 40
0.1016
 41
0.1016
 70
0
  0
VERTEX
  8
21
 10
19.6850
 20
1.2608
 30
0.0000
 42
1.0000
  0
VERTEX
  8
21
 10
19.6850
 20
1.1592
 30
0.0000
  0
SEQEND
  8
0
  0
POLYLINE
  8
21
 66
1
 10
0.0000
 20
0.0000
 30
0.0000
 40
0.2032
 41
0.2032
 70
0
  0
VERTEX
  8
21
 10
19.0500
 20
1.8450
 30
0.0000
  0
VERTEX
  8
21
 10
19.6850
 20
1.2100
 30
0.0000
  0
SEQEND
  8
0
  0
POLYLINE
  8
21
 66
1
 10
0.0000
 20
0.0000
 30
0.0000
 40
0.1016
 41
0.1016
 70
0
  0
VERTEX
  8
21
 10
19.6491
 20
1.1741
 30
0.0000
 42
1.0000
  0
VERTEX
  8
21
 10
19.7209
 20
1.2459
 30
0.0000
  0
SEQEND
  8
0
  0
POLYLINE
  8
21
 66
1
 10
0.0000
 20
0.0000
 30
0.0000
 40
0.1016
 41
0.1016
 70
0
  0
VERTEX
  8
21
 10
19.0859
 20
1.8809
 30
0.0000
 42
1.0000
  0
VERTEX
  8
21
 10
19.0141
 20
1.8091
 30
0.0000
  0
SEQEND
  8
0
  0
POLYLINE
  8
21
 66
1
 10
0.0000
 20
0.0000
 30
0.0000
 40
0.2032
 41
0.2032
 70
0
  0
VERTEX
  8
21
 10
20.9550
 20
1.2100
 30
0.0000
  0
VERTEX
  8
21
 10
21.5900
 20
1.8450
 30
0.0000
  0
SEQEND
  8
0
  0
POLYLINE
  8
21
 66
1
 10
0.0000
 20
0.0000
 30
0.0000
 40
0.1016
 41
0.1016
 70
0
  0
VERTEX
  8
21
 10
21.6259
 20
1.8091
 30
0.0000
 42
1.0000
  0
VERTEX
  8
21
 10
21.5541
 20
1.8809
 30
0.0000
  0
SEQEND
  8
0
  0
POLYLINE
  8
21
 66
1
 10
0.0000
 20
0.0000
 30
0.0000
 40
0.1016
 41
0.1016
 70
0
  0
VERTEX
  8
21
 10
20.9191
 20
1.2459
 30
0.0000
 42
1.0000
  0
VERTEX
  8
21
 10
20.9909
 20
1.1741
 30
0.0000
  0
SEQEND
  8
0
  0
POLYLINE
  8
21
 66
1
 10
0.0000
 20
0.0000
 30
0.0000
 40
0.2032
 41
0.2032
 70
0
  0
VERTEX
  8
21
 10
21.5900
 20
3.1150
 30
0.0000
  0
VERTEX
  8
21
 10
21.5900
 20
1.8450
 30
0.0000
  0
SEQEND
  8
0
  0
POLYLINE
  8
21
 66
1
 10
0.0000
 20
0.0000
 30
0.0000
 40
0.1016
 41
0.1016
 70
0
  0
VERTEX
  8
21
 10
21.5392
 20
1.8450
 30
0.0000
 42
1.0000
  0
VERTEX
  8
21
 10
21.6408
 20
1.8450
 30
0.0000
  0
SEQEND
  8
0
  0
POLYLINE
  8
21
 66
1
 10
0.0000
 20
0.0000
 30
0.0000
 40
0.1016
 41
0.1016
 70
0
  0
VERTEX
  8
21
 10
21.6408
 20
3.1150
 30
0.0000
 42
1.0000
  0
VERTEX
  8
21
 10
21.5392
 20
3.1150
 30
0.0000
  0
SEQEND
  8
0
  0
POLYLINE
  8
21
 66
1
 10
0.0000
 20
0.0000
 30
0.0000
 40
0.2032
 41
0.2032
 70
0
  0
VERTEX
  8
21
 10
19.6850
 20
18.9900
 30
0.0000
  0
VERTEX
  8
21
 10
20.9550
 20
18.9900
 30
0.0000
  0
SEQEND
  8
0
  0
POLYLINE
  8
21
 66
1
 10
0.0000
 20
0.0000
 30
0.0000
 40
0.1016
 41
0.1016
 70
0
  0
VERTEX
  8
21
 10
20.9550
 20
18.9392
 30
0.0000
 42
1.0000
  0
VERTEX
  8
21
 10
20.9550
 20
19.0408
 30
0.0000
  0
SEQEND
  8
0
  0
POLYLINE
  8
21
 66
1
 10
0.0000
 20
0.0000
 30
0.0000
 40
0.1016
 41
0.1016
 70
0
  0
VERTEX
  8
21
 10
19.6850
 20
19.0408
 30
0.0000
 42
1.0000
  0
VERTEX
  8
21
 10
19.6850
 20
18.9392
 30
0.0000
  0
SEQEND
  8
0
  0
INSERT
  8
51
  2
RECT
 10
20.3200
 20
17.7200
 30
0.0000
 41
0.5080
 42
0.5080
 43
1.0000
 50
90.0000
  0
INSERT
  8
51
  2
RECT
 10
20.3200
 20
15.1800
 30
0.0000
 41
0.5080
 42
0.5080
 43
1.0000
 50
90.0000
  0
INSERT
  8
51
  2
RECT
 10
20.3200
 20
12.6400
 30
0.0000
 41
0.5080
 42
0.5080
 43
1.0000
 50
90.0000
  0
INSERT
  8
51
  2
RECT
 10
20.3200
 20
10.1000
 30
0.0000
 41
0.5080
 42
0.5080
 43
1.0000
 50
90.0000
  0
INSERT
  8
51
  2
RECT
 10
20.3200
 20
7.5600
 30
0.0000
 41
0.5080
 42
0.5080
 43
1.0000
 50
90.0000
  0
INSERT
  8
51
  2
RECT
 10
20.3200
 20
5.0200
 30
0.0000
 41
0.5080
 42
0.5080
 43
1.0000
 50
90.0000
  0
INSERT
  8
51
  2
RECT
 10
20.3200
 20
2.4800
 30
0.0000
 41
0.5080
 42
0.5080
 43
1.0000
 50
90.0000
  0
INSERT
  8
17
  2
ROUNDP
 10
20.3200
 20
2.4800
 30
0.0000
 41
1.8796
 42
1.8796
 43
1.0000
 50
180.0000
  0
INSERT
  8
17
  2
ROUNDP
 10
20.3200
 20
2.4800
 30
0.0000
 41
1.8796
 42
1.8796
 43
1.0000
 50
180.0000
  0
INSERT
  8
17
  2
ROUNDP
 10
20.3200
 20
5.0200
 30
0.0000
 41
1.8796
 42
1.8796
 43
1.0000
 50
180.0000
  0
INSERT
  8
17
  2
ROUNDP
 10
20.3200
 20
5.0200
 30
0.0000
 41
1.8796
 42
1.8796
 43
1.0000
 50
180.0000
  0
INSERT
  8
17
  2
ROUNDP
 10
20.3200
 20
7.5600
 30
0.0000
 41
1.8796
 42
1.8796
 43
1.0000
 50
180.0000
  0
INSERT
  8
17
  2
ROUNDP
 10
20.3200
 20
7.5600
 30
0.0000
 41
1.8796
 42
1.8796
 43
1.0000
 50
180.0000
  0
INSERT
  8
17
  2
ROUNDP
 10
20.3200
 20
10.1000
 30
0.0000
 41
1.8796
 42
1.8796
 43
1.0000
 50
180.0000
  0
INSERT
  8
17
  2
ROUNDP
 10
20.3200
 20
10.1000
 30
0.0000
 41
1.8796
 42
1.8796
 43
1.0000
 50
180.0000
  0
INSERT
  8
17
  2
ROUNDP
 10
20.3200
 20
12.6400
 30
0.0000
 41
1.8796
 42
1.8796
 43
1.0000
 50
180.0000
  0
INSERT
  8
17
  2
ROUNDP
 10
20.3200
 20
12.6400
 30
0.0000
 41
1.8796
 42
1.8796
 43
1.0000
 50
180.0000
  0
INSERT
  8
17
  2
ROUNDP
 10
20.3200
 20
15.1800
 30
0.0000
 41
1.8796
 42
1.8796
 43
1.0000
 50
180.0000
  0
INSERT
  8
17
  2
ROUNDP
 10
20.3200
 20
15.1800
 30
0.0000
 41
1.8796
 42
1.8796
 43
1.0000
 50
180.0000
  0
INSERT
  8
17
  2
ROUNDP
 10
20.3200
 20
17.7200
 30
0.0000
 41
1.8796
 42
1.8796
 43
1.0000
 50
180.0000
  0
INSERT
  8
17
  2
ROUNDP
 10
20.3200
 20
17.7200
 30
0.0000
 41
1.8796
 42
1.8796
 43
1.0000
 50
180.0000
  0
POINT
  8
23
 10
13.9700
 20
19.0500
 30
0.0000
  0
POLYLINE
  8
21
 66
1
 10
0.0000
 20
0.0000
 30
0.0000
 40
0.1524
 41
0.1524
 70
0
  0
VERTEX
  8
21
 10
22.0980
 20
25.1968
 30
0.0000
  0
VERTEX
  8
21
 10
22.0218
 20
25.0190
 30
0.0000
  0
SEQEND
  8
0
  0
POLYLINE
  8
21
 66
1
 10
0.0000
 20
0.0000
 30
0.0000
 40
0.0762
 41
0.0762
 70
0
  0
VERTEX
  8
21
 10
21.9868
 20
25.0340
 30
0.0000
 42
1.0000
  0
VERTEX
  8
21
 10
22.0568
 20
25.0040
 30
0.0000
  0
SEQEND
  8
0
  0
POLYLINE
  8
21
 66
1
 10
0.0000
 20
0.0000
 30
0.0000
 40
0.0762
 41
0.0762
 70
0
  0
VERTEX
  8
21
 10
22.1330
 20
25.1818
 30
0.0000
 42
1.0000
  0
VERTEX
  8
21
 10
22.0630
 20
25.2118
 30
0.0000
  0
SEQEND
  8
0
  0
POLYLINE
  8
21
 66
1
 10
0.0000
 20
0.0000
 30
0.0000
 40
0.1524
 41
0.1524
 70
0
  0
VERTEX
  8
21
 10
4.6990
 20
25.1968
 30
0.0000
  0
VERTEX
  8
21
 10
23.2410
 20
25.1968
 30
0.0000
  0
SEQEND
  8
0
  0
POLYLINE
  8
21
 66
1
 10
0.0000
 20
0.0000
 30
0.0000
 40
0.0762
 41
0.0762
 70
0
  0
VERTEX
  8
21
 10
23.2410
 20
25.1587
 30
0.0000
 42
1.0000
  0
VERTEX
  8
21
 10
23.2410
 20
25.2349
 30
0.0000
  0
SEQEND
  8
0
  0
POLYLINE
  8
21
 66
1
 10
0.0000
 20
0.0000
 30
0.0000
 40
0.0762
 41
0.0762
 70
0
  0
VERTEX
  8
21
 10
4.6990
 20
25.2349
 30
0.0000
 42
1.0000
  0
VERTEX
  8
21
 10
4.6990
 20
25.1587
 30
0.0000
  0
SEQEND
  8
0
  0
POLYLINE
  8
21
 66
1
 10
0.0000
 20
0.0000
 30
0.0000
 40
0.1524
 41
0.1524
 70
0
  0
VERTEX
  8
21
 10
24.3078
 20
27.9400
 30
0.0000
  0
VERTEX
  8
21
 10
24.3078
 20
32.1056
 30
0.0000
  0
SEQEND
  8
0
  0
POLYLINE
  8
21
 66
1
 10
0.0000
 20
0.0000
 30
0.0000
 40
0.0762
 41
0.0762
 70
0
  0
VERTEX
  8
21
 10
24.3459
 20
32.1056
 30
0.0000
 42
1.0000
  0
VERTEX
  8
21
 10
24.2697
 20
32.1056
 30
0.0000
  0
SEQEND
  8
0
  0
POLYLINE
  8
21
 66
1
 10
0.0000
 20
0.0000
 30
0.0000
 40
0.0762
 41
0.0762
 70
0
  0
VERTEX
  8
21
 10
24.2697
 20
27.9400
 30
0.0000
 42
1.0000
  0
VERTEX
  8
21
 10
24.3459
 20
27.9400
 30
0.0000
  0
SEQEND
  8
0
  0
POLYLINE
  8
21
 66
1
 10
0.0000
 20
0.0000
 30
0.0000
 40
0.1524
 41
0.1524
 70
0
  0
VERTEX
  8
21
 10
24.3078
 20
32.1056
 30
0.0000
  0
VERTEX
  8
21
 10
3.6322
 20
32.1056
 30
0.0000
  0
SEQEND
  8
0
  0
POLYLINE
  8
21
 66
1
 10
0.0000
 20
0.0000
 30
0.0000
 40
0.0762
 41
0.0762
 70
0
  0
VERTEX
  8
21
 10
3.6322
 20
32.1437
 30
0.0000
 42
1.0000
  0
VERTEX
  8
21
 10
3.6322
 20
32.0675
 30
0.0000
  0
SEQEND
  8
0
  0
POLYLINE
  8
21
 66
1
 10
0.0000
 20
0.0000
 30
0.0000
 40
0.0762
 41
0.0762
 70
0
  0
VERTEX
  8
21
 10
24.3078
 20
32.0675
 30
0.0000
 42
1.0000
  0
VERTEX
  8
21
 10
24.3078
 20
32.1437
 30
0.0000
  0
SEQEND
  8
0
  0
POLYLINE
  8
21
 66
1
 10
0.0000
 20
0.0000
 30
0.0000
 40
0.1524
 41
0.1524
 70
0
  0
VERTEX
  8
21
 10
3.6322
 20
32.1056
 30
0.0000
  0
VERTEX
  8
21
 10
3.6322
 20
27.9400
 30
0.0000
  0
SEQEND
  8
0
  0
POLYLINE
  8
21
 66
1
 10
0.0000
 20
0.0000
 30
0.0000
 40
0.0762
 41
0.0762
 70
0
  0
VERTEX
  8
21
 10
3.5941
 20
27.9400
 30
0.0000
 42
1.0000
  0
VERTEX
  8
21
 10
3.6703
 20
27.9400
 30
0.0000
  0
SEQEND
  8
0
  0
POLYLINE
  8
21
 66
1
 10
0.0000
 20
0.0000
 30
0.0000
 40
0.0762
 41
0.0762
 70
0
  0
VERTEX
  8
21
 10
3.6703
 20
32.1056
 30
0.0000
 42
1.0000
  0
VERTEX
  8
21
 10
3.5941
 20
32.1056
 30
0.0000
  0
SEQEND
  8
0
  0
POLYLINE
  8
51
 66
1
 10
0.0000
 20
0.0000
 30
0.0000
 40
0.1524
 41
0.1524
 70
0
  0
VERTEX
  8
51
 10
22.0980
 20
25.1968
 30
0.0000
  0
VERTEX
  8
51
 10
21.4630
 20
23.9268
 30
0.0000
  0
SEQEND
  8
0
  0
POLYLINE
  8
51
 66
1
 10
0.0000
 20
0.0000
 30
0.0000
 40
0.0762
 41
0.0762
 70
0
  0
VERTEX
  8
51
 10
21.4289
 20
23.9438
 30
0.0000
 42
1.0000
  0
VERTEX
  8
51
 10
21.4971
 20
23.9098
 30
0.0000
  0
SEQEND
  8
0
  0
POLYLINE
  8
51
 66
1
 10
0.0000
 20
0.0000
 30
0.0000
 40
0.0762
 41
0.0762
 70
0
  0
VERTEX
  8
51
 10
22.1321
 20
25.1798
 30
0.0000
 42
1.0000
  0
VERTEX
  8
51
 10
22.0639
 20
25.2138
 30
0.0000
  0
SEQEND
  8
0
  0
POLYLINE
  8
51
 66
1
 10
0.0000
 20
0.0000
 30
0.0000
 40
0.1524
 41
0.1524
 70
0
  0
VERTEX
  8
51
 10
20.8280
 20
25.1968
 30
0.0000
  0
VERTEX
  8
51
 10
21.4630
 20
23.9268
 30
0.0000
  0
SEQEND
  8
0
  0
POLYLINE
  8
51
 66
1
 10
0.0000
 20
0.0000
 30
0.0000
 40
0.0762
 41
0.0762
 70
0
  0
VERTEX
  8
51
 10
21.4289
 20
23.9098
 30
0.0000
 42
1.0000
  0
VERTEX
  8
51
 10
21.4971
 20
23.9438
 30
0.0000
  0
SEQEND
  8
0
  0
POLYLINE
  8
51
 66
1
 10
0.0000
 20
0.0000
 30
0.0000
 40
0.0762
 41
0.0762
 70
0
  0
VERTEX
  8
51
 10
20.8621
 20
25.2138
 30
0.0000
 42
1.0000
  0
VERTEX
  8
51
 10
20.7939
 20
25.1798
 30
0.0000
  0
SEQEND
  8
0
  0
POLYLINE
  8
51
 66
1
 10
0.0000
 20
0.0000
 30
0.0000
 40
0.1524
 41
0.1524
 70
0
  0
VERTEX
  8
51
 10
3.6322
 20
25.1968
 30
0.0000
  0
VERTEX
  8
51
 10
24.3078
 20
25.1968
 30
0.0000
  0
SEQEND
  8
0
  0
POLYLINE
  8
51
 66
1
 10
0.0000
 20
0.0000
 30
0.0000
 40
0.0762
 41
0.0762
 70
0
  0
VERTEX
  8
51
 10
24.3078
 20
25.1587
 30
0.0000
 42
1.0000
  0
VERTEX
  8
51
 10
24.3078
 20
25.2349
 30
0.0000
  0
SEQEND
  8
0
  0
POLYLINE
  8
51
 66
1
 10
0.0000
 20
0.0000
 30
0.0000
 40
0.0762
 41
0.0762
 70
0
  0
VERTEX
  8
51
 10
3.6322
 20
25.2349
 30
0.0000
 42
1.0000
  0
VERTEX
  8
51
 10
3.6322
 20
25.1587
 30
0.0000
  0
SEQEND
  8
0
  0
POLYLINE
  8
51
 66
1
 10
0.0000
 20
0.0000
 30
0.0000
 40
0.1524
 41
0.1524
 70
0
  0
VERTEX
  8
51
 10
24.3078
 20
25.1968
 30
0.0000
  0
VERTEX
  8
51
 10
24.3078
 20
32.1056
 30
0.0000
  0
SEQEND
  8
0
  0
POLYLINE
  8
51
 66
1
 10
0.0000
 20
0.0000
 30
0.0000
 40
0.0762
 41
0.0762
 70
0
  0
VERTEX
  8
51
 10
24.3459
 20
32.1056
 30
0.0000
 42
1.0000
  0
VERTEX
  8
51
 10
24.2697
 20
32.1056
 30
0.0000
  0
SEQEND
  8
0
  0
POLYLINE
  8
51
 66
1
 10
0.0000
 20
0.0000
 30
0.0000
 40
0.0762
 41
0.0762
 70
0
  0
VERTEX
  8
51
 10
24.2697
 20
25.1968
 30
0.0000
 42
1.0000
  0
VERTEX
  8
51
 10
24.3459
 20
25.1968
 30
0.0000
  0
SEQEND
  8
0
  0
POLYLINE
  8
51
 66
1
 10
0.0000
 20
0.0000
 30
0.0000
 40
0.1524
 41
0.1524
 70
0
  0
VERTEX
  8
51
 10
24.3078
 20
32.1056
 30
0.0000
  0
VERTEX
  8
51
 10
3.6322
 20
32.1056
 30
0.0000
  0
SEQEND
  8
0
  0
POLYLINE
  8
51
 66
1
 10
0.0000
 20
0.0000
 30
0.0000
 40
0.0762
 41
0.0762
 70
0
  0
VERTEX
  8
51
 10
3.6322
 20
32.1437
 30
0.0000
 42
1.0000
  0
VERTEX
  8
51
 10
3.6322
 20
32.0675
 30
0.0000
  0
SEQEND
  8
0
  0
POLYLINE
  8
51
 66
1
 10
0.0000
 20
0.0000
 30
0.0000
 40
0.0762
 41
0.0762
 70
0
  0
VERTEX
  8
51
 10
24.3078
 20
32.0675
 30
0.0000
 42
1.0000
  0
VERTEX
  8
51
 10
24.3078
 20
32.1437
 30
0.0000
  0
SEQEND
  8
0
  0
POLYLINE
  8
51
 66
1
 10
0.0000
 20
0.0000
 30
0.0000
 40
0.1524
 41
0.1524
 70
0
  0
VERTEX
  8
51
 10
3.6322
 20
32.1056
 30
0.0000
  0
VERTEX
  8
51
 10
3.6322
 20
25.1968
 30
0.0000
  0
SEQEND
  8
0
  0
POLYLINE
  8
51
 66
1
 10
0.0000
 20
0.0000
 30
0.0000
 40
0.0762
 41
0.0762
 70
0
  0
VERTEX
  8
51
 10
3.5941
 20
25.1968
 30
0.0000
 42
1.0000
  0
VERTEX
  8
51
 10
3.6703
 20
25.1968
 30
0.0000
  0
SEQEND
  8
0
  0
POLYLINE
  8
51
 66
1
 10
0.0000
 20
0.0000
 30
0.0000
 40
0.0762
 41
0.0762
 70
0
  0
VERTEX
  8
51
 10
3.6703
 20
32.1056
 30
0.0000
 42
1.0000
  0
VERTEX
  8
51
 10
3.5941
 20
32.1056
 30
0.0000
  0
SEQEND
  8
0
  0
INSERT
  8
1
  2
RECT
 10
21.4630
 20
23.8506
 30
0.0000
 41
1.9050
 42
0.6096
 43
1.0000
 50
270.0000
  0
INSERT
  8
1
  2
RECT
 10
20.4724
 20
23.8506
 30
0.0000
 41
1.9050
 42
0.6096
 43
1.0000
 50
270.0000
  0
INSERT
  8
1
  2
RECT
 10
19.4818
 20
23.8506
 30
0.0000
 41
1.9050
 42
0.6096
 43
1.0000
 50
270.0000
  0
INSERT
  8
1
  2
RECT
 10
18.4658
 20
23.8506
 30
0.0000
 41
1.9050
 42
0.6096
 43
1.0000
 50
270.0000
  0
INSERT
  8
1
  2
RECT
 10
17.4752
 20
23.8506
 30
0.0000
 41
1.9050
 42
0.6096
 43
1.0000
 50
270.0000
  0
INSERT
  8
1
  2
RECT
 10
16.4592
 20
23.8506
 30
0.0000
 41
1.9050
 42
0.6096
 43
1.0000
 50
270.0000
  0
INSERT
  8
1
  2
RECT
 10
15.4686
 20
23.8506
 30
0.0000
 41
1.9050
 42
0.6096
 43
1.0000
 50
270.0000
  0
INSERT
  8
1
  2
RECT
 10
14.4780
 20
23.8506
 30
0.0000
 41
1.9050
 42
0.6096
 43
1.0000
 50
270.0000
  0
INSERT
  8
1
  2
RECT
 10
13.4620
 20
23.8506
 30
0.0000
 41
1.9050
 42
0.6096
 43
1.0000
 50
270.0000
  0
INSERT
  8
1
  2
RECT
 10
12.4714
 20
23.8506
 30
0.0000
 41
1.9050
 42
0.6096
 43
1.0000
 50
270.0000
  0
INSERT
  8
1
  2
RECT
 10
11.4808
 20
23.8506
 30
0.0000
 41
1.9050
 42
0.6096
 43
1.0000
 50
270.0000
  0
INSERT
  8
1
  2
RECT
 10
10.4648
 20
23.8506
 30
0.0000
 41
1.9050
 42
0.6096
 43
1.0000
 50
270.0000
  0
INSERT
  8
1
  2
RECT
 10
9.4742
 20
23.8506
 30
0.0000
 41
1.9050
 42
0.6096
 43
1.0000
 50
270.0000
  0
INSERT
  8
1
  2
RECT
 10
8.4582
 20
23.8506
 30
0.0000
 41
1.9050
 42
0.6096
 43
1.0000
 50
270.0000
  0
INSERT
  8
1
  2
RECT
 10
7.4676
 20
23.8506
 30
0.0000
 41
1.9050
 42
0.6096
 43
1.0000
 50
270.0000
  0
INSERT
  8
1
  2
RECT
 10
6.4770
 20
23.8506
 30
0.0000
 41
1.9050
 42
0.6096
 43
1.0000
 50
270.0000
  0
INSERT
  8
1
  2
RECT
 10
3.3274
 20
26.1874
 30
0.0000
 41
2.1082
 42
2.7940
 43
1.0000
 50
0.0000
  0
INSERT
  8
1
  2
RECT
 10
24.6126
 20
26.1874
 30
0.0000
 41
2.1082
 42
2.7940
 43
1.0000
 50
0.0000
  0
POLYLINE
  8
1
 66
1
 10
0.0000
 20
0.0000
 30
0.0000
 40
0.3000
 41
0.3000
 70
0
  0
VERTEX
  8
1
 10
6.4770
 20
23.8506
 30
0.0000
  0
VERTEX
  8
1
 10
6.4770
 20
20.4770
 30
0.0000
  0
SEQEND
  8
0
  0
POLYLINE
  8
1
 66
1
 10
0.0000
 20
0.0000
 30
0.0000
 40
0.1500
 41
0.1500
 70
0
  0
VERTEX
  8
1
 10
6.4020
 20
20.4770
 30
0.0000
 42
1.0000
  0
VERTEX
  8
1
 10
6.5520
 20
20.4770
 30
0.0000
  0
SEQEND
  8
0
  0
POLYLINE
  8
1
 66
1
 10
0.0000
 20
0.0000
 30
0.0000
 40
0.1500
 41
0.1500
 70
0
  0
VERTEX
  8
1
 10
6.5520
 20
23.8506
 30
0.0000
 42
1.0000
  0
VERTEX
  8
1
 10
6.4020
 20
23.8506
 30
0.0000
  0
SEQEND
  8
0
  0
POLYLINE
  8
1
 66
1
 10
0.0000
 20
0.0000
 30
0.0000
 40
0.3000
 41
0.3000
 70
0
  0
VERTEX
  8
1
 10
6.4770
 20
20.4770
 30
0.0000
  0
VERTEX
  8
1
 10
5.3000
 20
19.3000
 30
0.0000
  0
SEQEND
  8
0
  0
POLYLINE
  8
1
 66
1
 10
0.0000
 20
0.0000
 30
0.0000
 40
0.1500
 41
0.1500
 70
0
  0
VERTEX
  8
1
 10
5.2470
 20
19.3530
 30
0.0000
 42
1.0000
  0
VERTEX
  8
1
 10
5.3530
 20
19.2470
 30
0.0000
  0
SEQEND
  8
0
  0
POLYLINE
  8
1
 66
1
 10
0.0000
 20
0.0000
 30
0.0000
 40
0.1500
 41
0.1500
 70
0
  0
VERTEX
  8
1
 10
6.5300
 20
20.4240
 30
0.0000
 42
1.0000
  0
VERTEX
  8
1
 10
6.4240
 20
20.5300
 30
0.0000
  0
SEQEND
  8
0
  0
POLYLINE
  8
1
 66
1
 10
0.0000
 20
0.0000
 30
0.0000
 40
0.3000
 41
0.3000
 70
0
  0
VERTEX
  8
1
 10
5.3000
 20
19.3000
 30
0.0000
  0
VERTEX
  8
1
 10
5.3000
 20
15.0200
 30
0.0000
  0
SEQEND
  8
0
  0
POLYLINE
  8
1
 66
1
 10
0.0000
 20
0.0000
 30
0.0000
 40
0.1500
 41
0.1500
 70
0
  0
VERTEX
  8
1
 10
5.2250
 20
15.0200
 30
0.0000
 42
1.0000
  0
VERTEX
  8
1
 10
5.3750
 20
15.0200
 30
0.0000
  0
SEQEND
  8
0
  0
POLYLINE
  8
1
 66
1
 10
0.0000
 20
0.0000
 30
0.0000
 40
0.1500
 41
0.1500
 70
0
  0
VERTEX
  8
1
 10
5.3750
 20
19.3000
 30
0.0000
 42
1.0000
  0
VERTEX
  8
1
 10
5.2250
 20
19.3000
 30
0.0000
  0
SEQEND
  8
0
  0
POLYLINE
  8
1
 66
1
 10
0.0000
 20
0.0000
 30
0.0000
 40
0.3000
 41
0.3000
 70
0
  0
VERTEX
  8
1
 10
5.3000
 20
15.0200
 30
0.0000
  0
VERTEX
  8
1
 10
7.6200
 20
12.7000
 30
0.0000
  0
SEQEND
  8
0
  0
POLYLINE
  8
1
 66
1
 10
0.0000
 20
0.0000
 30
0.0000
 40
0.1500
 41
0.1500
 70
0
  0
VERTEX
  8
1
 10
7.5670
 20
12.6470
 30
0.0000
 42
1.0000
  0
VERTEX
  8
1
 10
7.6730
 20
12.7530
 30
0.0000
  0
SEQEND
  8
0
  0
POLYLINE
  8
1
 66
1
 10
0.0000
 20
0.0000
 30
0.0000
 40
0.1500
 41
0.1500
 70
0
  0
VERTEX
  8
1
 10
5.3530
 20
15.0730
 30
0.0000
 42
1.0000
  0
VERTEX
  8
1
 10
5.2470
 20
14.9670
 30
0.0000
  0
SEQEND
  8
0
  0
POLYLINE
  8
1
 66
1
 10
0.0000
 20
0.0000
 30
0.0000
 40
0.3000
 41
0.3000
 70
0
  0
VERTEX
  8
1
 10
7.4676
 20
23.8506
 30
0.0000
  0
VERTEX
  8
1
 10
7.4676
 20
25.3324
 30
0.0000
  0
SEQEND
  8
0
  0
POLYLINE
  8
1
 66
1
 10
0.0000
 20
0.0000
 30
0.0000
 40
0.1500
 41
0.1500
 70
0
  0
VERTEX
  8
1
 10
7.5426
 20
25.3324
 30
0.0000
 42
1.0000
  0
VERTEX
  8
1
 10
7.3926
 20
25.3324
 30
0.0000
  0
SEQEND
  8
0
  0
POLYLINE
  8
1
 66
1
 10
0.0000
 20
0.0000
 30
0.0000
 40
0.1500
 41
0.1500
 70
0
  0
VERTEX
  8
1
 10
7.3926
 20
23.8506
 30
0.0000
 42
1.0000
  0
VERTEX
  8
1
 10
7.5426
 20
23.8506
 30
0.0000
  0
SEQEND
  8
0
  0
POLYLINE
  8
1
 66
1
 10
0.0000
 20
0.0000
 30
0.0000
 40
0.3000
 41
0.3000
 70
0
  0
VERTEX
  8
1
 10
7.4676
 20
25.3324
 30
0.0000
  0
VERTEX
  8
1
 10
6.9000
 20
25.9000
 30
0.0000
  0
SEQEND
  8
0
  0
POLYLINE
  8
1
 66
1
 10
0.0000
 20
0.0000
 30
0.0000
 40
0.1500
 41
0.1500
 70
0
  0
VERTEX
  8
1
 10
6.9530
 20
25.9530
 30
0.0000
 42
1.0000
  0
VERTEX
  8
1
 10
6.8470
 20
25.8470
 30
0.0000
  0
SEQEND
  8
0
  0
POLYLINE
  8
1
 66
1
 10
0.0000
 20
0.0000
 30
0.0000
 40
0.1500
 41
0.1500
 70
0
  0
VERTEX
  8
1
 10
7.4146
 20
25.2794
 30
0.0000
 42
1.0000
  0
VERTEX
  8
1
 10
7.5206
 20
25.3854
 30
0.0000
  0
SEQEND
  8
0
  0
POLYLINE
  8
1
 66
1
 10
0.0000
 20
0.0000
 30
0.0000
 40
0.3000
 41
0.3000
 70
0
  0
VERTEX
  8
1
 10
6.9000
 20
25.9000
 30
0.0000
  0
VERTEX
  8
1
 10
6.1000
 20
25.9000
 30
0.0000
  0
SEQEND
  8
0
  0
POLYLINE
  8
1
 66
1
 10
0.0000
 20
0.0000
 30
0.0000
 40
0.1500
 41
0.1500
 70
0
  0
VERTEX
  8
1
 10
6.1000
 20
25.9750
 30
0.0000
 42
1.0000
  0
VERTEX
  8
1
 10
6.1000
 20
25.8250
 30
0.0000
  0
SEQEND
  8
0
  0
POLYLINE
  8
1
 66
1
 10
0.0000
 20
0.0000
 30
0.0000
 40
0.1500
 41
0.1500
 70
0
  0
VERTEX
  8
1
 10
6.9000
 20
25.8250
 30
0.0000
 42
1.0000
  0
VERTEX
  8
1
 10
6.9000
 20
25.9750
 30
0.0000
  0
SEQEND
  8
0
  0
POLYLINE
  8
1
 66
1
 10
0.0000
 20
0.0000
 30
0.0000
 40
0.3000
 41
0.3000
 70
0
  0
VERTEX
  8
1
 10
6.1000
 20
25.9000
 30
0.0000
  0
VERTEX
  8
1
 10
5.4000
 20
25.2000
 30
0.0000
  0
SEQEND
  8
0
  0
POLYLINE
  8
1
 66
1
 10
0.0000
 20
0.0000
 30
0.0000
 40
0.1500
 41
0.1500
 70
0
  0
VERTEX
  8
1
 10
5.3470
 20
25.2530
 30
0.0000
 42
1.0000
  0
VERTEX
  8
1
 10
5.4530
 20
25.1470
 30
0.0000
  0
SEQEND
  8
0
  0
POLYLINE
  8
1
 66
1
 10
0.0000
 20
0.0000
 30
0.0000
 40
0.1500
 41
0.1500
 70
0
  0
VERTEX
  8
1
 10
6.1530
 20
25.8470
 30
0.0000
 42
1.0000
  0
VERTEX
  8
1
 10
6.0470
 20
25.9530
 30
0.0000
  0
SEQEND
  8
0
  0
POLYLINE
  8
1
 66
1
 10
0.0000
 20
0.0000
 30
0.0000
 40
0.3000
 41
0.3000
 70
0
  0
VERTEX
  8
1
 10
5.4000
 20
25.2000
 30
0.0000
  0
VERTEX
  8
1
 10
5.4000
 20
21.1000
 30
0.0000
  0
SEQEND
  8
0
  0
POLYLINE
  8
1
 66
1
 10
0.0000
 20
0.0000
 30
0.0000
 40
0.1500
 41
0.1500
 70
0
  0
VERTEX
  8
1
 10
5.3250
 20
21.1000
 30
0.0000
 42
1.0000
  0
VERTEX
  8
1
 10
5.4750
 20
21.1000
 30
0.0000
  0
SEQEND
  8
0
  0
POLYLINE
  8
1
 66
1
 10
0.0000
 20
0.0000
 30
0.0000
 40
0.1500
 41
0.1500
 70
0
  0
VERTEX
  8
1
 10
5.4750
 20
25.2000
 30
0.0000
 42
1.0000
  0
VERTEX
  8
1
 10
5.3250
 20
25.2000
 30
0.0000
  0
SEQEND
  8
0
  0
POLYLINE
  8
1
 66
1
 10
0.0000
 20
0.0000
 30
0.0000
 40
0.3000
 41
0.3000
 70
0
  0
VERTEX
  8
1
 10
5.4000
 20
21.1000
 30
0.0000
  0
VERTEX
  8
1
 10
3.8000
 20
19.5000
 30
0.0000
  0
SEQEND
  8
0
  0
POLYLINE
  8
1
 66
1
 10
0.0000
 20
0.0000
 30
0.0000
 40
0.1500
 41
0.1500
 70
0
  0
VERTEX
  8
1
 10
3.7470
 20
19.5530
 30
0.0000
 42
1.0000
  0
VERTEX
  8
1
 10
3.8530
 20
19.4470
 30
0.0000
  0
SEQEND
  8
0
  0
POLYLINE
  8
1
 66
1
 10
0.0000
 20
0.0000
 30
0.0000
 40
0.1500
 41
0.1500
 70
0
  0
VERTEX
  8
1
 10
5.4530
 20
21.0470
 30
0.0000
 42
1.0000
  0
VERTEX
  8
1
 10
5.3470
 20
21.1530
 30
0.0000
  0
SEQEND
  8
0
  0
POLYLINE
  8
1
 66
1
 10
0.0000
 20
0.0000
 30
0.0000
 40
0.3000
 41
0.3000
 70
0
  0
VERTEX
  8
1
 10
3.8000
 20
19.5000
 30
0.0000
  0
VERTEX
  8
1
 10
3.8000
 20
13.9800
 30
0.0000
  0
SEQEND
  8
0
  0
POLYLINE
  8
1
 66
1
 10
0.0000
 20
0.0000
 30
0.0000
 40
0.1500
 41
0.1500
 70
0
  0
VERTEX
  8
1
 10
3.7250
 20
13.9800
 30
0.0000
 42
1.0000
  0
VERTEX
  8
1
 10
3.8750
 20
13.9800
 30
0.0000
  0
SEQEND
  8
0
  0
POLYLINE
  8
1
 66
1
 10
0.0000
 20
0.0000
 30
0.0000
 40
0.1500
 41
0.1500
 70
0
  0
VERTEX
  8
1
 10
3.8750
 20
19.5000
 30
0.0000
 42
1.0000
  0
VERTEX
  8
1
 10
3.7250
 20
19.5000
 30
0.0000
  0
SEQEND
  8
0
  0
POLYLINE
  8
1
 66
1
 10
0.0000
 20
0.0000
 30
0.0000
 40
0.3000
 41
0.3000
 70
0
  0
VERTEX
  8
1
 10
3.8000
 20
13.9800
 30
0.0000
  0
VERTEX
  8
1
 10
7.6200
 20
10.1600
 30
0.0000
  0
SEQEND
  8
0
  0
POLYLINE
  8
1
 66
1
 10
0.0000
 20
0.0000
 30
0.0000
 40
0.1500
 41
0.1500
 70
0
  0
VERTEX
  8
1
 10
7.5670
 20
10.1070
 30
0.0000
 42
1.0000
  0
VERTEX
  8
1
 10
7.6730
 20
10.2130
 30
0.0000
  0
SEQEND
  8
0
  0
POLYLINE
  8
1
 66
1
 10
0.0000
 20
0.0000
 30
0.0000
 40
0.1500
 41
0.1500
 70
0
  0
VERTEX
  8
1
 10
3.8530
 20
14.0330
 30
0.0000
 42
1.0000
  0
VERTEX
  8
1
 10
3.7470
 20
13.9270
 30
0.0000
  0
SEQEND
  8
0
  0
POLYLINE
  8
1
 66
1
 10
0.0000
 20
0.0000
 30
0.0000
 40
0.3000
 41
0.3000
 70
0
  0
VERTEX
  8
1
 10
13.4620
 20
23.8506
 30
0.0000
  0
VERTEX
  8
1
 10
13.4620
 20
20.4380
 30
0.0000
  0
SEQEND
  8
0
  0
POLYLINE
  8
1
 66
1
 10
0.0000
 20
0.0000
 30
0.0000
 40
0.1500
 41
0.1500
 70
0
  0
VERTEX
  8
1
 10
13.3870
 20
20.4380
 30
0.0000
 42
1.0000
  0
VERTEX
  8
1
 10
13.5370
 20
20.4380
 30
0.0000
  0
SEQEND
  8
0
  0
POLYLINE
  8
1
 66
1
 10
0.0000
 20
0.0000
 30
0.0000
 40
0.1500
 41
0.1500
 70
0
  0
VERTEX
  8
1
 10
13.5370
 20
23.8506
 30
0.0000
 42
1.0000
  0
VERTEX
  8
1
 10
13.3870
 20
23.8506
 30
0.0000
  0
SEQEND
  8
0
  0
POLYLINE
  8
1
 66
1
 10
0.0000
 20
0.0000
 30
0.0000
 40
0.3000
 41
0.3000
 70
0
  0
VERTEX
  8
1
 10
13.4620
 20
20.4380
 30
0.0000
  0
VERTEX
  8
1
 10
15.8000
 20
18.1000
 30
0.0000
  0
SEQEND
  8
0
  0
POLYLINE
  8
1
 66
1
 10
0.0000
 20
0.0000
 30
0.0000
 40
0.1500
 41
0.1500
 70
0
  0
VERTEX
  8
1
 10
15.7470
 20
18.0470
 30
0.0000
 42
1.0000
  0
VERTEX
  8
1
 10
15.8530
 20
18.1530
 30
0.0000
  0
SEQEND
  8
0
  0
POLYLINE
  8
1
 66
1
 10
0.0000
 20
0.0000
 30
0.0000
 40
0.1500
 41
0.1500
 70
0
  0
VERTEX
  8
1
 10
13.5150
 20
20.4910
 30
0.0000
 42
1.0000
  0
VERTEX
  8
1
 10
13.4090
 20
20.3850
 30
0.0000
  0
SEQEND
  8
0
  0
POLYLINE
  8
1
 66
1
 10
0.0000
 20
0.0000
 30
0.0000
 40
0.3000
 41
0.3000
 70
0
  0
VERTEX
  8
1
 10
15.8000
 20
18.1000
 30
0.0000
  0
VERTEX
  8
1
 10
15.8000
 20
12.0800
 30
0.0000
  0
SEQEND
  8
0
  0
POLYLINE
  8
1
 66
1
 10
0.0000
 20
0.0000
 30
0.0000
 40
0.1500
 41
0.1500
 70
0
  0
VERTEX
  8
1
 10
15.7250
 20
12.0800
 30
0.0000
 42
1.0000
  0
VERTEX
  8
1
 10
15.8750
 20
12.0800
 30
0.0000
  0
SEQEND
  8
0
  0
POLYLINE
  8
1
 66
1
 10
0.0000
 20
0.0000
 30
0.0000
 40
0.1500
 41
0.1500
 70
0
  0
VERTEX
  8
1
 10
15.8750
 20
18.1000
 30
0.0000
 42
1.0000
  0
VERTEX
  8
1
 10
15.7250
 20
18.1000
 30
0.0000
  0
SEQEND
  8
0
  0
POLYLINE
  8
1
 66
1
 10
0.0000
 20
0.0000
 30
0.0000
 40
0.3000
 41
0.3000
 70
0
  0
VERTEX
  8
1
 10
15.8000
 20
12.0800
 30
0.0000
  0
VERTEX
  8
1
 10
20.3200
 20
7.5600
 30
0.0000
  0
SEQEND
  8
0
  0
POLYLINE
  8
1
 66
1
 10
0.0000
 20
0.0000
 30
0.0000
 40
0.1500
 41
0.1500
 70
0
  0
VERTEX
  8
1
 10
20.2670
 20
7.5070
 30
0.0000
 42
1.0000
  0
VERTEX
  8
1
 10
20.3730
 20
7.6130
 30
0.0000
  0
SEQEND
  8
0
  0
POLYLINE
  8
1
 66
1
 10
0.0000
 20
0.0000
 30
0.0000
 40
0.1500
 41
0.1500
 70
0
  0
VERTEX
  8
1
 10
15.8530
 20
12.1330
 30
0.0000
 42
1.0000
  0
VERTEX
  8
1
 10
15.7470
 20
12.0270
 30
0.0000
  0
SEQEND
  8
0
  0
POLYLINE
  8
1
 66
1
 10
0.0000
 20
0.0000
 30
0.0000
 40
0.3000
 41
0.3000
 70
0
  0
VERTEX
  8
1
 10
12.4714
 20
23.8506
 30
0.0000
  0
VERTEX
  8
1
 10
12.4714
 20
20.2286
 30
0.0000
  0
SEQEND
  8
0
  0
POLYLINE
  8
1
 66
1
 10
0.0000
 20
0.0000
 30
0.0000
 40
0.1500
 41
0.1500
 70
0
  0
VERTEX
  8
1
 10
12.3964
 20
20.2286
 30
0.0000
 42
1.0000
  0
VERTEX
  8
1
 10
12.5464
 20
20.2286
 30
0.0000
  0
SEQEND
  8
0
  0
POLYLINE
  8
1
 66
1
 10
0.0000
 20
0.0000
 30
0.0000
 40
0.1500
 41
0.1500
 70
0
  0
VERTEX
  8
1
 10
12.5464
 20
23.8506
 30
0.0000
 42
1.0000
  0
VERTEX
  8
1
 10
12.3964
 20
23.8506
 30
0.0000
  0
SEQEND
  8
0
  0
POLYLINE
  8
1
 66
1
 10
0.0000
 20
0.0000
 30
0.0000
 40
0.3000
 41
0.3000
 70
0
  0
VERTEX
  8
1
 10
12.4714
 20
20.2286
 30
0.0000
  0
VERTEX
  8
1
 10
14.6000
 20
18.1000
 30
0.0000
  0
SEQEND
  8
0
  0
POLYLINE
  8
1
 66
1
 10
0.0000
 20
0.0000
 30
0.0000
 40
0.1500
 41
0.1500
 70
0
  0
VERTEX
  8
1
 10
14.5470
 20
18.0470
 30
0.0000
 42
1.0000
  0
VERTEX
  8
1
 10
14.6530
 20
18.1530
 30
0.0000
  0
SEQEND
  8
0
  0
POLYLINE
  8
1
 66
1
 10
0.0000
 20
0.0000
 30
0.0000
 40
0.1500
 41
0.1500
 70
0
  0
VERTEX
  8
1
 10
12.5244
 20
20.2816
 30
0.0000
 42
1.0000
  0
VERTEX
  8
1
 10
12.4184
 20
20.1756
 30
0.0000
  0
SEQEND
  8
0
  0
POLYLINE
  8
1
 66
1
 10
0.0000
 20
0.0000
 30
0.0000
 40
0.3000
 41
0.3000
 70
0
  0
VERTEX
  8
1
 10
14.6000
 20
18.1000
 30
0.0000
  0
VERTEX
  8
1
 10
14.6000
 20
10.7400
 30
0.0000
  0
SEQEND
  8
0
  0
POLYLINE
  8
1
 66
1
 10
0.0000
 20
0.0000
 30
0.0000
 40
0.1500
 41
0.1500
 70
0
  0
VERTEX
  8
1
 10
14.5250
 20
10.7400
 30
0.0000
 42
1.0000
  0
VERTEX
  8
1
 10
14.6750
 20
10.7400
 30
0.0000
  0
SEQEND
  8
0
  0
POLYLINE
  8
1
 66
1
 10
0.0000
 20
0.0000
 30
0.0000
 40
0.1500
 41
0.1500
 70
0
  0
VERTEX
  8
1
 10
14.6750
 20
18.1000
 30
0.0000
 42
1.0000
  0
VERTEX
  8
1
 10
14.5250
 20
18.1000
 30
0.0000
  0
SEQEND
  8
0
  0
POLYLINE
  8
1
 66
1
 10
0.0000
 20
0.0000
 30
0.0000
 40
0.3000
 41
0.3000
 70
0
  0
VERTEX
  8
1
 10
14.6000
 20
10.7400
 30
0.0000
  0
VERTEX
  8
1
 10
20.3200
 20
5.0200
 30
0.0000
  0
SEQEND
  8
0
  0
POLYLINE
  8
1
 66
1
 10
0.0000
 20
0.0000
 30
0.0000
 40
0.1500
 41
0.1500
 70
0
  0
VERTEX
  8
1
 10
20.2670
 20
4.9670
 30
0.0000
 42
1.0000
  0
VERTEX
  8
1
 10
20.3730
 20
5.0730
 30
0.0000
  0
SEQEND
  8
0
  0
POLYLINE
  8
1
 66
1
 10
0.0000
 20
0.0000
 30
0.0000
 40
0.1500
 41
0.1500
 70
0
  0
VERTEX
  8
1
 10
14.6530
 20
10.7930
 30
0.0000
 42
1.0000
  0
VERTEX
  8
1
 10
14.5470
 20
10.6870
 30
0.0000
  0
SEQEND
  8
0
  0
POLYLINE
  8
1
 66
1
 10
0.0000
 20
0.0000
 30
0.0000
 40
0.3000
 41
0.3000
 70
0
  0
VERTEX
  8
1
 10
11.4808
 20
23.8506
 30
0.0000
  0
VERTEX
  8
1
 10
11.4808
 20
19.9192
 30
0.0000
  0
SEQEND
  8
0
  0
POLYLINE
  8
1
 66
1
 10
0.0000
 20
0.0000
 30
0.0000
 40
0.1500
 41
0.1500
 70
0
  0
VERTEX
  8
1
 10
11.4058
 20
19.9192
 30
0.0000
 42
1.0000
  0
VERTEX
  8
1
 10
11.5558
 20
19.9192
 30
0.0000
  0
SEQEND
  8
0
  0
POLYLINE
  8
1
 66
1
 10
0.0000
 20
0.0000
 30
0.0000
 40
0.1500
 41
0.1500
 70
0
  0
VERTEX
  8
1
 10
11.5558
 20
23.8506
 30
0.0000
 42
1.0000
  0
VERTEX
  8
1
 10
11.4058
 20
23.8506
 30
0.0000
  0
SEQEND
  8
0
  0
POLYLINE
  8
1
 66
1
 10
0.0000
 20
0.0000
 30
0.0000
 40
0.3000
 41
0.3000
 70
0
  0
VERTEX
  8
1
 10
11.4808
 20
19.9192
 30
0.0000
  0
VERTEX
  8
1
 10
13.7000
 20
17.7000
 30
0.0000
  0
SEQEND
  8
0
  0
POLYLINE
  8
1
 66
1
 10
0.0000
 20
0.0000
 30
0.0000
 40
0.1500
 41
0.1500
 70
0
  0
VERTEX
  8
1
 10
13.6470
 20
17.6470
 30
0.0000
 42
1.0000
  0
VERTEX
  8
1
 10
13.7530
 20
17.7530
 30
0.0000
  0
SEQEND
  8
0
  0
POLYLINE
  8
1
 66
1
 10
0.0000
 20
0.0000
 30
0.0000
 40
0.1500
 41
0.1500
 70
0
  0
VERTEX
  8
1
 10
11.5338
 20
19.9722
 30
0.0000
 42
1.0000
  0
VERTEX
  8
1
 10
11.4278
 20
19.8662
 30
0.0000
  0
SEQEND
  8
0
  0
POLYLINE
  8
1
 66
1
 10
0.0000
 20
0.0000
 30
0.0000
 40
0.3000
 41
0.3000
 70
0
  0
VERTEX
  8
1
 10
13.7000
 20
17.7000
 30
0.0000
  0
VERTEX
  8
1
 10
13.7000
 20
9.1000
 30
0.0000
  0
SEQEND
  8
0
  0
POLYLINE
  8
1
 66
1
 10
0.0000
 20
0.0000
 30
0.0000
 40
0.1500
 41
0.1500
 70
0
  0
VERTEX
  8
1
 10
13.6250
 20
9.1000
 30
0.0000
 42
1.0000
  0
VERTEX
  8
1
 10
13.7750
 20
9.1000
 30
0.0000
  0
SEQEND
  8
0
  0
POLYLINE
  8
1
 66
1
 10
0.0000
 20
0.0000
 30
0.0000
 40
0.1500
 41
0.1500
 70
0
  0
VERTEX
  8
1
 10
13.7750
 20
17.7000
 30
0.0000
 42
1.0000
  0
VERTEX
  8
1
 10
13.6250
 20
17.7000
 30
0.0000
  0
SEQEND
  8
0
  0
POLYLINE
  8
1
 66
1
 10
0.0000
 20
0.0000
 30
0.0000
 40
0.3000
 41
0.3000
 70
0
  0
VERTEX
  8
1
 10
13.7000
 20
9.1000
 30
0.0000
  0
VERTEX
  8
1
 10
20.3200
 20
2.4800
 30
0.0000
  0
SEQEND
  8
0
  0
POLYLINE
  8
1
 66
1
 10
0.0000
 20
0.0000
 30
0.0000
 40
0.1500
 41
0.1500
 70
0
  0
VERTEX
  8
1
 10
20.2670
 20
2.4270
 30
0.0000
 42
1.0000
  0
VERTEX
  8
1
 10
20.3730
 20
2.5330
 30
0.0000
  0
SEQEND
  8
0
  0
POLYLINE
  8
1
 66
1
 10
0.0000
 20
0.0000
 30
0.0000
 40
0.1500
 41
0.1500
 70
0
  0
VERTEX
  8
1
 10
13.7530
 20
9.1530
 30
0.0000
 42
1.0000
  0
VERTEX
  8
1
 10
13.6470
 20
9.0470
 30
0.0000
  0
SEQEND
  8
0
  0
POLYLINE
  8
1
 66
1
 10
0.0000
 20
0.0000
 30
0.0000
 40
0.3000
 41
0.3000
 70
0
  0
VERTEX
  8
1
 10
14.4780
 20
23.8506
 30
0.0000
  0
VERTEX
  8
1
 10
14.4780
 20
20.6220
 30
0.0000
  0
SEQEND
  8
0
  0
POLYLINE
  8
1
 66
1
 10
0.0000
 20
0.0000
 30
0.0000
 40
0.1500
 41
0.1500
 70
0
  0
VERTEX
  8
1
 10
14.4030
 20
20.6220
 30
0.0000
 42
1.0000
  0
VERTEX
  8
1
 10
14.5530
 20
20.6220
 30
0.0000
  0
SEQEND
  8
0
  0
POLYLINE
  8
1
 66
1
 10
0.0000
 20
0.0000
 30
0.0000
 40
0.1500
 41
0.1500
 70
0
  0
VERTEX
  8
1
 10
14.5530
 20
23.8506
 30
0.0000
 42
1.0000
  0
VERTEX
  8
1
 10
14.4030
 20
23.8506
 30
0.0000
  0
SEQEND
  8
0
  0
POLYLINE
  8
1
 66
1
 10
0.0000
 20
0.0000
 30
0.0000
 40
0.3000
 41
0.3000
 70
0
  0
VERTEX
  8
1
 10
14.4780
 20
20.6220
 30
0.0000
  0
VERTEX
  8
1
 10
16.9000
 20
18.2000
 30
0.0000
  0
SEQEND
  8
0
  0
POLYLINE
  8
1
 66
1
 10
0.0000
 20
0.0000
 30
0.0000
 40
0.1500
 41
0.1500
 70
0
  0
VERTEX
  8
1
 10
16.8470
 20
18.1470
 30
0.0000
 42
1.0000
  0
VERTEX
  8
1
 10
16.9530
 20
18.2530
 30
0.0000
  0
SEQEND
  8
0
  0
POLYLINE
  8
1
 66
1
 10
0.0000
 20
0.0000
 30
0.0000
 40
0.1500
 41
0.1500
 70
0
  0
VERTEX
  8
1
 10
14.5310
 20
20.6750
 30
0.0000
 42
1.0000
  0
VERTEX
  8
1
 10
14.4250
 20
20.5690
 30
0.0000
  0
SEQEND
  8
0
  0
POLYLINE
  8
1
 66
1
 10
0.0000
 20
0.0000
 30
0.0000
 40
0.3000
 41
0.3000
 70
0
  0
VERTEX
  8
1
 10
16.9000
 20
18.2000
 30
0.0000
  0
VERTEX
  8
1
 10
16.9000
 20
17.2000
 30
0.0000
  0
SEQEND
  8
0
  0
POLYLINE
  8
1
 66
1
 10
0.0000
 20
0.0000
 30
0.0000
 40
0.1500
 41
0.1500
 70
0
  0
VERTEX
  8
1
 10
16.8250
 20
17.2000
 30
0.0000
 42
1.0000
  0
VERTEX
  8
1
 10
16.9750
 20
17.2000
 30
0.0000
  0
SEQEND
  8
0
  0
POLYLINE
  8
1
 66
1
 10
0.0000
 20
0.0000
 30
0.0000
 40
0.1500
 41
0.1500
 70
0
  0
VERTEX
  8
1
 10
16.9750
 20
18.2000
 30
0.0000
 42
1.0000
  0
VERTEX
  8
1
 10
16.8250
 20
18.2000
 30
0.0000
  0
SEQEND
  8
0
  0
POLYLINE
  8
1
 66
1
 10
0.0000
 20
0.0000
 30
0.0000
 40
0.3000
 41
0.3000
 70
0
  0
VERTEX
  8
1
 10
16.9000
 20
17.2000
 30
0.0000
  0
VERTEX
  8
1
 10
17.4000
 20
16.7000
 30
0.0000
  0
SEQEND
  8
0
  0
POLYLINE
  8
1
 66
1
 10
0.0000
 20
0.0000
 30
0.0000
 40
0.1500
 41
0.1500
 70
0
  0
VERTEX
  8
1
 10
17.3470
 20
16.6470
 30
0.0000
 42
1.0000
  0
VERTEX
  8
1
 10
17.4530
 20
16.7530
 30
0.0000
  0
SEQEND
  8
0
  0
POLYLINE
  8
1
 66
1
 10
0.0000
 20
0.0000
 30
0.0000
 40
0.1500
 41
0.1500
 70
0
  0
VERTEX
  8
1
 10
16.9530
 20
17.2530
 30
0.0000
 42
1.0000
  0
VERTEX
  8
1
 10
16.8470
 20
17.1470
 30
0.0000
  0
SEQEND
  8
0
  0
POLYLINE
  8
16
 66
1
 10
0.0000
 20
0.0000
 30
0.0000
 40
0.3000
 41
0.3000
 70
0
  0
VERTEX
  8
16
 10
17.4000
 20
16.7000
 30
0.0000
  0
VERTEX
  8
16
 10
17.4000
 20
14.2000
 30
0.0000
  0
SEQEND
  8
0
  0
POLYLINE
  8
16
 66
1
 10
0.0000
 20
0.0000
 30
0.0000
 40
0.1500
 41
0.1500
 70
0
  0
VERTEX
  8
16
 10
17.3250
 20
14.2000
 30
0.0000
 42
1.0000
  0
VERTEX
  8
16
 10
17.4750
 20
14.2000
 30
0.0000
  0
SEQEND
  8
0
  0
POLYLINE
  8
16
 66
1
 10
0.0000
 20
0.0000
 30
0.0000
 40
0.1500
 41
0.1500
 70
0
  0
VERTEX
  8
16
 10
17.4750
 20
16.7000
 30
0.0000
 42
1.0000
  0
VERTEX
  8
16
 10
17.3250
 20
16.7000
 30
0.0000
  0
SEQEND
  8
0
  0
POLYLINE
  8
16
 66
1
 10
0.0000
 20
0.0000
 30
0.0000
 40
0.3000
 41
0.3000
 70
0
  0
VERTEX
  8
16
 10
17.4000
 20
14.2000
 30
0.0000
  0
VERTEX
  8
16
 10
10.8000
 20
7.6000
 30
0.0000
  0
SEQEND
  8
0
  0
POLYLINE
  8
16
 66
1
 10
0.0000
 20
0.0000
 30
0.0000
 40
0.1500
 41
0.1500
 70
0
  0
VERTEX
  8
16
 10
10.7470
 20
7.6530
 30
0.0000
 42
1.0000
  0
VERTEX
  8
16
 10
10.8530
 20
7.5470
 30
0.0000
  0
SEQEND
  8
0
  0
POLYLINE
  8
16
 66
1
 10
0.0000
 20
0.0000
 30
0.0000
 40
0.1500
 41
0.1500
 70
0
  0
VERTEX
  8
16
 10
17.4530
 20
14.1470
 30
0.0000
 42
1.0000
  0
VERTEX
  8
16
 10
17.3470
 20
14.2530
 30
0.0000
  0
SEQEND
  8
0
  0
POLYLINE
  8
1
 66
1
 10
0.0000
 20
0.0000
 30
0.0000
 40
0.3000
 41
0.3000
 70
0
  0
VERTEX
  8
1
 10
10.8000
 20
7.6000
 30
0.0000
  0
VERTEX
  8
1
 10
7.6400
 20
7.6000
 30
0.0000
  0
SEQEND
  8
0
  0
POLYLINE
  8
1
 66
1
 10
0.0000
 20
0.0000
 30
0.0000
 40
0.1500
 41
0.1500
 70
0
  0
VERTEX
  8
1
 10
7.6400
 20
7.6750
 30
0.0000
 42
1.0000
  0
VERTEX
  8
1
 10
7.6400
 20
7.5250
 30
0.0000
  0
SEQEND
  8
0
  0
POLYLINE
  8
1
 66
1
 10
0.0000
 20
0.0000
 30
0.0000
 40
0.1500
 41
0.1500
 70
0
  0
VERTEX
  8
1
 10
10.8000
 20
7.5250
 30
0.0000
 42
1.0000
  0
VERTEX
  8
1
 10
10.8000
 20
7.6750
 30
0.0000
  0
SEQEND
  8
0
  0
POLYLINE
  8
1
 66
1
 10
0.0000
 20
0.0000
 30
0.0000
 40
0.3000
 41
0.3000
 70
0
  0
VERTEX
  8
1
 10
7.6400
 20
7.6000
 30
0.0000
  0
VERTEX
  8
1
 10
7.6200
 20
7.6200
 30
0.0000
  0
SEQEND
  8
0
  0
POLYLINE
  8
1
 66
1
 10
0.0000
 20
0.0000
 30
0.0000
 40
0.1500
 41
0.1500
 70
0
  0
VERTEX
  8
1
 10
7.6730
 20
7.6730
 30
0.0000
 42
1.0000
  0
VERTEX
  8
1
 10
7.5670
 20
7.5670
 30
0.0000
  0
SEQEND
  8
0
  0
POLYLINE
  8
1
 66
1
 10
0.0000
 20
0.0000
 30
0.0000
 40
0.1500
 41
0.1500
 70
0
  0
VERTEX
  8
1
 10
7.5870
 20
7.5470
 30
0.0000
 42
1.0000
  0
VERTEX
  8
1
 10
7.6930
 20
7.6530
 30
0.0000
  0
SEQEND
  8
0
  0
INSERT
  8
18
  2
ROUNDV
 10
17.4000
 20
16.7000
 30
0.0000
 41
1.0064
 42
1.0064
 43
1.0000
 50
0.0000
  0
INSERT
  8
18
  2
ROUNDV
 10
17.4000
 20
16.7000
 30
0.0000
 41
1.0064
 42
1.0064
 43
1.0000
 50
0.0000
  0
INSERT
  8
18
  2
ROUNDV
 10
10.8000
 20
7.6000
 30
0.0000
 41
1.0064
 42
1.0064
 43
1.0000
 50
0.0000
  0
INSERT
  8
18
  2
ROUNDV
 10
10.8000
 20
7.6000
 30
0.0000
 41
1.0064
 42
1.0064
 43
1.0000
 50
0.0000
  0
POLYLINE
  8
1
 66
1
 10
0.0000
 20
0.0000
 30
0.0000
 40
0.3000
 41
0.3000
 70
0
  0
VERTEX
  8
1
 10
21.4630
 20
23.8506
 30
0.0000
  0
VERTEX
  8
1
 10
21.4630
 20
22.8370
 30
0.0000
  0
SEQEND
  8
0
  0
POLYLINE
  8
1
 66
1
 10
0.0000
 20
0.0000
 30
0.0000
 40
0.1500
 41
0.1500
 70
0
  0
VERTEX
  8
1
 10
21.3880
 20
22.8370
 30
0.0000
 42
1.0000
  0
VERTEX
  8
1
 10
21.5380
 20
22.8370
 30
0.0000
  0
SEQEND
  8
0
  0
POLYLINE
  8
1
 66
1
 10
0.0000
 20
0.0000
 30
0.0000
 40
0.1500
 41
0.1500
 70
0
  0
VERTEX
  8
1
 10
21.5380
 20
23.8506
 30
0.0000
 42
1.0000
  0
VERTEX
  8
1
 10
21.3880
 20
23.8506
 30
0.0000
  0
SEQEND
  8
0
  0
POLYLINE
  8
1
 66
1
 10
0.0000
 20
0.0000
 30
0.0000
 40
0.3000
 41
0.3000
 70
0
  0
VERTEX
  8
1
 10
21.4630
 20
22.8370
 30
0.0000
  0
VERTEX
  8
1
 10
22.7000
 20
21.6000
 30
0.0000
  0
SEQEND
  8
0
  0
POLYLINE
  8
1
 66
1
 10
0.0000
 20
0.0000
 30
0.0000
 40
0.1500
 41
0.1500
 70
0
  0
VERTEX
  8
1
 10
22.6470
 20
21.5470
 30
0.0000
 42
1.0000
  0
VERTEX
  8
1
 10
22.7530
 20
21.6530
 30
0.0000
  0
SEQEND
  8
0
  0
POLYLINE
  8
1
 66
1
 10
0.0000
 20
0.0000
 30
0.0000
 40
0.1500
 41
0.1500
 70
0
  0
VERTEX
  8
1
 10
21.5160
 20
22.8900
 30
0.0000
 42
1.0000
  0
VERTEX
  8
1
 10
21.4100
 20
22.7840
 30
0.0000
  0
SEQEND
  8
0
  0
POLYLINE
  8
16
 66
1
 10
0.0000
 20
0.0000
 30
0.0000
 40
0.3000
 41
0.3000
 70
0
  0
VERTEX
  8
16
 10
22.7000
 20
21.6000
 30
0.0000
  0
VERTEX
  8
16
 10
22.7000
 20
17.2000
 30
0.0000
  0
SEQEND
  8
0
  0
POLYLINE
  8
16
 66
1
 10
0.0000
 20
0.0000
 30
0.0000
 40
0.1500
 41
0.1500
 70
0
  0
VERTEX
  8
16
 10
22.6250
 20
17.2000
 30
0.0000
 42
1.0000
  0
VERTEX
  8
16
 10
22.7750
 20
17.2000
 30
0.0000
  0
SEQEND
  8
0
  0
POLYLINE
  8
16
 66
1
 10
0.0000
 20
0.0000
 30
0.0000
 40
0.1500
 41
0.1500
 70
0
  0
VERTEX
  8
16
 10
22.7750
 20
21.6000
 30
0.0000
 42
1.0000
  0
VERTEX
  8
16
 10
22.6250
 20
21.6000
 30
0.0000
  0
SEQEND
  8
0
  0
POLYLINE
  8
16
 66
1
 10
0.0000
 20
0.0000
 30
0.0000
 40
0.3000
 41
0.3000
 70
0
  0
VERTEX
  8
16
 10
22.7000
 20
17.2000
 30
0.0000
  0
VERTEX
  8
16
 10
10.6000
 20
5.1000
 30
0.0000
  0
SEQEND
  8
0
  0
POLYLINE
  8
16
 66
1
 10
0.0000
 20
0.0000
 30
0.0000
 40
0.1500
 41
0.1500
 70
0
  0
VERTEX
  8
16
 10
10.5470
 20
5.1530
 30
0.0000
 42
1.0000
  0
VERTEX
  8
16
 10
10.6530
 20
5.0470
 30
0.0000
  0
SEQEND
  8
0
  0
POLYLINE
  8
16
 66
1
 10
0.0000
 20
0.0000
 30
0.0000
 40
0.1500
 41
0.1500
 70
0
  0
VERTEX
  8
16
 10
22.7530
 20
17.1470
 30
0.0000
 42
1.0000
  0
VERTEX
  8
16
 10
22.6470
 20
17.2530
 30
0.0000
  0
SEQEND
  8
0
  0
POLYLINE
  8
1
 66
1
 10
0.0000
 20
0.0000
 30
0.0000
 40
0.3000
 41
0.3000
 70
0
  0
VERTEX
  8
1
 10
10.6000
 20
5.1000
 30
0.0000
  0
VERTEX
  8
1
 10
7.6400
 20
5.1000
 30
0.0000
  0
SEQEND
  8
0
  0
POLYLINE
  8
1
 66
1
 10
0.0000
 20
0.0000
 30
0.0000
 40
0.1500
 41
0.1500
 70
0
  0
VERTEX
  8
1
 10
7.6400
 20
5.1750
 30
0.0000
 42
1.0000
  0
VERTEX
  8
1
 10
7.6400
 20
5.0250
 30
0.0000
  0
SEQEND
  8
0
  0
POLYLINE
  8
1
 66
1
 10
0.0000
 20
0.0000
 30
0.0000
 40
0.1500
 41
0.1500
 70
0
  0
VERTEX
  8
1
 10
10.6000
 20
5.0250
 30
0.0000
 42
1.0000
  0
VERTEX
  8
1
 10
10.6000
 20
5.1750
 30
0.0000
  0
SEQEND
  8
0
  0
POLYLINE
  8
1
 66
1
 10
0.0000
 20
0.0000
 30
0.0000
 40
0.3000
 41
0.3000
 70
0
  0
VERTEX
  8
1
 10
7.6400
 20
5.1000
 30
0.0000
  0
VERTEX
  8
1
 10
7.6200
 20
5.0800
 30
0.0000
  0
SEQEND
  8
0
  0
POLYLINE
  8
1
 66
1
 10
0.0000
 20
0.0000
 30
0.0000
 40
0.1500
 41
0.1500
 70
0
  0
VERTEX
  8
1
 10
7.5670
 20
5.1330
 30
0.0000
 42
1.0000
  0
VERTEX
  8
1
 10
7.6730
 20
5.0270
 30
0.0000
  0
SEQEND
  8
0
  0
POLYLINE
  8
1
 66
1
 10
0.0000
 20
0.0000
 30
0.0000
 40
0.1500
 41
0.1500
 70
0
  0
VERTEX
  8
1
 10
7.6930
 20
5.0470
 30
0.0000
 42
1.0000
  0
VERTEX
  8
1
 10
7.5870
 20
5.1530
 30
0.0000
  0
SEQEND
  8
0
  0
INSERT
  8
18
  2
ROUNDV
 10
22.7000
 20
21.6000
 30
0.0000
 41
1.0064
 42
1.0064
 43
1.0000
 50
0.0000
  0
INSERT
  8
18
  2
ROUNDV
 10
22.7000
 20
21.6000
 30
0.0000
 41
1.0064
 42
1.0064
 43
1.0000
 50
0.0000
  0
INSERT
  8
18
  2
ROUNDV
 10
10.6000
 20
5.1000
 30
0.0000
 41
1.0064
 42
1.0064
 43
1.0000
 50
0.0000
  0
INSERT
  8
18
  2
ROUNDV
 10
10.6000
 20
5.1000
 30
0.0000
 41
1.0064
 42
1.0064
 43
1.0000
 50
0.0000
  0
POLYLINE
  8
1
 66
1
 10
0.0000
 20
0.0000
 30
0.0000
 40
0.3000
 41
0.3000
 70
0
  0
VERTEX
  8
1
 10
15.4686
 20
23.8506
 30
0.0000
  0
VERTEX
  8
1
 10
15.4686
 20
20.8314
 30
0.0000
  0
SEQEND
  8
0
  0
POLYLINE
  8
1
 66
1
 10
0.0000
 20
0.0000
 30
0.0000
 40
0.1500
 41
0.1500
 70
0
  0
VERTEX
  8
1
 10
15.3936
 20
20.8314
 30
0.0000
 42
1.0000
  0
VERTEX
  8
1
 10
15.5436
 20
20.8314
 30
0.0000
  0
SEQEND
  8
0
  0
POLYLINE
  8
1
 66
1
 10
0.0000
 20
0.0000
 30
0.0000
 40
0.1500
 41
0.1500
 70
0
  0
VERTEX
  8
1
 10
15.5436
 20
23.8506
 30
0.0000
 42
1.0000
  0
VERTEX
  8
1
 10
15.3936
 20
23.8506
 30
0.0000
  0
SEQEND
  8
0
  0
POLYLINE
  8
1
 66
1
 10
0.0000
 20
0.0000
 30
0.0000
 40
0.3000
 41
0.3000
 70
0
  0
VERTEX
  8
1
 10
15.4686
 20
20.8314
 30
0.0000
  0
VERTEX
  8
1
 10
18.2000
 20
18.1000
 30
0.0000
  0
SEQEND
  8
0
  0
POLYLINE
  8
1
 66
1
 10
0.0000
 20
0.0000
 30
0.0000
 40
0.1500
 41
0.1500
 70
0
  0
VERTEX
  8
1
 10
18.1470
 20
18.0470
 30
0.0000
 42
1.0000
  0
VERTEX
  8
1
 10
18.2530
 20
18.1530
 30
0.0000
  0
SEQEND
  8
0
  0
POLYLINE
  8
1
 66
1
 10
0.0000
 20
0.0000
 30
0.0000
 40
0.1500
 41
0.1500
 70
0
  0
VERTEX
  8
1
 10
15.5216
 20
20.8844
 30
0.0000
 42
1.0000
  0
VERTEX
  8
1
 10
15.4156
 20
20.7784
 30
0.0000
  0
SEQEND
  8
0
  0
POLYLINE
  8
1
 66
1
 10
0.0000
 20
0.0000
 30
0.0000
 40
0.3000
 41
0.3000
 70
0
  0
VERTEX
  8
1
 10
18.2000
 20
18.1000
 30
0.0000
  0
VERTEX
  8
1
 10
19.8400
 20
18.2000
 30
0.0000
  0
SEQEND
  8
0
  0
POLYLINE
  8
1
 66
1
 10
0.0000
 20
0.0000
 30
0.0000
 40
0.1500
 41
0.1500
 70
0
  0
VERTEX
  8
1
 10
19.8446
 20
18.1251
 30
0.0000
 42
1.0000
  0
VERTEX
  8
1
 10
19.8354
 20
18.2749
 30
0.0000
  0
SEQEND
  8
0
  0
POLYLINE
  8
1
 66
1
 10
0.0000
 20
0.0000
 30
0.0000
 40
0.1500
 41
0.1500
 70
0
  0
VERTEX
  8
1
 10
18.1954
 20
18.1749
 30
0.0000
 42
1.0000
  0
VERTEX
  8
1
 10
18.2046
 20
18.0251
 30
0.0000
  0
SEQEND
  8
0
  0
POLYLINE
  8
1
 66
1
 10
0.0000
 20
0.0000
 30
0.0000
 40
0.3000
 41
0.3000
 70
0
  0
VERTEX
  8
1
 10
19.8400
 20
18.2000
 30
0.0000
  0
VERTEX
  8
1
 10
20.3200
 20
17.7200
 30
0.0000
  0
SEQEND
  8
0
  0
POLYLINE
  8
1
 66
1
 10
0.0000
 20
0.0000
 30
0.0000
 40
0.1500
 41
0.1500
 70
0
  0
VERTEX
  8
1
 10
20.2670
 20
17.6670
 30
0.0000
 42
1.0000
  0
VERTEX
  8
1
 10
20.3730
 20
17.7730
 30
0.0000
  0
SEQEND
  8
0
  0
POLYLINE
  8
1
 66
1
 10
0.0000
 20
0.0000
 30
0.0000
 40
0.1500
 41
0.1500
 70
0
  0
VERTEX
  8
1
 10
19.8930
 20
18.2530
 30
0.0000
 42
1.0000
  0
VERTEX
  8
1
 10
19.7870
 20
18.1470
 30
0.0000
  0
SEQEND
  8
0
  0
POLYLINE
  8
1
 66
1
 10
0.0000
 20
0.0000
 30
0.0000
 40
0.3000
 41
0.3000
 70
0
  0
VERTEX
  8
1
 10
16.4592
 20
23.8506
 30
0.0000
  0
VERTEX
  8
1
 10
16.4592
 20
20.9408
 30
0.0000
  0
SEQEND
  8
0
  0
POLYLINE
  8
1
 66
1
 10
0.0000
 20
0.0000
 30
0.0000
 40
0.1500
 41
0.1500
 70
0
  0
VERTEX
  8
1
 10
16.3842
 20
20.9408
 30
0.0000
 42
1.0000
  0
VERTEX
  8
1
 10
16.5342
 20
20.9408
 30
0.0000
  0
SEQEND
  8
0
  0
POLYLINE
  8
1
 66
1
 10
0.0000
 20
0.0000
 30
0.0000
 40
0.1500
 41
0.1500
 70
0
  0
VERTEX
  8
1
 10
16.5342
 20
23.8506
 30
0.0000
 42
1.0000
  0
VERTEX
  8
1
 10
16.3842
 20
23.8506
 30
0.0000
  0
SEQEND
  8
0
  0
POLYLINE
  8
1
 66
1
 10
0.0000
 20
0.0000
 30
0.0000
 40
0.3000
 41
0.3000
 70
0
  0
VERTEX
  8
1
 10
16.4592
 20
20.9408
 30
0.0000
  0
VERTEX
  8
1
 10
17.5000
 20
19.9000
 30
0.0000
  0
SEQEND
  8
0
  0
POLYLINE
  8
1
 66
1
 10
0.0000
 20
0.0000
 30
0.0000
 40
0.1500
 41
0.1500
 70
0
  0
VERTEX
  8
1
 10
17.4470
 20
19.8470
 30
0.0000
 42
1.0000
  0
VERTEX
  8
1
 10
17.5530
 20
19.9530
 30
0.0000
  0
SEQEND
  8
0
  0
POLYLINE
  8
1
 66
1
 10
0.0000
 20
0.0000
 30
0.0000
 40
0.1500
 41
0.1500
 70
0
  0
VERTEX
  8
1
 10
16.5122
 20
20.9938
 30
0.0000
 42
1.0000
  0
VERTEX
  8
1
 10
16.4062
 20
20.8878
 30
0.0000
  0
SEQEND
  8
0
  0
POLYLINE
  8
1
 66
1
 10
0.0000
 20
0.0000
 30
0.0000
 40
0.3000
 41
0.3000
 70
0
  0
VERTEX
  8
1
 10
17.5000
 20
19.9000
 30
0.0000
  0
VERTEX
  8
1
 10
21.2000
 20
19.9000
 30
0.0000
  0
SEQEND
  8
0
  0
POLYLINE
  8
1
 66
1
 10
0.0000
 20
0.0000
 30
0.0000
 40
0.1500
 41
0.1500
 70
0
  0
VERTEX
  8
1
 10
21.2000
 20
19.8250
 30
0.0000
 42
1.0000
  0
VERTEX
  8
1
 10
21.2000
 20
19.9750
 30
0.0000
  0
SEQEND
  8
0
  0
POLYLINE
  8
1
 66
1
 10
0.0000
 20
0.0000
 30
0.0000
 40
0.1500
 41
0.1500
 70
0
  0
VERTEX
  8
1
 10
17.5000
 20
19.9750
 30
0.0000
 42
1.0000
  0
VERTEX
  8
1
 10
17.5000
 20
19.8250
 30
0.0000
  0
SEQEND
  8
0
  0
POLYLINE
  8
1
 66
1
 10
0.0000
 20
0.0000
 30
0.0000
 40
0.3000
 41
0.3000
 70
0
  0
VERTEX
  8
1
 10
21.2000
 20
19.9000
 30
0.0000
  0
VERTEX
  8
1
 10
22.4000
 20
18.7000
 30
0.0000
  0
SEQEND
  8
0
  0
POLYLINE
  8
1
 66
1
 10
0.0000
 20
0.0000
 30
0.0000
 40
0.1500
 41
0.1500
 70
0
  0
VERTEX
  8
1
 10
22.3470
 20
18.6470
 30
0.0000
 42
1.0000
  0
VERTEX
  8
1
 10
22.4530
 20
18.7530
 30
0.0000
  0
SEQEND
  8
0
  0
POLYLINE
  8
1
 66
1
 10
0.0000
 20
0.0000
 30
0.0000
 40
0.1500
 41
0.1500
 70
0
  0
VERTEX
  8
1
 10
21.2530
 20
19.9530
 30
0.0000
 42
1.0000
  0
VERTEX
  8
1
 10
21.1470
 20
19.8470
 30
0.0000
  0
SEQEND
  8
0
  0
POLYLINE
  8
1
 66
1
 10
0.0000
 20
0.0000
 30
0.0000
 40
0.3000
 41
0.3000
 70
0
  0
VERTEX
  8
1
 10
22.4000
 20
18.7000
 30
0.0000
  0
VERTEX
  8
1
 10
22.4000
 20
17.2600
 30
0.0000
  0
SEQEND
  8
0
  0
POLYLINE
  8
1
 66
1
 10
0.0000
 20
0.0000
 30
0.0000
 40
0.1500
 41
0.1500
 70
0
  0
VERTEX
  8
1
 10
22.3250
 20
17.2600
 30
0.0000
 42
1.0000
  0
VERTEX
  8
1
 10
22.4750
 20
17.2600
 30
0.0000
  0
SEQEND
  8
0
  0
POLYLINE
  8
1
 66
1
 10
0.0000
 20
0.0000
 30
0.0000
 40
0.1500
 41
0.1500
 70
0
  0
VERTEX
  8
1
 10
22.4750
 20
18.7000
 30
0.0000
 42
1.0000
  0
VERTEX
  8
1
 10
22.3250
 20
18.7000
 30
0.0000
  0
SEQEND
  8
0
  0
POLYLINE
  8
1
 66
1
 10
0.0000
 20
0.0000
 30
0.0000
 40
0.3000
 41
0.3000
 70
0
  0
VERTEX
  8
1
 10
22.4000
 20
17.2600
 30
0.0000
  0
VERTEX
  8
1
 10
20.3200
 20
15.1800
 30
0.0000
  0
SEQEND
  8
0
  0
POLYLINE
  8
1
 66
1
 10
0.0000
 20
0.0000
 30
0.0000
 40
0.1500
 41
0.1500
 70
0
  0
VERTEX
  8
1
 10
20.2670
 20
15.2330
 30
0.0000
 42
1.0000
  0
VERTEX
  8
1
 10
20.3730
 20
15.1270
 30
0.0000
  0
SEQEND
  8
0
  0
POLYLINE
  8
1
 66
1
 10
0.0000
 20
0.0000
 30
0.0000
 40
0.1500
 41
0.1500
 70
0
  0
VERTEX
  8
1
 10
22.4530
 20
17.2070
 30
0.0000
 42
1.0000
  0
VERTEX
  8
1
 10
22.3470
 20
17.3130
 30
0.0000
  0
SEQEND
  8
0
  0
POLYLINE
  8
1
 66
1
 10
0.0000
 20
0.0000
 30
0.0000
 40
0.3000
 41
0.3000
 70
0
  0
VERTEX
  8
1
 10
20.4724
 20
23.8506
 30
0.0000
  0
VERTEX
  8
1
 10
20.4724
 20
22.2276
 30
0.0000
  0
SEQEND
  8
0
  0
POLYLINE
  8
1
 66
1
 10
0.0000
 20
0.0000
 30
0.0000
 40
0.1500
 41
0.1500
 70
0
  0
VERTEX
  8
1
 10
20.3974
 20
22.2276
 30
0.0000
 42
1.0000
  0
VERTEX
  8
1
 10
20.5474
 20
22.2276
 30
0.0000
  0
SEQEND
  8
0
  0
POLYLINE
  8
1
 66
1
 10
0.0000
 20
0.0000
 30
0.0000
 40
0.1500
 41
0.1500
 70
0
  0
VERTEX
  8
1
 10
20.5474
 20
23.8506
 30
0.0000
 42
1.0000
  0
VERTEX
  8
1
 10
20.3974
 20
23.8506
 30
0.0000
  0
SEQEND
  8
0
  0
POLYLINE
  8
1
 66
1
 10
0.0000
 20
0.0000
 30
0.0000
 40
0.3000
 41
0.3000
 70
0
  0
VERTEX
  8
1
 10
20.4724
 20
22.2276
 30
0.0000
  0
VERTEX
  8
1
 10
23.1000
 20
19.6000
 30
0.0000
  0
SEQEND
  8
0
  0
POLYLINE
  8
1
 66
1
 10
0.0000
 20
0.0000
 30
0.0000
 40
0.1500
 41
0.1500
 70
0
  0
VERTEX
  8
1
 10
23.0470
 20
19.5470
 30
0.0000
 42
1.0000
  0
VERTEX
  8
1
 10
23.1530
 20
19.6530
 30
0.0000
  0
SEQEND
  8
0
  0
POLYLINE
  8
1
 66
1
 10
0.0000
 20
0.0000
 30
0.0000
 40
0.1500
 41
0.1500
 70
0
  0
VERTEX
  8
1
 10
20.5254
 20
22.2806
 30
0.0000
 42
1.0000
  0
VERTEX
  8
1
 10
20.4194
 20
22.1746
 30
0.0000
  0
SEQEND
  8
0
  0
POLYLINE
  8
1
 66
1
 10
0.0000
 20
0.0000
 30
0.0000
 40
0.3000
 41
0.3000
 70
0
  0
VERTEX
  8
1
 10
23.1000
 20
19.6000
 30
0.0000
  0
VERTEX
  8
1
 10
23.1000
 20
15.4200
 30
0.0000
  0
SEQEND
  8
0
  0
POLYLINE
  8
1
 66
1
 10
0.0000
 20
0.0000
 30
0.0000
 40
0.1500
 41
0.1500
 70
0
  0
VERTEX
  8
1
 10
23.0250
 20
15.4200
 30
0.0000
 42
1.0000
  0
VERTEX
  8
1
 10
23.1750
 20
15.4200
 30
0.0000
  0
SEQEND
  8
0
  0
POLYLINE
  8
1
 66
1
 10
0.0000
 20
0.0000
 30
0.0000
 40
0.1500
 41
0.1500
 70
0
  0
VERTEX
  8
1
 10
23.1750
 20
19.6000
 30
0.0000
 42
1.0000
  0
VERTEX
  8
1
 10
23.0250
 20
19.6000
 30
0.0000
  0
SEQEND
  8
0
  0
POLYLINE
  8
1
 66
1
 10
0.0000
 20
0.0000
 30
0.0000
 40
0.3000
 41
0.3000
 70
0
  0
VERTEX
  8
1
 10
23.1000
 20
15.4200
 30
0.0000
  0
VERTEX
  8
1
 10
20.3200
 20
12.6400
 30
0.0000
  0
SEQEND
  8
0
  0
POLYLINE
  8
1
 66
1
 10
0.0000
 20
0.0000
 30
0.0000
 40
0.1500
 41
0.1500
 70
0
  0
VERTEX
  8
1
 10
20.2670
 20
12.6930
 30
0.0000
 42
1.0000
  0
VERTEX
  8
1
 10
20.3730
 20
12.5870
 30
0.0000
  0
SEQEND
  8
0
  0
POLYLINE
  8
1
 66
1
 10
0.0000
 20
0.0000
 30
0.0000
 40
0.1500
 41
0.1500
 70
0
  0
VERTEX
  8
1
 10
23.1530
 20
15.3670
 30
0.0000
 42
1.0000
  0
VERTEX
  8
1
 10
23.0470
 20
15.4730
 30
0.0000
  0
SEQEND
  8
0
  0
POLYLINE
  8
1
 66
1
 10
0.0000
 20
0.0000
 30
0.0000
 40
0.3000
 41
0.3000
 70
0
  0
VERTEX
  8
1
 10
19.4818
 20
23.8506
 30
0.0000
  0
VERTEX
  8
1
 10
19.4818
 20
25.3818
 30
0.0000
  0
SEQEND
  8
0
  0
POLYLINE
  8
1
 66
1
 10
0.0000
 20
0.0000
 30
0.0000
 40
0.1500
 41
0.1500
 70
0
  0
VERTEX
  8
1
 10
19.5568
 20
25.3818
 30
0.0000
 42
1.0000
  0
VERTEX
  8
1
 10
19.4068
 20
25.3818
 30
0.0000
  0
SEQEND
  8
0
  0
POLYLINE
  8
1
 66
1
 10
0.0000
 20
0.0000
 30
0.0000
 40
0.1500
 41
0.1500
 70
0
  0
VERTEX
  8
1
 10
19.4068
 20
23.8506
 30
0.0000
 42
1.0000
  0
VERTEX
  8
1
 10
19.5568
 20
23.8506
 30
0.0000
  0
SEQEND
  8
0
  0
POLYLINE
  8
1
 66
1
 10
0.0000
 20
0.0000
 30
0.0000
 40
0.3000
 41
0.3000
 70
0
  0
VERTEX
  8
1
 10
19.4818
 20
25.3818
 30
0.0000
  0
VERTEX
  8
1
 10
19.9000
 20
25.8000
 30
0.0000
  0
SEQEND
  8
0
  0
POLYLINE
  8
1
 66
1
 10
0.0000
 20
0.0000
 30
0.0000
 40
0.1500
 41
0.1500
 70
0
  0
VERTEX
  8
1
 10
19.9530
 20
25.7470
 30
0.0000
 42
1.0000
  0
VERTEX
  8
1
 10
19.8470
 20
25.8530
 30
0.0000
  0
SEQEND
  8
0
  0
POLYLINE
  8
1
 66
1
 10
0.0000
 20
0.0000
 30
0.0000
 40
0.1500
 41
0.1500
 70
0
  0
VERTEX
  8
1
 10
19.4288
 20
25.4348
 30
0.0000
 42
1.0000
  0
VERTEX
  8
1
 10
19.5348
 20
25.3288
 30
0.0000
  0
SEQEND
  8
0
  0
POLYLINE
  8
1
 66
1
 10
0.0000
 20
0.0000
 30
0.0000
 40
0.3000
 41
0.3000
 70
0
  0
VERTEX
  8
1
 10
19.9000
 20
25.8000
 30
0.0000
  0
VERTEX
  8
1
 10
21.9000
 20
25.8000
 30
0.0000
  0
SEQEND
  8
0
  0
POLYLINE
  8
1
 66
1
 10
0.0000
 20
0.0000
 30
0.0000
 40
0.1500
 41
0.1500
 70
0
  0
VERTEX
  8
1
 10
21.9000
 20
25.7250
 30
0.0000
 42
1.0000
  0
VERTEX
  8
1
 10
21.9000
 20
25.8750
 30
0.0000
  0
SEQEND
  8
0
  0
POLYLINE
  8
1
 66
1
 10
0.0000
 20
0.0000
 30
0.0000
 40
0.1500
 41
0.1500
 70
0
  0
VERTEX
  8
1
 10
19.9000
 20
25.8750
 30
0.0000
 42
1.0000
  0
VERTEX
  8
1
 10
19.9000
 20
25.7250
 30
0.0000
  0
SEQEND
  8
0
  0
POLYLINE
  8
1
 66
1
 10
0.0000
 20
0.0000
 30
0.0000
 40
0.3000
 41
0.3000
 70
0
  0
VERTEX
  8
1
 10
21.9000
 20
25.8000
 30
0.0000
  0
VERTEX
  8
1
 10
23.0000
 20
24.7000
 30
0.0000
  0
SEQEND
  8
0
  0
POLYLINE
  8
1
 66
1
 10
0.0000
 20
0.0000
 30
0.0000
 40
0.1500
 41
0.1500
 70
0
  0
VERTEX
  8
1
 10
22.9470
 20
24.6470
 30
0.0000
 42
1.0000
  0
VERTEX
  8
1
 10
23.0530
 20
24.7530
 30
0.0000
  0
SEQEND
  8
0
  0
POLYLINE
  8
1
 66
1
 10
0.0000
 20
0.0000
 30
0.0000
 40
0.1500
 41
0.1500
 70
0
  0
VERTEX
  8
1
 10
21.9530
 20
25.8530
 30
0.0000
 42
1.0000
  0
VERTEX
  8
1
 10
21.8470
 20
25.7470
 30
0.0000
  0
SEQEND
  8
0
  0
POLYLINE
  8
1
 66
1
 10
0.0000
 20
0.0000
 30
0.0000
 40
0.3000
 41
0.3000
 70
0
  0
VERTEX
  8
1
 10
23.0000
 20
24.7000
 30
0.0000
  0
VERTEX
  8
1
 10
23.0000
 20
23.3000
 30
0.0000
  0
SEQEND
  8
0
  0
POLYLINE
  8
1
 66
1
 10
0.0000
 20
0.0000
 30
0.0000
 40
0.1500
 41
0.1500
 70
0
  0
VERTEX
  8
1
 10
22.9250
 20
23.3000
 30
0.0000
 42
1.0000
  0
VERTEX
  8
1
 10
23.0750
 20
23.3000
 30
0.0000
  0
SEQEND
  8
0
  0
POLYLINE
  8
1
 66
1
 10
0.0000
 20
0.0000
 30
0.0000
 40
0.1500
 41
0.1500
 70
0
  0
VERTEX
  8
1
 10
23.0750
 20
24.7000
 30
0.0000
 42
1.0000
  0
VERTEX
  8
1
 10
22.9250
 20
24.7000
 30
0.0000
  0
SEQEND
  8
0
  0
POLYLINE
  8
1
 66
1
 10
0.0000
 20
0.0000
 30
0.0000
 40
0.3000
 41
0.3000
 70
0
  0
VERTEX
  8
1
 10
23.0000
 20
23.3000
 30
0.0000
  0
VERTEX
  8
1
 10
23.9000
 20
22.4000
 30
0.0000
  0
SEQEND
  8
0
  0
POLYLINE
  8
1
 66
1
 10
0.0000
 20
0.0000
 30
0.0000
 40
0.1500
 41
0.1500
 70
0
  0
VERTEX
  8
1
 10
23.8470
 20
22.3470
 30
0.0000
 42
1.0000
  0
VERTEX
  8
1
 10
23.9530
 20
22.4530
 30
0.0000
  0
SEQEND
  8
0
  0
POLYLINE
  8
1
 66
1
 10
0.0000
 20
0.0000
 30
0.0000
 40
0.1500
 41
0.1500
 70
0
  0
VERTEX
  8
1
 10
23.0530
 20
23.3530
 30
0.0000
 42
1.0000
  0
VERTEX
  8
1
 10
22.9470
 20
23.2470
 30
0.0000
  0
SEQEND
  8
0
  0
POLYLINE
  8
1
 66
1
 10
0.0000
 20
0.0000
 30
0.0000
 40
0.3000
 41
0.3000
 70
0
  0
VERTEX
  8
1
 10
23.9000
 20
22.4000
 30
0.0000
  0
VERTEX
  8
1
 10
24.2000
 20
22.4000
 30
0.0000
  0
SEQEND
  8
0
  0
POLYLINE
  8
1
 66
1
 10
0.0000
 20
0.0000
 30
0.0000
 40
0.1500
 41
0.1500
 70
0
  0
VERTEX
  8
1
 10
24.2000
 20
22.3250
 30
0.0000
 42
1.0000
  0
VERTEX
  8
1
 10
24.2000
 20
22.4750
 30
0.0000
  0
SEQEND
  8
0
  0
POLYLINE
  8
1
 66
1
 10
0.0000
 20
0.0000
 30
0.0000
 40
0.1500
 41
0.1500
 70
0
  0
VERTEX
  8
1
 10
23.9000
 20
22.4750
 30
0.0000
 42
1.0000
  0
VERTEX
  8
1
 10
23.9000
 20
22.3250
 30
0.0000
  0
SEQEND
  8
0
  0
POLYLINE
  8
1
 66
1
 10
0.0000
 20
0.0000
 30
0.0000
 40
0.3000
 41
0.3000
 70
0
  0
VERTEX
  8
1
 10
24.2000
 20
22.4000
 30
0.0000
  0
VERTEX
  8
1
 10
24.9000
 20
21.7000
 30
0.0000
  0
SEQEND
  8
0
  0
POLYLINE
  8
1
 66
1
 10
0.0000
 20
0.0000
 30
0.0000
 40
0.1500
 41
0.1500
 70
0
  0
VERTEX
  8
1
 10
24.8470
 20
21.6470
 30
0.0000
 42
1.0000
  0
VERTEX
  8
1
 10
24.9530
 20
21.7530
 30
0.0000
  0
SEQEND
  8
0
  0
POLYLINE
  8
1
 66
1
 10
0.0000
 20
0.0000
 30
0.0000
 40
0.1500
 41
0.1500
 70
0
  0
VERTEX
  8
1
 10
24.2530
 20
22.4530
 30
0.0000
 42
1.0000
  0
VERTEX
  8
1
 10
24.1470
 20
22.3470
 30
0.0000
  0
SEQEND
  8
0
  0
POLYLINE
  8
1
 66
1
 10
0.0000
 20
0.0000
 30
0.0000
 40
0.3000
 41
0.3000
 70
0
  0
VERTEX
  8
1
 10
24.9000
 20
21.7000
 30
0.0000
  0
VERTEX
  8
1
 10
24.9000
 20
14.6800
 30
0.0000
  0
SEQEND
  8
0
  0
POLYLINE
  8
1
 66
1
 10
0.0000
 20
0.0000
 30
0.0000
 40
0.1500
 41
0.1500
 70
0
  0
VERTEX
  8
1
 10
24.8250
 20
14.6800
 30
0.0000
 42
1.0000
  0
VERTEX
  8
1
 10
24.9750
 20
14.6800
 30
0.0000
  0
SEQEND
  8
0
  0
POLYLINE
  8
1
 66
1
 10
0.0000
 20
0.0000
 30
0.0000
 40
0.1500
 41
0.1500
 70
0
  0
VERTEX
  8
1
 10
24.9750
 20
21.7000
 30
0.0000
 42
1.0000
  0
VERTEX
  8
1
 10
24.8250
 20
21.7000
 30
0.0000
  0
SEQEND
  8
0
  0
POLYLINE
  8
1
 66
1
 10
0.0000
 20
0.0000
 30
0.0000
 40
0.3000
 41
0.3000
 70
0
  0
VERTEX
  8
1
 10
24.9000
 20
14.6800
 30
0.0000
  0
VERTEX
  8
1
 10
20.3200
 20
10.1000
 30
0.0000
  0
SEQEND
  8
0
  0
POLYLINE
  8
1
 66
1
 10
0.0000
 20
0.0000
 30
0.0000
 40
0.1500
 41
0.1500
 70
0
  0
VERTEX
  8
1
 10
20.2670
 20
10.1530
 30
0.0000
 42
1.0000
  0
VERTEX
  8
1
 10
20.3730
 20
10.0470
 30
0.0000
  0
SEQEND
  8
0
  0
POLYLINE
  8
1
 66
1
 10
0.0000
 20
0.0000
 30
0.0000
 40
0.1500
 41
0.1500
 70
0
  0
VERTEX
  8
1
 10
24.9530
 20
14.6270
 30
0.0000
 42
1.0000
  0
VERTEX
  8
1
 10
24.8470
 20
14.7330
 30
0.0000
  0
SEQEND
  8
0
  0
POLYLINE
  8
1
 66
1
 10
0.0000
 20
0.0000
 30
0.0000
 40
0.3000
 41
0.3000
 70
0
  0
VERTEX
  8
1
 10
8.4582
 20
23.8506
 30
0.0000
  0
VERTEX
  8
1
 10
8.4582
 20
18.6182
 30
0.0000
  0
SEQEND
  8
0
  0
POLYLINE
  8
1
 66
1
 10
0.0000
 20
0.0000
 30
0.0000
 40
0.1500
 41
0.1500
 70
0
  0
VERTEX
  8
1
 10
8.3832
 20
18.6182
 30
0.0000
 42
1.0000
  0
VERTEX
  8
1
 10
8.5332
 20
18.6182
 30
0.0000
  0
SEQEND
  8
0
  0
POLYLINE
  8
1
 66
1
 10
0.0000
 20
0.0000
 30
0.0000
 40
0.1500
 41
0.1500
 70
0
  0
VERTEX
  8
1
 10
8.5332
 20
23.8506
 30
0.0000
 42
1.0000
  0
VERTEX
  8
1
 10
8.3832
 20
23.8506
 30
0.0000
  0
SEQEND
  8
0
  0
POLYLINE
  8
1
 66
1
 10
0.0000
 20
0.0000
 30
0.0000
 40
0.3000
 41
0.3000
 70
0
  0
VERTEX
  8
1
 10
8.4582
 20
18.6182
 30
0.0000
  0
VERTEX
  8
1
 10
7.6200
 20
17.7800
 30
0.0000
  0
SEQEND
  8
0
  0
POLYLINE
  8
1
 66
1
 10
0.0000
 20
0.0000
 30
0.0000
 40
0.1500
 41
0.1500
 70
0
  0
VERTEX
  8
1
 10
7.5670
 20
17.8330
 30
0.0000
 42
1.0000
  0
VERTEX
  8
1
 10
7.6730
 20
17.7270
 30
0.0000
  0
SEQEND
  8
0
  0
POLYLINE
  8
1
 66
1
 10
0.0000
 20
0.0000
 30
0.0000
 40
0.1500
 41
0.1500
 70
0
  0
VERTEX
  8
1
 10
8.5112
 20
18.5652
 30
0.0000
 42
1.0000
  0
VERTEX
  8
1
 10
8.4052
 20
18.6712
 30
0.0000
  0
SEQEND
  8
0
  0
POLYLINE
  8
1
 66
1
 10
0.0000
 20
0.0000
 30
0.0000
 40
0.3000
 41
0.3000
 70
0
  0
VERTEX
  8
1
 10
8.4582
 20
23.8506
 30
0.0000
  0
VERTEX
  8
1
 10
9.4742
 20
23.8506
 30
0.0000
  0
SEQEND
  8
0
  0
POLYLINE
  8
1
 66
1
 10
0.0000
 20
0.0000
 30
0.0000
 40
0.1500
 41
0.1500
 70
0
  0
VERTEX
  8
1
 10
9.4742
 20
23.7756
 30
0.0000
 42
1.0000
  0
VERTEX
  8
1
 10
9.4742
 20
23.9256
 30
0.0000
  0
SEQEND
  8
0
  0
POLYLINE
  8
1
 66
1
 10
0.0000
 20
0.0000
 30
0.0000
 40
0.1500
 41
0.1500
 70
0
  0
VERTEX
  8
1
 10
8.4582
 20
23.9256
 30
0.0000
 42
1.0000
  0
VERTEX
  8
1
 10
8.4582
 20
23.7756
 30
0.0000
  0
SEQEND
  8
0
  0
POLYLINE
  8
1
 66
1
 10
0.0000
 20
0.0000
 30
0.0000
 40
0.3000
 41
0.3000
 70
0
  0
VERTEX
  8
1
 10
9.4742
 20
23.8506
 30
0.0000
  0
VERTEX
  8
1
 10
9.4742
 20
25.3742
 30
0.0000
  0
SEQEND
  8
0
  0
POLYLINE
  8
1
 66
1
 10
0.0000
 20
0.0000
 30
0.0000
 40
0.1500
 41
0.1500
 70
0
  0
VERTEX
  8
1
 10
9.5492
 20
25.3742
 30
0.0000
 42
1.0000
  0
VERTEX
  8
1
 10
9.3992
 20
25.3742
 30
0.0000
  0
SEQEND
  8
0
  0
POLYLINE
  8
1
 66
1
 10
0.0000
 20
0.0000
 30
0.0000
 40
0.1500
 41
0.1500
 70
0
  0
VERTEX
  8
1
 10
9.3992
 20
23.8506
 30
0.0000
 42
1.0000
  0
VERTEX
  8
1
 10
9.5492
 20
23.8506
 30
0.0000
  0
SEQEND
  8
0
  0
POLYLINE
  8
1
 66
1
 10
0.0000
 20
0.0000
 30
0.0000
 40
0.3000
 41
0.3000
 70
0
  0
VERTEX
  8
1
 10
9.4742
 20
25.3742
 30
0.0000
  0
VERTEX
  8
1
 10
10.1000
 20
26.0000
 30
0.0000
  0
SEQEND
  8
0
  0
POLYLINE
  8
1
 66
1
 10
0.0000
 20
0.0000
 30
0.0000
 40
0.1500
 41
0.1500
 70
0
  0
VERTEX
  8
1
 10
10.1530
 20
25.9470
 30
0.0000
 42
1.0000
  0
VERTEX
  8
1
 10
10.0470
 20
26.0530
 30
0.0000
  0
SEQEND
  8
0
  0
POLYLINE
  8
1
 66
1
 10
0.0000
 20
0.0000
 30
0.0000
 40
0.1500
 41
0.1500
 70
0
  0
VERTEX
  8
1
 10
9.4212
 20
25.4272
 30
0.0000
 42
1.0000
  0
VERTEX
  8
1
 10
9.5272
 20
25.3212
 30
0.0000
  0
SEQEND
  8
0
  0
POLYLINE
  8
1
 66
1
 10
0.0000
 20
0.0000
 30
0.0000
 40
0.3000
 41
0.3000
 70
0
  0
VERTEX
  8
1
 10
10.1000
 20
26.0000
 30
0.0000
  0
VERTEX
  8
1
 10
16.9000
 20
26.0000
 30
0.0000
  0
SEQEND
  8
0
  0
POLYLINE
  8
1
 66
1
 10
0.0000
 20
0.0000
 30
0.0000
 40
0.1500
 41
0.1500
 70
0
  0
VERTEX
  8
1
 10
16.9000
 20
25.9250
 30
0.0000
 42
1.0000
  0
VERTEX
  8
1
 10
16.9000
 20
26.0750
 30
0.0000
  0
SEQEND
  8
0
  0
POLYLINE
  8
1
 66
1
 10
0.0000
 20
0.0000
 30
0.0000
 40
0.1500
 41
0.1500
 70
0
  0
VERTEX
  8
1
 10
10.1000
 20
26.0750
 30
0.0000
 42
1.0000
  0
VERTEX
  8
1
 10
10.1000
 20
25.9250
 30
0.0000
  0
SEQEND
  8
0
  0
POLYLINE
  8
1
 66
1
 10
0.0000
 20
0.0000
 30
0.0000
 40
0.3000
 41
0.3000
 70
0
  0
VERTEX
  8
1
 10
16.9000
 20
26.0000
 30
0.0000
  0
VERTEX
  8
1
 10
17.5000
 20
25.4000
 30
0.0000
  0
SEQEND
  8
0
  0
POLYLINE
  8
1
 66
1
 10
0.0000
 20
0.0000
 30
0.0000
 40
0.1500
 41
0.1500
 70
0
  0
VERTEX
  8
1
 10
17.4470
 20
25.3470
 30
0.0000
 42
1.0000
  0
VERTEX
  8
1
 10
17.5530
 20
25.4530
 30
0.0000
  0
SEQEND
  8
0
  0
POLYLINE
  8
1
 66
1
 10
0.0000
 20
0.0000
 30
0.0000
 40
0.1500
 41
0.1500
 70
0
  0
VERTEX
  8
1
 10
16.9530
 20
26.0530
 30
0.0000
 42
1.0000
  0
VERTEX
  8
1
 10
16.8470
 20
25.9470
 30
0.0000
  0
SEQEND
  8
0
  0
POLYLINE
  8
1
 66
1
 10
0.0000
 20
0.0000
 30
0.0000
 40
0.3000
 41
0.3000
 70
0
  0
VERTEX
  8
1
 10
17.5000
 20
25.4000
 30
0.0000
  0
VERTEX
  8
1
 10
17.5000
 20
23.8754
 30
0.0000
  0
SEQEND
  8
0
  0
POLYLINE
  8
1
 66
1
 10
0.0000
 20
0.0000
 30
0.0000
 40
0.1500
 41
0.1500
 70
0
  0
VERTEX
  8
1
 10
17.4250
 20
23.8754
 30
0.0000
 42
1.0000
  0
VERTEX
  8
1
 10
17.5750
 20
23.8754
 30
0.0000
  0
SEQEND
  8
0
  0
POLYLINE
  8
1
 66
1
 10
0.0000
 20
0.0000
 30
0.0000
 40
0.1500
 41
0.1500
 70
0
  0
VERTEX
  8
1
 10
17.5750
 20
25.4000
 30
0.0000
 42
1.0000
  0
VERTEX
  8
1
 10
17.4250
 20
25.4000
 30
0.0000
  0
SEQEND
  8
0
  0
POLYLINE
  8
1
 66
1
 10
0.0000
 20
0.0000
 30
0.0000
 40
0.3000
 41
0.3000
 70
0
  0
VERTEX
  8
1
 10
17.5000
 20
23.8754
 30
0.0000
  0
VERTEX
  8
1
 10
17.4752
 20
23.8506
 30
0.0000
  0
SEQEND
  8
0
  0
POLYLINE
  8
1
 66
1
 10
0.0000
 20
0.0000
 30
0.0000
 40
0.1500
 41
0.1500
 70
0
  0
VERTEX
  8
1
 10
17.4222
 20
23.9036
 30
0.0000
 42
1.0000
  0
VERTEX
  8
1
 10
17.5282
 20
23.7976
 30
0.0000
  0
SEQEND
  8
0
  0
POLYLINE
  8
1
 66
1
 10
0.0000
 20
0.0000
 30
0.0000
 40
0.1500
 41
0.1500
 70
0
  0
VERTEX
  8
1
 10
17.5530
 20
23.8224
 30
0.0000
 42
1.0000
  0
VERTEX
  8
1
 10
17.4470
 20
23.9284
 30
0.0000
  0
SEQEND
  8
0
  0
POLYLINE
  8
1
 66
1
 10
0.0000
 20
0.0000
 30
0.0000
 40
0.3000
 41
0.3000
 70
0
  0
VERTEX
  8
1
 10
10.4648
 20
23.8506
 30
0.0000
  0
VERTEX
  8
1
 10
10.4648
 20
18.0848
 30
0.0000
  0
SEQEND
  8
0
  0
POLYLINE
  8
1
 66
1
 10
0.0000
 20
0.0000
 30
0.0000
 40
0.1500
 41
0.1500
 70
0
  0
VERTEX
  8
1
 10
10.3898
 20
18.0848
 30
0.0000
 42
1.0000
  0
VERTEX
  8
1
 10
10.5398
 20
18.0848
 30
0.0000
  0
SEQEND
  8
0
  0
POLYLINE
  8
1
 66
1
 10
0.0000
 20
0.0000
 30
0.0000
 40
0.1500
 41
0.1500
 70
0
  0
VERTEX
  8
1
 10
10.5398
 20
23.8506
 30
0.0000
 42
1.0000
  0
VERTEX
  8
1
 10
10.3898
 20
23.8506
 30
0.0000
  0
SEQEND
  8
0
  0
POLYLINE
  8
1
 66
1
 10
0.0000
 20
0.0000
 30
0.0000
 40
0.3000
 41
0.3000
 70
0
  0
VERTEX
  8
1
 10
10.4648
 20
18.0848
 30
0.0000
  0
VERTEX
  8
1
 10
7.6200
 20
15.2400
 30
0.0000
  0
SEQEND
  8
0
  0
POLYLINE
  8
1
 66
1
 10
0.0000
 20
0.0000
 30
0.0000
 40
0.1500
 41
0.1500
 70
0
  0
VERTEX
  8
1
 10
7.5670
 20
15.2930
 30
0.0000
 42
1.0000
  0
VERTEX
  8
1
 10
7.6730
 20
15.1870
 30
0.0000
  0
SEQEND
  8
0
  0
POLYLINE
  8
1
 66
1
 10
0.0000
 20
0.0000
 30
0.0000
 40
0.1500
 41
0.1500
 70
0
  0
VERTEX
  8
1
 10
10.5178
 20
18.0318
 30
0.0000
 42
1.0000
  0
VERTEX
  8
1
 10
10.4118
 20
18.1378
 30
0.0000
  0
SEQEND
  8
0
  0
POLYLINE
  8
1
 66
1
 10
0.0000
 20
0.0000
 30
0.0000
 40
0.3000
 41
0.3000
 70
0
  0
VERTEX
  8
1
 10
18.4658
 20
23.8506
 30
0.0000
  0
VERTEX
  8
1
 10
18.4658
 20
21.5658
 30
0.0000
  0
SEQEND
  8
0
  0
POLYLINE
  8
1
 66
1
 10
0.0000
 20
0.0000
 30
0.0000
 40
0.1500
 41
0.1500
 70
0
  0
VERTEX
  8
1
 10
18.3908
 20
21.5658
 30
0.0000
 42
1.0000
  0
VERTEX
  8
1
 10
18.5408
 20
21.5658
 30
0.0000
  0
SEQEND
  8
0
  0
POLYLINE
  8
1
 66
1
 10
0.0000
 20
0.0000
 30
0.0000
 40
0.1500
 41
0.1500
 70
0
  0
VERTEX
  8
1
 10
18.5408
 20
23.8506
 30
0.0000
 42
1.0000
  0
VERTEX
  8
1
 10
18.3908
 20
23.8506
 30
0.0000
  0
SEQEND
  8
0
  0
POLYLINE
  8
1
 66
1
 10
0.0000
 20
0.0000
 30
0.0000
 40
0.3000
 41
0.3000
 70
0
  0
VERTEX
  8
1
 10
18.4658
 20
21.5658
 30
0.0000
  0
VERTEX
  8
1
 10
18.4000
 20
21.5000
 30
0.0000
  0
SEQEND
  8
0
  0
POLYLINE
  8
1
 66
1
 10
0.0000
 20
0.0000
 30
0.0000
 40
0.1500
 41
0.1500
 70
0
  0
VERTEX
  8
1
 10
18.3470
 20
21.5530
 30
0.0000
 42
1.0000
  0
VERTEX
  8
1
 10
18.4530
 20
21.4470
 30
0.0000
  0
SEQEND
  8
0
  0
POLYLINE
  8
1
 66
1
 10
0.0000
 20
0.0000
 30
0.0000
 40
0.1500
 41
0.1500
 70
0
  0
VERTEX
  8
1
 10
18.5188
 20
21.5128
 30
0.0000
 42
1.0000
  0
VERTEX
  8
1
 10
18.4128
 20
21.6188
 30
0.0000
  0
SEQEND
  8
0
  0
POLYLINE
  8
16
 66
1
 10
0.0000
 20
0.0000
 30
0.0000
 40
0.3000
 41
0.3000
 70
0
  0
VERTEX
  8
16
 10
18.4000
 20
21.5000
 30
0.0000
  0
VERTEX
  8
16
 10
15.0000
 20
21.5000
 30
0.0000
  0
SEQEND
  8
0
  0
POLYLINE
  8
16
 66
1
 10
0.0000
 20
0.0000
 30
0.0000
 40
0.1500
 41
0.1500
 70
0
  0
VERTEX
  8
16
 10
15.0000
 20
21.5750
 30
0.0000
 42
1.0000
  0
VERTEX
  8
16
 10
15.0000
 20
21.4250
 30
0.0000
  0
SEQEND
  8
0
  0
POLYLINE
  8
16
 66
1
 10
0.0000
 20
0.0000
 30
0.0000
 40
0.1500
 41
0.1500
 70
0
  0
VERTEX
  8
16
 10
18.4000
 20
21.4250
 30
0.0000
 42
1.0000
  0
VERTEX
  8
16
 10
18.4000
 20
21.5750
 30
0.0000
  0
SEQEND
  8
0
  0
POLYLINE
  8
16
 66
1
 10
0.0000
 20
0.0000
 30
0.0000
 40
0.3000
 41
0.3000
 70
0
  0
VERTEX
  8
16
 10
15.0000
 20
21.5000
 30
0.0000
  0
VERTEX
  8
16
 10
11.6000
 20
18.1000
 30
0.0000
  0
SEQEND
  8
0
  0
POLYLINE
  8
16
 66
1
 10
0.0000
 20
0.0000
 30
0.0000
 40
0.1500
 41
0.1500
 70
0
  0
VERTEX
  8
16
 10
11.5470
 20
18.1530
 30
0.0000
 42
1.0000
  0
VERTEX
  8
16
 10
11.6530
 20
18.0470
 30
0.0000
  0
SEQEND
  8
0
  0
POLYLINE
  8
16
 66
1
 10
0.0000
 20
0.0000
 30
0.0000
 40
0.1500
 41
0.1500
 70
0
  0
VERTEX
  8
16
 10
15.0530
 20
21.4470
 30
0.0000
 42
1.0000
  0
VERTEX
  8
16
 10
14.9470
 20
21.5530
 30
0.0000
  0
SEQEND
  8
0
  0
POLYLINE
  8
1
 66
1
 10
0.0000
 20
0.0000
 30
0.0000
 40
0.3000
 41
0.3000
 70
0
  0
VERTEX
  8
1
 10
11.6000
 20
18.1000
 30
0.0000
  0
VERTEX
  8
1
 10
10.4800
 20
18.1000
 30
0.0000
  0
SEQEND
  8
0
  0
POLYLINE
  8
1
 66
1
 10
0.0000
 20
0.0000
 30
0.0000
 40
0.1500
 41
0.1500
 70
0
  0
VERTEX
  8
1
 10
10.4800
 20
18.1750
 30
0.0000
 42
1.0000
  0
VERTEX
  8
1
 10
10.4800
 20
18.0250
 30
0.0000
  0
SEQEND
  8
0
  0
POLYLINE
  8
1
 66
1
 10
0.0000
 20
0.0000
 30
0.0000
 40
0.1500
 41
0.1500
 70
0
  0
VERTEX
  8
1
 10
11.6000
 20
18.0250
 30
0.0000
 42
1.0000
  0
VERTEX
  8
1
 10
11.6000
 20
18.1750
 30
0.0000
  0
SEQEND
  8
0
  0
POLYLINE
  8
1
 66
1
 10
0.0000
 20
0.0000
 30
0.0000
 40
0.3000
 41
0.3000
 70
0
  0
VERTEX
  8
1
 10
10.4800
 20
18.1000
 30
0.0000
  0
VERTEX
  8
1
 10
10.4648
 20
18.0848
 30
0.0000
  0
SEQEND
  8
0
  0
POLYLINE
  8
1
 66
1
 10
0.0000
 20
0.0000
 30
0.0000
 40
0.1500
 41
0.1500
 70
0
  0
VERTEX
  8
1
 10
10.4118
 20
18.1378
 30
0.0000
 42
1.0000
  0
VERTEX
  8
1
 10
10.5178
 20
18.0318
 30
0.0000
  0
SEQEND
  8
0
  0
POLYLINE
  8
1
 66
1
 10
0.0000
 20
0.0000
 30
0.0000
 40
0.1500
 41
0.1500
 70
0
  0
VERTEX
  8
1
 10
10.5330
 20
18.0470
 30
0.0000
 42
1.0000
  0
VERTEX
  8
1
 10
10.4270
 20
18.1530
 30
0.0000
  0
SEQEND
  8
0
  0
INSERT
  8
18
  2
ROUNDV
 10
18.4000
 20
21.5000
 30
0.0000
 41
1.0064
 42
1.0064
 43
1.0000
 50
0.0000
  0
INSERT
  8
18
  2
ROUNDV
 10
18.4000
 20
21.5000
 30
0.0000
 41
1.0064
 42
1.0064
 43
1.0000
 50
0.0000
  0
INSERT
  8
18
  2
ROUNDV
 10
11.6000
 20
18.1000
 30
0.0000
 41
1.0064
 42
1.0064
 43
1.0000
 50
0.0000
  0
INSERT
  8
18
  2
ROUNDV
 10
11.6000
 20
18.1000
 30
0.0000
 41
1.0064
 42
1.0064
 43
1.0000
 50
0.0000
  0
ENDSEC
  0
EOF
