%
M48
M72
T01C0.02362
T02C0.04000
%
T01
X42732Y21079
X43520Y30921
X69504Y66748
X73441Y85646
X90370Y86039
X46669Y72260
T02
X31000Y11000
X31000Y21000
X31000Y31000
X31000Y41000
X31000Y51000
X31000Y61000
X31000Y71000
X81000Y70764
X81000Y60764
X81000Y50764
X81000Y40764
X81000Y30764
X81000Y20764
X81000Y10764
M30
