G75*
%MOIN*%
%OFA0B0*%
%FSLAX25Y25*%
%IPPOS*%
%LPD*%
%AMOC8*
5,1,8,0,0,1.08239X$1,22.5*
%
%ADD10C,0.07400*%
%ADD11R,0.02400X0.07500*%
%ADD12R,0.08300X0.11000*%
%ADD13C,0.01181*%
%ADD14C,0.03962*%
D10*
X0031000Y0011000D03*
X0031000Y0021000D03*
X0031000Y0031000D03*
X0031000Y0041000D03*
X0031000Y0051000D03*
X0031000Y0061000D03*
X0031000Y0071000D03*
X0081000Y0070764D03*
X0081000Y0060764D03*
X0081000Y0050764D03*
X0081000Y0040764D03*
X0081000Y0030764D03*
X0081000Y0020764D03*
X0081000Y0010764D03*
D11*
X0081600Y0094900D03*
X0077700Y0094900D03*
X0073700Y0094900D03*
X0069800Y0094900D03*
X0065800Y0094900D03*
X0061900Y0094900D03*
X0058000Y0094900D03*
X0054000Y0094900D03*
X0050100Y0094900D03*
X0046200Y0094900D03*
X0042200Y0094900D03*
X0038300Y0094900D03*
X0034300Y0094900D03*
X0030400Y0094900D03*
X0026500Y0094900D03*
X0085500Y0094900D03*
D12*
X0097900Y0104100D03*
X0014100Y0104100D03*
D13*
X0022260Y0100213D02*
X0022260Y0084071D01*
X0015961Y0077772D01*
X0015961Y0056039D01*
X0031000Y0041000D01*
X0031000Y0051000D02*
X0021866Y0060134D01*
X0021866Y0076984D01*
X0026500Y0081618D01*
X0026500Y0094900D01*
X0030400Y0094900D02*
X0030400Y0100734D01*
X0028165Y0102969D01*
X0025016Y0102969D01*
X0022260Y0100213D01*
X0034300Y0094900D02*
X0038300Y0094900D01*
X0038300Y0100898D01*
X0040764Y0103362D01*
X0067535Y0103362D01*
X0069898Y0101000D01*
X0069898Y0094998D01*
X0069800Y0094900D01*
X0073700Y0094900D02*
X0073700Y0085905D01*
X0073441Y0085646D01*
X0069898Y0079346D02*
X0084465Y0079346D01*
X0089189Y0074622D01*
X0089189Y0068953D01*
X0081000Y0060764D01*
X0081000Y0070764D02*
X0079110Y0072654D01*
X0072654Y0072260D01*
X0061900Y0083013D01*
X0061900Y0094900D01*
X0058000Y0094900D02*
X0058000Y0082189D01*
X0067535Y0072654D01*
X0067535Y0068717D01*
X0069504Y0066748D01*
X0063205Y0072260D02*
X0063205Y0048559D01*
X0081000Y0030764D01*
X0081000Y0040764D02*
X0099031Y0058795D01*
X0099031Y0086433D01*
X0096276Y0089189D01*
X0095094Y0089189D01*
X0091551Y0092732D01*
X0091551Y0098244D01*
X0087220Y0102575D01*
X0079346Y0102575D01*
X0077700Y0100928D01*
X0077700Y0094900D01*
X0081600Y0094900D02*
X0081600Y0088510D01*
X0091945Y0078165D01*
X0091945Y0061709D01*
X0081000Y0050764D01*
X0063205Y0072260D02*
X0054000Y0081465D01*
X0054000Y0094900D01*
X0050100Y0094900D02*
X0050100Y0080640D01*
X0058480Y0072260D01*
X0058480Y0043283D01*
X0081000Y0020764D01*
X0081000Y0010764D02*
X0054937Y0036827D01*
X0054937Y0070685D01*
X0046200Y0079422D01*
X0046200Y0094900D01*
X0042200Y0094900D02*
X0042200Y0072200D01*
X0042260Y0072260D01*
X0046669Y0072260D01*
X0042200Y0072200D02*
X0031000Y0061000D01*
X0031000Y0071000D02*
X0034300Y0074300D01*
X0034300Y0094900D01*
X0065800Y0094900D02*
X0065800Y0083444D01*
X0069898Y0079346D01*
X0085500Y0090909D02*
X0090370Y0086039D01*
X0085500Y0090909D02*
X0085500Y0094900D01*
X0043520Y0030921D02*
X0031079Y0030921D01*
X0031000Y0031000D01*
X0031079Y0021079D02*
X0031000Y0021000D01*
X0031079Y0021079D02*
X0042732Y0021079D01*
D14*
X0042732Y0021079D03*
X0043520Y0030921D03*
X0069504Y0066748D03*
X0073441Y0085646D03*
X0090370Y0086039D03*
X0046669Y0072260D03*
M02*
