%
M48
M72
T01C0.01500
T02C0.02362
T03C0.11811
%
T01
X22457Y99231
X22850Y114979
X349622Y24034
X367339Y24034
T02
X72850Y41357
X87024Y41751
X113402Y41751
X126787Y41751
X152378Y42144
X166945Y40963
X193323Y38207
X206709Y41357
X245291Y42144
X226787Y57105
X211827Y58286
X186630Y56317
X172850Y57105
X147260Y57892
X132693Y57499
X107890Y57105
X92142Y57105
X66945Y57892
X62614Y71672
X66945Y75609
X90173Y72066
X92929Y77971
X110646Y71672
X113008Y77577
X129937Y71672
X132299Y77184
X150016Y71278
X151984Y76790
X169307Y71278
X172063Y76790
X190173Y71278
X192535Y76003
X209071Y71278
X212614Y76396
X215370Y85451
X240567Y83089
X240567Y77577
X236236Y72459
X246866Y66554
X251984Y57892
X294898Y73640
X312220Y72066
X307102Y62223
X327969Y56711
X329937Y31121
X263795Y83483
X263795Y91357
X248047Y94506
X242929Y98443
X232693Y104743
X225606Y104743
X211827Y96081
X204346Y96869
X195291Y103955
X184661Y104743
X163795Y96869
X170882Y92932
X176000Y84664
X135449Y85451
X130331Y97262
X123638Y97262
X144898Y104743
X155921Y108680
X116551Y108286
X104346Y114191
X75606Y109073
X63402Y109073
X52378Y97656
X40961Y98443
X53953Y88601
X48441Y87026
X43323Y85451
X84268Y96475
X90961Y97262
X95685Y86632
X39780Y121278
X46866Y42144
X287024Y111042
X328756Y107892
X337417Y98837
X336236Y119703
T03
X275409Y61436
X32693Y61436
M30
