G75*
%MOIN*%
%OFA0B0*%
%FSLAX25Y25*%
%IPPOS*%
%LPD*%
%AMOC8*
5,1,8,0,0,1.08239X$1,22.5*
%
%ADD10R,0.04737X0.05131*%
%ADD11R,0.02170X0.06300*%
%ADD12R,0.08300X0.03200*%
%ADD13R,0.11800X0.09100*%
%ADD14R,0.02200X0.05300*%
%ADD15C,0.12611*%
%ADD16R,0.05131X0.04737*%
D10*
X0327929Y0040609D03*
X0327929Y0047302D03*
X0328717Y0093798D03*
X0328717Y0100491D03*
D11*
X0320272Y0111066D03*
X0317713Y0111066D03*
X0315154Y0111066D03*
X0312594Y0111066D03*
X0310035Y0111066D03*
X0307476Y0111066D03*
X0304917Y0111066D03*
X0302358Y0111066D03*
X0299799Y0111066D03*
X0297240Y0111066D03*
X0294681Y0111066D03*
X0292122Y0111066D03*
X0292122Y0082278D03*
X0294681Y0082278D03*
X0297240Y0082278D03*
X0299799Y0082278D03*
X0302358Y0082278D03*
X0304917Y0082278D03*
X0307476Y0082278D03*
X0310035Y0082278D03*
X0312594Y0082278D03*
X0315154Y0082278D03*
X0317713Y0082278D03*
X0320272Y0082278D03*
D12*
X0351435Y0083595D03*
X0351435Y0079695D03*
X0351435Y0075695D03*
X0351435Y0071795D03*
X0351435Y0067895D03*
X0351435Y0063895D03*
X0351435Y0059995D03*
X0351435Y0055995D03*
X0351435Y0052095D03*
X0351435Y0048195D03*
X0351435Y0087495D03*
X0351435Y0091495D03*
X0351435Y0095395D03*
X0351435Y0099395D03*
X0351435Y0103295D03*
X0351435Y0107195D03*
D13*
X0360635Y0119595D03*
X0360635Y0035795D03*
D14*
X0321335Y0031743D03*
X0318776Y0031743D03*
X0316217Y0031743D03*
X0313657Y0031743D03*
X0311098Y0031743D03*
X0308539Y0031743D03*
X0305980Y0031743D03*
X0303421Y0031743D03*
X0303421Y0055774D03*
X0305980Y0055774D03*
X0308539Y0055774D03*
X0311098Y0055774D03*
X0313657Y0055774D03*
X0316217Y0055774D03*
X0318776Y0055774D03*
X0321335Y0055774D03*
D15*
X0032693Y0061436D03*
X0275409Y0061436D03*
D16*
X0278165Y0083483D03*
X0271472Y0083483D03*
X0321472Y0122853D03*
X0328165Y0122853D03*
X0323047Y0023247D03*
X0316354Y0023247D03*
M02*
