G75*
%MOIN*%
%OFA0B0*%
%FSLAX25Y25*%
%IPPOS*%
%LPD*%
%AMOC8*
5,1,8,0,0,1.08239X$1,22.5*
%
%ADD10R,0.03937X0.04331*%
%ADD11R,0.01370X0.05500*%
%ADD12R,0.07500X0.02400*%
%ADD13R,0.11000X0.08300*%
%ADD14R,0.01400X0.04500*%
%ADD15R,0.04331X0.03937*%
%ADD16C,0.03900*%
%ADD17C,0.00984*%
%ADD18C,0.04362*%
%ADD19C,0.00394*%
D10*
X0327929Y0040609D03*
X0327929Y0047302D03*
X0328717Y0093798D03*
X0328717Y0100491D03*
D11*
X0320272Y0111066D03*
X0317713Y0111066D03*
X0315154Y0111066D03*
X0312594Y0111066D03*
X0310035Y0111066D03*
X0307476Y0111066D03*
X0304917Y0111066D03*
X0302358Y0111066D03*
X0299799Y0111066D03*
X0297240Y0111066D03*
X0294681Y0111066D03*
X0292122Y0111066D03*
X0292122Y0082278D03*
X0294681Y0082278D03*
X0297240Y0082278D03*
X0299799Y0082278D03*
X0302358Y0082278D03*
X0304917Y0082278D03*
X0307476Y0082278D03*
X0310035Y0082278D03*
X0312594Y0082278D03*
X0315154Y0082278D03*
X0317713Y0082278D03*
X0320272Y0082278D03*
D12*
X0351435Y0083595D03*
X0351435Y0079695D03*
X0351435Y0075695D03*
X0351435Y0071795D03*
X0351435Y0067895D03*
X0351435Y0063895D03*
X0351435Y0059995D03*
X0351435Y0055995D03*
X0351435Y0052095D03*
X0351435Y0048195D03*
X0351435Y0087495D03*
X0351435Y0091495D03*
X0351435Y0095395D03*
X0351435Y0099395D03*
X0351435Y0103295D03*
X0351435Y0107195D03*
D13*
X0360635Y0119595D03*
X0360635Y0035795D03*
D14*
X0321335Y0031743D03*
X0318776Y0031743D03*
X0316217Y0031743D03*
X0313657Y0031743D03*
X0311098Y0031743D03*
X0308539Y0031743D03*
X0305980Y0031743D03*
X0303421Y0031743D03*
X0303421Y0055774D03*
X0305980Y0055774D03*
X0308539Y0055774D03*
X0311098Y0055774D03*
X0313657Y0055774D03*
X0316217Y0055774D03*
X0318776Y0055774D03*
X0321335Y0055774D03*
D15*
X0278165Y0083483D03*
X0271472Y0083483D03*
X0321472Y0122853D03*
X0328165Y0122853D03*
X0323047Y0023247D03*
X0316354Y0023247D03*
D16*
X0349622Y0024034D03*
X0367339Y0024034D03*
X0022457Y0099231D03*
X0022850Y0114979D03*
D17*
X0039386Y0098443D01*
X0040961Y0098443D01*
X0052378Y0097656D02*
X0052378Y0090176D01*
X0053953Y0088601D01*
X0048441Y0087026D02*
X0048441Y0079152D01*
X0066157Y0061436D01*
X0066157Y0058680D01*
X0066945Y0057892D01*
X0066945Y0020884D01*
X0068520Y0019310D01*
X0300803Y0019310D01*
X0303421Y0021140D01*
X0303421Y0031743D01*
X0305921Y0031743D02*
X0305921Y0018522D01*
X0303953Y0016947D01*
X0050016Y0016947D01*
X0046866Y0020491D01*
X0046866Y0042144D01*
X0053953Y0049231D01*
X0053953Y0067341D01*
X0043323Y0077971D01*
X0043323Y0085451D01*
X0066945Y0075609D02*
X0079150Y0075609D01*
X0087417Y0067341D01*
X0090173Y0067341D01*
X0092535Y0064979D01*
X0092535Y0057499D01*
X0092142Y0057105D01*
X0092142Y0057892D01*
X0101197Y0056317D02*
X0101197Y0063404D01*
X0092535Y0072066D01*
X0090173Y0072066D01*
X0094504Y0075609D02*
X0107496Y0062617D01*
X0107496Y0057499D01*
X0107890Y0057105D01*
X0107890Y0027184D01*
X0111039Y0024034D01*
X0254740Y0024034D01*
X0258677Y0027971D01*
X0290961Y0027971D01*
X0301984Y0038995D01*
X0311433Y0038995D01*
X0313657Y0036770D01*
X0313657Y0031743D01*
X0311098Y0031743D02*
X0311098Y0035392D01*
X0310252Y0036239D01*
X0302378Y0036239D01*
X0300803Y0034664D01*
X0300803Y0032695D01*
X0293717Y0025609D01*
X0259858Y0025609D01*
X0255921Y0021672D01*
X0088992Y0021672D01*
X0087024Y0023640D01*
X0087024Y0041751D01*
X0087024Y0042144D01*
X0101197Y0056317D01*
X0107890Y0055924D02*
X0107890Y0057105D01*
X0117732Y0075609D02*
X0127575Y0065766D01*
X0129937Y0065766D01*
X0133087Y0062617D01*
X0133087Y0057892D01*
X0132693Y0057499D01*
X0132693Y0058680D01*
X0146866Y0058286D02*
X0146866Y0062617D01*
X0132299Y0077184D01*
X0133087Y0071672D02*
X0129937Y0071672D01*
X0133087Y0071672D02*
X0140961Y0063798D01*
X0140961Y0049625D01*
X0136630Y0045294D01*
X0128756Y0045294D01*
X0126787Y0043325D01*
X0126787Y0041751D01*
X0126787Y0028758D01*
X0129150Y0026396D01*
X0253165Y0026396D01*
X0257102Y0030333D01*
X0290173Y0030333D01*
X0302772Y0042932D01*
X0307496Y0042932D01*
X0313657Y0049093D01*
X0313657Y0055774D01*
X0311098Y0055774D02*
X0311098Y0050077D01*
X0306315Y0045294D01*
X0301591Y0045294D01*
X0288992Y0032695D01*
X0255921Y0032695D01*
X0251984Y0028758D01*
X0151591Y0028758D01*
X0146866Y0033483D01*
X0146866Y0057499D01*
X0147260Y0057892D01*
X0146866Y0058286D01*
X0147260Y0057892D02*
X0147260Y0056317D01*
X0159858Y0049625D02*
X0152378Y0042144D01*
X0152378Y0042932D01*
X0166945Y0040963D02*
X0174425Y0040963D01*
X0181512Y0048050D01*
X0181512Y0062617D01*
X0172850Y0071278D01*
X0169307Y0071278D01*
X0168913Y0064979D02*
X0159071Y0074821D01*
X0153953Y0074821D01*
X0151984Y0076790D01*
X0151984Y0071278D02*
X0150016Y0071278D01*
X0151197Y0071278D01*
X0151984Y0071278D02*
X0159858Y0063404D01*
X0159858Y0049625D01*
X0166945Y0040963D02*
X0166945Y0035451D01*
X0171276Y0031121D01*
X0250803Y0031121D01*
X0254740Y0035058D01*
X0287417Y0035058D01*
X0300016Y0047656D01*
X0305134Y0047656D01*
X0308539Y0051062D01*
X0308539Y0055774D01*
X0305980Y0055774D02*
X0305980Y0052046D01*
X0303953Y0050018D01*
X0298835Y0050018D01*
X0286236Y0037420D01*
X0253559Y0037420D01*
X0249622Y0033483D01*
X0187811Y0033483D01*
X0186630Y0034664D01*
X0186630Y0056317D01*
X0186630Y0062223D01*
X0172063Y0076790D01*
X0174031Y0080333D02*
X0149622Y0104743D01*
X0144898Y0104743D01*
X0155921Y0104743D02*
X0155921Y0108680D01*
X0158677Y0111436D01*
X0279937Y0111436D01*
X0286236Y0105136D01*
X0293323Y0105136D01*
X0294681Y0106495D01*
X0294681Y0111066D01*
X0292122Y0111066D02*
X0288622Y0111066D01*
X0287024Y0111042D01*
X0297240Y0111066D02*
X0297240Y0105510D01*
X0294110Y0102380D01*
X0285055Y0102380D01*
X0278362Y0109073D01*
X0188992Y0109073D01*
X0184661Y0104743D01*
X0195291Y0103955D02*
X0199228Y0100018D01*
X0201197Y0100018D01*
X0204346Y0096869D01*
X0207496Y0100018D01*
X0224031Y0100018D01*
X0236236Y0087814D01*
X0253165Y0087814D01*
X0262220Y0078758D01*
X0285843Y0078758D01*
X0290567Y0074034D01*
X0290567Y0071672D01*
X0293717Y0068522D01*
X0296472Y0068522D01*
X0299622Y0071672D01*
X0299622Y0082278D01*
X0299799Y0082278D01*
X0297240Y0082278D02*
X0297240Y0087440D01*
X0293717Y0090963D01*
X0270488Y0090963D01*
X0265764Y0095688D01*
X0261827Y0095688D01*
X0256709Y0090176D01*
X0237811Y0090176D01*
X0225606Y0102380D01*
X0225606Y0104743D01*
X0232693Y0104743D02*
X0232693Y0099231D01*
X0237417Y0094506D01*
X0248047Y0094506D01*
X0242929Y0098443D02*
X0244504Y0100018D01*
X0295291Y0100018D01*
X0299799Y0104526D01*
X0299799Y0111066D01*
X0302358Y0111066D02*
X0302358Y0114605D01*
X0300803Y0116160D01*
X0122063Y0116160D01*
X0116551Y0110648D01*
X0116551Y0108286D01*
X0116551Y0104349D01*
X0123638Y0097262D01*
X0130331Y0097262D02*
X0130331Y0090569D01*
X0135449Y0085451D01*
X0114583Y0075609D02*
X0113008Y0077184D01*
X0113008Y0077577D01*
X0114583Y0075609D02*
X0117732Y0075609D01*
X0113402Y0071278D02*
X0113008Y0071672D01*
X0110646Y0071672D01*
X0113402Y0071278D02*
X0113402Y0041751D01*
X0072850Y0041357D02*
X0072850Y0065766D01*
X0068520Y0070097D01*
X0064189Y0070097D01*
X0062614Y0071672D01*
X0063795Y0070491D01*
X0092929Y0077971D02*
X0094504Y0076396D01*
X0094504Y0075609D01*
X0095685Y0086632D02*
X0090961Y0091357D01*
X0090961Y0097262D01*
X0084268Y0096475D02*
X0084268Y0100412D01*
X0075606Y0109073D01*
X0075606Y0113404D01*
X0083087Y0120884D01*
X0303953Y0120884D01*
X0307476Y0117361D01*
X0307476Y0111066D01*
X0304917Y0111066D02*
X0304917Y0115983D01*
X0302378Y0118522D01*
X0108677Y0118522D01*
X0104346Y0114191D01*
X0067732Y0123247D02*
X0063402Y0118916D01*
X0063402Y0109073D01*
X0044110Y0125609D02*
X0039780Y0121278D01*
X0044110Y0125609D02*
X0307102Y0125609D01*
X0312614Y0120097D01*
X0312614Y0111066D01*
X0312594Y0111066D01*
X0310035Y0111066D02*
X0310035Y0118739D01*
X0305528Y0123247D01*
X0067732Y0123247D01*
X0155921Y0104743D02*
X0163795Y0096869D01*
X0170882Y0092932D02*
X0170882Y0089782D01*
X0176000Y0084664D01*
X0175606Y0085058D01*
X0174031Y0080333D02*
X0216945Y0080333D01*
X0219701Y0083089D01*
X0240567Y0083089D01*
X0240567Y0077577D02*
X0245291Y0073247D01*
X0251984Y0066554D01*
X0251984Y0057892D01*
X0246866Y0066554D02*
X0244110Y0066554D01*
X0238205Y0072459D01*
X0236236Y0072459D01*
X0215370Y0064979D02*
X0215370Y0050018D01*
X0206709Y0041357D01*
X0206709Y0038207D01*
X0209071Y0035845D01*
X0248441Y0035845D01*
X0252378Y0039782D01*
X0285055Y0039782D01*
X0297260Y0051987D01*
X0297260Y0058680D01*
X0307476Y0068896D01*
X0307476Y0082278D01*
X0304917Y0082278D02*
X0304917Y0069487D01*
X0294898Y0059467D01*
X0294898Y0053562D01*
X0283874Y0042144D01*
X0251197Y0042144D01*
X0247260Y0038207D01*
X0227575Y0038207D01*
X0226787Y0038995D01*
X0226787Y0057105D01*
X0212614Y0071278D01*
X0212614Y0076396D01*
X0209071Y0071278D02*
X0215370Y0064979D01*
X0211827Y0064191D02*
X0211827Y0058286D01*
X0211827Y0064191D02*
X0209858Y0066160D01*
X0202378Y0066160D01*
X0192535Y0076003D01*
X0192535Y0071278D02*
X0199622Y0063798D01*
X0199622Y0044506D01*
X0193323Y0038207D01*
X0172850Y0057105D02*
X0172850Y0062617D01*
X0170488Y0064979D01*
X0168913Y0064979D01*
X0190173Y0071278D02*
X0192535Y0071278D01*
X0211827Y0088995D02*
X0215370Y0085451D01*
X0211827Y0088995D02*
X0211827Y0096081D01*
X0263795Y0091357D02*
X0266748Y0088404D01*
X0274622Y0088404D01*
X0278165Y0083483D01*
X0283283Y0088601D01*
X0292142Y0088601D01*
X0294681Y0086455D01*
X0294681Y0082278D01*
X0292122Y0082278D02*
X0292122Y0076810D01*
X0292142Y0076396D01*
X0294898Y0073640D01*
X0302358Y0070471D02*
X0292535Y0060254D01*
X0292535Y0054349D01*
X0282693Y0044506D01*
X0247654Y0044506D01*
X0245291Y0042144D01*
X0303421Y0055774D02*
X0303421Y0060510D01*
X0305134Y0062223D01*
X0307102Y0062223D01*
X0316217Y0060314D02*
X0331512Y0075609D01*
X0351349Y0075609D01*
X0351435Y0075695D01*
X0350772Y0072459D02*
X0351435Y0071795D01*
X0350772Y0072459D02*
X0331906Y0072459D01*
X0318776Y0059329D01*
X0318776Y0055774D01*
X0321335Y0055774D02*
X0321335Y0058345D01*
X0331118Y0068129D01*
X0351202Y0068129D01*
X0351435Y0067895D01*
X0356806Y0063895D02*
X0359465Y0066554D01*
X0359465Y0092538D01*
X0356709Y0095294D01*
X0351334Y0095294D01*
X0351435Y0095395D01*
X0351334Y0095294D02*
X0346866Y0095294D01*
X0335843Y0106317D01*
X0333874Y0106317D01*
X0328756Y0101199D01*
X0328756Y0100530D01*
X0328717Y0100491D01*
X0328756Y0101199D02*
X0328756Y0107892D01*
X0320272Y0111066D02*
X0320272Y0113975D01*
X0321276Y0114979D01*
X0330724Y0114979D01*
X0346472Y0099231D01*
X0351271Y0099231D01*
X0351435Y0099395D01*
X0351435Y0103295D02*
X0351169Y0103562D01*
X0346079Y0103562D01*
X0332299Y0117341D01*
X0320094Y0117341D01*
X0317713Y0114959D01*
X0317713Y0111066D01*
X0315154Y0111066D02*
X0315154Y0119880D01*
X0318126Y0122853D01*
X0321472Y0122853D01*
X0321472Y0125412D01*
X0322457Y0126396D01*
X0335843Y0126396D01*
X0342142Y0120097D01*
X0342142Y0111042D01*
X0346079Y0107105D01*
X0351345Y0107105D01*
X0351435Y0107195D01*
X0337417Y0098837D02*
X0337417Y0098050D01*
X0332890Y0093522D01*
X0335055Y0091357D01*
X0351297Y0091357D01*
X0351435Y0091495D01*
X0351117Y0087814D02*
X0351435Y0087495D01*
X0351117Y0087814D02*
X0333087Y0087814D01*
X0322063Y0076790D01*
X0319701Y0076790D01*
X0317713Y0078778D01*
X0317713Y0082278D01*
X0320094Y0082455D02*
X0320272Y0082278D01*
X0322039Y0082278D01*
X0328756Y0088995D01*
X0328756Y0093758D01*
X0328717Y0093798D01*
X0332614Y0093798D01*
X0332890Y0093522D01*
X0320094Y0088207D02*
X0320094Y0082455D01*
X0315154Y0082278D02*
X0315154Y0078188D01*
X0318520Y0074428D01*
X0323244Y0074428D01*
X0332693Y0083877D01*
X0351154Y0083877D01*
X0351435Y0083595D01*
X0351435Y0079695D02*
X0332055Y0079695D01*
X0324425Y0072066D01*
X0312220Y0072066D01*
X0302358Y0070471D02*
X0302358Y0082278D01*
X0310035Y0082278D02*
X0312594Y0082278D01*
X0312594Y0087794D01*
X0313795Y0088995D01*
X0319307Y0088995D01*
X0320094Y0088207D01*
X0271472Y0083483D02*
X0263795Y0083483D01*
X0316217Y0060314D02*
X0316217Y0055774D01*
X0327969Y0056711D02*
X0327969Y0051199D01*
X0328362Y0050806D01*
X0327969Y0050412D01*
X0327969Y0047341D01*
X0327929Y0047302D01*
X0328362Y0050806D02*
X0341452Y0063895D01*
X0351435Y0063895D01*
X0356806Y0063895D01*
X0372850Y0047851D01*
X0372850Y0030333D01*
X0367339Y0024821D01*
X0367339Y0024034D01*
X0349622Y0024034D02*
X0349622Y0038207D01*
X0354346Y0042932D01*
X0357102Y0042932D01*
X0361039Y0046869D01*
X0361039Y0053955D01*
X0359071Y0055924D01*
X0351507Y0055924D01*
X0351435Y0055995D01*
X0346544Y0055995D01*
X0331118Y0040569D01*
X0327969Y0040569D01*
X0327929Y0040609D01*
X0327181Y0039861D01*
X0327181Y0035451D01*
X0323472Y0031743D01*
X0325606Y0029609D01*
X0325606Y0025215D01*
X0329937Y0029546D01*
X0329937Y0031121D01*
X0323472Y0031743D02*
X0321335Y0031743D01*
X0318776Y0031743D01*
X0316217Y0031743D02*
X0316217Y0023384D01*
X0316354Y0023247D01*
X0315764Y0022656D01*
X0315764Y0020491D01*
X0317732Y0018916D01*
X0329150Y0018916D01*
X0339386Y0029152D01*
X0339386Y0044900D01*
X0346581Y0052095D01*
X0351435Y0052095D01*
X0351187Y0048443D02*
X0346472Y0048443D01*
X0342142Y0044113D01*
X0342142Y0027971D01*
X0330724Y0016554D01*
X0313008Y0016554D01*
X0308539Y0021022D01*
X0308539Y0031743D01*
X0305980Y0031743D02*
X0305921Y0031743D01*
X0323638Y0023247D02*
X0325606Y0025215D01*
X0323638Y0023247D02*
X0323047Y0023247D01*
X0351187Y0048443D02*
X0351435Y0048195D01*
X0351435Y0055995D02*
X0351435Y0059995D01*
X0336236Y0119703D02*
X0333087Y0122853D01*
X0328165Y0122853D01*
X0072850Y0042538D02*
X0072850Y0041357D01*
X0046866Y0041357D02*
X0046866Y0042144D01*
X0066945Y0057105D02*
X0066945Y0057892D01*
D18*
X0066945Y0057892D03*
X0092142Y0057105D03*
X0107890Y0057105D03*
X0132693Y0057499D03*
X0147260Y0057892D03*
X0172850Y0057105D03*
X0186630Y0056317D03*
X0211827Y0058286D03*
X0226787Y0057105D03*
X0246866Y0066554D03*
X0236236Y0072459D03*
X0240567Y0077577D03*
X0240567Y0083089D03*
X0263795Y0083483D03*
X0263795Y0091357D03*
X0248047Y0094506D03*
X0242929Y0098443D03*
X0232693Y0104743D03*
X0225606Y0104743D03*
X0211827Y0096081D03*
X0204346Y0096869D03*
X0195291Y0103955D03*
X0184661Y0104743D03*
X0163795Y0096869D03*
X0170882Y0092932D03*
X0176000Y0084664D03*
X0172063Y0076790D03*
X0169307Y0071278D03*
X0151984Y0076790D03*
X0150016Y0071278D03*
X0132299Y0077184D03*
X0129937Y0071672D03*
X0113008Y0077577D03*
X0110646Y0071672D03*
X0092929Y0077971D03*
X0090173Y0072066D03*
X0066945Y0075609D03*
X0062614Y0071672D03*
X0043323Y0085451D03*
X0048441Y0087026D03*
X0053953Y0088601D03*
X0052378Y0097656D03*
X0040961Y0098443D03*
X0063402Y0109073D03*
X0075606Y0109073D03*
X0104346Y0114191D03*
X0116551Y0108286D03*
X0144898Y0104743D03*
X0155921Y0108680D03*
X0130331Y0097262D03*
X0123638Y0097262D03*
X0095685Y0086632D03*
X0090961Y0097262D03*
X0084268Y0096475D03*
X0135449Y0085451D03*
X0190173Y0071278D03*
X0192535Y0076003D03*
X0209071Y0071278D03*
X0212614Y0076396D03*
X0215370Y0085451D03*
X0251984Y0057892D03*
X0294898Y0073640D03*
X0312220Y0072066D03*
X0307102Y0062223D03*
X0327969Y0056711D03*
X0329937Y0031121D03*
X0245291Y0042144D03*
X0206709Y0041357D03*
X0193323Y0038207D03*
X0166945Y0040963D03*
X0152378Y0042144D03*
X0126787Y0041751D03*
X0113402Y0041751D03*
X0087024Y0041751D03*
X0072850Y0041357D03*
X0046866Y0042144D03*
X0039780Y0121278D03*
X0287024Y0111042D03*
X0328756Y0107892D03*
X0337417Y0098837D03*
X0336236Y0119703D03*
D19*
X0384646Y0013420D02*
X0002394Y0013420D01*
X0002394Y0129136D01*
X0384646Y0129136D01*
X0384646Y0013420D01*
X0384646Y0013792D02*
X0002394Y0013792D01*
X0002394Y0014184D02*
X0384646Y0014184D01*
X0384646Y0014576D02*
X0002394Y0014576D01*
X0002394Y0014968D02*
X0384646Y0014968D01*
X0384646Y0015361D02*
X0331637Y0015361D01*
X0331341Y0015065D02*
X0342758Y0026482D01*
X0343631Y0027354D01*
X0343631Y0043496D01*
X0346703Y0046568D01*
X0347273Y0045999D01*
X0355598Y0045999D01*
X0356182Y0046583D01*
X0356182Y0049808D01*
X0355845Y0050145D01*
X0356182Y0050483D01*
X0356182Y0053708D01*
X0355845Y0054045D01*
X0356182Y0054383D01*
X0356182Y0054435D01*
X0358454Y0054435D01*
X0359550Y0053339D01*
X0359550Y0047485D01*
X0356486Y0044421D01*
X0353730Y0044421D01*
X0352857Y0043548D01*
X0348133Y0038824D01*
X0348133Y0026607D01*
X0347953Y0026532D01*
X0347124Y0025703D01*
X0346675Y0024620D01*
X0346675Y0023448D01*
X0347124Y0022365D01*
X0347953Y0021536D01*
X0349036Y0021087D01*
X0350208Y0021087D01*
X0351291Y0021536D01*
X0352120Y0022365D01*
X0352569Y0023448D01*
X0352569Y0024620D01*
X0352120Y0025703D01*
X0351291Y0026532D01*
X0351111Y0026607D01*
X0351111Y0037590D01*
X0354963Y0041443D01*
X0357719Y0041443D01*
X0361656Y0045380D01*
X0362528Y0046252D01*
X0362528Y0054572D01*
X0360560Y0056541D01*
X0359688Y0057413D01*
X0356182Y0057413D01*
X0356182Y0057608D01*
X0355795Y0057995D01*
X0356182Y0058383D01*
X0356182Y0061608D01*
X0355987Y0061804D01*
X0356143Y0061961D01*
X0356301Y0062233D01*
X0356382Y0062538D01*
X0356382Y0063699D01*
X0351632Y0063699D01*
X0351632Y0064092D01*
X0356382Y0064092D01*
X0356382Y0065253D01*
X0356301Y0065557D01*
X0356143Y0065830D01*
X0355937Y0066037D01*
X0356182Y0066283D01*
X0356182Y0069508D01*
X0355845Y0069845D01*
X0356182Y0070183D01*
X0356182Y0073408D01*
X0384646Y0073408D01*
X0384646Y0073016D02*
X0356182Y0073016D01*
X0356182Y0072624D02*
X0384646Y0072624D01*
X0384646Y0072231D02*
X0356182Y0072231D01*
X0356182Y0071839D02*
X0384646Y0071839D01*
X0384646Y0071447D02*
X0356182Y0071447D01*
X0356182Y0071055D02*
X0384646Y0071055D01*
X0384646Y0070663D02*
X0356182Y0070663D01*
X0356182Y0070270D02*
X0384646Y0070270D01*
X0384646Y0069878D02*
X0355878Y0069878D01*
X0356182Y0069486D02*
X0384646Y0069486D01*
X0384646Y0069094D02*
X0356182Y0069094D01*
X0356182Y0068702D02*
X0384646Y0068702D01*
X0384646Y0068309D02*
X0356182Y0068309D01*
X0356182Y0067917D02*
X0384646Y0067917D01*
X0384646Y0067525D02*
X0356182Y0067525D01*
X0356182Y0067133D02*
X0384646Y0067133D01*
X0384646Y0066740D02*
X0356182Y0066740D01*
X0356182Y0066348D02*
X0384646Y0066348D01*
X0384646Y0065956D02*
X0356017Y0065956D01*
X0356297Y0065564D02*
X0384646Y0065564D01*
X0384646Y0065172D02*
X0356382Y0065172D01*
X0356382Y0064779D02*
X0384646Y0064779D01*
X0384646Y0064387D02*
X0356382Y0064387D01*
X0356382Y0063603D02*
X0384646Y0063603D01*
X0384646Y0063995D02*
X0351632Y0063995D01*
X0351239Y0063995D02*
X0329090Y0063995D01*
X0328698Y0063603D02*
X0346489Y0063603D01*
X0346489Y0063699D02*
X0346489Y0062538D01*
X0346570Y0062233D01*
X0346728Y0061961D01*
X0346884Y0061804D01*
X0346689Y0061608D01*
X0346689Y0058383D01*
X0347076Y0057995D01*
X0346689Y0057608D01*
X0346689Y0057484D01*
X0345927Y0057484D01*
X0330894Y0042452D01*
X0330894Y0043187D01*
X0330311Y0043771D01*
X0325548Y0043771D01*
X0324964Y0043187D01*
X0324964Y0038031D01*
X0325548Y0037447D01*
X0325692Y0037447D01*
X0325692Y0036068D01*
X0323031Y0033407D01*
X0323031Y0034406D01*
X0322448Y0034990D01*
X0320222Y0034990D01*
X0320055Y0034823D01*
X0319888Y0034990D01*
X0317663Y0034990D01*
X0317496Y0034823D01*
X0317329Y0034990D01*
X0315146Y0034990D01*
X0315146Y0037387D01*
X0312922Y0039611D01*
X0312050Y0040484D01*
X0302429Y0040484D01*
X0303388Y0041443D01*
X0308113Y0041443D01*
X0308985Y0042315D01*
X0315146Y0048476D01*
X0315146Y0052527D01*
X0317329Y0052527D01*
X0317496Y0052694D01*
X0317663Y0052527D01*
X0319888Y0052527D01*
X0320055Y0052694D01*
X0320222Y0052527D01*
X0322448Y0052527D01*
X0323031Y0053111D01*
X0323031Y0057936D01*
X0331735Y0066640D01*
X0346689Y0066640D01*
X0346689Y0066283D01*
X0346934Y0066037D01*
X0346728Y0065830D01*
X0346570Y0065557D01*
X0346489Y0065253D01*
X0346489Y0064092D01*
X0351239Y0064092D01*
X0351239Y0063699D01*
X0346489Y0063699D01*
X0346489Y0063211D02*
X0328306Y0063211D01*
X0327914Y0062818D02*
X0346489Y0062818D01*
X0346519Y0062426D02*
X0327521Y0062426D01*
X0327129Y0062034D02*
X0346685Y0062034D01*
X0346722Y0061642D02*
X0326737Y0061642D01*
X0326345Y0061250D02*
X0346689Y0061250D01*
X0346689Y0060857D02*
X0325953Y0060857D01*
X0325560Y0060465D02*
X0346689Y0060465D01*
X0346689Y0060073D02*
X0325168Y0060073D01*
X0324776Y0059681D02*
X0346689Y0059681D01*
X0346689Y0059288D02*
X0324384Y0059288D01*
X0323992Y0058896D02*
X0346689Y0058896D01*
X0346689Y0058504D02*
X0323599Y0058504D01*
X0323207Y0058112D02*
X0346959Y0058112D01*
X0346800Y0057720D02*
X0323031Y0057720D01*
X0323031Y0057327D02*
X0345770Y0057327D01*
X0345378Y0056935D02*
X0323031Y0056935D01*
X0323031Y0056543D02*
X0344986Y0056543D01*
X0344594Y0056151D02*
X0323031Y0056151D01*
X0323031Y0055759D02*
X0344201Y0055759D01*
X0343809Y0055366D02*
X0323031Y0055366D01*
X0323031Y0054974D02*
X0343417Y0054974D01*
X0343025Y0054582D02*
X0323031Y0054582D01*
X0323031Y0054190D02*
X0342633Y0054190D01*
X0342240Y0053797D02*
X0323031Y0053797D01*
X0323031Y0053405D02*
X0341848Y0053405D01*
X0341456Y0053013D02*
X0322933Y0053013D01*
X0322541Y0052621D02*
X0341064Y0052621D01*
X0340672Y0052229D02*
X0315146Y0052229D01*
X0315146Y0051836D02*
X0340279Y0051836D01*
X0339887Y0051444D02*
X0315146Y0051444D01*
X0315146Y0051052D02*
X0339495Y0051052D01*
X0339103Y0050660D02*
X0330071Y0050660D01*
X0330055Y0050664D02*
X0328126Y0050664D01*
X0328126Y0047499D01*
X0327732Y0047499D01*
X0327732Y0050664D01*
X0325803Y0050664D01*
X0325499Y0050582D01*
X0325226Y0050425D01*
X0325003Y0050202D01*
X0324845Y0049929D01*
X0324764Y0049625D01*
X0324764Y0047499D01*
X0327732Y0047499D01*
X0327732Y0047105D01*
X0324764Y0047105D01*
X0324764Y0044979D01*
X0324845Y0044674D01*
X0325003Y0044401D01*
X0325226Y0044179D01*
X0325499Y0044021D01*
X0325803Y0043940D01*
X0327732Y0043940D01*
X0327732Y0047105D01*
X0328126Y0047105D01*
X0328126Y0047499D01*
X0331094Y0047499D01*
X0331094Y0049625D01*
X0331013Y0049929D01*
X0330855Y0050202D01*
X0330633Y0050425D01*
X0330360Y0050582D01*
X0330055Y0050664D01*
X0330790Y0050268D02*
X0338711Y0050268D01*
X0338318Y0049875D02*
X0331027Y0049875D01*
X0331094Y0049483D02*
X0337926Y0049483D01*
X0337534Y0049091D02*
X0331094Y0049091D01*
X0331094Y0048699D02*
X0337142Y0048699D01*
X0336749Y0048307D02*
X0331094Y0048307D01*
X0331094Y0047914D02*
X0336357Y0047914D01*
X0335965Y0047522D02*
X0331094Y0047522D01*
X0331094Y0047105D02*
X0328126Y0047105D01*
X0328126Y0043940D01*
X0330055Y0043940D01*
X0330360Y0044021D01*
X0330633Y0044179D01*
X0330855Y0044401D01*
X0331013Y0044674D01*
X0331094Y0044979D01*
X0331094Y0047105D01*
X0331094Y0046738D02*
X0335181Y0046738D01*
X0335573Y0047130D02*
X0328126Y0047130D01*
X0328126Y0047522D02*
X0327732Y0047522D01*
X0327732Y0047130D02*
X0313800Y0047130D01*
X0314192Y0047522D02*
X0324764Y0047522D01*
X0324764Y0047914D02*
X0314584Y0047914D01*
X0314977Y0048307D02*
X0324764Y0048307D01*
X0324764Y0048699D02*
X0315146Y0048699D01*
X0315146Y0049091D02*
X0324764Y0049091D01*
X0324764Y0049483D02*
X0315146Y0049483D01*
X0315146Y0049875D02*
X0324831Y0049875D01*
X0325069Y0050268D02*
X0315146Y0050268D01*
X0315146Y0050660D02*
X0325788Y0050660D01*
X0327732Y0050660D02*
X0328126Y0050660D01*
X0328126Y0050268D02*
X0327732Y0050268D01*
X0327732Y0049875D02*
X0328126Y0049875D01*
X0328126Y0049483D02*
X0327732Y0049483D01*
X0327732Y0049091D02*
X0328126Y0049091D01*
X0328126Y0048699D02*
X0327732Y0048699D01*
X0327732Y0048307D02*
X0328126Y0048307D01*
X0328126Y0047914D02*
X0327732Y0047914D01*
X0327732Y0046738D02*
X0328126Y0046738D01*
X0328126Y0046345D02*
X0327732Y0046345D01*
X0327732Y0045953D02*
X0328126Y0045953D01*
X0328126Y0045561D02*
X0327732Y0045561D01*
X0327732Y0045169D02*
X0328126Y0045169D01*
X0328126Y0044777D02*
X0327732Y0044777D01*
X0327732Y0044384D02*
X0328126Y0044384D01*
X0328126Y0043992D02*
X0327732Y0043992D01*
X0325607Y0043992D02*
X0310662Y0043992D01*
X0310270Y0043600D02*
X0325377Y0043600D01*
X0324984Y0043208D02*
X0309878Y0043208D01*
X0309486Y0042816D02*
X0324964Y0042816D01*
X0324964Y0042423D02*
X0309093Y0042423D01*
X0308985Y0042315D02*
X0308985Y0042315D01*
X0308701Y0042031D02*
X0324964Y0042031D01*
X0324964Y0041639D02*
X0308309Y0041639D01*
X0312071Y0040462D02*
X0324964Y0040462D01*
X0324964Y0040070D02*
X0312463Y0040070D01*
X0312856Y0039678D02*
X0324964Y0039678D01*
X0324964Y0039286D02*
X0313248Y0039286D01*
X0313640Y0038893D02*
X0324964Y0038893D01*
X0324964Y0038501D02*
X0314032Y0038501D01*
X0314424Y0038109D02*
X0324964Y0038109D01*
X0325278Y0037717D02*
X0314817Y0037717D01*
X0315146Y0037325D02*
X0325692Y0037325D01*
X0325692Y0036932D02*
X0315146Y0036932D01*
X0315146Y0036540D02*
X0325692Y0036540D01*
X0325692Y0036148D02*
X0315146Y0036148D01*
X0315146Y0035756D02*
X0325380Y0035756D01*
X0324988Y0035364D02*
X0315146Y0035364D01*
X0317348Y0034971D02*
X0317644Y0034971D01*
X0319907Y0034971D02*
X0320204Y0034971D01*
X0322466Y0034971D02*
X0324595Y0034971D01*
X0324203Y0034579D02*
X0322858Y0034579D01*
X0323031Y0034187D02*
X0323811Y0034187D01*
X0323419Y0033795D02*
X0323031Y0033795D01*
X0343631Y0033795D02*
X0348133Y0033795D01*
X0348133Y0034187D02*
X0343631Y0034187D01*
X0343631Y0034579D02*
X0348133Y0034579D01*
X0348133Y0034971D02*
X0343631Y0034971D01*
X0343631Y0035364D02*
X0348133Y0035364D01*
X0348133Y0035756D02*
X0343631Y0035756D01*
X0343631Y0036148D02*
X0348133Y0036148D01*
X0348133Y0036540D02*
X0343631Y0036540D01*
X0343631Y0036932D02*
X0348133Y0036932D01*
X0348133Y0037325D02*
X0343631Y0037325D01*
X0343631Y0037717D02*
X0348133Y0037717D01*
X0348133Y0038109D02*
X0343631Y0038109D01*
X0343631Y0038501D02*
X0348133Y0038501D01*
X0348202Y0038893D02*
X0343631Y0038893D01*
X0343631Y0039286D02*
X0348595Y0039286D01*
X0348987Y0039678D02*
X0343631Y0039678D01*
X0343631Y0040070D02*
X0349379Y0040070D01*
X0349771Y0040462D02*
X0343631Y0040462D01*
X0343631Y0040854D02*
X0350164Y0040854D01*
X0350556Y0041247D02*
X0343631Y0041247D01*
X0343631Y0041639D02*
X0350948Y0041639D01*
X0351340Y0042031D02*
X0343631Y0042031D01*
X0343631Y0042423D02*
X0351732Y0042423D01*
X0352125Y0042816D02*
X0343631Y0042816D01*
X0343631Y0043208D02*
X0352517Y0043208D01*
X0352909Y0043600D02*
X0343735Y0043600D01*
X0344127Y0043992D02*
X0353301Y0043992D01*
X0353693Y0044384D02*
X0344519Y0044384D01*
X0344911Y0044777D02*
X0356842Y0044777D01*
X0357234Y0045169D02*
X0345304Y0045169D01*
X0345696Y0045561D02*
X0357626Y0045561D01*
X0358018Y0045953D02*
X0346088Y0045953D01*
X0346480Y0046345D02*
X0346926Y0046345D01*
X0355945Y0046345D02*
X0358410Y0046345D01*
X0358803Y0046738D02*
X0356182Y0046738D01*
X0356182Y0047130D02*
X0359195Y0047130D01*
X0359550Y0047522D02*
X0356182Y0047522D01*
X0356182Y0047914D02*
X0359550Y0047914D01*
X0359550Y0048307D02*
X0356182Y0048307D01*
X0356182Y0048699D02*
X0359550Y0048699D01*
X0359550Y0049091D02*
X0356182Y0049091D01*
X0356182Y0049483D02*
X0359550Y0049483D01*
X0359550Y0049875D02*
X0356115Y0049875D01*
X0355967Y0050268D02*
X0359550Y0050268D01*
X0359550Y0050660D02*
X0356182Y0050660D01*
X0356182Y0051052D02*
X0359550Y0051052D01*
X0359550Y0051444D02*
X0356182Y0051444D01*
X0356182Y0051836D02*
X0359550Y0051836D01*
X0359550Y0052229D02*
X0356182Y0052229D01*
X0356182Y0052621D02*
X0359550Y0052621D01*
X0359550Y0053013D02*
X0356182Y0053013D01*
X0356182Y0053405D02*
X0359484Y0053405D01*
X0359091Y0053797D02*
X0356093Y0053797D01*
X0355989Y0054190D02*
X0358699Y0054190D01*
X0360950Y0056151D02*
X0384646Y0056151D01*
X0384646Y0056543D02*
X0360557Y0056543D01*
X0360165Y0056935D02*
X0384646Y0056935D01*
X0384646Y0057327D02*
X0359773Y0057327D01*
X0361342Y0055759D02*
X0384646Y0055759D01*
X0384646Y0055366D02*
X0361734Y0055366D01*
X0362126Y0054974D02*
X0384646Y0054974D01*
X0384646Y0054582D02*
X0362518Y0054582D01*
X0362528Y0054190D02*
X0384646Y0054190D01*
X0384646Y0053797D02*
X0362528Y0053797D01*
X0362528Y0053405D02*
X0384646Y0053405D01*
X0384646Y0053013D02*
X0362528Y0053013D01*
X0362528Y0052621D02*
X0384646Y0052621D01*
X0384646Y0052229D02*
X0362528Y0052229D01*
X0362528Y0051836D02*
X0384646Y0051836D01*
X0384646Y0051444D02*
X0362528Y0051444D01*
X0362528Y0051052D02*
X0384646Y0051052D01*
X0384646Y0050660D02*
X0362528Y0050660D01*
X0362528Y0050268D02*
X0384646Y0050268D01*
X0384646Y0049875D02*
X0362528Y0049875D01*
X0362528Y0049483D02*
X0384646Y0049483D01*
X0384646Y0049091D02*
X0362528Y0049091D01*
X0362528Y0048699D02*
X0384646Y0048699D01*
X0384646Y0048307D02*
X0362528Y0048307D01*
X0362528Y0047914D02*
X0384646Y0047914D01*
X0384646Y0047522D02*
X0362528Y0047522D01*
X0362528Y0047130D02*
X0384646Y0047130D01*
X0384646Y0046738D02*
X0362528Y0046738D01*
X0362528Y0046345D02*
X0384646Y0046345D01*
X0384646Y0045953D02*
X0362230Y0045953D01*
X0361837Y0045561D02*
X0384646Y0045561D01*
X0384646Y0045169D02*
X0361445Y0045169D01*
X0361053Y0044777D02*
X0384646Y0044777D01*
X0384646Y0044384D02*
X0360661Y0044384D01*
X0360269Y0043992D02*
X0384646Y0043992D01*
X0384646Y0043600D02*
X0359876Y0043600D01*
X0359484Y0043208D02*
X0384646Y0043208D01*
X0384646Y0042816D02*
X0359092Y0042816D01*
X0358700Y0042423D02*
X0384646Y0042423D01*
X0384646Y0042031D02*
X0358308Y0042031D01*
X0357915Y0041639D02*
X0384646Y0041639D01*
X0384646Y0041247D02*
X0354767Y0041247D01*
X0354723Y0040942D02*
X0354139Y0040358D01*
X0354139Y0031233D01*
X0354723Y0030649D01*
X0366548Y0030649D01*
X0367132Y0031233D01*
X0367132Y0040358D01*
X0366548Y0040942D01*
X0354723Y0040942D01*
X0354635Y0040854D02*
X0354375Y0040854D01*
X0354243Y0040462D02*
X0353983Y0040462D01*
X0354139Y0040070D02*
X0353591Y0040070D01*
X0353198Y0039678D02*
X0354139Y0039678D01*
X0354139Y0039286D02*
X0352806Y0039286D01*
X0352414Y0038893D02*
X0354139Y0038893D01*
X0354139Y0038501D02*
X0352022Y0038501D01*
X0351630Y0038109D02*
X0354139Y0038109D01*
X0354139Y0037717D02*
X0351237Y0037717D01*
X0351111Y0037325D02*
X0354139Y0037325D01*
X0354139Y0036932D02*
X0351111Y0036932D01*
X0351111Y0036540D02*
X0354139Y0036540D01*
X0354139Y0036148D02*
X0351111Y0036148D01*
X0351111Y0035756D02*
X0354139Y0035756D01*
X0354139Y0035364D02*
X0351111Y0035364D01*
X0351111Y0034971D02*
X0354139Y0034971D01*
X0354139Y0034579D02*
X0351111Y0034579D01*
X0351111Y0034187D02*
X0354139Y0034187D01*
X0354139Y0033795D02*
X0351111Y0033795D01*
X0351111Y0033402D02*
X0354139Y0033402D01*
X0354139Y0033010D02*
X0351111Y0033010D01*
X0351111Y0032618D02*
X0354139Y0032618D01*
X0354139Y0032226D02*
X0351111Y0032226D01*
X0351111Y0031834D02*
X0354139Y0031834D01*
X0354139Y0031441D02*
X0351111Y0031441D01*
X0351111Y0031049D02*
X0354322Y0031049D01*
X0354714Y0030657D02*
X0351111Y0030657D01*
X0351111Y0030265D02*
X0384646Y0030265D01*
X0384646Y0030657D02*
X0366557Y0030657D01*
X0366949Y0031049D02*
X0384646Y0031049D01*
X0384646Y0031441D02*
X0367132Y0031441D01*
X0367132Y0031834D02*
X0384646Y0031834D01*
X0384646Y0032226D02*
X0367132Y0032226D01*
X0367132Y0032618D02*
X0384646Y0032618D01*
X0384646Y0033010D02*
X0367132Y0033010D01*
X0367132Y0033402D02*
X0384646Y0033402D01*
X0384646Y0033795D02*
X0367132Y0033795D01*
X0367132Y0034187D02*
X0384646Y0034187D01*
X0384646Y0034579D02*
X0367132Y0034579D01*
X0367132Y0034971D02*
X0384646Y0034971D01*
X0384646Y0035364D02*
X0367132Y0035364D01*
X0367132Y0035756D02*
X0384646Y0035756D01*
X0384646Y0036148D02*
X0367132Y0036148D01*
X0367132Y0036540D02*
X0384646Y0036540D01*
X0384646Y0036932D02*
X0367132Y0036932D01*
X0367132Y0037325D02*
X0384646Y0037325D01*
X0384646Y0037717D02*
X0367132Y0037717D01*
X0367132Y0038109D02*
X0384646Y0038109D01*
X0384646Y0038501D02*
X0367132Y0038501D01*
X0367132Y0038893D02*
X0384646Y0038893D01*
X0384646Y0039286D02*
X0367132Y0039286D01*
X0367132Y0039678D02*
X0384646Y0039678D01*
X0384646Y0040070D02*
X0367132Y0040070D01*
X0367028Y0040462D02*
X0384646Y0040462D01*
X0384646Y0040854D02*
X0366636Y0040854D01*
X0348133Y0033402D02*
X0343631Y0033402D01*
X0343631Y0033010D02*
X0348133Y0033010D01*
X0348133Y0032618D02*
X0343631Y0032618D01*
X0343631Y0032226D02*
X0348133Y0032226D01*
X0348133Y0031834D02*
X0343631Y0031834D01*
X0343631Y0031441D02*
X0348133Y0031441D01*
X0348133Y0031049D02*
X0343631Y0031049D01*
X0343631Y0030657D02*
X0348133Y0030657D01*
X0348133Y0030265D02*
X0343631Y0030265D01*
X0343631Y0029873D02*
X0348133Y0029873D01*
X0348133Y0029480D02*
X0343631Y0029480D01*
X0343631Y0029088D02*
X0348133Y0029088D01*
X0348133Y0028696D02*
X0343631Y0028696D01*
X0343631Y0028304D02*
X0348133Y0028304D01*
X0348133Y0027911D02*
X0343631Y0027911D01*
X0343631Y0027519D02*
X0348133Y0027519D01*
X0348133Y0027127D02*
X0343403Y0027127D01*
X0343011Y0026735D02*
X0348133Y0026735D01*
X0347763Y0026343D02*
X0342619Y0026343D01*
X0342227Y0025950D02*
X0347371Y0025950D01*
X0347064Y0025558D02*
X0341835Y0025558D01*
X0341442Y0025166D02*
X0346901Y0025166D01*
X0346739Y0024774D02*
X0341050Y0024774D01*
X0340658Y0024382D02*
X0346675Y0024382D01*
X0346675Y0023989D02*
X0340266Y0023989D01*
X0339874Y0023597D02*
X0346675Y0023597D01*
X0346776Y0023205D02*
X0339481Y0023205D01*
X0339089Y0022813D02*
X0346938Y0022813D01*
X0347101Y0022421D02*
X0338697Y0022421D01*
X0338305Y0022028D02*
X0347460Y0022028D01*
X0347852Y0021636D02*
X0337913Y0021636D01*
X0337520Y0021244D02*
X0348658Y0021244D01*
X0350587Y0021244D02*
X0365851Y0021244D01*
X0365848Y0021245D02*
X0366421Y0021008D01*
X0367029Y0020887D01*
X0367160Y0020887D01*
X0367160Y0023856D01*
X0364192Y0023856D01*
X0364192Y0023724D01*
X0364313Y0023116D01*
X0364550Y0022543D01*
X0364894Y0022028D01*
X0365333Y0021590D01*
X0365848Y0021245D01*
X0365286Y0021636D02*
X0351392Y0021636D01*
X0351784Y0022028D02*
X0364894Y0022028D01*
X0364632Y0022421D02*
X0352143Y0022421D01*
X0352306Y0022813D02*
X0364438Y0022813D01*
X0364295Y0023205D02*
X0352468Y0023205D01*
X0352569Y0023597D02*
X0364217Y0023597D01*
X0364192Y0024212D02*
X0367160Y0024212D01*
X0367160Y0023856D01*
X0367517Y0023856D01*
X0367517Y0024212D01*
X0370485Y0024212D01*
X0370485Y0024344D01*
X0370364Y0024952D01*
X0370127Y0025525D01*
X0369783Y0026040D01*
X0369345Y0026478D01*
X0368829Y0026823D01*
X0368256Y0027060D01*
X0367649Y0027181D01*
X0367517Y0027181D01*
X0367517Y0024212D01*
X0367160Y0024212D01*
X0367160Y0027181D01*
X0367029Y0027181D01*
X0366421Y0027060D01*
X0365848Y0026823D01*
X0365333Y0026478D01*
X0364894Y0026040D01*
X0364550Y0025525D01*
X0364313Y0024952D01*
X0364192Y0024344D01*
X0364192Y0024212D01*
X0364199Y0024382D02*
X0352569Y0024382D01*
X0352569Y0023989D02*
X0367160Y0023989D01*
X0367517Y0023989D02*
X0384646Y0023989D01*
X0384646Y0023597D02*
X0370460Y0023597D01*
X0370485Y0023724D02*
X0370364Y0023116D01*
X0370127Y0022543D01*
X0369783Y0022028D01*
X0369345Y0021590D01*
X0368829Y0021245D01*
X0368256Y0021008D01*
X0367649Y0020887D01*
X0367517Y0020887D01*
X0367517Y0023856D01*
X0370485Y0023856D01*
X0370485Y0023724D01*
X0370382Y0023205D02*
X0384646Y0023205D01*
X0384646Y0022813D02*
X0370239Y0022813D01*
X0370045Y0022421D02*
X0384646Y0022421D01*
X0384646Y0022028D02*
X0369783Y0022028D01*
X0369391Y0021636D02*
X0384646Y0021636D01*
X0384646Y0021244D02*
X0368826Y0021244D01*
X0367517Y0021244D02*
X0367160Y0021244D01*
X0367160Y0021636D02*
X0367517Y0021636D01*
X0367517Y0022028D02*
X0367160Y0022028D01*
X0367160Y0022421D02*
X0367517Y0022421D01*
X0367517Y0022813D02*
X0367160Y0022813D01*
X0367160Y0023205D02*
X0367517Y0023205D01*
X0367517Y0023597D02*
X0367160Y0023597D01*
X0367160Y0024382D02*
X0367517Y0024382D01*
X0367517Y0024774D02*
X0367160Y0024774D01*
X0367160Y0025166D02*
X0367517Y0025166D01*
X0367517Y0025558D02*
X0367160Y0025558D01*
X0367160Y0025950D02*
X0367517Y0025950D01*
X0367517Y0026343D02*
X0367160Y0026343D01*
X0367160Y0026735D02*
X0367517Y0026735D01*
X0367517Y0027127D02*
X0367160Y0027127D01*
X0366758Y0027127D02*
X0351111Y0027127D01*
X0351111Y0026735D02*
X0365716Y0026735D01*
X0365197Y0026343D02*
X0351481Y0026343D01*
X0351873Y0025950D02*
X0364834Y0025950D01*
X0364572Y0025558D02*
X0352180Y0025558D01*
X0352343Y0025166D02*
X0364401Y0025166D01*
X0364277Y0024774D02*
X0352505Y0024774D01*
X0351111Y0027519D02*
X0384646Y0027519D01*
X0384646Y0027127D02*
X0367919Y0027127D01*
X0368961Y0026735D02*
X0384646Y0026735D01*
X0384646Y0026343D02*
X0369480Y0026343D01*
X0369843Y0025950D02*
X0384646Y0025950D01*
X0384646Y0025558D02*
X0370105Y0025558D01*
X0370276Y0025166D02*
X0384646Y0025166D01*
X0384646Y0024774D02*
X0370400Y0024774D01*
X0370478Y0024382D02*
X0384646Y0024382D01*
X0384646Y0027911D02*
X0351111Y0027911D01*
X0351111Y0028304D02*
X0384646Y0028304D01*
X0384646Y0028696D02*
X0351111Y0028696D01*
X0351111Y0029088D02*
X0384646Y0029088D01*
X0384646Y0029480D02*
X0351111Y0029480D01*
X0351111Y0029873D02*
X0384646Y0029873D01*
X0384646Y0020852D02*
X0337128Y0020852D01*
X0336736Y0020459D02*
X0384646Y0020459D01*
X0384646Y0020067D02*
X0336344Y0020067D01*
X0335951Y0019675D02*
X0384646Y0019675D01*
X0384646Y0019283D02*
X0335559Y0019283D01*
X0335167Y0018891D02*
X0384646Y0018891D01*
X0384646Y0018498D02*
X0334775Y0018498D01*
X0334383Y0018106D02*
X0384646Y0018106D01*
X0384646Y0017714D02*
X0333990Y0017714D01*
X0333598Y0017322D02*
X0384646Y0017322D01*
X0384646Y0016930D02*
X0333206Y0016930D01*
X0332814Y0016537D02*
X0384646Y0016537D01*
X0384646Y0016145D02*
X0332422Y0016145D01*
X0332029Y0015753D02*
X0384646Y0015753D01*
X0331341Y0015065D02*
X0312391Y0015065D01*
X0311519Y0015937D01*
X0307410Y0020046D01*
X0307410Y0019045D01*
X0307469Y0018971D01*
X0307410Y0018440D01*
X0307410Y0017905D01*
X0307343Y0017839D01*
X0307333Y0017745D01*
X0306916Y0017411D01*
X0306538Y0017033D01*
X0306444Y0017033D01*
X0304947Y0015836D01*
X0304570Y0015458D01*
X0304475Y0015458D01*
X0304401Y0015399D01*
X0303870Y0015458D01*
X0050582Y0015458D01*
X0050544Y0015425D01*
X0049972Y0015458D01*
X0049399Y0015458D01*
X0049363Y0015494D01*
X0049313Y0015497D01*
X0048932Y0015926D01*
X0048527Y0016331D01*
X0048527Y0016381D01*
X0045782Y0019469D01*
X0045377Y0019874D01*
X0045377Y0019925D01*
X0045344Y0019962D01*
X0045377Y0020534D01*
X0045377Y0039321D01*
X0045066Y0039450D01*
X0044172Y0040344D01*
X0043688Y0041512D01*
X0043688Y0042776D01*
X0044172Y0043944D01*
X0045066Y0044838D01*
X0046234Y0045322D01*
X0047498Y0045322D01*
X0047809Y0045193D01*
X0052464Y0049848D01*
X0052464Y0066724D01*
X0041834Y0077354D01*
X0041834Y0082628D01*
X0041523Y0082757D01*
X0040629Y0083651D01*
X0040145Y0084819D01*
X0040145Y0086083D01*
X0040629Y0087252D01*
X0041523Y0088145D01*
X0042691Y0088629D01*
X0043955Y0088629D01*
X0045123Y0088145D01*
X0045365Y0087904D01*
X0045747Y0088826D01*
X0046641Y0089720D01*
X0047809Y0090204D01*
X0049073Y0090204D01*
X0050241Y0089720D01*
X0050775Y0089187D01*
X0050775Y0089233D01*
X0050904Y0089544D01*
X0050889Y0089559D01*
X0050889Y0094833D01*
X0050578Y0094962D01*
X0049684Y0095856D01*
X0049200Y0097024D01*
X0049200Y0098288D01*
X0049684Y0099456D01*
X0050578Y0100350D01*
X0051746Y0100834D01*
X0053010Y0100834D01*
X0054178Y0100350D01*
X0055072Y0099456D01*
X0055556Y0098288D01*
X0055556Y0097024D01*
X0055072Y0095856D01*
X0054178Y0094962D01*
X0053867Y0094833D01*
X0053867Y0091779D01*
X0054585Y0091779D01*
X0055753Y0091295D01*
X0056647Y0090401D01*
X0057131Y0089233D01*
X0057131Y0087969D01*
X0056647Y0086801D01*
X0055753Y0085907D01*
X0054585Y0085423D01*
X0053321Y0085423D01*
X0052153Y0085907D01*
X0051619Y0086441D01*
X0051619Y0086394D01*
X0051135Y0085226D01*
X0050241Y0084332D01*
X0049930Y0084203D01*
X0049930Y0079769D01*
X0066774Y0062925D01*
X0067646Y0062052D01*
X0067646Y0061041D01*
X0068745Y0060586D01*
X0069639Y0059692D01*
X0070123Y0058524D01*
X0070123Y0057260D01*
X0069639Y0056092D01*
X0068745Y0055198D01*
X0068434Y0055069D01*
X0068434Y0021501D01*
X0069136Y0020799D01*
X0087760Y0020799D01*
X0086407Y0022151D01*
X0085535Y0023024D01*
X0085535Y0038928D01*
X0085223Y0039056D01*
X0084329Y0039950D01*
X0083846Y0041118D01*
X0083846Y0042383D01*
X0084329Y0043551D01*
X0085223Y0044445D01*
X0086391Y0044928D01*
X0087656Y0044928D01*
X0087689Y0044915D01*
X0099708Y0056934D01*
X0099708Y0062787D01*
X0092549Y0069947D01*
X0091973Y0069371D01*
X0090805Y0068888D01*
X0089541Y0068888D01*
X0088373Y0069371D01*
X0087479Y0070265D01*
X0086995Y0071433D01*
X0086995Y0072698D01*
X0087479Y0073866D01*
X0088373Y0074760D01*
X0089541Y0075243D01*
X0090805Y0075243D01*
X0091973Y0074760D01*
X0092867Y0073866D01*
X0092996Y0073554D01*
X0093152Y0073554D01*
X0102686Y0064021D01*
X0102686Y0055701D01*
X0101814Y0054829D01*
X0089957Y0042972D01*
X0090202Y0042383D01*
X0090202Y0041118D01*
X0089718Y0039950D01*
X0088824Y0039056D01*
X0088513Y0038928D01*
X0088513Y0024257D01*
X0089609Y0023161D01*
X0109807Y0023161D01*
X0109550Y0023417D01*
X0109550Y0023417D01*
X0107273Y0025695D01*
X0107273Y0025695D01*
X0106401Y0026567D01*
X0106401Y0054282D01*
X0106090Y0054411D01*
X0105196Y0055305D01*
X0104712Y0056473D01*
X0104712Y0057737D01*
X0105196Y0058905D01*
X0106007Y0059717D01*
X0106007Y0062000D01*
X0093214Y0074793D01*
X0092297Y0074793D01*
X0091129Y0075277D01*
X0090235Y0076171D01*
X0089751Y0077339D01*
X0089751Y0078603D01*
X0090235Y0079771D01*
X0091129Y0080665D01*
X0092297Y0081149D01*
X0093561Y0081149D01*
X0094729Y0080665D01*
X0095623Y0079771D01*
X0096107Y0078603D01*
X0096107Y0077339D01*
X0095978Y0077028D01*
X0095993Y0077013D01*
X0095993Y0076226D01*
X0108113Y0064106D01*
X0108985Y0063233D01*
X0108985Y0060091D01*
X0109690Y0059799D01*
X0110584Y0058905D01*
X0111068Y0057737D01*
X0111068Y0056473D01*
X0110584Y0055305D01*
X0109690Y0054411D01*
X0109379Y0054282D01*
X0109379Y0027800D01*
X0111656Y0025523D01*
X0127917Y0025523D01*
X0126171Y0027269D01*
X0125298Y0028142D01*
X0125298Y0038928D01*
X0124987Y0039056D01*
X0124093Y0039950D01*
X0123609Y0041118D01*
X0123609Y0042383D01*
X0124093Y0043551D01*
X0124987Y0044445D01*
X0126155Y0044928D01*
X0126285Y0044928D01*
X0127267Y0045911D01*
X0128139Y0046783D01*
X0136013Y0046783D01*
X0139472Y0050241D01*
X0139472Y0063181D01*
X0132675Y0069978D01*
X0132631Y0069872D01*
X0131737Y0068978D01*
X0130569Y0068494D01*
X0129305Y0068494D01*
X0128137Y0068978D01*
X0127243Y0069872D01*
X0126759Y0071040D01*
X0126759Y0072304D01*
X0127243Y0073472D01*
X0128137Y0074366D01*
X0129305Y0074850D01*
X0130139Y0074850D01*
X0129605Y0075383D01*
X0129121Y0076551D01*
X0129121Y0077816D01*
X0129605Y0078984D01*
X0130499Y0079878D01*
X0131667Y0080362D01*
X0132931Y0080362D01*
X0134099Y0079878D01*
X0134993Y0078984D01*
X0135477Y0077816D01*
X0135477Y0076551D01*
X0135348Y0076240D01*
X0147483Y0064106D01*
X0148355Y0063233D01*
X0148355Y0060878D01*
X0149060Y0060586D01*
X0149954Y0059692D01*
X0150438Y0058524D01*
X0150438Y0057260D01*
X0149954Y0056092D01*
X0149060Y0055198D01*
X0148355Y0054906D01*
X0148355Y0034100D01*
X0152207Y0030247D01*
X0170043Y0030247D01*
X0166328Y0033962D01*
X0165456Y0034835D01*
X0165456Y0038140D01*
X0165145Y0038269D01*
X0164251Y0039163D01*
X0163767Y0040331D01*
X0163767Y0041595D01*
X0164251Y0042763D01*
X0165145Y0043657D01*
X0166313Y0044141D01*
X0167577Y0044141D01*
X0168745Y0043657D01*
X0169639Y0042763D01*
X0169768Y0042452D01*
X0173808Y0042452D01*
X0180023Y0048667D01*
X0180023Y0062000D01*
X0172234Y0069789D01*
X0172130Y0069789D01*
X0172001Y0069478D01*
X0171107Y0068584D01*
X0169939Y0068100D01*
X0168675Y0068100D01*
X0167507Y0068584D01*
X0166613Y0069478D01*
X0166129Y0070646D01*
X0166129Y0071910D01*
X0166613Y0073078D01*
X0167507Y0073972D01*
X0168675Y0074456D01*
X0169903Y0074456D01*
X0169369Y0074990D01*
X0168885Y0076158D01*
X0168885Y0077422D01*
X0169369Y0078590D01*
X0170263Y0079484D01*
X0171431Y0079968D01*
X0172291Y0079968D01*
X0149005Y0103254D01*
X0147721Y0103254D01*
X0147592Y0102943D01*
X0146698Y0102049D01*
X0145530Y0101565D01*
X0144265Y0101565D01*
X0143097Y0102049D01*
X0142203Y0102943D01*
X0141720Y0104111D01*
X0141720Y0105375D01*
X0142203Y0106543D01*
X0143097Y0107437D01*
X0144265Y0107921D01*
X0145530Y0107921D01*
X0146698Y0107437D01*
X0147592Y0106543D01*
X0147721Y0106232D01*
X0150239Y0106232D01*
X0151111Y0105359D01*
X0160888Y0095582D01*
X0160617Y0096237D01*
X0160617Y0097501D01*
X0160746Y0097812D01*
X0155305Y0103254D01*
X0154432Y0104126D01*
X0154432Y0105857D01*
X0154121Y0105986D01*
X0153227Y0106880D01*
X0152743Y0108048D01*
X0152743Y0109312D01*
X0153227Y0110480D01*
X0154121Y0111374D01*
X0155289Y0111858D01*
X0156553Y0111858D01*
X0156865Y0111729D01*
X0158060Y0112925D01*
X0280554Y0112925D01*
X0281426Y0112052D01*
X0286853Y0106625D01*
X0292706Y0106625D01*
X0293192Y0107111D01*
X0293192Y0107180D01*
X0292965Y0107119D01*
X0292268Y0107119D01*
X0292268Y0110920D01*
X0291976Y0110920D01*
X0290240Y0110920D01*
X0290240Y0108158D01*
X0290322Y0107854D01*
X0290479Y0107581D01*
X0290702Y0107358D01*
X0290975Y0107200D01*
X0291279Y0107119D01*
X0291976Y0107119D01*
X0291976Y0110920D01*
X0291976Y0111211D01*
X0290240Y0111211D01*
X0290240Y0113973D01*
X0290322Y0114277D01*
X0290479Y0114550D01*
X0290600Y0114671D01*
X0122680Y0114671D01*
X0118670Y0110661D01*
X0119245Y0110086D01*
X0119729Y0108918D01*
X0119729Y0107654D01*
X0119245Y0106486D01*
X0118351Y0105592D01*
X0118040Y0105463D01*
X0118040Y0104966D01*
X0122694Y0100311D01*
X0123006Y0100440D01*
X0124270Y0100440D01*
X0125438Y0099956D01*
X0126332Y0099063D01*
X0126816Y0097895D01*
X0126816Y0096630D01*
X0126332Y0095462D01*
X0125438Y0094568D01*
X0124270Y0094084D01*
X0123006Y0094084D01*
X0121838Y0094568D01*
X0120944Y0095462D01*
X0120460Y0096630D01*
X0120460Y0097895D01*
X0120589Y0098206D01*
X0115934Y0102860D01*
X0115062Y0103732D01*
X0115062Y0105463D01*
X0114751Y0105592D01*
X0113857Y0106486D01*
X0113373Y0107654D01*
X0113373Y0108918D01*
X0113857Y0110086D01*
X0114751Y0110980D01*
X0115062Y0111109D01*
X0115062Y0111265D01*
X0115934Y0112137D01*
X0120831Y0117033D01*
X0109294Y0117033D01*
X0107395Y0115135D01*
X0107524Y0114824D01*
X0107524Y0113559D01*
X0107041Y0112391D01*
X0106147Y0111497D01*
X0104979Y0111014D01*
X0103714Y0111014D01*
X0102546Y0111497D01*
X0101652Y0112391D01*
X0101169Y0113559D01*
X0101169Y0114824D01*
X0101652Y0115992D01*
X0102546Y0116886D01*
X0103714Y0117369D01*
X0104979Y0117369D01*
X0105290Y0117241D01*
X0107445Y0119395D01*
X0083703Y0119395D01*
X0077095Y0112787D01*
X0077095Y0111896D01*
X0077406Y0111768D01*
X0078300Y0110874D01*
X0078784Y0109706D01*
X0078784Y0108441D01*
X0078655Y0108130D01*
X0085757Y0101029D01*
X0085757Y0099298D01*
X0086068Y0099169D01*
X0086962Y0098275D01*
X0087446Y0097107D01*
X0087446Y0095843D01*
X0086962Y0094675D01*
X0086068Y0093781D01*
X0084900Y0093297D01*
X0083636Y0093297D01*
X0082468Y0093781D01*
X0081574Y0094675D01*
X0081090Y0095843D01*
X0081090Y0097107D01*
X0081574Y0098275D01*
X0082468Y0099169D01*
X0082779Y0099298D01*
X0082779Y0099795D01*
X0076550Y0106024D01*
X0076238Y0105895D01*
X0074974Y0105895D01*
X0073806Y0106379D01*
X0072912Y0107273D01*
X0072428Y0108441D01*
X0072428Y0109706D01*
X0072912Y0110874D01*
X0073806Y0111768D01*
X0074117Y0111896D01*
X0074117Y0114021D01*
X0074990Y0114893D01*
X0081854Y0121758D01*
X0068349Y0121758D01*
X0064891Y0118299D01*
X0064891Y0111896D01*
X0065202Y0111768D01*
X0066096Y0110874D01*
X0066580Y0109706D01*
X0066580Y0108441D01*
X0066096Y0107273D01*
X0065202Y0106379D01*
X0064034Y0105895D01*
X0062769Y0105895D01*
X0061601Y0106379D01*
X0060707Y0107273D01*
X0060224Y0108441D01*
X0060224Y0109706D01*
X0060707Y0110874D01*
X0061601Y0111768D01*
X0061913Y0111896D01*
X0061913Y0119533D01*
X0062785Y0120405D01*
X0066500Y0124120D01*
X0044727Y0124120D01*
X0042829Y0122221D01*
X0042957Y0121910D01*
X0042957Y0120646D01*
X0042474Y0119478D01*
X0041580Y0118584D01*
X0040412Y0118100D01*
X0039147Y0118100D01*
X0037979Y0118584D01*
X0037085Y0119478D01*
X0036602Y0120646D01*
X0036602Y0121910D01*
X0037085Y0123078D01*
X0037979Y0123972D01*
X0039147Y0124456D01*
X0040412Y0124456D01*
X0040723Y0124327D01*
X0043493Y0127098D01*
X0307719Y0127098D01*
X0308591Y0126226D01*
X0313992Y0120825D01*
X0316637Y0123470D01*
X0317509Y0124342D01*
X0318310Y0124342D01*
X0318310Y0125234D01*
X0318894Y0125818D01*
X0319983Y0125818D01*
X0319983Y0126029D01*
X0320968Y0127013D01*
X0321840Y0127885D01*
X0336459Y0127885D01*
X0342758Y0121586D01*
X0343631Y0120714D01*
X0343631Y0111659D01*
X0346689Y0108601D01*
X0346689Y0108808D01*
X0347273Y0109392D01*
X0355598Y0109392D01*
X0356182Y0108808D01*
X0356182Y0105583D01*
X0355845Y0105245D01*
X0356182Y0104908D01*
X0356182Y0101683D01*
X0355845Y0101345D01*
X0356182Y0101008D01*
X0356182Y0097783D01*
X0355937Y0097537D01*
X0356143Y0097330D01*
X0356301Y0097057D01*
X0356382Y0096753D01*
X0356382Y0095592D01*
X0351632Y0095592D01*
X0351632Y0095199D01*
X0356382Y0095199D01*
X0356382Y0094038D01*
X0356301Y0093733D01*
X0356143Y0093461D01*
X0355987Y0093304D01*
X0356182Y0093108D01*
X0356182Y0089883D01*
X0355795Y0089495D01*
X0356182Y0089108D01*
X0356182Y0085883D01*
X0355845Y0085545D01*
X0356182Y0085208D01*
X0356182Y0081983D01*
X0355845Y0081645D01*
X0356182Y0081308D01*
X0356182Y0078083D01*
X0355795Y0077695D01*
X0356182Y0077308D01*
X0356182Y0074083D01*
X0355845Y0073745D01*
X0356182Y0073408D01*
X0355900Y0073800D02*
X0384646Y0073800D01*
X0384646Y0074193D02*
X0356182Y0074193D01*
X0356182Y0074585D02*
X0384646Y0074585D01*
X0384646Y0074977D02*
X0356182Y0074977D01*
X0356182Y0075369D02*
X0384646Y0075369D01*
X0384646Y0075761D02*
X0356182Y0075761D01*
X0356182Y0076154D02*
X0384646Y0076154D01*
X0384646Y0076546D02*
X0356182Y0076546D01*
X0356182Y0076938D02*
X0384646Y0076938D01*
X0384646Y0077330D02*
X0356160Y0077330D01*
X0355822Y0077722D02*
X0384646Y0077722D01*
X0384646Y0078115D02*
X0356182Y0078115D01*
X0356182Y0078507D02*
X0384646Y0078507D01*
X0384646Y0078899D02*
X0356182Y0078899D01*
X0356182Y0079291D02*
X0384646Y0079291D01*
X0384646Y0079683D02*
X0356182Y0079683D01*
X0356182Y0080076D02*
X0384646Y0080076D01*
X0384646Y0080468D02*
X0356182Y0080468D01*
X0356182Y0080860D02*
X0384646Y0080860D01*
X0384646Y0081252D02*
X0356182Y0081252D01*
X0355846Y0081645D02*
X0384646Y0081645D01*
X0384646Y0082037D02*
X0356182Y0082037D01*
X0356182Y0082429D02*
X0384646Y0082429D01*
X0384646Y0082821D02*
X0356182Y0082821D01*
X0356182Y0083213D02*
X0384646Y0083213D01*
X0384646Y0083606D02*
X0356182Y0083606D01*
X0356182Y0083998D02*
X0384646Y0083998D01*
X0384646Y0084390D02*
X0356182Y0084390D01*
X0356182Y0084782D02*
X0384646Y0084782D01*
X0384646Y0085174D02*
X0356182Y0085174D01*
X0355866Y0085567D02*
X0384646Y0085567D01*
X0384646Y0085959D02*
X0356182Y0085959D01*
X0356182Y0086351D02*
X0384646Y0086351D01*
X0384646Y0086743D02*
X0356182Y0086743D01*
X0356182Y0087136D02*
X0384646Y0087136D01*
X0384646Y0087528D02*
X0356182Y0087528D01*
X0356182Y0087920D02*
X0384646Y0087920D01*
X0384646Y0088312D02*
X0356182Y0088312D01*
X0356182Y0088704D02*
X0384646Y0088704D01*
X0384646Y0089097D02*
X0356182Y0089097D01*
X0355802Y0089489D02*
X0384646Y0089489D01*
X0384646Y0089881D02*
X0356181Y0089881D01*
X0356182Y0090273D02*
X0384646Y0090273D01*
X0384646Y0090665D02*
X0356182Y0090665D01*
X0356182Y0091058D02*
X0384646Y0091058D01*
X0384646Y0091450D02*
X0356182Y0091450D01*
X0356182Y0091842D02*
X0384646Y0091842D01*
X0384646Y0092234D02*
X0356182Y0092234D01*
X0356182Y0092626D02*
X0384646Y0092626D01*
X0384646Y0093019D02*
X0356182Y0093019D01*
X0356094Y0093411D02*
X0384646Y0093411D01*
X0384646Y0093803D02*
X0356319Y0093803D01*
X0356382Y0094195D02*
X0384646Y0094195D01*
X0384646Y0094588D02*
X0356382Y0094588D01*
X0356382Y0094980D02*
X0384646Y0094980D01*
X0384646Y0095372D02*
X0351632Y0095372D01*
X0351239Y0095372D02*
X0336845Y0095372D01*
X0337132Y0095659D02*
X0338049Y0095659D01*
X0339217Y0096143D01*
X0340111Y0097037D01*
X0340595Y0098205D01*
X0340595Y0099469D01*
X0340111Y0100637D01*
X0339217Y0101531D01*
X0338049Y0102015D01*
X0336785Y0102015D01*
X0335617Y0101531D01*
X0334723Y0100637D01*
X0334239Y0099469D01*
X0334239Y0098205D01*
X0334599Y0097337D01*
X0332549Y0095287D01*
X0331682Y0095287D01*
X0331682Y0096376D01*
X0331098Y0096960D01*
X0326335Y0096960D01*
X0325751Y0096376D01*
X0325751Y0091220D01*
X0326335Y0090636D01*
X0327267Y0090636D01*
X0327267Y0089611D01*
X0321954Y0084298D01*
X0321954Y0085441D01*
X0321583Y0085811D01*
X0321583Y0088824D01*
X0320711Y0089696D01*
X0319924Y0090484D01*
X0313179Y0090484D01*
X0312306Y0089611D01*
X0311106Y0088411D01*
X0311106Y0086025D01*
X0308937Y0086025D01*
X0308756Y0085843D01*
X0308574Y0086025D01*
X0306378Y0086025D01*
X0306197Y0085843D01*
X0306015Y0086025D01*
X0303819Y0086025D01*
X0303638Y0085843D01*
X0303456Y0086025D01*
X0301260Y0086025D01*
X0301079Y0085843D01*
X0300897Y0086025D01*
X0298729Y0086025D01*
X0298729Y0088056D01*
X0295205Y0091580D01*
X0294333Y0092452D01*
X0271105Y0092452D01*
X0267253Y0096304D01*
X0266381Y0097177D01*
X0262411Y0097177D01*
X0262388Y0097198D01*
X0261799Y0097177D01*
X0261210Y0097177D01*
X0261187Y0097154D01*
X0261155Y0097153D01*
X0260754Y0096721D01*
X0260338Y0096304D01*
X0260338Y0096272D01*
X0256059Y0091665D01*
X0249491Y0091665D01*
X0249847Y0091812D01*
X0250741Y0092706D01*
X0251225Y0093874D01*
X0251225Y0095139D01*
X0250741Y0096307D01*
X0249847Y0097201D01*
X0248679Y0097684D01*
X0247415Y0097684D01*
X0246247Y0097201D01*
X0245353Y0096307D01*
X0245224Y0095995D01*
X0244975Y0095995D01*
X0245623Y0096643D01*
X0246107Y0097811D01*
X0246107Y0098529D01*
X0295908Y0098529D01*
X0296780Y0099402D01*
X0301288Y0103909D01*
X0301288Y0107319D01*
X0303456Y0107319D01*
X0303638Y0107500D01*
X0303819Y0107319D01*
X0306015Y0107319D01*
X0306197Y0107500D01*
X0306378Y0107319D01*
X0308574Y0107319D01*
X0308756Y0107500D01*
X0308937Y0107319D01*
X0311133Y0107319D01*
X0311315Y0107500D01*
X0311497Y0107319D01*
X0313692Y0107319D01*
X0313874Y0107500D01*
X0314056Y0107319D01*
X0316251Y0107319D01*
X0316433Y0107500D01*
X0316615Y0107319D01*
X0318811Y0107319D01*
X0318992Y0107500D01*
X0319174Y0107319D01*
X0321370Y0107319D01*
X0321954Y0107903D01*
X0321954Y0113490D01*
X0330108Y0113490D01*
X0344983Y0098614D01*
X0345856Y0097742D01*
X0346729Y0097742D01*
X0346934Y0097537D01*
X0346728Y0097330D01*
X0346570Y0097057D01*
X0346489Y0096753D01*
X0346489Y0095592D01*
X0351239Y0095592D01*
X0351239Y0095199D01*
X0346489Y0095199D01*
X0346489Y0094038D01*
X0346570Y0093733D01*
X0346728Y0093461D01*
X0346884Y0093304D01*
X0346689Y0093108D01*
X0346689Y0092846D01*
X0335672Y0092846D01*
X0334995Y0093522D01*
X0337132Y0095659D01*
X0336453Y0094980D02*
X0346489Y0094980D01*
X0346489Y0094588D02*
X0336061Y0094588D01*
X0335669Y0094195D02*
X0346489Y0094195D01*
X0346551Y0093803D02*
X0335276Y0093803D01*
X0335107Y0093411D02*
X0346777Y0093411D01*
X0346689Y0093019D02*
X0335499Y0093019D01*
X0333026Y0095764D02*
X0331682Y0095764D01*
X0331682Y0095372D02*
X0332634Y0095372D01*
X0333418Y0096156D02*
X0331682Y0096156D01*
X0331509Y0096549D02*
X0333810Y0096549D01*
X0334203Y0096941D02*
X0331117Y0096941D01*
X0331147Y0097210D02*
X0331420Y0097368D01*
X0331643Y0097590D01*
X0331800Y0097863D01*
X0331882Y0098168D01*
X0331882Y0100294D01*
X0328913Y0100294D01*
X0328913Y0097129D01*
X0330843Y0097129D01*
X0331147Y0097210D01*
X0331360Y0097333D02*
X0334595Y0097333D01*
X0334438Y0097725D02*
X0331721Y0097725D01*
X0331868Y0098117D02*
X0334276Y0098117D01*
X0334239Y0098510D02*
X0331882Y0098510D01*
X0331882Y0098902D02*
X0334239Y0098902D01*
X0334239Y0099294D02*
X0331882Y0099294D01*
X0331882Y0099686D02*
X0334329Y0099686D01*
X0334492Y0100079D02*
X0331882Y0100079D01*
X0331882Y0100688D02*
X0331882Y0102814D01*
X0331800Y0103118D01*
X0331643Y0103391D01*
X0331420Y0103614D01*
X0331147Y0103771D01*
X0330843Y0103853D01*
X0328913Y0103853D01*
X0328913Y0100688D01*
X0328520Y0100688D01*
X0328520Y0103853D01*
X0326590Y0103853D01*
X0326286Y0103771D01*
X0326013Y0103614D01*
X0325790Y0103391D01*
X0325633Y0103118D01*
X0325551Y0102814D01*
X0325551Y0100688D01*
X0328520Y0100688D01*
X0328520Y0100294D01*
X0328913Y0100294D01*
X0328913Y0100688D01*
X0331882Y0100688D01*
X0331882Y0100863D02*
X0334949Y0100863D01*
X0334654Y0100471D02*
X0328913Y0100471D01*
X0328913Y0100863D02*
X0328520Y0100863D01*
X0328520Y0101255D02*
X0328913Y0101255D01*
X0328913Y0101647D02*
X0328520Y0101647D01*
X0328520Y0102040D02*
X0328913Y0102040D01*
X0328913Y0102432D02*
X0328520Y0102432D01*
X0328520Y0102824D02*
X0328913Y0102824D01*
X0328913Y0103216D02*
X0328520Y0103216D01*
X0328520Y0103608D02*
X0328913Y0103608D01*
X0331425Y0103608D02*
X0339989Y0103608D01*
X0340381Y0103216D02*
X0331744Y0103216D01*
X0331879Y0102824D02*
X0340774Y0102824D01*
X0341166Y0102432D02*
X0331882Y0102432D01*
X0331882Y0102040D02*
X0341558Y0102040D01*
X0341950Y0101647D02*
X0338937Y0101647D01*
X0339494Y0101255D02*
X0342342Y0101255D01*
X0342735Y0100863D02*
X0339886Y0100863D01*
X0340180Y0100471D02*
X0343127Y0100471D01*
X0343519Y0100079D02*
X0340343Y0100079D01*
X0340505Y0099686D02*
X0343911Y0099686D01*
X0344304Y0099294D02*
X0340595Y0099294D01*
X0340595Y0098902D02*
X0344696Y0098902D01*
X0344983Y0098614D02*
X0344983Y0098614D01*
X0345088Y0098510D02*
X0340595Y0098510D01*
X0340559Y0098117D02*
X0345480Y0098117D01*
X0346746Y0097725D02*
X0340397Y0097725D01*
X0340234Y0097333D02*
X0346730Y0097333D01*
X0346539Y0096941D02*
X0340015Y0096941D01*
X0339623Y0096549D02*
X0346489Y0096549D01*
X0346489Y0096156D02*
X0339231Y0096156D01*
X0338303Y0095764D02*
X0346489Y0095764D01*
X0356140Y0097333D02*
X0384646Y0097333D01*
X0384646Y0096941D02*
X0356332Y0096941D01*
X0356382Y0096549D02*
X0384646Y0096549D01*
X0384646Y0096156D02*
X0356382Y0096156D01*
X0356382Y0095764D02*
X0384646Y0095764D01*
X0384646Y0097725D02*
X0356125Y0097725D01*
X0356182Y0098117D02*
X0384646Y0098117D01*
X0384646Y0098510D02*
X0356182Y0098510D01*
X0356182Y0098902D02*
X0384646Y0098902D01*
X0384646Y0099294D02*
X0356182Y0099294D01*
X0356182Y0099686D02*
X0384646Y0099686D01*
X0384646Y0100079D02*
X0356182Y0100079D01*
X0356182Y0100471D02*
X0384646Y0100471D01*
X0384646Y0100863D02*
X0356182Y0100863D01*
X0355935Y0101255D02*
X0384646Y0101255D01*
X0384646Y0101647D02*
X0356147Y0101647D01*
X0356182Y0102040D02*
X0384646Y0102040D01*
X0384646Y0102432D02*
X0356182Y0102432D01*
X0356182Y0102824D02*
X0384646Y0102824D01*
X0384646Y0103216D02*
X0356182Y0103216D01*
X0356182Y0103608D02*
X0384646Y0103608D01*
X0384646Y0104001D02*
X0356182Y0104001D01*
X0356182Y0104393D02*
X0384646Y0104393D01*
X0384646Y0104785D02*
X0356182Y0104785D01*
X0355913Y0105177D02*
X0384646Y0105177D01*
X0384646Y0105569D02*
X0356169Y0105569D01*
X0356182Y0105962D02*
X0384646Y0105962D01*
X0384646Y0106354D02*
X0356182Y0106354D01*
X0356182Y0106746D02*
X0384646Y0106746D01*
X0384646Y0107138D02*
X0356182Y0107138D01*
X0356182Y0107531D02*
X0384646Y0107531D01*
X0384646Y0107923D02*
X0356182Y0107923D01*
X0356182Y0108315D02*
X0384646Y0108315D01*
X0384646Y0108707D02*
X0356182Y0108707D01*
X0355891Y0109099D02*
X0384646Y0109099D01*
X0384646Y0109492D02*
X0345798Y0109492D01*
X0345406Y0109884D02*
X0384646Y0109884D01*
X0384646Y0110276D02*
X0345013Y0110276D01*
X0344621Y0110668D02*
X0384646Y0110668D01*
X0384646Y0111060D02*
X0344229Y0111060D01*
X0343837Y0111453D02*
X0384646Y0111453D01*
X0384646Y0111845D02*
X0343631Y0111845D01*
X0343631Y0112237D02*
X0384646Y0112237D01*
X0384646Y0112629D02*
X0343631Y0112629D01*
X0343631Y0113022D02*
X0384646Y0113022D01*
X0384646Y0113414D02*
X0343631Y0113414D01*
X0343631Y0113806D02*
X0384646Y0113806D01*
X0384646Y0114198D02*
X0343631Y0114198D01*
X0343631Y0114590D02*
X0354581Y0114590D01*
X0354723Y0114449D02*
X0354139Y0115033D01*
X0354139Y0124158D01*
X0354723Y0124742D01*
X0366548Y0124742D01*
X0367132Y0124158D01*
X0367132Y0115033D01*
X0366548Y0114449D01*
X0354723Y0114449D01*
X0354189Y0114983D02*
X0343631Y0114983D01*
X0343631Y0115375D02*
X0354139Y0115375D01*
X0354139Y0115767D02*
X0343631Y0115767D01*
X0343631Y0116159D02*
X0354139Y0116159D01*
X0354139Y0116551D02*
X0343631Y0116551D01*
X0343631Y0116944D02*
X0354139Y0116944D01*
X0354139Y0117336D02*
X0343631Y0117336D01*
X0343631Y0117728D02*
X0354139Y0117728D01*
X0354139Y0118120D02*
X0343631Y0118120D01*
X0343631Y0118512D02*
X0354139Y0118512D01*
X0354139Y0118905D02*
X0343631Y0118905D01*
X0343631Y0119297D02*
X0354139Y0119297D01*
X0354139Y0119689D02*
X0343631Y0119689D01*
X0343631Y0120081D02*
X0354139Y0120081D01*
X0354139Y0120474D02*
X0343631Y0120474D01*
X0343479Y0120866D02*
X0354139Y0120866D01*
X0354139Y0121258D02*
X0343086Y0121258D01*
X0342694Y0121650D02*
X0354139Y0121650D01*
X0354139Y0122042D02*
X0342302Y0122042D01*
X0341910Y0122435D02*
X0354139Y0122435D01*
X0354139Y0122827D02*
X0341518Y0122827D01*
X0341125Y0123219D02*
X0354139Y0123219D01*
X0354139Y0123611D02*
X0340733Y0123611D01*
X0340341Y0124003D02*
X0354139Y0124003D01*
X0354376Y0124396D02*
X0339949Y0124396D01*
X0339557Y0124788D02*
X0384646Y0124788D01*
X0384646Y0125180D02*
X0339164Y0125180D01*
X0338772Y0125572D02*
X0384646Y0125572D01*
X0384646Y0125965D02*
X0338380Y0125965D01*
X0337988Y0126357D02*
X0384646Y0126357D01*
X0384646Y0126749D02*
X0337596Y0126749D01*
X0337203Y0127141D02*
X0384646Y0127141D01*
X0384646Y0127533D02*
X0336811Y0127533D01*
X0321488Y0127533D02*
X0002394Y0127533D01*
X0002394Y0127141D02*
X0321096Y0127141D01*
X0320704Y0126749D02*
X0308068Y0126749D01*
X0308460Y0126357D02*
X0320311Y0126357D01*
X0319983Y0125965D02*
X0308852Y0125965D01*
X0309245Y0125572D02*
X0318648Y0125572D01*
X0318310Y0125180D02*
X0309637Y0125180D01*
X0310029Y0124788D02*
X0318310Y0124788D01*
X0318310Y0124396D02*
X0310421Y0124396D01*
X0310813Y0124003D02*
X0317171Y0124003D01*
X0316779Y0123611D02*
X0311206Y0123611D01*
X0311598Y0123219D02*
X0316386Y0123219D01*
X0315994Y0122827D02*
X0311990Y0122827D01*
X0312382Y0122435D02*
X0315602Y0122435D01*
X0315210Y0122042D02*
X0312775Y0122042D01*
X0313167Y0121650D02*
X0314818Y0121650D01*
X0314425Y0121258D02*
X0313559Y0121258D01*
X0313951Y0120866D02*
X0314033Y0120866D01*
X0321954Y0113414D02*
X0330184Y0113414D01*
X0330576Y0113022D02*
X0321954Y0113022D01*
X0321954Y0112629D02*
X0330968Y0112629D01*
X0331361Y0112237D02*
X0321954Y0112237D01*
X0321954Y0111845D02*
X0331753Y0111845D01*
X0332145Y0111453D02*
X0321954Y0111453D01*
X0321954Y0111060D02*
X0332537Y0111060D01*
X0332929Y0110668D02*
X0321954Y0110668D01*
X0321954Y0110276D02*
X0333322Y0110276D01*
X0333714Y0109884D02*
X0321954Y0109884D01*
X0321954Y0109492D02*
X0334106Y0109492D01*
X0334498Y0109099D02*
X0321954Y0109099D01*
X0321954Y0108707D02*
X0334890Y0108707D01*
X0335283Y0108315D02*
X0321954Y0108315D01*
X0321954Y0107923D02*
X0335675Y0107923D01*
X0336067Y0107531D02*
X0321581Y0107531D01*
X0326008Y0103608D02*
X0300987Y0103608D01*
X0301288Y0104001D02*
X0339597Y0104001D01*
X0339205Y0104393D02*
X0301288Y0104393D01*
X0301288Y0104785D02*
X0338813Y0104785D01*
X0338420Y0105177D02*
X0301288Y0105177D01*
X0301288Y0105569D02*
X0338028Y0105569D01*
X0337636Y0105962D02*
X0301288Y0105962D01*
X0301288Y0106354D02*
X0337244Y0106354D01*
X0336851Y0106746D02*
X0301288Y0106746D01*
X0301288Y0107138D02*
X0336459Y0107138D01*
X0346190Y0109099D02*
X0346980Y0109099D01*
X0346689Y0108707D02*
X0346582Y0108707D01*
X0335897Y0101647D02*
X0331882Y0101647D01*
X0331882Y0101255D02*
X0335341Y0101255D01*
X0328913Y0100079D02*
X0328520Y0100079D01*
X0328520Y0100294D02*
X0328520Y0097129D01*
X0326590Y0097129D01*
X0326286Y0097210D01*
X0326013Y0097368D01*
X0325790Y0097590D01*
X0325633Y0097863D01*
X0325551Y0098168D01*
X0325551Y0100294D01*
X0328520Y0100294D01*
X0328520Y0100471D02*
X0297850Y0100471D01*
X0298242Y0100863D02*
X0325551Y0100863D01*
X0325551Y0101255D02*
X0298634Y0101255D01*
X0299026Y0101647D02*
X0325551Y0101647D01*
X0325551Y0102040D02*
X0299418Y0102040D01*
X0299811Y0102432D02*
X0325551Y0102432D01*
X0325554Y0102824D02*
X0300203Y0102824D01*
X0300595Y0103216D02*
X0325689Y0103216D01*
X0325551Y0100079D02*
X0297457Y0100079D01*
X0297065Y0099686D02*
X0325551Y0099686D01*
X0325551Y0099294D02*
X0296673Y0099294D01*
X0296281Y0098902D02*
X0325551Y0098902D01*
X0325551Y0098510D02*
X0246107Y0098510D01*
X0246107Y0098117D02*
X0325565Y0098117D01*
X0325712Y0097725D02*
X0246071Y0097725D01*
X0245909Y0097333D02*
X0246567Y0097333D01*
X0245987Y0096941D02*
X0245746Y0096941D01*
X0245595Y0096549D02*
X0245529Y0096549D01*
X0245291Y0096156D02*
X0245136Y0096156D01*
X0249528Y0097333D02*
X0326073Y0097333D01*
X0326316Y0096941D02*
X0266616Y0096941D01*
X0267008Y0096549D02*
X0325924Y0096549D01*
X0325751Y0096156D02*
X0267401Y0096156D01*
X0267793Y0095764D02*
X0325751Y0095764D01*
X0325751Y0095372D02*
X0268185Y0095372D01*
X0268577Y0094980D02*
X0325751Y0094980D01*
X0325751Y0094588D02*
X0268970Y0094588D01*
X0269362Y0094195D02*
X0325751Y0094195D01*
X0325751Y0093803D02*
X0269754Y0093803D01*
X0270146Y0093411D02*
X0325751Y0093411D01*
X0325751Y0093019D02*
X0270538Y0093019D01*
X0270931Y0092626D02*
X0325751Y0092626D01*
X0325751Y0092234D02*
X0294551Y0092234D01*
X0294943Y0091842D02*
X0325751Y0091842D01*
X0325751Y0091450D02*
X0295336Y0091450D01*
X0295728Y0091058D02*
X0325913Y0091058D01*
X0326305Y0090665D02*
X0296120Y0090665D01*
X0296512Y0090273D02*
X0312968Y0090273D01*
X0312576Y0089881D02*
X0296904Y0089881D01*
X0297297Y0089489D02*
X0312184Y0089489D01*
X0311791Y0089097D02*
X0297689Y0089097D01*
X0298081Y0088704D02*
X0311399Y0088704D01*
X0311106Y0088312D02*
X0298473Y0088312D01*
X0298729Y0087920D02*
X0311106Y0087920D01*
X0311106Y0087528D02*
X0298729Y0087528D01*
X0298729Y0087136D02*
X0311106Y0087136D01*
X0311106Y0086743D02*
X0298729Y0086743D01*
X0298729Y0086351D02*
X0311106Y0086351D01*
X0308871Y0085959D02*
X0308640Y0085959D01*
X0306312Y0085959D02*
X0306081Y0085959D01*
X0303753Y0085959D02*
X0303522Y0085959D01*
X0301194Y0085959D02*
X0300963Y0085959D01*
X0292883Y0086025D02*
X0291024Y0086025D01*
X0290440Y0085441D01*
X0290440Y0079115D01*
X0290633Y0078922D01*
X0290633Y0077385D01*
X0290605Y0077355D01*
X0290633Y0076774D01*
X0290633Y0076193D01*
X0290653Y0076173D01*
X0290653Y0076054D01*
X0287331Y0079375D01*
X0286459Y0080247D01*
X0262837Y0080247D01*
X0254654Y0088430D01*
X0254398Y0088687D01*
X0256124Y0088687D01*
X0256147Y0088665D01*
X0256736Y0088687D01*
X0257325Y0088687D01*
X0257348Y0088709D01*
X0257380Y0088711D01*
X0257781Y0089142D01*
X0258198Y0089559D01*
X0258198Y0089591D01*
X0260773Y0092364D01*
X0260617Y0091989D01*
X0260617Y0090725D01*
X0261101Y0089557D01*
X0261995Y0088663D01*
X0263163Y0088179D01*
X0264427Y0088179D01*
X0264739Y0088308D01*
X0266131Y0086915D01*
X0273859Y0086915D01*
X0274118Y0086556D01*
X0274100Y0086567D01*
X0273795Y0086648D01*
X0271669Y0086648D01*
X0271669Y0083680D01*
X0271276Y0083680D01*
X0271276Y0086648D01*
X0269150Y0086648D01*
X0268845Y0086567D01*
X0268572Y0086409D01*
X0268349Y0086186D01*
X0268192Y0085913D01*
X0268110Y0085609D01*
X0268110Y0083680D01*
X0271276Y0083680D01*
X0271276Y0083286D01*
X0271669Y0083286D01*
X0271669Y0080317D01*
X0273795Y0080317D01*
X0274100Y0080399D01*
X0274373Y0080557D01*
X0274596Y0080779D01*
X0274753Y0081052D01*
X0274835Y0081357D01*
X0274835Y0083286D01*
X0271669Y0083286D01*
X0271669Y0083680D01*
X0274835Y0083680D01*
X0274835Y0085561D01*
X0275003Y0085327D01*
X0275003Y0081101D01*
X0275587Y0080517D01*
X0280744Y0080517D01*
X0281328Y0081101D01*
X0281328Y0084539D01*
X0283900Y0087112D01*
X0291597Y0087112D01*
X0292883Y0086025D01*
X0292497Y0086351D02*
X0283139Y0086351D01*
X0282747Y0085959D02*
X0290958Y0085959D01*
X0290566Y0085567D02*
X0282355Y0085567D01*
X0281963Y0085174D02*
X0290440Y0085174D01*
X0290440Y0084782D02*
X0281570Y0084782D01*
X0281328Y0084390D02*
X0290440Y0084390D01*
X0290440Y0083998D02*
X0281328Y0083998D01*
X0281328Y0083606D02*
X0290440Y0083606D01*
X0290440Y0083213D02*
X0281328Y0083213D01*
X0281328Y0082821D02*
X0290440Y0082821D01*
X0290440Y0082429D02*
X0281328Y0082429D01*
X0281328Y0082037D02*
X0290440Y0082037D01*
X0290440Y0081645D02*
X0281328Y0081645D01*
X0281328Y0081252D02*
X0290440Y0081252D01*
X0290440Y0080860D02*
X0281086Y0080860D01*
X0275244Y0080860D02*
X0274642Y0080860D01*
X0274807Y0081252D02*
X0275003Y0081252D01*
X0275003Y0081645D02*
X0274835Y0081645D01*
X0274835Y0082037D02*
X0275003Y0082037D01*
X0275003Y0082429D02*
X0274835Y0082429D01*
X0274835Y0082821D02*
X0275003Y0082821D01*
X0275003Y0083213D02*
X0274835Y0083213D01*
X0275003Y0083606D02*
X0271669Y0083606D01*
X0271669Y0083998D02*
X0271276Y0083998D01*
X0271276Y0084390D02*
X0271669Y0084390D01*
X0271669Y0084782D02*
X0271276Y0084782D01*
X0271276Y0085174D02*
X0271669Y0085174D01*
X0271669Y0085567D02*
X0271276Y0085567D01*
X0271276Y0085959D02*
X0271669Y0085959D01*
X0271669Y0086351D02*
X0271276Y0086351D01*
X0273983Y0086743D02*
X0256341Y0086743D01*
X0255949Y0087136D02*
X0265911Y0087136D01*
X0265519Y0087528D02*
X0255557Y0087528D01*
X0255165Y0087920D02*
X0265126Y0087920D01*
X0262841Y0088312D02*
X0254772Y0088312D01*
X0257343Y0088704D02*
X0261953Y0088704D01*
X0261561Y0089097D02*
X0257738Y0089097D01*
X0258127Y0089489D02*
X0261169Y0089489D01*
X0260967Y0089881D02*
X0258467Y0089881D01*
X0258831Y0090273D02*
X0260804Y0090273D01*
X0260642Y0090665D02*
X0259195Y0090665D01*
X0259559Y0091058D02*
X0260617Y0091058D01*
X0260617Y0091450D02*
X0259924Y0091450D01*
X0260288Y0091842D02*
X0260617Y0091842D01*
X0260652Y0092234D02*
X0260719Y0092234D01*
X0258409Y0094195D02*
X0251225Y0094195D01*
X0251225Y0094588D02*
X0258773Y0094588D01*
X0259138Y0094980D02*
X0251225Y0094980D01*
X0251129Y0095372D02*
X0259502Y0095372D01*
X0259866Y0095764D02*
X0250966Y0095764D01*
X0250804Y0096156D02*
X0260230Y0096156D01*
X0260582Y0096549D02*
X0250499Y0096549D01*
X0250107Y0096941D02*
X0260959Y0096941D01*
X0258045Y0093803D02*
X0251196Y0093803D01*
X0251033Y0093411D02*
X0257681Y0093411D01*
X0257317Y0093019D02*
X0250871Y0093019D01*
X0250662Y0092626D02*
X0256952Y0092626D01*
X0256588Y0092234D02*
X0250269Y0092234D01*
X0249877Y0091842D02*
X0256224Y0091842D01*
X0256734Y0086351D02*
X0268514Y0086351D01*
X0268218Y0085959D02*
X0257126Y0085959D01*
X0257518Y0085567D02*
X0268110Y0085567D01*
X0268110Y0085174D02*
X0257910Y0085174D01*
X0258302Y0084782D02*
X0268110Y0084782D01*
X0268110Y0084390D02*
X0258695Y0084390D01*
X0259087Y0083998D02*
X0268110Y0083998D01*
X0268110Y0083286D02*
X0268110Y0081357D01*
X0268192Y0081052D01*
X0268349Y0080779D01*
X0268572Y0080557D01*
X0268845Y0080399D01*
X0269150Y0080317D01*
X0271276Y0080317D01*
X0271276Y0083286D01*
X0268110Y0083286D01*
X0268110Y0083213D02*
X0259871Y0083213D01*
X0260263Y0082821D02*
X0268110Y0082821D01*
X0268110Y0082429D02*
X0260656Y0082429D01*
X0261048Y0082037D02*
X0268110Y0082037D01*
X0268110Y0081645D02*
X0261440Y0081645D01*
X0261832Y0081252D02*
X0268138Y0081252D01*
X0268303Y0080860D02*
X0262224Y0080860D01*
X0262617Y0080468D02*
X0268726Y0080468D01*
X0271276Y0080468D02*
X0271669Y0080468D01*
X0271669Y0080860D02*
X0271276Y0080860D01*
X0271276Y0081252D02*
X0271669Y0081252D01*
X0271669Y0081645D02*
X0271276Y0081645D01*
X0271276Y0082037D02*
X0271669Y0082037D01*
X0271669Y0082429D02*
X0271276Y0082429D01*
X0271276Y0082821D02*
X0271669Y0082821D01*
X0271669Y0083213D02*
X0271276Y0083213D01*
X0271276Y0083606D02*
X0259479Y0083606D01*
X0274219Y0080468D02*
X0290440Y0080468D01*
X0290440Y0080076D02*
X0286631Y0080076D01*
X0287023Y0079683D02*
X0290440Y0079683D01*
X0290440Y0079291D02*
X0287415Y0079291D01*
X0287808Y0078899D02*
X0290633Y0078899D01*
X0290633Y0078507D02*
X0288200Y0078507D01*
X0288592Y0078115D02*
X0290633Y0078115D01*
X0290633Y0077722D02*
X0288984Y0077722D01*
X0289376Y0077330D02*
X0290607Y0077330D01*
X0290625Y0076938D02*
X0289769Y0076938D01*
X0290161Y0076546D02*
X0290633Y0076546D01*
X0290653Y0076154D02*
X0290553Y0076154D01*
X0308965Y0076154D02*
X0314976Y0076154D01*
X0314625Y0076546D02*
X0308965Y0076546D01*
X0308965Y0076938D02*
X0314274Y0076938D01*
X0314072Y0077164D02*
X0317031Y0073859D01*
X0317031Y0073811D01*
X0317287Y0073554D01*
X0315044Y0073554D01*
X0314915Y0073866D01*
X0314021Y0074760D01*
X0312853Y0075243D01*
X0311588Y0075243D01*
X0310420Y0074760D01*
X0309526Y0073866D01*
X0309043Y0072698D01*
X0309043Y0071433D01*
X0309526Y0070265D01*
X0310420Y0069371D01*
X0311588Y0068888D01*
X0312853Y0068888D01*
X0314021Y0069371D01*
X0314915Y0070265D01*
X0315044Y0070577D01*
X0324374Y0070577D01*
X0315600Y0061803D01*
X0314728Y0060930D01*
X0314728Y0059021D01*
X0312545Y0059021D01*
X0312378Y0058854D01*
X0312211Y0059021D01*
X0309986Y0059021D01*
X0309819Y0058854D01*
X0309652Y0059021D01*
X0307426Y0059021D01*
X0307260Y0058854D01*
X0307093Y0059021D01*
X0304867Y0059021D01*
X0304838Y0058992D01*
X0304583Y0059139D01*
X0304279Y0059221D01*
X0303574Y0059221D01*
X0303574Y0055927D01*
X0303268Y0055927D01*
X0303268Y0055621D01*
X0301524Y0055621D01*
X0301524Y0053367D01*
X0301606Y0053062D01*
X0301764Y0052789D01*
X0301986Y0052566D01*
X0302259Y0052409D01*
X0302564Y0052327D01*
X0303268Y0052327D01*
X0303268Y0055621D01*
X0303574Y0055621D01*
X0303574Y0052327D01*
X0304156Y0052327D01*
X0303336Y0051507D01*
X0298749Y0051507D01*
X0298749Y0058063D01*
X0308965Y0068279D01*
X0308965Y0078531D01*
X0311133Y0078531D01*
X0311315Y0078713D01*
X0311497Y0078531D01*
X0313665Y0078531D01*
X0313665Y0078229D01*
X0313633Y0077654D01*
X0313665Y0077618D01*
X0313665Y0077571D01*
X0314072Y0077164D01*
X0313905Y0077330D02*
X0308965Y0077330D01*
X0308965Y0077722D02*
X0313637Y0077722D01*
X0313658Y0078115D02*
X0308965Y0078115D01*
X0308965Y0078507D02*
X0313665Y0078507D01*
X0315327Y0075761D02*
X0308965Y0075761D01*
X0308965Y0075369D02*
X0315678Y0075369D01*
X0316029Y0074977D02*
X0313496Y0074977D01*
X0314196Y0074585D02*
X0316381Y0074585D01*
X0316732Y0074193D02*
X0314588Y0074193D01*
X0314942Y0073800D02*
X0317041Y0073800D01*
X0310945Y0074977D02*
X0308965Y0074977D01*
X0308965Y0074585D02*
X0310245Y0074585D01*
X0309853Y0074193D02*
X0308965Y0074193D01*
X0308965Y0073800D02*
X0309499Y0073800D01*
X0309337Y0073408D02*
X0308965Y0073408D01*
X0308965Y0073016D02*
X0309174Y0073016D01*
X0309043Y0072624D02*
X0308965Y0072624D01*
X0308965Y0072231D02*
X0309043Y0072231D01*
X0309043Y0071839D02*
X0308965Y0071839D01*
X0308965Y0071447D02*
X0309043Y0071447D01*
X0308965Y0071055D02*
X0309199Y0071055D01*
X0309362Y0070663D02*
X0308965Y0070663D01*
X0308965Y0070270D02*
X0309524Y0070270D01*
X0309913Y0069878D02*
X0308965Y0069878D01*
X0308965Y0069486D02*
X0310306Y0069486D01*
X0311091Y0069094D02*
X0308965Y0069094D01*
X0308965Y0068702D02*
X0322499Y0068702D01*
X0322891Y0069094D02*
X0313350Y0069094D01*
X0314135Y0069486D02*
X0323283Y0069486D01*
X0323675Y0069878D02*
X0314527Y0069878D01*
X0314917Y0070270D02*
X0324068Y0070270D01*
X0322107Y0068309D02*
X0308965Y0068309D01*
X0308603Y0067917D02*
X0321714Y0067917D01*
X0321322Y0067525D02*
X0308211Y0067525D01*
X0307819Y0067133D02*
X0320930Y0067133D01*
X0320538Y0066740D02*
X0307426Y0066740D01*
X0307034Y0066348D02*
X0320146Y0066348D01*
X0319753Y0065956D02*
X0306642Y0065956D01*
X0306250Y0065564D02*
X0319361Y0065564D01*
X0318969Y0065172D02*
X0305858Y0065172D01*
X0305465Y0064779D02*
X0318577Y0064779D01*
X0318184Y0064387D02*
X0305073Y0064387D01*
X0304681Y0063995D02*
X0317792Y0063995D01*
X0317400Y0063603D02*
X0304289Y0063603D01*
X0303896Y0063211D02*
X0317008Y0063211D01*
X0316616Y0062818D02*
X0303504Y0062818D01*
X0303112Y0062426D02*
X0316223Y0062426D01*
X0315831Y0062034D02*
X0302720Y0062034D01*
X0302328Y0061642D02*
X0315439Y0061642D01*
X0315600Y0061803D02*
X0315600Y0061803D01*
X0315047Y0061250D02*
X0301935Y0061250D01*
X0301543Y0060857D02*
X0314728Y0060857D01*
X0314728Y0060465D02*
X0301151Y0060465D01*
X0300759Y0060073D02*
X0314728Y0060073D01*
X0314728Y0059681D02*
X0300367Y0059681D01*
X0299974Y0059288D02*
X0314728Y0059288D01*
X0312420Y0058896D02*
X0312336Y0058896D01*
X0309861Y0058896D02*
X0309777Y0058896D01*
X0307302Y0058896D02*
X0307218Y0058896D01*
X0303574Y0058896D02*
X0303268Y0058896D01*
X0303268Y0059221D02*
X0302564Y0059221D01*
X0302259Y0059139D01*
X0301986Y0058982D01*
X0301764Y0058759D01*
X0301606Y0058486D01*
X0301524Y0058182D01*
X0301524Y0055927D01*
X0303268Y0055927D01*
X0303268Y0059221D01*
X0303268Y0058504D02*
X0303574Y0058504D01*
X0303574Y0058112D02*
X0303268Y0058112D01*
X0303268Y0057720D02*
X0303574Y0057720D01*
X0303574Y0057327D02*
X0303268Y0057327D01*
X0303268Y0056935D02*
X0303574Y0056935D01*
X0303574Y0056543D02*
X0303268Y0056543D01*
X0303268Y0056151D02*
X0303574Y0056151D01*
X0303268Y0055759D02*
X0298749Y0055759D01*
X0298749Y0056151D02*
X0301524Y0056151D01*
X0301524Y0056543D02*
X0298749Y0056543D01*
X0298749Y0056935D02*
X0301524Y0056935D01*
X0301524Y0057327D02*
X0298749Y0057327D01*
X0298749Y0057720D02*
X0301524Y0057720D01*
X0301524Y0058112D02*
X0298798Y0058112D01*
X0299190Y0058504D02*
X0301616Y0058504D01*
X0301901Y0058896D02*
X0299582Y0058896D01*
X0298749Y0055366D02*
X0301524Y0055366D01*
X0301524Y0054974D02*
X0298749Y0054974D01*
X0298749Y0054582D02*
X0301524Y0054582D01*
X0301524Y0054190D02*
X0298749Y0054190D01*
X0298749Y0053797D02*
X0301524Y0053797D01*
X0301524Y0053405D02*
X0298749Y0053405D01*
X0298749Y0053013D02*
X0301634Y0053013D01*
X0301932Y0052621D02*
X0298749Y0052621D01*
X0298749Y0052229D02*
X0304057Y0052229D01*
X0303665Y0051836D02*
X0298749Y0051836D01*
X0303268Y0052621D02*
X0303574Y0052621D01*
X0303574Y0053013D02*
X0303268Y0053013D01*
X0303268Y0053405D02*
X0303574Y0053405D01*
X0303574Y0053797D02*
X0303268Y0053797D01*
X0303268Y0054190D02*
X0303574Y0054190D01*
X0303574Y0054582D02*
X0303268Y0054582D01*
X0303268Y0054974D02*
X0303574Y0054974D01*
X0303574Y0055366D02*
X0303268Y0055366D01*
X0317423Y0052621D02*
X0317569Y0052621D01*
X0319982Y0052621D02*
X0320128Y0052621D01*
X0324764Y0046738D02*
X0313408Y0046738D01*
X0313016Y0046345D02*
X0324764Y0046345D01*
X0324764Y0045953D02*
X0312623Y0045953D01*
X0312231Y0045561D02*
X0324764Y0045561D01*
X0324764Y0045169D02*
X0311839Y0045169D01*
X0311447Y0044777D02*
X0324818Y0044777D01*
X0325020Y0044384D02*
X0311055Y0044384D01*
X0303192Y0041247D02*
X0324964Y0041247D01*
X0324964Y0040854D02*
X0302800Y0040854D01*
X0330252Y0043992D02*
X0332435Y0043992D01*
X0332043Y0043600D02*
X0330482Y0043600D01*
X0330874Y0043208D02*
X0331651Y0043208D01*
X0331258Y0042816D02*
X0330894Y0042816D01*
X0330838Y0044384D02*
X0332827Y0044384D01*
X0333220Y0044777D02*
X0331040Y0044777D01*
X0331094Y0045169D02*
X0333612Y0045169D01*
X0334004Y0045561D02*
X0331094Y0045561D01*
X0331094Y0045953D02*
X0334396Y0045953D01*
X0334788Y0046345D02*
X0331094Y0046345D01*
X0356071Y0057720D02*
X0384646Y0057720D01*
X0384646Y0058112D02*
X0355912Y0058112D01*
X0356182Y0058504D02*
X0384646Y0058504D01*
X0384646Y0058896D02*
X0356182Y0058896D01*
X0356182Y0059288D02*
X0384646Y0059288D01*
X0384646Y0059681D02*
X0356182Y0059681D01*
X0356182Y0060073D02*
X0384646Y0060073D01*
X0384646Y0060465D02*
X0356182Y0060465D01*
X0356182Y0060857D02*
X0384646Y0060857D01*
X0384646Y0061250D02*
X0356182Y0061250D01*
X0356149Y0061642D02*
X0384646Y0061642D01*
X0384646Y0062034D02*
X0356186Y0062034D01*
X0356352Y0062426D02*
X0384646Y0062426D01*
X0384646Y0062818D02*
X0356382Y0062818D01*
X0356382Y0063211D02*
X0384646Y0063211D01*
X0346853Y0065956D02*
X0331051Y0065956D01*
X0330659Y0065564D02*
X0346574Y0065564D01*
X0346489Y0065172D02*
X0330267Y0065172D01*
X0329875Y0064779D02*
X0346489Y0064779D01*
X0346489Y0064387D02*
X0329483Y0064387D01*
X0331444Y0066348D02*
X0346689Y0066348D01*
X0322830Y0085174D02*
X0321954Y0085174D01*
X0321954Y0084782D02*
X0322438Y0084782D01*
X0322046Y0084390D02*
X0321954Y0084390D01*
X0321828Y0085567D02*
X0323222Y0085567D01*
X0323614Y0085959D02*
X0321583Y0085959D01*
X0321583Y0086351D02*
X0324007Y0086351D01*
X0324399Y0086743D02*
X0321583Y0086743D01*
X0321583Y0087136D02*
X0324791Y0087136D01*
X0325183Y0087528D02*
X0321583Y0087528D01*
X0321583Y0087920D02*
X0325575Y0087920D01*
X0325968Y0088312D02*
X0321583Y0088312D01*
X0321583Y0088704D02*
X0326360Y0088704D01*
X0326752Y0089097D02*
X0321311Y0089097D01*
X0320919Y0089489D02*
X0327144Y0089489D01*
X0327267Y0089881D02*
X0320526Y0089881D01*
X0320134Y0090273D02*
X0327267Y0090273D01*
X0328520Y0097333D02*
X0328913Y0097333D01*
X0328913Y0097725D02*
X0328520Y0097725D01*
X0328520Y0098117D02*
X0328913Y0098117D01*
X0328913Y0098510D02*
X0328520Y0098510D01*
X0328520Y0098902D02*
X0328913Y0098902D01*
X0328913Y0099294D02*
X0328520Y0099294D01*
X0328520Y0099686D02*
X0328913Y0099686D01*
X0293192Y0107138D02*
X0293038Y0107138D01*
X0292827Y0106746D02*
X0286732Y0106746D01*
X0286340Y0107138D02*
X0291206Y0107138D01*
X0291976Y0107138D02*
X0292268Y0107138D01*
X0292268Y0107531D02*
X0291976Y0107531D01*
X0291976Y0107923D02*
X0292268Y0107923D01*
X0292268Y0108315D02*
X0291976Y0108315D01*
X0291976Y0108707D02*
X0292268Y0108707D01*
X0292268Y0109099D02*
X0291976Y0109099D01*
X0291976Y0109492D02*
X0292268Y0109492D01*
X0292268Y0109884D02*
X0291976Y0109884D01*
X0291976Y0110276D02*
X0292268Y0110276D01*
X0292268Y0110668D02*
X0291976Y0110668D01*
X0291976Y0111060D02*
X0282418Y0111060D01*
X0282810Y0110668D02*
X0290240Y0110668D01*
X0290240Y0110276D02*
X0283202Y0110276D01*
X0283595Y0109884D02*
X0290240Y0109884D01*
X0290240Y0109492D02*
X0283987Y0109492D01*
X0284379Y0109099D02*
X0290240Y0109099D01*
X0290240Y0108707D02*
X0284771Y0108707D01*
X0285163Y0108315D02*
X0290240Y0108315D01*
X0290303Y0107923D02*
X0285556Y0107923D01*
X0285948Y0107531D02*
X0290529Y0107531D01*
X0290240Y0111453D02*
X0282026Y0111453D01*
X0281633Y0111845D02*
X0290240Y0111845D01*
X0290240Y0112237D02*
X0281241Y0112237D01*
X0280849Y0112629D02*
X0290240Y0112629D01*
X0290240Y0113022D02*
X0121030Y0113022D01*
X0121422Y0113414D02*
X0290240Y0113414D01*
X0290240Y0113806D02*
X0121815Y0113806D01*
X0122207Y0114198D02*
X0290300Y0114198D01*
X0290519Y0114590D02*
X0122599Y0114590D01*
X0120349Y0116551D02*
X0108812Y0116551D01*
X0108420Y0116159D02*
X0119956Y0116159D01*
X0119564Y0115767D02*
X0108028Y0115767D01*
X0107635Y0115375D02*
X0119172Y0115375D01*
X0118780Y0114983D02*
X0107459Y0114983D01*
X0107524Y0114590D02*
X0118388Y0114590D01*
X0117995Y0114198D02*
X0107524Y0114198D01*
X0107524Y0113806D02*
X0117603Y0113806D01*
X0117211Y0113414D02*
X0107464Y0113414D01*
X0107302Y0113022D02*
X0116819Y0113022D01*
X0116427Y0112629D02*
X0107139Y0112629D01*
X0106886Y0112237D02*
X0116034Y0112237D01*
X0115642Y0111845D02*
X0106494Y0111845D01*
X0106039Y0111453D02*
X0115250Y0111453D01*
X0114945Y0111060D02*
X0105092Y0111060D01*
X0103601Y0111060D02*
X0078114Y0111060D01*
X0078385Y0110668D02*
X0114439Y0110668D01*
X0114047Y0110276D02*
X0078548Y0110276D01*
X0078710Y0109884D02*
X0113773Y0109884D01*
X0113611Y0109492D02*
X0078784Y0109492D01*
X0078784Y0109099D02*
X0113448Y0109099D01*
X0113373Y0108707D02*
X0078784Y0108707D01*
X0078732Y0108315D02*
X0113373Y0108315D01*
X0113373Y0107923D02*
X0078863Y0107923D01*
X0079255Y0107531D02*
X0113424Y0107531D01*
X0113587Y0107138D02*
X0079647Y0107138D01*
X0080039Y0106746D02*
X0113749Y0106746D01*
X0113989Y0106354D02*
X0080431Y0106354D01*
X0080824Y0105962D02*
X0114381Y0105962D01*
X0114805Y0105569D02*
X0081216Y0105569D01*
X0081608Y0105177D02*
X0115062Y0105177D01*
X0115062Y0104785D02*
X0082000Y0104785D01*
X0082393Y0104393D02*
X0115062Y0104393D01*
X0115062Y0104001D02*
X0082785Y0104001D01*
X0083177Y0103608D02*
X0115186Y0103608D01*
X0115578Y0103216D02*
X0083569Y0103216D01*
X0083961Y0102824D02*
X0115970Y0102824D01*
X0116363Y0102432D02*
X0084354Y0102432D01*
X0084746Y0102040D02*
X0116755Y0102040D01*
X0117147Y0101647D02*
X0085138Y0101647D01*
X0085530Y0101255D02*
X0117539Y0101255D01*
X0117931Y0100863D02*
X0085757Y0100863D01*
X0085757Y0100471D02*
X0118324Y0100471D01*
X0118716Y0100079D02*
X0092466Y0100079D01*
X0092761Y0099956D02*
X0091593Y0100440D01*
X0090328Y0100440D01*
X0089160Y0099956D01*
X0088266Y0099063D01*
X0087783Y0097895D01*
X0087783Y0096630D01*
X0088266Y0095462D01*
X0089160Y0094568D01*
X0089472Y0094439D01*
X0089472Y0090740D01*
X0090344Y0089868D01*
X0092636Y0087576D01*
X0092507Y0087265D01*
X0092507Y0086000D01*
X0092991Y0084832D01*
X0093885Y0083938D01*
X0095053Y0083454D01*
X0096317Y0083454D01*
X0097485Y0083938D01*
X0098379Y0084832D01*
X0098863Y0086000D01*
X0098863Y0087265D01*
X0098379Y0088433D01*
X0097485Y0089327D01*
X0096317Y0089810D01*
X0095053Y0089810D01*
X0094742Y0089681D01*
X0092450Y0091974D01*
X0092450Y0094439D01*
X0092761Y0094568D01*
X0093655Y0095462D01*
X0094139Y0096630D01*
X0094139Y0097895D01*
X0093655Y0099063D01*
X0092761Y0099956D01*
X0093031Y0099686D02*
X0119108Y0099686D01*
X0119500Y0099294D02*
X0093423Y0099294D01*
X0093721Y0098902D02*
X0119893Y0098902D01*
X0120285Y0098510D02*
X0093884Y0098510D01*
X0094046Y0098117D02*
X0120552Y0098117D01*
X0120460Y0097725D02*
X0094139Y0097725D01*
X0094139Y0097333D02*
X0120460Y0097333D01*
X0120460Y0096941D02*
X0094139Y0096941D01*
X0094105Y0096549D02*
X0120494Y0096549D01*
X0120656Y0096156D02*
X0093942Y0096156D01*
X0093780Y0095764D02*
X0120819Y0095764D01*
X0121034Y0095372D02*
X0093565Y0095372D01*
X0093172Y0094980D02*
X0121426Y0094980D01*
X0121818Y0094588D02*
X0092780Y0094588D01*
X0092450Y0094195D02*
X0122738Y0094195D01*
X0124538Y0094195D02*
X0128842Y0094195D01*
X0128842Y0094439D02*
X0128842Y0089953D01*
X0132400Y0086395D01*
X0132271Y0086083D01*
X0132271Y0084819D01*
X0132755Y0083651D01*
X0133649Y0082757D01*
X0134817Y0082273D01*
X0136081Y0082273D01*
X0137249Y0082757D01*
X0138143Y0083651D01*
X0138627Y0084819D01*
X0138627Y0086083D01*
X0138143Y0087252D01*
X0137249Y0088145D01*
X0136081Y0088629D01*
X0134817Y0088629D01*
X0134505Y0088500D01*
X0131820Y0091186D01*
X0131820Y0094439D01*
X0132131Y0094568D01*
X0133025Y0095462D01*
X0133509Y0096630D01*
X0133509Y0097895D01*
X0133025Y0099063D01*
X0132131Y0099956D01*
X0130963Y0100440D01*
X0129699Y0100440D01*
X0128531Y0099956D01*
X0127637Y0099063D01*
X0127153Y0097895D01*
X0127153Y0096630D01*
X0127637Y0095462D01*
X0128531Y0094568D01*
X0128842Y0094439D01*
X0128511Y0094588D02*
X0125457Y0094588D01*
X0125849Y0094980D02*
X0128119Y0094980D01*
X0127727Y0095372D02*
X0126242Y0095372D01*
X0126457Y0095764D02*
X0127511Y0095764D01*
X0127349Y0096156D02*
X0126619Y0096156D01*
X0126782Y0096549D02*
X0127187Y0096549D01*
X0127153Y0096941D02*
X0126816Y0096941D01*
X0126816Y0097333D02*
X0127153Y0097333D01*
X0127153Y0097725D02*
X0126816Y0097725D01*
X0126723Y0098117D02*
X0127245Y0098117D01*
X0127408Y0098510D02*
X0126561Y0098510D01*
X0126398Y0098902D02*
X0127570Y0098902D01*
X0127868Y0099294D02*
X0126100Y0099294D01*
X0125708Y0099686D02*
X0128260Y0099686D01*
X0128825Y0100079D02*
X0125143Y0100079D01*
X0122535Y0100471D02*
X0151788Y0100471D01*
X0151396Y0100863D02*
X0122143Y0100863D01*
X0121751Y0101255D02*
X0151004Y0101255D01*
X0150612Y0101647D02*
X0145729Y0101647D01*
X0146676Y0102040D02*
X0150219Y0102040D01*
X0149827Y0102432D02*
X0147081Y0102432D01*
X0147473Y0102824D02*
X0149435Y0102824D01*
X0149043Y0103216D02*
X0147705Y0103216D01*
X0144066Y0101647D02*
X0121359Y0101647D01*
X0120966Y0102040D02*
X0143119Y0102040D01*
X0142714Y0102432D02*
X0120574Y0102432D01*
X0120182Y0102824D02*
X0142322Y0102824D01*
X0142090Y0103216D02*
X0119790Y0103216D01*
X0119397Y0103608D02*
X0141928Y0103608D01*
X0141765Y0104001D02*
X0119005Y0104001D01*
X0118613Y0104393D02*
X0141720Y0104393D01*
X0141720Y0104785D02*
X0118221Y0104785D01*
X0118040Y0105177D02*
X0141720Y0105177D01*
X0141800Y0105569D02*
X0118297Y0105569D01*
X0118721Y0105962D02*
X0141963Y0105962D01*
X0142125Y0106354D02*
X0119113Y0106354D01*
X0119353Y0106746D02*
X0142407Y0106746D01*
X0142799Y0107138D02*
X0119516Y0107138D01*
X0119678Y0107531D02*
X0143324Y0107531D01*
X0146472Y0107531D02*
X0152957Y0107531D01*
X0152795Y0107923D02*
X0119729Y0107923D01*
X0119729Y0108315D02*
X0152743Y0108315D01*
X0152743Y0108707D02*
X0119729Y0108707D01*
X0119654Y0109099D02*
X0152743Y0109099D01*
X0152818Y0109492D02*
X0119492Y0109492D01*
X0119329Y0109884D02*
X0152980Y0109884D01*
X0153143Y0110276D02*
X0119055Y0110276D01*
X0118677Y0110668D02*
X0153416Y0110668D01*
X0153808Y0111060D02*
X0119069Y0111060D01*
X0119461Y0111453D02*
X0154311Y0111453D01*
X0155258Y0111845D02*
X0119854Y0111845D01*
X0120246Y0112237D02*
X0157373Y0112237D01*
X0156981Y0111845D02*
X0156584Y0111845D01*
X0157765Y0112629D02*
X0120638Y0112629D01*
X0120741Y0116944D02*
X0109204Y0116944D01*
X0106170Y0118120D02*
X0082428Y0118120D01*
X0082036Y0117728D02*
X0105777Y0117728D01*
X0105385Y0117336D02*
X0105060Y0117336D01*
X0103633Y0117336D02*
X0081644Y0117336D01*
X0081252Y0116944D02*
X0102686Y0116944D01*
X0102212Y0116551D02*
X0080859Y0116551D01*
X0080467Y0116159D02*
X0101820Y0116159D01*
X0101559Y0115767D02*
X0080075Y0115767D01*
X0079683Y0115375D02*
X0101397Y0115375D01*
X0101234Y0114983D02*
X0079290Y0114983D01*
X0078898Y0114590D02*
X0101169Y0114590D01*
X0101169Y0114198D02*
X0078506Y0114198D01*
X0078114Y0113806D02*
X0101169Y0113806D01*
X0101229Y0113414D02*
X0077722Y0113414D01*
X0077329Y0113022D02*
X0101391Y0113022D01*
X0101554Y0112629D02*
X0077095Y0112629D01*
X0077095Y0112237D02*
X0101807Y0112237D01*
X0102199Y0111845D02*
X0077220Y0111845D01*
X0077721Y0111453D02*
X0102654Y0111453D01*
X0106562Y0118512D02*
X0082820Y0118512D01*
X0083213Y0118905D02*
X0106954Y0118905D01*
X0107346Y0119297D02*
X0083605Y0119297D01*
X0080962Y0120866D02*
X0067457Y0120866D01*
X0067849Y0121258D02*
X0081354Y0121258D01*
X0081747Y0121650D02*
X0068242Y0121650D01*
X0067065Y0120474D02*
X0080570Y0120474D01*
X0080178Y0120081D02*
X0066673Y0120081D01*
X0066280Y0119689D02*
X0079786Y0119689D01*
X0079393Y0119297D02*
X0065888Y0119297D01*
X0065496Y0118905D02*
X0079001Y0118905D01*
X0078609Y0118512D02*
X0065104Y0118512D01*
X0064891Y0118120D02*
X0078217Y0118120D01*
X0077825Y0117728D02*
X0064891Y0117728D01*
X0064891Y0117336D02*
X0077432Y0117336D01*
X0077040Y0116944D02*
X0064891Y0116944D01*
X0064891Y0116551D02*
X0076648Y0116551D01*
X0076256Y0116159D02*
X0064891Y0116159D01*
X0064891Y0115767D02*
X0075863Y0115767D01*
X0075471Y0115375D02*
X0064891Y0115375D01*
X0064891Y0114983D02*
X0075079Y0114983D01*
X0074687Y0114590D02*
X0064891Y0114590D01*
X0064891Y0114198D02*
X0074295Y0114198D01*
X0074117Y0113806D02*
X0064891Y0113806D01*
X0064891Y0113414D02*
X0074117Y0113414D01*
X0074117Y0113022D02*
X0064891Y0113022D01*
X0064891Y0112629D02*
X0074117Y0112629D01*
X0074117Y0112237D02*
X0064891Y0112237D01*
X0065015Y0111845D02*
X0073993Y0111845D01*
X0073491Y0111453D02*
X0065517Y0111453D01*
X0065909Y0111060D02*
X0073099Y0111060D01*
X0072827Y0110668D02*
X0066181Y0110668D01*
X0066343Y0110276D02*
X0072665Y0110276D01*
X0072502Y0109884D02*
X0066506Y0109884D01*
X0066580Y0109492D02*
X0072428Y0109492D01*
X0072428Y0109099D02*
X0066580Y0109099D01*
X0066580Y0108707D02*
X0072428Y0108707D01*
X0072481Y0108315D02*
X0066527Y0108315D01*
X0066365Y0107923D02*
X0072643Y0107923D01*
X0072806Y0107531D02*
X0066202Y0107531D01*
X0065961Y0107138D02*
X0073047Y0107138D01*
X0073439Y0106746D02*
X0065569Y0106746D01*
X0065141Y0106354D02*
X0073867Y0106354D01*
X0074814Y0105962D02*
X0064194Y0105962D01*
X0062609Y0105962D02*
X0033973Y0105962D01*
X0033581Y0106354D02*
X0061663Y0106354D01*
X0061235Y0106746D02*
X0033189Y0106746D01*
X0032797Y0107138D02*
X0060842Y0107138D01*
X0060601Y0107531D02*
X0032404Y0107531D01*
X0032012Y0107923D02*
X0060438Y0107923D01*
X0060276Y0108315D02*
X0031620Y0108315D01*
X0031228Y0108707D02*
X0060224Y0108707D01*
X0060224Y0109099D02*
X0030836Y0109099D01*
X0030443Y0109492D02*
X0060224Y0109492D01*
X0060297Y0109884D02*
X0030051Y0109884D01*
X0029659Y0110276D02*
X0060460Y0110276D01*
X0060622Y0110668D02*
X0029267Y0110668D01*
X0028875Y0111060D02*
X0060894Y0111060D01*
X0061287Y0111453D02*
X0028482Y0111453D01*
X0028090Y0111845D02*
X0061788Y0111845D01*
X0061913Y0112237D02*
X0027698Y0112237D01*
X0027306Y0112629D02*
X0061913Y0112629D01*
X0061913Y0113022D02*
X0026913Y0113022D01*
X0026521Y0113414D02*
X0061913Y0113414D01*
X0061913Y0113806D02*
X0026129Y0113806D01*
X0025737Y0114198D02*
X0061913Y0114198D01*
X0061913Y0114590D02*
X0025797Y0114590D01*
X0025797Y0114393D02*
X0025797Y0115565D01*
X0025349Y0116648D01*
X0024520Y0117477D01*
X0023437Y0117926D01*
X0022264Y0117926D01*
X0021181Y0117477D01*
X0020352Y0116648D01*
X0019904Y0115565D01*
X0019904Y0114393D01*
X0020352Y0113310D01*
X0021181Y0112481D01*
X0022264Y0112032D01*
X0023437Y0112032D01*
X0023617Y0112107D01*
X0037783Y0097941D01*
X0037783Y0097811D01*
X0038266Y0096643D01*
X0039160Y0095749D01*
X0040328Y0095266D01*
X0041593Y0095266D01*
X0042761Y0095749D01*
X0043655Y0096643D01*
X0044139Y0097811D01*
X0044139Y0099076D01*
X0043655Y0100244D01*
X0042761Y0101138D01*
X0041593Y0101621D01*
X0040328Y0101621D01*
X0039160Y0101138D01*
X0038979Y0100956D01*
X0025723Y0114212D01*
X0025797Y0114393D01*
X0025797Y0114983D02*
X0061913Y0114983D01*
X0061913Y0115375D02*
X0025797Y0115375D01*
X0025714Y0115767D02*
X0061913Y0115767D01*
X0061913Y0116159D02*
X0025551Y0116159D01*
X0025389Y0116551D02*
X0061913Y0116551D01*
X0061913Y0116944D02*
X0025053Y0116944D01*
X0024661Y0117336D02*
X0061913Y0117336D01*
X0061913Y0117728D02*
X0023914Y0117728D01*
X0021787Y0117728D02*
X0002394Y0117728D01*
X0002394Y0117336D02*
X0021040Y0117336D01*
X0020648Y0116944D02*
X0002394Y0116944D01*
X0002394Y0116551D02*
X0020312Y0116551D01*
X0020150Y0116159D02*
X0002394Y0116159D01*
X0002394Y0115767D02*
X0019987Y0115767D01*
X0019904Y0115375D02*
X0002394Y0115375D01*
X0002394Y0114983D02*
X0019904Y0114983D01*
X0019904Y0114590D02*
X0002394Y0114590D01*
X0002394Y0114198D02*
X0019984Y0114198D01*
X0020147Y0113806D02*
X0002394Y0113806D01*
X0002394Y0113414D02*
X0020309Y0113414D01*
X0020640Y0113022D02*
X0002394Y0113022D01*
X0002394Y0112629D02*
X0021033Y0112629D01*
X0021769Y0112237D02*
X0002394Y0112237D01*
X0002394Y0111845D02*
X0023879Y0111845D01*
X0024271Y0111453D02*
X0002394Y0111453D01*
X0002394Y0111060D02*
X0024663Y0111060D01*
X0025055Y0110668D02*
X0002394Y0110668D01*
X0002394Y0110276D02*
X0025448Y0110276D01*
X0025840Y0109884D02*
X0002394Y0109884D01*
X0002394Y0109492D02*
X0026232Y0109492D01*
X0026624Y0109099D02*
X0002394Y0109099D01*
X0002394Y0108707D02*
X0027016Y0108707D01*
X0027409Y0108315D02*
X0002394Y0108315D01*
X0002394Y0107923D02*
X0027801Y0107923D01*
X0028193Y0107531D02*
X0002394Y0107531D01*
X0002394Y0107138D02*
X0028585Y0107138D01*
X0028977Y0106746D02*
X0002394Y0106746D01*
X0002394Y0106354D02*
X0029370Y0106354D01*
X0029762Y0105962D02*
X0002394Y0105962D01*
X0002394Y0105569D02*
X0030154Y0105569D01*
X0030546Y0105177D02*
X0002394Y0105177D01*
X0002394Y0104785D02*
X0030939Y0104785D01*
X0031331Y0104393D02*
X0002394Y0104393D01*
X0002394Y0104001D02*
X0031723Y0104001D01*
X0032115Y0103608D02*
X0002394Y0103608D01*
X0002394Y0103216D02*
X0032507Y0103216D01*
X0032900Y0102824D02*
X0002394Y0102824D01*
X0002394Y0102432D02*
X0033292Y0102432D01*
X0033684Y0102040D02*
X0023899Y0102040D01*
X0023947Y0102020D02*
X0023375Y0102257D01*
X0022767Y0102378D01*
X0022635Y0102378D01*
X0022635Y0099409D01*
X0025604Y0099409D01*
X0025604Y0099541D01*
X0025483Y0100149D01*
X0025245Y0100721D01*
X0024901Y0101237D01*
X0024463Y0101675D01*
X0023947Y0102020D01*
X0024491Y0101647D02*
X0034076Y0101647D01*
X0034468Y0101255D02*
X0024883Y0101255D01*
X0025151Y0100863D02*
X0034861Y0100863D01*
X0035253Y0100471D02*
X0025349Y0100471D01*
X0025497Y0100079D02*
X0035645Y0100079D01*
X0036037Y0099686D02*
X0025575Y0099686D01*
X0025604Y0099053D02*
X0022635Y0099053D01*
X0022635Y0099409D01*
X0022279Y0099409D01*
X0022279Y0102378D01*
X0022147Y0102378D01*
X0021539Y0102257D01*
X0020966Y0102020D01*
X0020451Y0101675D01*
X0020012Y0101237D01*
X0019668Y0100721D01*
X0019431Y0100149D01*
X0019310Y0099541D01*
X0019310Y0099409D01*
X0022278Y0099409D01*
X0022278Y0099053D01*
X0019310Y0099053D01*
X0019310Y0098921D01*
X0019431Y0098313D01*
X0019668Y0097740D01*
X0020012Y0097225D01*
X0020451Y0096787D01*
X0020966Y0096442D01*
X0021539Y0096205D01*
X0022147Y0096084D01*
X0022279Y0096084D01*
X0022279Y0099053D01*
X0022635Y0099053D01*
X0022635Y0096084D01*
X0022767Y0096084D01*
X0023375Y0096205D01*
X0023947Y0096442D01*
X0024463Y0096787D01*
X0024901Y0097225D01*
X0025245Y0097740D01*
X0025483Y0098313D01*
X0025604Y0098921D01*
X0025604Y0099053D01*
X0025600Y0098902D02*
X0036822Y0098902D01*
X0037214Y0098510D02*
X0025522Y0098510D01*
X0025402Y0098117D02*
X0037606Y0098117D01*
X0037818Y0097725D02*
X0025235Y0097725D01*
X0024973Y0097333D02*
X0037981Y0097333D01*
X0038143Y0096941D02*
X0024617Y0096941D01*
X0024107Y0096549D02*
X0038361Y0096549D01*
X0038753Y0096156D02*
X0023130Y0096156D01*
X0022635Y0096156D02*
X0022279Y0096156D01*
X0022279Y0096549D02*
X0022635Y0096549D01*
X0022635Y0096941D02*
X0022279Y0096941D01*
X0022279Y0097333D02*
X0022635Y0097333D01*
X0022635Y0097725D02*
X0022279Y0097725D01*
X0022279Y0098117D02*
X0022635Y0098117D01*
X0022635Y0098510D02*
X0022279Y0098510D01*
X0022279Y0098902D02*
X0022635Y0098902D01*
X0022635Y0099294D02*
X0036429Y0099294D01*
X0038680Y0101255D02*
X0039444Y0101255D01*
X0038288Y0101647D02*
X0080927Y0101647D01*
X0081319Y0101255D02*
X0042477Y0101255D01*
X0043035Y0100863D02*
X0081711Y0100863D01*
X0082103Y0100471D02*
X0053887Y0100471D01*
X0054450Y0100079D02*
X0082495Y0100079D01*
X0082779Y0099686D02*
X0054842Y0099686D01*
X0055139Y0099294D02*
X0082769Y0099294D01*
X0082200Y0098902D02*
X0055302Y0098902D01*
X0055464Y0098510D02*
X0081808Y0098510D01*
X0081508Y0098117D02*
X0055556Y0098117D01*
X0055556Y0097725D02*
X0081346Y0097725D01*
X0081183Y0097333D02*
X0055556Y0097333D01*
X0055521Y0096941D02*
X0081090Y0096941D01*
X0081090Y0096549D02*
X0055359Y0096549D01*
X0055197Y0096156D02*
X0081090Y0096156D01*
X0081122Y0095764D02*
X0054980Y0095764D01*
X0054588Y0095372D02*
X0081285Y0095372D01*
X0081447Y0094980D02*
X0054196Y0094980D01*
X0053867Y0094588D02*
X0081661Y0094588D01*
X0082053Y0094195D02*
X0053867Y0094195D01*
X0053867Y0093803D02*
X0082445Y0093803D01*
X0083361Y0093411D02*
X0053867Y0093411D01*
X0053867Y0093019D02*
X0089472Y0093019D01*
X0089472Y0093411D02*
X0085175Y0093411D01*
X0086090Y0093803D02*
X0089472Y0093803D01*
X0089472Y0094195D02*
X0086482Y0094195D01*
X0086875Y0094588D02*
X0089141Y0094588D01*
X0088749Y0094980D02*
X0087088Y0094980D01*
X0087251Y0095372D02*
X0088357Y0095372D01*
X0088141Y0095764D02*
X0087413Y0095764D01*
X0087446Y0096156D02*
X0087979Y0096156D01*
X0087816Y0096549D02*
X0087446Y0096549D01*
X0087446Y0096941D02*
X0087783Y0096941D01*
X0087783Y0097333D02*
X0087352Y0097333D01*
X0087190Y0097725D02*
X0087783Y0097725D01*
X0087875Y0098117D02*
X0087027Y0098117D01*
X0086727Y0098510D02*
X0088037Y0098510D01*
X0088200Y0098902D02*
X0086335Y0098902D01*
X0085766Y0099294D02*
X0088498Y0099294D01*
X0088890Y0099686D02*
X0085757Y0099686D01*
X0085757Y0100079D02*
X0089455Y0100079D01*
X0080534Y0102040D02*
X0037895Y0102040D01*
X0037503Y0102432D02*
X0080142Y0102432D01*
X0079750Y0102824D02*
X0037111Y0102824D01*
X0036719Y0103216D02*
X0079358Y0103216D01*
X0078966Y0103608D02*
X0036327Y0103608D01*
X0035934Y0104001D02*
X0078573Y0104001D01*
X0078181Y0104393D02*
X0035542Y0104393D01*
X0035150Y0104785D02*
X0077789Y0104785D01*
X0077397Y0105177D02*
X0034758Y0105177D01*
X0034366Y0105569D02*
X0077004Y0105569D01*
X0076612Y0105962D02*
X0076398Y0105962D01*
X0050869Y0100471D02*
X0043428Y0100471D01*
X0043723Y0100079D02*
X0050306Y0100079D01*
X0049914Y0099686D02*
X0043886Y0099686D01*
X0044048Y0099294D02*
X0049617Y0099294D01*
X0049454Y0098902D02*
X0044139Y0098902D01*
X0044139Y0098510D02*
X0049292Y0098510D01*
X0049200Y0098117D02*
X0044139Y0098117D01*
X0044103Y0097725D02*
X0049200Y0097725D01*
X0049200Y0097333D02*
X0043940Y0097333D01*
X0043778Y0096941D02*
X0049234Y0096941D01*
X0049397Y0096549D02*
X0043560Y0096549D01*
X0043168Y0096156D02*
X0049559Y0096156D01*
X0049776Y0095764D02*
X0042776Y0095764D01*
X0041850Y0095372D02*
X0050168Y0095372D01*
X0050560Y0094980D02*
X0002394Y0094980D01*
X0002394Y0095372D02*
X0040071Y0095372D01*
X0039146Y0095764D02*
X0002394Y0095764D01*
X0002394Y0096156D02*
X0021783Y0096156D01*
X0020807Y0096549D02*
X0002394Y0096549D01*
X0002394Y0096941D02*
X0020296Y0096941D01*
X0019940Y0097333D02*
X0002394Y0097333D01*
X0002394Y0097725D02*
X0019678Y0097725D01*
X0019512Y0098117D02*
X0002394Y0098117D01*
X0002394Y0098510D02*
X0019392Y0098510D01*
X0019314Y0098902D02*
X0002394Y0098902D01*
X0002394Y0099294D02*
X0022278Y0099294D01*
X0022279Y0099686D02*
X0022635Y0099686D01*
X0022635Y0100079D02*
X0022279Y0100079D01*
X0022279Y0100471D02*
X0022635Y0100471D01*
X0022635Y0100863D02*
X0022279Y0100863D01*
X0022279Y0101255D02*
X0022635Y0101255D01*
X0022635Y0101647D02*
X0022279Y0101647D01*
X0022279Y0102040D02*
X0022635Y0102040D01*
X0021014Y0102040D02*
X0002394Y0102040D01*
X0002394Y0101647D02*
X0020423Y0101647D01*
X0020031Y0101255D02*
X0002394Y0101255D01*
X0002394Y0100863D02*
X0019763Y0100863D01*
X0019564Y0100471D02*
X0002394Y0100471D01*
X0002394Y0100079D02*
X0019417Y0100079D01*
X0019339Y0099686D02*
X0002394Y0099686D01*
X0002394Y0094588D02*
X0050889Y0094588D01*
X0050889Y0094195D02*
X0002394Y0094195D01*
X0002394Y0093803D02*
X0050889Y0093803D01*
X0050889Y0093411D02*
X0002394Y0093411D01*
X0002394Y0093019D02*
X0050889Y0093019D01*
X0050889Y0092626D02*
X0002394Y0092626D01*
X0002394Y0092234D02*
X0050889Y0092234D01*
X0050889Y0091842D02*
X0002394Y0091842D01*
X0002394Y0091450D02*
X0050889Y0091450D01*
X0050889Y0091058D02*
X0002394Y0091058D01*
X0002394Y0090665D02*
X0050889Y0090665D01*
X0050889Y0090273D02*
X0002394Y0090273D01*
X0002394Y0089881D02*
X0047029Y0089881D01*
X0046409Y0089489D02*
X0002394Y0089489D01*
X0002394Y0089097D02*
X0046017Y0089097D01*
X0045696Y0088704D02*
X0002394Y0088704D01*
X0002394Y0088312D02*
X0041925Y0088312D01*
X0041297Y0087920D02*
X0002394Y0087920D01*
X0002394Y0087528D02*
X0040905Y0087528D01*
X0040581Y0087136D02*
X0002394Y0087136D01*
X0002394Y0086743D02*
X0040418Y0086743D01*
X0040256Y0086351D02*
X0002394Y0086351D01*
X0002394Y0085959D02*
X0040145Y0085959D01*
X0040145Y0085567D02*
X0002394Y0085567D01*
X0002394Y0085174D02*
X0040145Y0085174D01*
X0040160Y0084782D02*
X0002394Y0084782D01*
X0002394Y0084390D02*
X0040323Y0084390D01*
X0040485Y0083998D02*
X0002394Y0083998D01*
X0002394Y0083606D02*
X0040674Y0083606D01*
X0041066Y0083213D02*
X0002394Y0083213D01*
X0002394Y0082821D02*
X0041459Y0082821D01*
X0041834Y0082429D02*
X0002394Y0082429D01*
X0002394Y0082037D02*
X0041834Y0082037D01*
X0041834Y0081645D02*
X0002394Y0081645D01*
X0002394Y0081252D02*
X0041834Y0081252D01*
X0041834Y0080860D02*
X0002394Y0080860D01*
X0002394Y0080468D02*
X0041834Y0080468D01*
X0041834Y0080076D02*
X0002394Y0080076D01*
X0002394Y0079683D02*
X0041834Y0079683D01*
X0041834Y0079291D02*
X0002394Y0079291D01*
X0002394Y0078899D02*
X0041834Y0078899D01*
X0041834Y0078507D02*
X0002394Y0078507D01*
X0002394Y0078115D02*
X0041834Y0078115D01*
X0041834Y0077722D02*
X0002394Y0077722D01*
X0002394Y0077330D02*
X0030475Y0077330D01*
X0029089Y0077226D02*
X0029089Y0077226D01*
X0024594Y0075462D01*
X0020820Y0072452D01*
X0018100Y0068463D01*
X0016677Y0063850D01*
X0016677Y0059022D01*
X0018100Y0054408D01*
X0020820Y0050419D01*
X0024594Y0047409D01*
X0024594Y0047409D01*
X0029089Y0045645D01*
X0033903Y0045284D01*
X0033903Y0045284D01*
X0038610Y0046358D01*
X0042791Y0048772D01*
X0042791Y0048772D01*
X0042791Y0048772D01*
X0046075Y0052312D01*
X0048170Y0056661D01*
X0048170Y0056661D01*
X0048890Y0061436D01*
X0048170Y0066210D01*
X0046075Y0070560D01*
X0042791Y0074099D01*
X0038610Y0076513D01*
X0033903Y0077587D01*
X0029089Y0077226D01*
X0028354Y0076938D02*
X0002394Y0076938D01*
X0002394Y0076546D02*
X0027355Y0076546D01*
X0026355Y0076154D02*
X0002394Y0076154D01*
X0002394Y0075761D02*
X0025356Y0075761D01*
X0024594Y0075462D02*
X0024594Y0075462D01*
X0024477Y0075369D02*
X0002394Y0075369D01*
X0002394Y0074977D02*
X0023986Y0074977D01*
X0023494Y0074585D02*
X0002394Y0074585D01*
X0002394Y0074193D02*
X0023002Y0074193D01*
X0022510Y0073800D02*
X0002394Y0073800D01*
X0002394Y0073408D02*
X0022018Y0073408D01*
X0021527Y0073016D02*
X0002394Y0073016D01*
X0002394Y0072624D02*
X0021035Y0072624D01*
X0020820Y0072452D02*
X0020820Y0072452D01*
X0020820Y0072452D01*
X0020669Y0072231D02*
X0002394Y0072231D01*
X0002394Y0071839D02*
X0020402Y0071839D01*
X0020134Y0071447D02*
X0002394Y0071447D01*
X0002394Y0071055D02*
X0019867Y0071055D01*
X0019600Y0070663D02*
X0002394Y0070663D01*
X0002394Y0070270D02*
X0019332Y0070270D01*
X0019065Y0069878D02*
X0002394Y0069878D01*
X0002394Y0069486D02*
X0018797Y0069486D01*
X0018530Y0069094D02*
X0002394Y0069094D01*
X0002394Y0068702D02*
X0018263Y0068702D01*
X0018100Y0068463D02*
X0018100Y0068463D01*
X0018053Y0068309D02*
X0002394Y0068309D01*
X0002394Y0067917D02*
X0017932Y0067917D01*
X0017811Y0067525D02*
X0002394Y0067525D01*
X0002394Y0067133D02*
X0017690Y0067133D01*
X0017569Y0066740D02*
X0002394Y0066740D01*
X0002394Y0066348D02*
X0017448Y0066348D01*
X0017327Y0065956D02*
X0002394Y0065956D01*
X0002394Y0065564D02*
X0017206Y0065564D01*
X0017085Y0065172D02*
X0002394Y0065172D01*
X0002394Y0064779D02*
X0016964Y0064779D01*
X0016843Y0064387D02*
X0002394Y0064387D01*
X0002394Y0063995D02*
X0016722Y0063995D01*
X0016677Y0063603D02*
X0002394Y0063603D01*
X0002394Y0063211D02*
X0016677Y0063211D01*
X0016677Y0062818D02*
X0002394Y0062818D01*
X0002394Y0062426D02*
X0016677Y0062426D01*
X0016677Y0062034D02*
X0002394Y0062034D01*
X0002394Y0061642D02*
X0016677Y0061642D01*
X0016677Y0061250D02*
X0002394Y0061250D01*
X0002394Y0060857D02*
X0016677Y0060857D01*
X0016677Y0060465D02*
X0002394Y0060465D01*
X0002394Y0060073D02*
X0016677Y0060073D01*
X0016677Y0059681D02*
X0002394Y0059681D01*
X0002394Y0059288D02*
X0016677Y0059288D01*
X0016716Y0058896D02*
X0002394Y0058896D01*
X0002394Y0058504D02*
X0016837Y0058504D01*
X0016958Y0058112D02*
X0002394Y0058112D01*
X0002394Y0057720D02*
X0017079Y0057720D01*
X0017200Y0057327D02*
X0002394Y0057327D01*
X0002394Y0056935D02*
X0017321Y0056935D01*
X0017442Y0056543D02*
X0002394Y0056543D01*
X0002394Y0056151D02*
X0017562Y0056151D01*
X0017683Y0055759D02*
X0002394Y0055759D01*
X0002394Y0055366D02*
X0017804Y0055366D01*
X0017925Y0054974D02*
X0002394Y0054974D01*
X0002394Y0054582D02*
X0018046Y0054582D01*
X0018100Y0054408D02*
X0018100Y0054408D01*
X0018249Y0054190D02*
X0002394Y0054190D01*
X0002394Y0053797D02*
X0018516Y0053797D01*
X0018784Y0053405D02*
X0002394Y0053405D01*
X0002394Y0053013D02*
X0019051Y0053013D01*
X0019319Y0052621D02*
X0002394Y0052621D01*
X0002394Y0052229D02*
X0019586Y0052229D01*
X0019853Y0051836D02*
X0002394Y0051836D01*
X0002394Y0051444D02*
X0020121Y0051444D01*
X0020388Y0051052D02*
X0002394Y0051052D01*
X0002394Y0050660D02*
X0020656Y0050660D01*
X0020820Y0050419D02*
X0020820Y0050419D01*
X0020820Y0050419D01*
X0021010Y0050268D02*
X0002394Y0050268D01*
X0002394Y0049875D02*
X0021501Y0049875D01*
X0021993Y0049483D02*
X0002394Y0049483D01*
X0002394Y0049091D02*
X0022485Y0049091D01*
X0022977Y0048699D02*
X0002394Y0048699D01*
X0002394Y0048307D02*
X0023469Y0048307D01*
X0023960Y0047914D02*
X0002394Y0047914D01*
X0002394Y0047522D02*
X0024452Y0047522D01*
X0025305Y0047130D02*
X0002394Y0047130D01*
X0002394Y0046738D02*
X0026304Y0046738D01*
X0027304Y0046345D02*
X0002394Y0046345D01*
X0002394Y0045953D02*
X0028303Y0045953D01*
X0029089Y0045645D02*
X0029089Y0045645D01*
X0030207Y0045561D02*
X0002394Y0045561D01*
X0002394Y0045169D02*
X0045864Y0045169D01*
X0045004Y0044777D02*
X0002394Y0044777D01*
X0002394Y0044384D02*
X0044612Y0044384D01*
X0044220Y0043992D02*
X0002394Y0043992D01*
X0002394Y0043600D02*
X0044029Y0043600D01*
X0043867Y0043208D02*
X0002394Y0043208D01*
X0002394Y0042816D02*
X0043704Y0042816D01*
X0043688Y0042423D02*
X0002394Y0042423D01*
X0002394Y0042031D02*
X0043688Y0042031D01*
X0043688Y0041639D02*
X0002394Y0041639D01*
X0002394Y0041247D02*
X0043798Y0041247D01*
X0043961Y0040854D02*
X0002394Y0040854D01*
X0002394Y0040462D02*
X0044123Y0040462D01*
X0044446Y0040070D02*
X0002394Y0040070D01*
X0002394Y0039678D02*
X0044838Y0039678D01*
X0045377Y0039286D02*
X0002394Y0039286D01*
X0002394Y0038893D02*
X0045377Y0038893D01*
X0045377Y0038501D02*
X0002394Y0038501D01*
X0002394Y0038109D02*
X0045377Y0038109D01*
X0045377Y0037717D02*
X0002394Y0037717D01*
X0002394Y0037325D02*
X0045377Y0037325D01*
X0045377Y0036932D02*
X0002394Y0036932D01*
X0002394Y0036540D02*
X0045377Y0036540D01*
X0045377Y0036148D02*
X0002394Y0036148D01*
X0002394Y0035756D02*
X0045377Y0035756D01*
X0045377Y0035364D02*
X0002394Y0035364D01*
X0002394Y0034971D02*
X0045377Y0034971D01*
X0045377Y0034579D02*
X0002394Y0034579D01*
X0002394Y0034187D02*
X0045377Y0034187D01*
X0045377Y0033795D02*
X0002394Y0033795D01*
X0002394Y0033402D02*
X0045377Y0033402D01*
X0045377Y0033010D02*
X0002394Y0033010D01*
X0002394Y0032618D02*
X0045377Y0032618D01*
X0045377Y0032226D02*
X0002394Y0032226D01*
X0002394Y0031834D02*
X0045377Y0031834D01*
X0045377Y0031441D02*
X0002394Y0031441D01*
X0002394Y0031049D02*
X0045377Y0031049D01*
X0045377Y0030657D02*
X0002394Y0030657D01*
X0002394Y0030265D02*
X0045377Y0030265D01*
X0045377Y0029873D02*
X0002394Y0029873D01*
X0002394Y0029480D02*
X0045377Y0029480D01*
X0045377Y0029088D02*
X0002394Y0029088D01*
X0002394Y0028696D02*
X0045377Y0028696D01*
X0045377Y0028304D02*
X0002394Y0028304D01*
X0002394Y0027911D02*
X0045377Y0027911D01*
X0045377Y0027519D02*
X0002394Y0027519D01*
X0002394Y0027127D02*
X0045377Y0027127D01*
X0045377Y0026735D02*
X0002394Y0026735D01*
X0002394Y0026343D02*
X0045377Y0026343D01*
X0045377Y0025950D02*
X0002394Y0025950D01*
X0002394Y0025558D02*
X0045377Y0025558D01*
X0045377Y0025166D02*
X0002394Y0025166D01*
X0002394Y0024774D02*
X0045377Y0024774D01*
X0045377Y0024382D02*
X0002394Y0024382D01*
X0002394Y0023989D02*
X0045377Y0023989D01*
X0045377Y0023597D02*
X0002394Y0023597D01*
X0002394Y0023205D02*
X0045377Y0023205D01*
X0045377Y0022813D02*
X0002394Y0022813D01*
X0002394Y0022421D02*
X0045377Y0022421D01*
X0045377Y0022028D02*
X0002394Y0022028D01*
X0002394Y0021636D02*
X0045377Y0021636D01*
X0045377Y0021244D02*
X0002394Y0021244D01*
X0002394Y0020852D02*
X0045377Y0020852D01*
X0045373Y0020459D02*
X0002394Y0020459D01*
X0002394Y0020067D02*
X0045350Y0020067D01*
X0045576Y0019675D02*
X0002394Y0019675D01*
X0002394Y0019283D02*
X0045948Y0019283D01*
X0046296Y0018891D02*
X0002394Y0018891D01*
X0002394Y0018498D02*
X0046645Y0018498D01*
X0046994Y0018106D02*
X0002394Y0018106D01*
X0002394Y0017714D02*
X0047342Y0017714D01*
X0047691Y0017322D02*
X0002394Y0017322D01*
X0002394Y0016930D02*
X0048039Y0016930D01*
X0048388Y0016537D02*
X0002394Y0016537D01*
X0002394Y0016145D02*
X0048712Y0016145D01*
X0049085Y0015753D02*
X0002394Y0015753D01*
X0002394Y0015361D02*
X0312095Y0015361D01*
X0311703Y0015753D02*
X0304864Y0015753D01*
X0305333Y0016145D02*
X0311311Y0016145D01*
X0310919Y0016537D02*
X0305824Y0016537D01*
X0306314Y0016930D02*
X0310526Y0016930D01*
X0310134Y0017322D02*
X0306827Y0017322D01*
X0307294Y0017714D02*
X0309742Y0017714D01*
X0309350Y0018106D02*
X0307410Y0018106D01*
X0307417Y0018498D02*
X0308957Y0018498D01*
X0308565Y0018891D02*
X0307460Y0018891D01*
X0307410Y0019283D02*
X0308173Y0019283D01*
X0307781Y0019675D02*
X0307410Y0019675D01*
X0180023Y0048699D02*
X0161038Y0048699D01*
X0161347Y0049008D02*
X0161347Y0064021D01*
X0160475Y0064893D01*
X0153007Y0072361D01*
X0152710Y0073078D01*
X0152176Y0073612D01*
X0152616Y0073612D01*
X0152928Y0073741D01*
X0153336Y0073332D01*
X0158454Y0073332D01*
X0167424Y0064362D01*
X0168297Y0063490D01*
X0169871Y0063490D01*
X0171361Y0062000D01*
X0171361Y0059928D01*
X0171050Y0059799D01*
X0170156Y0058905D01*
X0169672Y0057737D01*
X0169672Y0056473D01*
X0170156Y0055305D01*
X0171050Y0054411D01*
X0172218Y0053927D01*
X0173483Y0053927D01*
X0174651Y0054411D01*
X0175545Y0055305D01*
X0176028Y0056473D01*
X0176028Y0057737D01*
X0175545Y0058905D01*
X0174651Y0059799D01*
X0174339Y0059928D01*
X0174339Y0063233D01*
X0173467Y0064106D01*
X0171105Y0066468D01*
X0169530Y0066468D01*
X0159688Y0076310D01*
X0155162Y0076310D01*
X0155162Y0077422D01*
X0154678Y0078590D01*
X0153784Y0079484D01*
X0152616Y0079968D01*
X0151352Y0079968D01*
X0150184Y0079484D01*
X0149290Y0078590D01*
X0148806Y0077422D01*
X0148806Y0076158D01*
X0149290Y0074990D01*
X0149824Y0074456D01*
X0149384Y0074456D01*
X0148216Y0073972D01*
X0147322Y0073078D01*
X0146838Y0071910D01*
X0146838Y0070646D01*
X0147322Y0069478D01*
X0148216Y0068584D01*
X0149384Y0068100D01*
X0150648Y0068100D01*
X0151816Y0068584D01*
X0152194Y0068962D01*
X0158369Y0062787D01*
X0158369Y0050241D01*
X0153321Y0045193D01*
X0153010Y0045322D01*
X0151746Y0045322D01*
X0150578Y0044838D01*
X0149684Y0043944D01*
X0149200Y0042776D01*
X0149200Y0041512D01*
X0149684Y0040344D01*
X0150578Y0039450D01*
X0151746Y0038966D01*
X0153010Y0038966D01*
X0154178Y0039450D01*
X0155072Y0040344D01*
X0155556Y0041512D01*
X0155556Y0042776D01*
X0155427Y0043088D01*
X0161347Y0049008D01*
X0161347Y0049091D02*
X0180023Y0049091D01*
X0180023Y0049483D02*
X0161347Y0049483D01*
X0161347Y0049875D02*
X0180023Y0049875D01*
X0180023Y0050268D02*
X0161347Y0050268D01*
X0161347Y0050660D02*
X0180023Y0050660D01*
X0180023Y0051052D02*
X0161347Y0051052D01*
X0161347Y0051444D02*
X0180023Y0051444D01*
X0180023Y0051836D02*
X0161347Y0051836D01*
X0161347Y0052229D02*
X0180023Y0052229D01*
X0180023Y0052621D02*
X0161347Y0052621D01*
X0161347Y0053013D02*
X0180023Y0053013D01*
X0180023Y0053405D02*
X0161347Y0053405D01*
X0161347Y0053797D02*
X0180023Y0053797D01*
X0180023Y0054190D02*
X0174117Y0054190D01*
X0174822Y0054582D02*
X0180023Y0054582D01*
X0180023Y0054974D02*
X0175214Y0054974D01*
X0175570Y0055366D02*
X0180023Y0055366D01*
X0180023Y0055759D02*
X0175733Y0055759D01*
X0175895Y0056151D02*
X0180023Y0056151D01*
X0180023Y0056543D02*
X0176028Y0056543D01*
X0176028Y0056935D02*
X0180023Y0056935D01*
X0180023Y0057327D02*
X0176028Y0057327D01*
X0176028Y0057720D02*
X0180023Y0057720D01*
X0180023Y0058112D02*
X0175873Y0058112D01*
X0175711Y0058504D02*
X0180023Y0058504D01*
X0180023Y0058896D02*
X0175548Y0058896D01*
X0175161Y0059288D02*
X0180023Y0059288D01*
X0180023Y0059681D02*
X0174769Y0059681D01*
X0174339Y0060073D02*
X0180023Y0060073D01*
X0180023Y0060465D02*
X0174339Y0060465D01*
X0174339Y0060857D02*
X0180023Y0060857D01*
X0180023Y0061250D02*
X0174339Y0061250D01*
X0174339Y0061642D02*
X0180023Y0061642D01*
X0179989Y0062034D02*
X0174339Y0062034D01*
X0174339Y0062426D02*
X0179597Y0062426D01*
X0179204Y0062818D02*
X0174339Y0062818D01*
X0174339Y0063211D02*
X0178812Y0063211D01*
X0178420Y0063603D02*
X0173970Y0063603D01*
X0173578Y0063995D02*
X0178028Y0063995D01*
X0177636Y0064387D02*
X0173186Y0064387D01*
X0172793Y0064779D02*
X0177243Y0064779D01*
X0176851Y0065172D02*
X0172401Y0065172D01*
X0172009Y0065564D02*
X0176459Y0065564D01*
X0176067Y0065956D02*
X0171617Y0065956D01*
X0171225Y0066348D02*
X0175675Y0066348D01*
X0175282Y0066740D02*
X0169258Y0066740D01*
X0168865Y0067133D02*
X0174890Y0067133D01*
X0174498Y0067525D02*
X0168473Y0067525D01*
X0168081Y0067917D02*
X0174106Y0067917D01*
X0173713Y0068309D02*
X0170444Y0068309D01*
X0171225Y0068702D02*
X0173321Y0068702D01*
X0172929Y0069094D02*
X0171617Y0069094D01*
X0172005Y0069486D02*
X0172537Y0069486D01*
X0168170Y0068309D02*
X0167689Y0068309D01*
X0167389Y0068702D02*
X0167296Y0068702D01*
X0166997Y0069094D02*
X0166904Y0069094D01*
X0166610Y0069486D02*
X0166512Y0069486D01*
X0166447Y0069878D02*
X0166120Y0069878D01*
X0166285Y0070270D02*
X0165728Y0070270D01*
X0165335Y0070663D02*
X0166129Y0070663D01*
X0166129Y0071055D02*
X0164943Y0071055D01*
X0164551Y0071447D02*
X0166129Y0071447D01*
X0166129Y0071839D02*
X0164159Y0071839D01*
X0163767Y0072231D02*
X0166262Y0072231D01*
X0166425Y0072624D02*
X0163374Y0072624D01*
X0162982Y0073016D02*
X0166587Y0073016D01*
X0166943Y0073408D02*
X0162590Y0073408D01*
X0162198Y0073800D02*
X0167335Y0073800D01*
X0168039Y0074193D02*
X0161805Y0074193D01*
X0161413Y0074585D02*
X0169774Y0074585D01*
X0169382Y0074977D02*
X0161021Y0074977D01*
X0160629Y0075369D02*
X0169212Y0075369D01*
X0169049Y0075761D02*
X0160237Y0075761D01*
X0159844Y0076154D02*
X0168887Y0076154D01*
X0168885Y0076546D02*
X0155162Y0076546D01*
X0155162Y0076938D02*
X0168885Y0076938D01*
X0168885Y0077330D02*
X0155162Y0077330D01*
X0155038Y0077722D02*
X0169009Y0077722D01*
X0169172Y0078115D02*
X0154875Y0078115D01*
X0154713Y0078507D02*
X0169334Y0078507D01*
X0169678Y0078899D02*
X0154369Y0078899D01*
X0153977Y0079291D02*
X0170070Y0079291D01*
X0170744Y0079683D02*
X0153303Y0079683D01*
X0150666Y0079683D02*
X0134294Y0079683D01*
X0134686Y0079291D02*
X0149991Y0079291D01*
X0149599Y0078899D02*
X0135028Y0078899D01*
X0135191Y0078507D02*
X0149256Y0078507D01*
X0149093Y0078115D02*
X0135353Y0078115D01*
X0135477Y0077722D02*
X0148931Y0077722D01*
X0148806Y0077330D02*
X0135477Y0077330D01*
X0135477Y0076938D02*
X0148806Y0076938D01*
X0148806Y0076546D02*
X0135475Y0076546D01*
X0135435Y0076154D02*
X0148808Y0076154D01*
X0148970Y0075761D02*
X0135827Y0075761D01*
X0136219Y0075369D02*
X0149133Y0075369D01*
X0149303Y0074977D02*
X0136612Y0074977D01*
X0137004Y0074585D02*
X0149695Y0074585D01*
X0148747Y0074193D02*
X0137396Y0074193D01*
X0137788Y0073800D02*
X0148044Y0073800D01*
X0147651Y0073408D02*
X0138180Y0073408D01*
X0138573Y0073016D02*
X0147296Y0073016D01*
X0147133Y0072624D02*
X0138965Y0072624D01*
X0139357Y0072231D02*
X0146971Y0072231D01*
X0146838Y0071839D02*
X0139749Y0071839D01*
X0140142Y0071447D02*
X0146838Y0071447D01*
X0146838Y0071055D02*
X0140534Y0071055D01*
X0140926Y0070663D02*
X0146838Y0070663D01*
X0146993Y0070270D02*
X0141318Y0070270D01*
X0141710Y0069878D02*
X0147156Y0069878D01*
X0147318Y0069486D02*
X0142103Y0069486D01*
X0142495Y0069094D02*
X0147706Y0069094D01*
X0148098Y0068702D02*
X0142887Y0068702D01*
X0143279Y0068309D02*
X0148879Y0068309D01*
X0151153Y0068309D02*
X0152847Y0068309D01*
X0153240Y0067917D02*
X0143671Y0067917D01*
X0144064Y0067525D02*
X0153632Y0067525D01*
X0154024Y0067133D02*
X0144456Y0067133D01*
X0144848Y0066740D02*
X0154416Y0066740D01*
X0154808Y0066348D02*
X0145240Y0066348D01*
X0145632Y0065956D02*
X0155201Y0065956D01*
X0155593Y0065564D02*
X0146025Y0065564D01*
X0146417Y0065172D02*
X0155985Y0065172D01*
X0156377Y0064779D02*
X0146809Y0064779D01*
X0147201Y0064387D02*
X0156769Y0064387D01*
X0157162Y0063995D02*
X0147594Y0063995D01*
X0147986Y0063603D02*
X0157554Y0063603D01*
X0157946Y0063211D02*
X0148355Y0063211D01*
X0148355Y0062818D02*
X0158338Y0062818D01*
X0158369Y0062426D02*
X0148355Y0062426D01*
X0148355Y0062034D02*
X0158369Y0062034D01*
X0158369Y0061642D02*
X0148355Y0061642D01*
X0148355Y0061250D02*
X0158369Y0061250D01*
X0158369Y0060857D02*
X0148406Y0060857D01*
X0149181Y0060465D02*
X0158369Y0060465D01*
X0158369Y0060073D02*
X0149574Y0060073D01*
X0149959Y0059681D02*
X0158369Y0059681D01*
X0158369Y0059288D02*
X0150121Y0059288D01*
X0150284Y0058896D02*
X0158369Y0058896D01*
X0158369Y0058504D02*
X0150438Y0058504D01*
X0150438Y0058112D02*
X0158369Y0058112D01*
X0158369Y0057720D02*
X0150438Y0057720D01*
X0150438Y0057327D02*
X0158369Y0057327D01*
X0158369Y0056935D02*
X0150303Y0056935D01*
X0150141Y0056543D02*
X0158369Y0056543D01*
X0158369Y0056151D02*
X0149978Y0056151D01*
X0149620Y0055759D02*
X0158369Y0055759D01*
X0158369Y0055366D02*
X0149228Y0055366D01*
X0148519Y0054974D02*
X0158369Y0054974D01*
X0158369Y0054582D02*
X0148355Y0054582D01*
X0148355Y0054190D02*
X0158369Y0054190D01*
X0158369Y0053797D02*
X0148355Y0053797D01*
X0148355Y0053405D02*
X0158369Y0053405D01*
X0158369Y0053013D02*
X0148355Y0053013D01*
X0148355Y0052621D02*
X0158369Y0052621D01*
X0158369Y0052229D02*
X0148355Y0052229D01*
X0148355Y0051836D02*
X0158369Y0051836D01*
X0158369Y0051444D02*
X0148355Y0051444D01*
X0148355Y0051052D02*
X0158369Y0051052D01*
X0158369Y0050660D02*
X0148355Y0050660D01*
X0148355Y0050268D02*
X0158369Y0050268D01*
X0158003Y0049875D02*
X0148355Y0049875D01*
X0148355Y0049483D02*
X0157611Y0049483D01*
X0157219Y0049091D02*
X0148355Y0049091D01*
X0148355Y0048699D02*
X0156827Y0048699D01*
X0156434Y0048307D02*
X0148355Y0048307D01*
X0148355Y0047914D02*
X0156042Y0047914D01*
X0155650Y0047522D02*
X0148355Y0047522D01*
X0148355Y0047130D02*
X0155258Y0047130D01*
X0154866Y0046738D02*
X0148355Y0046738D01*
X0148355Y0046345D02*
X0154473Y0046345D01*
X0154081Y0045953D02*
X0148355Y0045953D01*
X0148355Y0045561D02*
X0153689Y0045561D01*
X0151376Y0045169D02*
X0148355Y0045169D01*
X0148355Y0044777D02*
X0150516Y0044777D01*
X0150124Y0044384D02*
X0148355Y0044384D01*
X0148355Y0043992D02*
X0149732Y0043992D01*
X0149541Y0043600D02*
X0148355Y0043600D01*
X0148355Y0043208D02*
X0149379Y0043208D01*
X0149216Y0042816D02*
X0148355Y0042816D01*
X0148355Y0042423D02*
X0149200Y0042423D01*
X0149200Y0042031D02*
X0148355Y0042031D01*
X0148355Y0041639D02*
X0149200Y0041639D01*
X0149310Y0041247D02*
X0148355Y0041247D01*
X0148355Y0040854D02*
X0149472Y0040854D01*
X0149635Y0040462D02*
X0148355Y0040462D01*
X0148355Y0040070D02*
X0149958Y0040070D01*
X0150350Y0039678D02*
X0148355Y0039678D01*
X0148355Y0039286D02*
X0150975Y0039286D01*
X0148355Y0038893D02*
X0164520Y0038893D01*
X0164200Y0039286D02*
X0153781Y0039286D01*
X0154406Y0039678D02*
X0164037Y0039678D01*
X0163875Y0040070D02*
X0154798Y0040070D01*
X0155121Y0040462D02*
X0163767Y0040462D01*
X0163767Y0040854D02*
X0155283Y0040854D01*
X0155446Y0041247D02*
X0163767Y0041247D01*
X0163785Y0041639D02*
X0155556Y0041639D01*
X0155556Y0042031D02*
X0163947Y0042031D01*
X0164110Y0042423D02*
X0155556Y0042423D01*
X0155540Y0042816D02*
X0164303Y0042816D01*
X0164695Y0043208D02*
X0155547Y0043208D01*
X0155939Y0043600D02*
X0165087Y0043600D01*
X0165953Y0043992D02*
X0156332Y0043992D01*
X0156724Y0044384D02*
X0175741Y0044384D01*
X0175348Y0043992D02*
X0167937Y0043992D01*
X0168802Y0043600D02*
X0174956Y0043600D01*
X0174564Y0043208D02*
X0169195Y0043208D01*
X0169587Y0042816D02*
X0174172Y0042816D01*
X0176133Y0044777D02*
X0157116Y0044777D01*
X0157508Y0045169D02*
X0176525Y0045169D01*
X0176917Y0045561D02*
X0157900Y0045561D01*
X0158293Y0045953D02*
X0177310Y0045953D01*
X0177702Y0046345D02*
X0158685Y0046345D01*
X0159077Y0046738D02*
X0178094Y0046738D01*
X0178486Y0047130D02*
X0159469Y0047130D01*
X0159862Y0047522D02*
X0178878Y0047522D01*
X0179271Y0047914D02*
X0160254Y0047914D01*
X0160646Y0048307D02*
X0179663Y0048307D01*
X0171584Y0054190D02*
X0161347Y0054190D01*
X0161347Y0054582D02*
X0170879Y0054582D01*
X0170487Y0054974D02*
X0161347Y0054974D01*
X0161347Y0055366D02*
X0170131Y0055366D01*
X0169968Y0055759D02*
X0161347Y0055759D01*
X0161347Y0056151D02*
X0169806Y0056151D01*
X0169672Y0056543D02*
X0161347Y0056543D01*
X0161347Y0056935D02*
X0169672Y0056935D01*
X0169672Y0057327D02*
X0161347Y0057327D01*
X0161347Y0057720D02*
X0169672Y0057720D01*
X0169828Y0058112D02*
X0161347Y0058112D01*
X0161347Y0058504D02*
X0169990Y0058504D01*
X0170153Y0058896D02*
X0161347Y0058896D01*
X0161347Y0059288D02*
X0170540Y0059288D01*
X0170932Y0059681D02*
X0161347Y0059681D01*
X0161347Y0060073D02*
X0171361Y0060073D01*
X0171361Y0060465D02*
X0161347Y0060465D01*
X0161347Y0060857D02*
X0171361Y0060857D01*
X0171361Y0061250D02*
X0161347Y0061250D01*
X0161347Y0061642D02*
X0171361Y0061642D01*
X0171327Y0062034D02*
X0161347Y0062034D01*
X0161347Y0062426D02*
X0170935Y0062426D01*
X0170543Y0062818D02*
X0161347Y0062818D01*
X0161347Y0063211D02*
X0170151Y0063211D01*
X0168184Y0063603D02*
X0161347Y0063603D01*
X0161347Y0063995D02*
X0167792Y0063995D01*
X0167399Y0064387D02*
X0160981Y0064387D01*
X0160589Y0064779D02*
X0167007Y0064779D01*
X0166615Y0065172D02*
X0160196Y0065172D01*
X0159804Y0065564D02*
X0166223Y0065564D01*
X0165830Y0065956D02*
X0159412Y0065956D01*
X0159020Y0066348D02*
X0165438Y0066348D01*
X0165046Y0066740D02*
X0158628Y0066740D01*
X0158235Y0067133D02*
X0164654Y0067133D01*
X0164262Y0067525D02*
X0157843Y0067525D01*
X0157451Y0067917D02*
X0163869Y0067917D01*
X0163477Y0068309D02*
X0157059Y0068309D01*
X0156667Y0068702D02*
X0163085Y0068702D01*
X0162693Y0069094D02*
X0156274Y0069094D01*
X0155882Y0069486D02*
X0162301Y0069486D01*
X0161908Y0069878D02*
X0155490Y0069878D01*
X0155098Y0070270D02*
X0161516Y0070270D01*
X0161124Y0070663D02*
X0154705Y0070663D01*
X0154313Y0071055D02*
X0160732Y0071055D01*
X0160340Y0071447D02*
X0153921Y0071447D01*
X0153529Y0071839D02*
X0159947Y0071839D01*
X0159555Y0072231D02*
X0153137Y0072231D01*
X0152898Y0072624D02*
X0159163Y0072624D01*
X0158771Y0073016D02*
X0152736Y0073016D01*
X0152380Y0073408D02*
X0153260Y0073408D01*
X0152455Y0068702D02*
X0151933Y0068702D01*
X0139442Y0063211D02*
X0134576Y0063211D01*
X0134576Y0063233D02*
X0133703Y0064106D01*
X0130554Y0067255D01*
X0128192Y0067255D01*
X0118349Y0077098D01*
X0116186Y0077098D01*
X0116186Y0078209D01*
X0115702Y0079377D01*
X0114808Y0080271D01*
X0113640Y0080755D01*
X0112376Y0080755D01*
X0111208Y0080271D01*
X0110314Y0079377D01*
X0109830Y0078209D01*
X0109830Y0076945D01*
X0110314Y0075777D01*
X0111208Y0074883D01*
X0112376Y0074399D01*
X0113640Y0074399D01*
X0113673Y0074413D01*
X0113966Y0074120D01*
X0117116Y0074120D01*
X0126958Y0064277D01*
X0129320Y0064277D01*
X0131598Y0062000D01*
X0131598Y0060485D01*
X0130893Y0060193D01*
X0129999Y0059299D01*
X0129515Y0058131D01*
X0129515Y0056866D01*
X0129999Y0055698D01*
X0130893Y0054804D01*
X0132061Y0054321D01*
X0133325Y0054321D01*
X0134493Y0054804D01*
X0135387Y0055698D01*
X0135871Y0056866D01*
X0135871Y0058131D01*
X0135387Y0059299D01*
X0134576Y0060110D01*
X0134576Y0063233D01*
X0134576Y0062818D02*
X0139472Y0062818D01*
X0139472Y0062426D02*
X0134576Y0062426D01*
X0134576Y0062034D02*
X0139472Y0062034D01*
X0139472Y0061642D02*
X0134576Y0061642D01*
X0134576Y0061250D02*
X0139472Y0061250D01*
X0139472Y0060857D02*
X0134576Y0060857D01*
X0134576Y0060465D02*
X0139472Y0060465D01*
X0139472Y0060073D02*
X0134613Y0060073D01*
X0135005Y0059681D02*
X0139472Y0059681D01*
X0139472Y0059288D02*
X0135391Y0059288D01*
X0135554Y0058896D02*
X0139472Y0058896D01*
X0139472Y0058504D02*
X0135716Y0058504D01*
X0135871Y0058112D02*
X0139472Y0058112D01*
X0139472Y0057720D02*
X0135871Y0057720D01*
X0135871Y0057327D02*
X0139472Y0057327D01*
X0139472Y0056935D02*
X0135871Y0056935D01*
X0135737Y0056543D02*
X0139472Y0056543D01*
X0139472Y0056151D02*
X0135574Y0056151D01*
X0135412Y0055759D02*
X0139472Y0055759D01*
X0139472Y0055366D02*
X0135055Y0055366D01*
X0134663Y0054974D02*
X0139472Y0054974D01*
X0139472Y0054582D02*
X0133956Y0054582D01*
X0131430Y0054582D02*
X0114891Y0054582D01*
X0114891Y0054974D02*
X0130723Y0054974D01*
X0130331Y0055366D02*
X0114891Y0055366D01*
X0114891Y0055759D02*
X0129974Y0055759D01*
X0129811Y0056151D02*
X0114891Y0056151D01*
X0114891Y0056543D02*
X0129649Y0056543D01*
X0129515Y0056935D02*
X0114891Y0056935D01*
X0114891Y0057327D02*
X0129515Y0057327D01*
X0129515Y0057720D02*
X0114891Y0057720D01*
X0114891Y0058112D02*
X0129515Y0058112D01*
X0129670Y0058504D02*
X0114891Y0058504D01*
X0114891Y0058896D02*
X0129832Y0058896D01*
X0129995Y0059288D02*
X0114891Y0059288D01*
X0114891Y0059681D02*
X0130381Y0059681D01*
X0130773Y0060073D02*
X0114891Y0060073D01*
X0114891Y0060465D02*
X0131550Y0060465D01*
X0131598Y0060857D02*
X0114891Y0060857D01*
X0114891Y0061250D02*
X0131598Y0061250D01*
X0131598Y0061642D02*
X0114891Y0061642D01*
X0114891Y0062034D02*
X0131564Y0062034D01*
X0131171Y0062426D02*
X0114891Y0062426D01*
X0114891Y0062818D02*
X0130779Y0062818D01*
X0130387Y0063211D02*
X0114891Y0063211D01*
X0114891Y0063603D02*
X0129995Y0063603D01*
X0129603Y0063995D02*
X0114891Y0063995D01*
X0114891Y0064387D02*
X0126848Y0064387D01*
X0126456Y0064779D02*
X0114891Y0064779D01*
X0114891Y0065172D02*
X0126064Y0065172D01*
X0125672Y0065564D02*
X0114891Y0065564D01*
X0114891Y0065956D02*
X0125279Y0065956D01*
X0124887Y0066348D02*
X0114891Y0066348D01*
X0114891Y0066740D02*
X0124495Y0066740D01*
X0124103Y0067133D02*
X0114891Y0067133D01*
X0114891Y0067525D02*
X0123710Y0067525D01*
X0123318Y0067917D02*
X0114891Y0067917D01*
X0114891Y0068309D02*
X0122926Y0068309D01*
X0122534Y0068702D02*
X0114891Y0068702D01*
X0114891Y0069094D02*
X0122142Y0069094D01*
X0121749Y0069486D02*
X0114891Y0069486D01*
X0114891Y0069878D02*
X0121357Y0069878D01*
X0120965Y0070270D02*
X0114891Y0070270D01*
X0114891Y0070663D02*
X0120573Y0070663D01*
X0120181Y0071055D02*
X0114891Y0071055D01*
X0114891Y0071447D02*
X0119788Y0071447D01*
X0119396Y0071839D02*
X0114891Y0071839D01*
X0114891Y0071895D02*
X0113625Y0073161D01*
X0113469Y0073161D01*
X0113340Y0073472D01*
X0112446Y0074366D01*
X0111278Y0074850D01*
X0110014Y0074850D01*
X0108845Y0074366D01*
X0107952Y0073472D01*
X0107468Y0072304D01*
X0107468Y0071040D01*
X0107952Y0069872D01*
X0108845Y0068978D01*
X0110014Y0068494D01*
X0111278Y0068494D01*
X0111913Y0068757D01*
X0111913Y0044574D01*
X0111601Y0044445D01*
X0110707Y0043551D01*
X0110224Y0042383D01*
X0110224Y0041118D01*
X0110707Y0039950D01*
X0111601Y0039056D01*
X0112769Y0038573D01*
X0114034Y0038573D01*
X0115202Y0039056D01*
X0116096Y0039950D01*
X0116580Y0041118D01*
X0116580Y0042383D01*
X0116096Y0043551D01*
X0115202Y0044445D01*
X0114891Y0044574D01*
X0114891Y0071895D01*
X0114554Y0072231D02*
X0119004Y0072231D01*
X0118612Y0072624D02*
X0114162Y0072624D01*
X0113770Y0073016D02*
X0118220Y0073016D01*
X0117827Y0073408D02*
X0113366Y0073408D01*
X0113011Y0073800D02*
X0117435Y0073800D01*
X0119685Y0075761D02*
X0129449Y0075761D01*
X0129286Y0076154D02*
X0119293Y0076154D01*
X0118901Y0076546D02*
X0129124Y0076546D01*
X0129121Y0076938D02*
X0118509Y0076938D01*
X0120078Y0075369D02*
X0129619Y0075369D01*
X0130012Y0074977D02*
X0120470Y0074977D01*
X0120862Y0074585D02*
X0128665Y0074585D01*
X0127963Y0074193D02*
X0121254Y0074193D01*
X0121647Y0073800D02*
X0127571Y0073800D01*
X0127216Y0073408D02*
X0122039Y0073408D01*
X0122431Y0073016D02*
X0127054Y0073016D01*
X0126891Y0072624D02*
X0122823Y0072624D01*
X0123215Y0072231D02*
X0126759Y0072231D01*
X0126759Y0071839D02*
X0123608Y0071839D01*
X0124000Y0071447D02*
X0126759Y0071447D01*
X0126759Y0071055D02*
X0124392Y0071055D01*
X0124784Y0070663D02*
X0126915Y0070663D01*
X0127078Y0070270D02*
X0125176Y0070270D01*
X0125569Y0069878D02*
X0127240Y0069878D01*
X0127629Y0069486D02*
X0125961Y0069486D01*
X0126353Y0069094D02*
X0128021Y0069094D01*
X0128803Y0068702D02*
X0126745Y0068702D01*
X0127137Y0068309D02*
X0134343Y0068309D01*
X0133951Y0068702D02*
X0131071Y0068702D01*
X0131853Y0069094D02*
X0133559Y0069094D01*
X0133167Y0069486D02*
X0132245Y0069486D01*
X0132634Y0069878D02*
X0132775Y0069878D01*
X0134736Y0067917D02*
X0127530Y0067917D01*
X0127922Y0067525D02*
X0135128Y0067525D01*
X0135520Y0067133D02*
X0130676Y0067133D01*
X0131069Y0066740D02*
X0135912Y0066740D01*
X0136304Y0066348D02*
X0131461Y0066348D01*
X0131853Y0065956D02*
X0136697Y0065956D01*
X0137089Y0065564D02*
X0132245Y0065564D01*
X0132637Y0065172D02*
X0137481Y0065172D01*
X0137873Y0064779D02*
X0133030Y0064779D01*
X0133422Y0064387D02*
X0138265Y0064387D01*
X0138658Y0063995D02*
X0133814Y0063995D01*
X0133703Y0064106D02*
X0133703Y0064106D01*
X0134206Y0063603D02*
X0139050Y0063603D01*
X0139472Y0054190D02*
X0114891Y0054190D01*
X0114891Y0053797D02*
X0139472Y0053797D01*
X0139472Y0053405D02*
X0114891Y0053405D01*
X0114891Y0053013D02*
X0139472Y0053013D01*
X0139472Y0052621D02*
X0114891Y0052621D01*
X0114891Y0052229D02*
X0139472Y0052229D01*
X0139472Y0051836D02*
X0114891Y0051836D01*
X0114891Y0051444D02*
X0139472Y0051444D01*
X0139472Y0051052D02*
X0114891Y0051052D01*
X0114891Y0050660D02*
X0139472Y0050660D01*
X0139472Y0050268D02*
X0114891Y0050268D01*
X0114891Y0049875D02*
X0139106Y0049875D01*
X0138713Y0049483D02*
X0114891Y0049483D01*
X0114891Y0049091D02*
X0138321Y0049091D01*
X0137929Y0048699D02*
X0114891Y0048699D01*
X0114891Y0048307D02*
X0137537Y0048307D01*
X0137145Y0047914D02*
X0114891Y0047914D01*
X0114891Y0047522D02*
X0136752Y0047522D01*
X0136360Y0047130D02*
X0114891Y0047130D01*
X0114891Y0046738D02*
X0128094Y0046738D01*
X0127702Y0046345D02*
X0114891Y0046345D01*
X0114891Y0045953D02*
X0127310Y0045953D01*
X0126917Y0045561D02*
X0114891Y0045561D01*
X0114891Y0045169D02*
X0126525Y0045169D01*
X0125789Y0044777D02*
X0114891Y0044777D01*
X0115262Y0044384D02*
X0124927Y0044384D01*
X0124535Y0043992D02*
X0115654Y0043992D01*
X0116046Y0043600D02*
X0124143Y0043600D01*
X0123951Y0043208D02*
X0116238Y0043208D01*
X0116400Y0042816D02*
X0123789Y0042816D01*
X0123626Y0042423D02*
X0116563Y0042423D01*
X0116580Y0042031D02*
X0123609Y0042031D01*
X0123609Y0041639D02*
X0116580Y0041639D01*
X0116580Y0041247D02*
X0123609Y0041247D01*
X0123719Y0040854D02*
X0116470Y0040854D01*
X0116308Y0040462D02*
X0123881Y0040462D01*
X0124044Y0040070D02*
X0116145Y0040070D01*
X0115823Y0039678D02*
X0124366Y0039678D01*
X0124758Y0039286D02*
X0115431Y0039286D01*
X0114808Y0038893D02*
X0125298Y0038893D01*
X0125298Y0038501D02*
X0109379Y0038501D01*
X0109379Y0038109D02*
X0125298Y0038109D01*
X0125298Y0037717D02*
X0109379Y0037717D01*
X0109379Y0037325D02*
X0125298Y0037325D01*
X0125298Y0036932D02*
X0109379Y0036932D01*
X0109379Y0036540D02*
X0125298Y0036540D01*
X0125298Y0036148D02*
X0109379Y0036148D01*
X0109379Y0035756D02*
X0125298Y0035756D01*
X0125298Y0035364D02*
X0109379Y0035364D01*
X0109379Y0034971D02*
X0125298Y0034971D01*
X0125298Y0034579D02*
X0109379Y0034579D01*
X0109379Y0034187D02*
X0125298Y0034187D01*
X0125298Y0033795D02*
X0109379Y0033795D01*
X0109379Y0033402D02*
X0125298Y0033402D01*
X0125298Y0033010D02*
X0109379Y0033010D01*
X0109379Y0032618D02*
X0125298Y0032618D01*
X0125298Y0032226D02*
X0109379Y0032226D01*
X0109379Y0031834D02*
X0125298Y0031834D01*
X0125298Y0031441D02*
X0109379Y0031441D01*
X0109379Y0031049D02*
X0125298Y0031049D01*
X0125298Y0030657D02*
X0109379Y0030657D01*
X0109379Y0030265D02*
X0125298Y0030265D01*
X0125298Y0029873D02*
X0109379Y0029873D01*
X0109379Y0029480D02*
X0125298Y0029480D01*
X0125298Y0029088D02*
X0109379Y0029088D01*
X0109379Y0028696D02*
X0125298Y0028696D01*
X0125298Y0028304D02*
X0109379Y0028304D01*
X0109379Y0027911D02*
X0125529Y0027911D01*
X0125921Y0027519D02*
X0109660Y0027519D01*
X0110052Y0027127D02*
X0126313Y0027127D01*
X0126705Y0026735D02*
X0110444Y0026735D01*
X0110836Y0026343D02*
X0127097Y0026343D01*
X0127490Y0025950D02*
X0111229Y0025950D01*
X0111621Y0025558D02*
X0127882Y0025558D01*
X0109763Y0023205D02*
X0089565Y0023205D01*
X0089173Y0023597D02*
X0109371Y0023597D01*
X0108978Y0023989D02*
X0088780Y0023989D01*
X0088513Y0024382D02*
X0108586Y0024382D01*
X0108194Y0024774D02*
X0088513Y0024774D01*
X0088513Y0025166D02*
X0107802Y0025166D01*
X0107409Y0025558D02*
X0088513Y0025558D01*
X0088513Y0025950D02*
X0107017Y0025950D01*
X0106625Y0026343D02*
X0088513Y0026343D01*
X0088513Y0026735D02*
X0106401Y0026735D01*
X0106401Y0027127D02*
X0088513Y0027127D01*
X0088513Y0027519D02*
X0106401Y0027519D01*
X0106401Y0027911D02*
X0088513Y0027911D01*
X0088513Y0028304D02*
X0106401Y0028304D01*
X0106401Y0028696D02*
X0088513Y0028696D01*
X0088513Y0029088D02*
X0106401Y0029088D01*
X0106401Y0029480D02*
X0088513Y0029480D01*
X0088513Y0029873D02*
X0106401Y0029873D01*
X0106401Y0030265D02*
X0088513Y0030265D01*
X0088513Y0030657D02*
X0106401Y0030657D01*
X0106401Y0031049D02*
X0088513Y0031049D01*
X0088513Y0031441D02*
X0106401Y0031441D01*
X0106401Y0031834D02*
X0088513Y0031834D01*
X0088513Y0032226D02*
X0106401Y0032226D01*
X0106401Y0032618D02*
X0088513Y0032618D01*
X0088513Y0033010D02*
X0106401Y0033010D01*
X0106401Y0033402D02*
X0088513Y0033402D01*
X0088513Y0033795D02*
X0106401Y0033795D01*
X0106401Y0034187D02*
X0088513Y0034187D01*
X0088513Y0034579D02*
X0106401Y0034579D01*
X0106401Y0034971D02*
X0088513Y0034971D01*
X0088513Y0035364D02*
X0106401Y0035364D01*
X0106401Y0035756D02*
X0088513Y0035756D01*
X0088513Y0036148D02*
X0106401Y0036148D01*
X0106401Y0036540D02*
X0088513Y0036540D01*
X0088513Y0036932D02*
X0106401Y0036932D01*
X0106401Y0037325D02*
X0088513Y0037325D01*
X0088513Y0037717D02*
X0106401Y0037717D01*
X0106401Y0038109D02*
X0088513Y0038109D01*
X0088513Y0038501D02*
X0106401Y0038501D01*
X0106401Y0038893D02*
X0088513Y0038893D01*
X0089053Y0039286D02*
X0106401Y0039286D01*
X0106401Y0039678D02*
X0089445Y0039678D01*
X0089767Y0040070D02*
X0106401Y0040070D01*
X0106401Y0040462D02*
X0089930Y0040462D01*
X0090092Y0040854D02*
X0106401Y0040854D01*
X0106401Y0041247D02*
X0090202Y0041247D01*
X0090202Y0041639D02*
X0106401Y0041639D01*
X0106401Y0042031D02*
X0090202Y0042031D01*
X0090185Y0042423D02*
X0106401Y0042423D01*
X0106401Y0042816D02*
X0090022Y0042816D01*
X0090193Y0043208D02*
X0106401Y0043208D01*
X0106401Y0043600D02*
X0090585Y0043600D01*
X0090977Y0043992D02*
X0106401Y0043992D01*
X0106401Y0044384D02*
X0091369Y0044384D01*
X0091762Y0044777D02*
X0106401Y0044777D01*
X0106401Y0045169D02*
X0092154Y0045169D01*
X0092546Y0045561D02*
X0106401Y0045561D01*
X0106401Y0045953D02*
X0092938Y0045953D01*
X0093331Y0046345D02*
X0106401Y0046345D01*
X0106401Y0046738D02*
X0093723Y0046738D01*
X0094115Y0047130D02*
X0106401Y0047130D01*
X0106401Y0047522D02*
X0094507Y0047522D01*
X0094899Y0047914D02*
X0106401Y0047914D01*
X0106401Y0048307D02*
X0095292Y0048307D01*
X0095684Y0048699D02*
X0106401Y0048699D01*
X0106401Y0049091D02*
X0096076Y0049091D01*
X0096468Y0049483D02*
X0106401Y0049483D01*
X0106401Y0049875D02*
X0096860Y0049875D01*
X0097253Y0050268D02*
X0106401Y0050268D01*
X0106401Y0050660D02*
X0097645Y0050660D01*
X0098037Y0051052D02*
X0106401Y0051052D01*
X0106401Y0051444D02*
X0098429Y0051444D01*
X0098821Y0051836D02*
X0106401Y0051836D01*
X0106401Y0052229D02*
X0099214Y0052229D01*
X0099606Y0052621D02*
X0106401Y0052621D01*
X0106401Y0053013D02*
X0099998Y0053013D01*
X0100390Y0053405D02*
X0106401Y0053405D01*
X0106401Y0053797D02*
X0100783Y0053797D01*
X0101175Y0054190D02*
X0106401Y0054190D01*
X0105918Y0054582D02*
X0101567Y0054582D01*
X0101959Y0054974D02*
X0105526Y0054974D01*
X0105170Y0055366D02*
X0102351Y0055366D01*
X0102686Y0055759D02*
X0105008Y0055759D01*
X0104845Y0056151D02*
X0102686Y0056151D01*
X0102686Y0056543D02*
X0104712Y0056543D01*
X0104712Y0056935D02*
X0102686Y0056935D01*
X0102686Y0057327D02*
X0104712Y0057327D01*
X0104712Y0057720D02*
X0102686Y0057720D01*
X0102686Y0058112D02*
X0104867Y0058112D01*
X0105030Y0058504D02*
X0102686Y0058504D01*
X0102686Y0058896D02*
X0105192Y0058896D01*
X0105579Y0059288D02*
X0102686Y0059288D01*
X0102686Y0059681D02*
X0105971Y0059681D01*
X0106007Y0060073D02*
X0102686Y0060073D01*
X0102686Y0060465D02*
X0106007Y0060465D01*
X0106007Y0060857D02*
X0102686Y0060857D01*
X0102686Y0061250D02*
X0106007Y0061250D01*
X0106007Y0061642D02*
X0102686Y0061642D01*
X0102686Y0062034D02*
X0105973Y0062034D01*
X0105581Y0062426D02*
X0102686Y0062426D01*
X0102686Y0062818D02*
X0105189Y0062818D01*
X0104796Y0063211D02*
X0102686Y0063211D01*
X0102686Y0063603D02*
X0104404Y0063603D01*
X0104012Y0063995D02*
X0102686Y0063995D01*
X0102319Y0064387D02*
X0103620Y0064387D01*
X0103228Y0064779D02*
X0101927Y0064779D01*
X0101535Y0065172D02*
X0102835Y0065172D01*
X0102443Y0065564D02*
X0101143Y0065564D01*
X0100751Y0065956D02*
X0102051Y0065956D01*
X0101659Y0066348D02*
X0100358Y0066348D01*
X0099966Y0066740D02*
X0101267Y0066740D01*
X0100874Y0067133D02*
X0099574Y0067133D01*
X0099182Y0067525D02*
X0100482Y0067525D01*
X0100090Y0067917D02*
X0098790Y0067917D01*
X0098397Y0068309D02*
X0099698Y0068309D01*
X0099305Y0068702D02*
X0098005Y0068702D01*
X0097613Y0069094D02*
X0098913Y0069094D01*
X0098521Y0069486D02*
X0097221Y0069486D01*
X0096828Y0069878D02*
X0098129Y0069878D01*
X0097737Y0070270D02*
X0096436Y0070270D01*
X0096044Y0070663D02*
X0097344Y0070663D01*
X0096952Y0071055D02*
X0095652Y0071055D01*
X0095260Y0071447D02*
X0096560Y0071447D01*
X0096168Y0071839D02*
X0094867Y0071839D01*
X0094475Y0072231D02*
X0095776Y0072231D01*
X0095383Y0072624D02*
X0094083Y0072624D01*
X0093691Y0073016D02*
X0094991Y0073016D01*
X0094599Y0073408D02*
X0093299Y0073408D01*
X0092894Y0073800D02*
X0094207Y0073800D01*
X0093815Y0074193D02*
X0092541Y0074193D01*
X0092148Y0074585D02*
X0093422Y0074585D01*
X0091853Y0074977D02*
X0091449Y0074977D01*
X0091037Y0075369D02*
X0081495Y0075369D01*
X0081887Y0074977D02*
X0088898Y0074977D01*
X0088198Y0074585D02*
X0082279Y0074585D01*
X0082672Y0074193D02*
X0087806Y0074193D01*
X0087452Y0073800D02*
X0083064Y0073800D01*
X0083456Y0073408D02*
X0087290Y0073408D01*
X0087127Y0073016D02*
X0083848Y0073016D01*
X0084240Y0072624D02*
X0086995Y0072624D01*
X0086995Y0072231D02*
X0084633Y0072231D01*
X0085025Y0071839D02*
X0086995Y0071839D01*
X0086995Y0071447D02*
X0085417Y0071447D01*
X0085809Y0071055D02*
X0087152Y0071055D01*
X0087315Y0070663D02*
X0086202Y0070663D01*
X0086594Y0070270D02*
X0087477Y0070270D01*
X0087866Y0069878D02*
X0086986Y0069878D01*
X0087378Y0069486D02*
X0088258Y0069486D01*
X0087770Y0069094D02*
X0089043Y0069094D01*
X0088034Y0068830D02*
X0090790Y0068830D01*
X0093152Y0066468D01*
X0094024Y0065596D01*
X0094024Y0059717D01*
X0094836Y0058905D01*
X0095320Y0057737D01*
X0095320Y0056473D01*
X0094836Y0055305D01*
X0093942Y0054411D01*
X0092774Y0053927D01*
X0091510Y0053927D01*
X0090342Y0054411D01*
X0089448Y0055305D01*
X0088964Y0056473D01*
X0088964Y0057737D01*
X0089448Y0058905D01*
X0090342Y0059799D01*
X0091046Y0060091D01*
X0091046Y0064362D01*
X0089556Y0065852D01*
X0086801Y0065852D01*
X0085928Y0066724D01*
X0078533Y0074120D01*
X0069768Y0074120D01*
X0069639Y0073809D01*
X0068745Y0072915D01*
X0067577Y0072431D01*
X0066313Y0072431D01*
X0065621Y0072717D01*
X0065792Y0072304D01*
X0065792Y0071586D01*
X0069136Y0071586D01*
X0073467Y0067255D01*
X0074339Y0066383D01*
X0074339Y0044180D01*
X0074651Y0044051D01*
X0075545Y0043157D01*
X0076028Y0041989D01*
X0076028Y0040725D01*
X0075545Y0039557D01*
X0074651Y0038663D01*
X0073483Y0038179D01*
X0072218Y0038179D01*
X0071050Y0038663D01*
X0070156Y0039557D01*
X0069672Y0040725D01*
X0069672Y0041989D01*
X0070156Y0043157D01*
X0071050Y0044051D01*
X0071361Y0044180D01*
X0071361Y0065150D01*
X0067903Y0068608D01*
X0063572Y0068608D01*
X0063557Y0068623D01*
X0063246Y0068494D01*
X0061982Y0068494D01*
X0060814Y0068978D01*
X0059920Y0069872D01*
X0059436Y0071040D01*
X0059436Y0072304D01*
X0059920Y0073472D01*
X0060814Y0074366D01*
X0061982Y0074850D01*
X0063246Y0074850D01*
X0063938Y0074563D01*
X0063767Y0074977D01*
X0054722Y0074977D01*
X0055114Y0074585D02*
X0061342Y0074585D01*
X0060641Y0074193D02*
X0055506Y0074193D01*
X0055898Y0073800D02*
X0060248Y0073800D01*
X0059894Y0073408D02*
X0056291Y0073408D01*
X0056683Y0073016D02*
X0059731Y0073016D01*
X0059569Y0072624D02*
X0057075Y0072624D01*
X0057467Y0072231D02*
X0059436Y0072231D01*
X0059436Y0071839D02*
X0057860Y0071839D01*
X0058252Y0071447D02*
X0059436Y0071447D01*
X0059436Y0071055D02*
X0058644Y0071055D01*
X0059036Y0070663D02*
X0059592Y0070663D01*
X0059428Y0070270D02*
X0059755Y0070270D01*
X0059821Y0069878D02*
X0059917Y0069878D01*
X0060213Y0069486D02*
X0060306Y0069486D01*
X0060605Y0069094D02*
X0060698Y0069094D01*
X0060997Y0068702D02*
X0061481Y0068702D01*
X0061389Y0068309D02*
X0068202Y0068309D01*
X0068594Y0067917D02*
X0061782Y0067917D01*
X0062174Y0067525D02*
X0068986Y0067525D01*
X0069378Y0067133D02*
X0062566Y0067133D01*
X0062958Y0066740D02*
X0069770Y0066740D01*
X0070163Y0066348D02*
X0063351Y0066348D01*
X0063743Y0065956D02*
X0070555Y0065956D01*
X0070947Y0065564D02*
X0064135Y0065564D01*
X0064527Y0065172D02*
X0071339Y0065172D01*
X0071361Y0064779D02*
X0064919Y0064779D01*
X0065312Y0064387D02*
X0071361Y0064387D01*
X0071361Y0063995D02*
X0065704Y0063995D01*
X0066096Y0063603D02*
X0071361Y0063603D01*
X0071361Y0063211D02*
X0066488Y0063211D01*
X0066880Y0062818D02*
X0071361Y0062818D01*
X0071361Y0062426D02*
X0067273Y0062426D01*
X0067646Y0062034D02*
X0071361Y0062034D01*
X0071361Y0061642D02*
X0067646Y0061642D01*
X0067646Y0061250D02*
X0071361Y0061250D01*
X0071361Y0060857D02*
X0068091Y0060857D01*
X0068866Y0060465D02*
X0071361Y0060465D01*
X0071361Y0060073D02*
X0069259Y0060073D01*
X0069644Y0059681D02*
X0071361Y0059681D01*
X0071361Y0059288D02*
X0069806Y0059288D01*
X0069969Y0058896D02*
X0071361Y0058896D01*
X0071361Y0058504D02*
X0070123Y0058504D01*
X0070123Y0058112D02*
X0071361Y0058112D01*
X0071361Y0057720D02*
X0070123Y0057720D01*
X0070123Y0057327D02*
X0071361Y0057327D01*
X0071361Y0056935D02*
X0069988Y0056935D01*
X0069826Y0056543D02*
X0071361Y0056543D01*
X0071361Y0056151D02*
X0069663Y0056151D01*
X0069305Y0055759D02*
X0071361Y0055759D01*
X0071361Y0055366D02*
X0068913Y0055366D01*
X0068434Y0054974D02*
X0071361Y0054974D01*
X0071361Y0054582D02*
X0068434Y0054582D01*
X0068434Y0054190D02*
X0071361Y0054190D01*
X0071361Y0053797D02*
X0068434Y0053797D01*
X0068434Y0053405D02*
X0071361Y0053405D01*
X0071361Y0053013D02*
X0068434Y0053013D01*
X0068434Y0052621D02*
X0071361Y0052621D01*
X0071361Y0052229D02*
X0068434Y0052229D01*
X0068434Y0051836D02*
X0071361Y0051836D01*
X0071361Y0051444D02*
X0068434Y0051444D01*
X0068434Y0051052D02*
X0071361Y0051052D01*
X0071361Y0050660D02*
X0068434Y0050660D01*
X0068434Y0050268D02*
X0071361Y0050268D01*
X0071361Y0049875D02*
X0068434Y0049875D01*
X0068434Y0049483D02*
X0071361Y0049483D01*
X0071361Y0049091D02*
X0068434Y0049091D01*
X0068434Y0048699D02*
X0071361Y0048699D01*
X0071361Y0048307D02*
X0068434Y0048307D01*
X0068434Y0047914D02*
X0071361Y0047914D01*
X0071361Y0047522D02*
X0068434Y0047522D01*
X0068434Y0047130D02*
X0071361Y0047130D01*
X0071361Y0046738D02*
X0068434Y0046738D01*
X0068434Y0046345D02*
X0071361Y0046345D01*
X0071361Y0045953D02*
X0068434Y0045953D01*
X0068434Y0045561D02*
X0071361Y0045561D01*
X0071361Y0045169D02*
X0068434Y0045169D01*
X0068434Y0044777D02*
X0071361Y0044777D01*
X0071361Y0044384D02*
X0068434Y0044384D01*
X0068434Y0043992D02*
X0070991Y0043992D01*
X0070599Y0043600D02*
X0068434Y0043600D01*
X0068434Y0043208D02*
X0070207Y0043208D01*
X0070015Y0042816D02*
X0068434Y0042816D01*
X0068434Y0042423D02*
X0069852Y0042423D01*
X0069690Y0042031D02*
X0068434Y0042031D01*
X0068434Y0041639D02*
X0069672Y0041639D01*
X0069672Y0041247D02*
X0068434Y0041247D01*
X0068434Y0040854D02*
X0069672Y0040854D01*
X0069781Y0040462D02*
X0068434Y0040462D01*
X0068434Y0040070D02*
X0069944Y0040070D01*
X0070106Y0039678D02*
X0068434Y0039678D01*
X0068434Y0039286D02*
X0070427Y0039286D01*
X0070820Y0038893D02*
X0068434Y0038893D01*
X0068434Y0038501D02*
X0071440Y0038501D01*
X0074261Y0038501D02*
X0085535Y0038501D01*
X0085535Y0038109D02*
X0068434Y0038109D01*
X0068434Y0037717D02*
X0085535Y0037717D01*
X0085535Y0037325D02*
X0068434Y0037325D01*
X0068434Y0036932D02*
X0085535Y0036932D01*
X0085535Y0036540D02*
X0068434Y0036540D01*
X0068434Y0036148D02*
X0085535Y0036148D01*
X0085535Y0035756D02*
X0068434Y0035756D01*
X0068434Y0035364D02*
X0085535Y0035364D01*
X0085535Y0034971D02*
X0068434Y0034971D01*
X0068434Y0034579D02*
X0085535Y0034579D01*
X0085535Y0034187D02*
X0068434Y0034187D01*
X0068434Y0033795D02*
X0085535Y0033795D01*
X0085535Y0033402D02*
X0068434Y0033402D01*
X0068434Y0033010D02*
X0085535Y0033010D01*
X0085535Y0032618D02*
X0068434Y0032618D01*
X0068434Y0032226D02*
X0085535Y0032226D01*
X0085535Y0031834D02*
X0068434Y0031834D01*
X0068434Y0031441D02*
X0085535Y0031441D01*
X0085535Y0031049D02*
X0068434Y0031049D01*
X0068434Y0030657D02*
X0085535Y0030657D01*
X0085535Y0030265D02*
X0068434Y0030265D01*
X0068434Y0029873D02*
X0085535Y0029873D01*
X0085535Y0029480D02*
X0068434Y0029480D01*
X0068434Y0029088D02*
X0085535Y0029088D01*
X0085535Y0028696D02*
X0068434Y0028696D01*
X0068434Y0028304D02*
X0085535Y0028304D01*
X0085535Y0027911D02*
X0068434Y0027911D01*
X0068434Y0027519D02*
X0085535Y0027519D01*
X0085535Y0027127D02*
X0068434Y0027127D01*
X0068434Y0026735D02*
X0085535Y0026735D01*
X0085535Y0026343D02*
X0068434Y0026343D01*
X0068434Y0025950D02*
X0085535Y0025950D01*
X0085535Y0025558D02*
X0068434Y0025558D01*
X0068434Y0025166D02*
X0085535Y0025166D01*
X0085535Y0024774D02*
X0068434Y0024774D01*
X0068434Y0024382D02*
X0085535Y0024382D01*
X0085535Y0023989D02*
X0068434Y0023989D01*
X0068434Y0023597D02*
X0085535Y0023597D01*
X0085535Y0023205D02*
X0068434Y0023205D01*
X0068434Y0022813D02*
X0085745Y0022813D01*
X0086138Y0022421D02*
X0068434Y0022421D01*
X0068434Y0022028D02*
X0086530Y0022028D01*
X0086922Y0021636D02*
X0068434Y0021636D01*
X0068691Y0021244D02*
X0087314Y0021244D01*
X0087707Y0020852D02*
X0069083Y0020852D01*
X0074881Y0038893D02*
X0085535Y0038893D01*
X0084994Y0039286D02*
X0075273Y0039286D01*
X0075595Y0039678D02*
X0084602Y0039678D01*
X0084280Y0040070D02*
X0075757Y0040070D01*
X0075920Y0040462D02*
X0084117Y0040462D01*
X0083955Y0040854D02*
X0076028Y0040854D01*
X0076028Y0041247D02*
X0083846Y0041247D01*
X0083846Y0041639D02*
X0076028Y0041639D01*
X0076011Y0042031D02*
X0083846Y0042031D01*
X0083863Y0042423D02*
X0075848Y0042423D01*
X0075686Y0042816D02*
X0084025Y0042816D01*
X0084187Y0043208D02*
X0075494Y0043208D01*
X0075102Y0043600D02*
X0084379Y0043600D01*
X0084771Y0043992D02*
X0074709Y0043992D01*
X0074339Y0044384D02*
X0085163Y0044384D01*
X0086025Y0044777D02*
X0074339Y0044777D01*
X0074339Y0045169D02*
X0087942Y0045169D01*
X0088335Y0045561D02*
X0074339Y0045561D01*
X0074339Y0045953D02*
X0088727Y0045953D01*
X0089119Y0046345D02*
X0074339Y0046345D01*
X0074339Y0046738D02*
X0089511Y0046738D01*
X0089904Y0047130D02*
X0074339Y0047130D01*
X0074339Y0047522D02*
X0090296Y0047522D01*
X0090688Y0047914D02*
X0074339Y0047914D01*
X0074339Y0048307D02*
X0091080Y0048307D01*
X0091472Y0048699D02*
X0074339Y0048699D01*
X0074339Y0049091D02*
X0091865Y0049091D01*
X0092257Y0049483D02*
X0074339Y0049483D01*
X0074339Y0049875D02*
X0092649Y0049875D01*
X0093041Y0050268D02*
X0074339Y0050268D01*
X0074339Y0050660D02*
X0093433Y0050660D01*
X0093826Y0051052D02*
X0074339Y0051052D01*
X0074339Y0051444D02*
X0094218Y0051444D01*
X0094610Y0051836D02*
X0074339Y0051836D01*
X0074339Y0052229D02*
X0095002Y0052229D01*
X0095395Y0052621D02*
X0074339Y0052621D01*
X0074339Y0053013D02*
X0095787Y0053013D01*
X0096179Y0053405D02*
X0074339Y0053405D01*
X0074339Y0053797D02*
X0096571Y0053797D01*
X0096963Y0054190D02*
X0093408Y0054190D01*
X0094113Y0054582D02*
X0097356Y0054582D01*
X0097748Y0054974D02*
X0094505Y0054974D01*
X0094861Y0055366D02*
X0098140Y0055366D01*
X0098532Y0055759D02*
X0095024Y0055759D01*
X0095186Y0056151D02*
X0098924Y0056151D01*
X0099317Y0056543D02*
X0095320Y0056543D01*
X0095320Y0056935D02*
X0099708Y0056935D01*
X0099708Y0057327D02*
X0095320Y0057327D01*
X0095320Y0057720D02*
X0099708Y0057720D01*
X0099708Y0058112D02*
X0095164Y0058112D01*
X0095002Y0058504D02*
X0099708Y0058504D01*
X0099708Y0058896D02*
X0094840Y0058896D01*
X0094452Y0059288D02*
X0099708Y0059288D01*
X0099708Y0059681D02*
X0094060Y0059681D01*
X0094024Y0060073D02*
X0099708Y0060073D01*
X0099708Y0060465D02*
X0094024Y0060465D01*
X0094024Y0060857D02*
X0099708Y0060857D01*
X0099708Y0061250D02*
X0094024Y0061250D01*
X0094024Y0061642D02*
X0099708Y0061642D01*
X0099708Y0062034D02*
X0094024Y0062034D01*
X0094024Y0062426D02*
X0099708Y0062426D01*
X0099677Y0062818D02*
X0094024Y0062818D01*
X0094024Y0063211D02*
X0099285Y0063211D01*
X0098892Y0063603D02*
X0094024Y0063603D01*
X0094024Y0063995D02*
X0098500Y0063995D01*
X0098108Y0064387D02*
X0094024Y0064387D01*
X0094024Y0064779D02*
X0097716Y0064779D01*
X0097324Y0065172D02*
X0094024Y0065172D01*
X0094024Y0065564D02*
X0096931Y0065564D01*
X0096539Y0065956D02*
X0093664Y0065956D01*
X0093272Y0066348D02*
X0096147Y0066348D01*
X0095755Y0066740D02*
X0092880Y0066740D01*
X0092487Y0067133D02*
X0095363Y0067133D01*
X0094970Y0067525D02*
X0092095Y0067525D01*
X0091703Y0067917D02*
X0094578Y0067917D01*
X0094186Y0068309D02*
X0091311Y0068309D01*
X0090919Y0068702D02*
X0093794Y0068702D01*
X0093401Y0069094D02*
X0091303Y0069094D01*
X0092088Y0069486D02*
X0093009Y0069486D01*
X0092617Y0069878D02*
X0092480Y0069878D01*
X0088034Y0068830D02*
X0079766Y0077098D01*
X0069768Y0077098D01*
X0069639Y0077409D01*
X0068745Y0078303D01*
X0067577Y0078787D01*
X0066313Y0078787D01*
X0065145Y0078303D01*
X0064251Y0077409D01*
X0063767Y0076241D01*
X0063767Y0074977D01*
X0063767Y0075369D02*
X0054330Y0075369D01*
X0053937Y0075761D02*
X0063767Y0075761D01*
X0063767Y0076154D02*
X0053545Y0076154D01*
X0053153Y0076546D02*
X0063893Y0076546D01*
X0064056Y0076938D02*
X0052761Y0076938D01*
X0052369Y0077330D02*
X0064218Y0077330D01*
X0064564Y0077722D02*
X0051976Y0077722D01*
X0051584Y0078115D02*
X0064956Y0078115D01*
X0065637Y0078507D02*
X0051192Y0078507D01*
X0050800Y0078899D02*
X0089874Y0078899D01*
X0089751Y0078507D02*
X0068253Y0078507D01*
X0068933Y0078115D02*
X0089751Y0078115D01*
X0089751Y0077722D02*
X0069326Y0077722D01*
X0069672Y0077330D02*
X0089755Y0077330D01*
X0089917Y0076938D02*
X0079926Y0076938D01*
X0080318Y0076546D02*
X0090080Y0076546D01*
X0090252Y0076154D02*
X0080711Y0076154D01*
X0081103Y0075761D02*
X0090644Y0075761D01*
X0095993Y0076546D02*
X0109995Y0076546D01*
X0109833Y0076938D02*
X0095993Y0076938D01*
X0096103Y0077330D02*
X0109830Y0077330D01*
X0109830Y0077722D02*
X0096107Y0077722D01*
X0096107Y0078115D02*
X0109830Y0078115D01*
X0109953Y0078507D02*
X0096107Y0078507D01*
X0095985Y0078899D02*
X0110116Y0078899D01*
X0110278Y0079291D02*
X0095822Y0079291D01*
X0095660Y0079683D02*
X0110620Y0079683D01*
X0111012Y0080076D02*
X0095319Y0080076D01*
X0094927Y0080468D02*
X0111682Y0080468D01*
X0114334Y0080468D02*
X0171791Y0080468D01*
X0171399Y0080860D02*
X0094259Y0080860D01*
X0091600Y0080860D02*
X0049930Y0080860D01*
X0049930Y0080468D02*
X0090932Y0080468D01*
X0090539Y0080076D02*
X0049930Y0080076D01*
X0050015Y0079683D02*
X0090199Y0079683D01*
X0090036Y0079291D02*
X0050408Y0079291D01*
X0049930Y0081252D02*
X0171007Y0081252D01*
X0170614Y0081645D02*
X0049930Y0081645D01*
X0049930Y0082037D02*
X0170222Y0082037D01*
X0169830Y0082429D02*
X0136457Y0082429D01*
X0137313Y0082821D02*
X0169438Y0082821D01*
X0169046Y0083213D02*
X0137705Y0083213D01*
X0138097Y0083606D02*
X0168653Y0083606D01*
X0168261Y0083998D02*
X0138287Y0083998D01*
X0138449Y0084390D02*
X0167869Y0084390D01*
X0167477Y0084782D02*
X0138611Y0084782D01*
X0138627Y0085174D02*
X0167085Y0085174D01*
X0166692Y0085567D02*
X0138627Y0085567D01*
X0138627Y0085959D02*
X0166300Y0085959D01*
X0165908Y0086351D02*
X0138516Y0086351D01*
X0138353Y0086743D02*
X0165516Y0086743D01*
X0165123Y0087136D02*
X0138191Y0087136D01*
X0137867Y0087528D02*
X0164731Y0087528D01*
X0164339Y0087920D02*
X0137475Y0087920D01*
X0136847Y0088312D02*
X0163947Y0088312D01*
X0163555Y0088704D02*
X0134302Y0088704D01*
X0133909Y0089097D02*
X0163162Y0089097D01*
X0162770Y0089489D02*
X0133517Y0089489D01*
X0133125Y0089881D02*
X0162378Y0089881D01*
X0161986Y0090273D02*
X0132733Y0090273D01*
X0132340Y0090665D02*
X0161594Y0090665D01*
X0161201Y0091058D02*
X0131948Y0091058D01*
X0131820Y0091450D02*
X0160809Y0091450D01*
X0160417Y0091842D02*
X0131820Y0091842D01*
X0131820Y0092234D02*
X0160025Y0092234D01*
X0159633Y0092626D02*
X0131820Y0092626D01*
X0131820Y0093019D02*
X0159240Y0093019D01*
X0158848Y0093411D02*
X0131820Y0093411D01*
X0131820Y0093803D02*
X0158456Y0093803D01*
X0158064Y0094195D02*
X0131820Y0094195D01*
X0132150Y0094588D02*
X0157671Y0094588D01*
X0157279Y0094980D02*
X0132542Y0094980D01*
X0132935Y0095372D02*
X0156887Y0095372D01*
X0156495Y0095764D02*
X0133150Y0095764D01*
X0133312Y0096156D02*
X0156103Y0096156D01*
X0155710Y0096549D02*
X0133475Y0096549D01*
X0133509Y0096941D02*
X0155318Y0096941D01*
X0154926Y0097333D02*
X0133509Y0097333D01*
X0133509Y0097725D02*
X0154534Y0097725D01*
X0154142Y0098117D02*
X0133416Y0098117D01*
X0133254Y0098510D02*
X0153749Y0098510D01*
X0153357Y0098902D02*
X0133091Y0098902D01*
X0132793Y0099294D02*
X0152965Y0099294D01*
X0152573Y0099686D02*
X0132401Y0099686D01*
X0131836Y0100079D02*
X0152180Y0100079D01*
X0154431Y0102040D02*
X0156519Y0102040D01*
X0156126Y0102432D02*
X0154039Y0102432D01*
X0153646Y0102824D02*
X0155734Y0102824D01*
X0155342Y0103216D02*
X0153254Y0103216D01*
X0152862Y0103608D02*
X0154950Y0103608D01*
X0154558Y0104001D02*
X0152470Y0104001D01*
X0152078Y0104393D02*
X0154432Y0104393D01*
X0154432Y0104785D02*
X0151685Y0104785D01*
X0151293Y0105177D02*
X0154432Y0105177D01*
X0154432Y0105569D02*
X0150901Y0105569D01*
X0150509Y0105962D02*
X0154179Y0105962D01*
X0153753Y0106354D02*
X0147670Y0106354D01*
X0147388Y0106746D02*
X0153361Y0106746D01*
X0153120Y0107138D02*
X0146996Y0107138D01*
X0154823Y0101647D02*
X0156911Y0101647D01*
X0157303Y0101255D02*
X0155215Y0101255D01*
X0155608Y0100863D02*
X0157695Y0100863D01*
X0158087Y0100471D02*
X0156000Y0100471D01*
X0156392Y0100079D02*
X0158480Y0100079D01*
X0158872Y0099686D02*
X0156784Y0099686D01*
X0157176Y0099294D02*
X0159264Y0099294D01*
X0159656Y0098902D02*
X0157569Y0098902D01*
X0157961Y0098510D02*
X0160049Y0098510D01*
X0160441Y0098117D02*
X0158353Y0098117D01*
X0158745Y0097725D02*
X0160710Y0097725D01*
X0160617Y0097333D02*
X0159137Y0097333D01*
X0159530Y0096941D02*
X0160617Y0096941D01*
X0160617Y0096549D02*
X0159922Y0096549D01*
X0160314Y0096156D02*
X0160651Y0096156D01*
X0160706Y0095764D02*
X0160813Y0095764D01*
X0132382Y0086351D02*
X0098863Y0086351D01*
X0098863Y0086743D02*
X0132051Y0086743D01*
X0131659Y0087136D02*
X0098863Y0087136D01*
X0098754Y0087528D02*
X0131267Y0087528D01*
X0130874Y0087920D02*
X0098592Y0087920D01*
X0098429Y0088312D02*
X0130482Y0088312D01*
X0130090Y0088704D02*
X0098107Y0088704D01*
X0097715Y0089097D02*
X0129698Y0089097D01*
X0129306Y0089489D02*
X0097094Y0089489D01*
X0094542Y0089881D02*
X0128913Y0089881D01*
X0128842Y0090273D02*
X0094150Y0090273D01*
X0093758Y0090665D02*
X0128842Y0090665D01*
X0128842Y0091058D02*
X0093366Y0091058D01*
X0092973Y0091450D02*
X0128842Y0091450D01*
X0128842Y0091842D02*
X0092581Y0091842D01*
X0092450Y0092234D02*
X0128842Y0092234D01*
X0128842Y0092626D02*
X0092450Y0092626D01*
X0092450Y0093019D02*
X0128842Y0093019D01*
X0128842Y0093411D02*
X0092450Y0093411D01*
X0092450Y0093803D02*
X0128842Y0093803D01*
X0132271Y0085959D02*
X0098846Y0085959D01*
X0098683Y0085567D02*
X0132271Y0085567D01*
X0132271Y0085174D02*
X0098521Y0085174D01*
X0098329Y0084782D02*
X0132286Y0084782D01*
X0132449Y0084390D02*
X0097937Y0084390D01*
X0097545Y0083998D02*
X0132611Y0083998D01*
X0132800Y0083606D02*
X0096682Y0083606D01*
X0094688Y0083606D02*
X0049930Y0083606D01*
X0049930Y0083998D02*
X0093825Y0083998D01*
X0093433Y0084390D02*
X0050299Y0084390D01*
X0050691Y0084782D02*
X0093041Y0084782D01*
X0092849Y0085174D02*
X0051084Y0085174D01*
X0051276Y0085567D02*
X0052974Y0085567D01*
X0052101Y0085959D02*
X0051439Y0085959D01*
X0051601Y0086351D02*
X0051708Y0086351D01*
X0054932Y0085567D02*
X0092687Y0085567D01*
X0092524Y0085959D02*
X0055805Y0085959D01*
X0056197Y0086351D02*
X0092507Y0086351D01*
X0092507Y0086743D02*
X0056589Y0086743D01*
X0056786Y0087136D02*
X0092507Y0087136D01*
X0092616Y0087528D02*
X0056948Y0087528D01*
X0057110Y0087920D02*
X0092292Y0087920D01*
X0091900Y0088312D02*
X0057131Y0088312D01*
X0057131Y0088704D02*
X0091507Y0088704D01*
X0091115Y0089097D02*
X0057131Y0089097D01*
X0057025Y0089489D02*
X0090723Y0089489D01*
X0090331Y0089881D02*
X0056862Y0089881D01*
X0056700Y0090273D02*
X0089939Y0090273D01*
X0089546Y0090665D02*
X0056383Y0090665D01*
X0055990Y0091058D02*
X0089472Y0091058D01*
X0089472Y0091450D02*
X0055379Y0091450D01*
X0053867Y0091842D02*
X0089472Y0091842D01*
X0089472Y0092234D02*
X0053867Y0092234D01*
X0053867Y0092626D02*
X0089472Y0092626D01*
X0115004Y0080076D02*
X0130977Y0080076D01*
X0130305Y0079683D02*
X0115396Y0079683D01*
X0115738Y0079291D02*
X0129913Y0079291D01*
X0129570Y0078899D02*
X0115900Y0078899D01*
X0116063Y0078507D02*
X0129408Y0078507D01*
X0129245Y0078115D02*
X0116186Y0078115D01*
X0116186Y0077722D02*
X0129121Y0077722D01*
X0129121Y0077330D02*
X0116186Y0077330D01*
X0113893Y0074193D02*
X0112619Y0074193D01*
X0111928Y0074585D02*
X0111918Y0074585D01*
X0111114Y0074977D02*
X0097242Y0074977D01*
X0097634Y0074585D02*
X0109374Y0074585D01*
X0108672Y0074193D02*
X0098026Y0074193D01*
X0098418Y0073800D02*
X0108280Y0073800D01*
X0107925Y0073408D02*
X0098810Y0073408D01*
X0099203Y0073016D02*
X0107763Y0073016D01*
X0107600Y0072624D02*
X0099595Y0072624D01*
X0099987Y0072231D02*
X0107468Y0072231D01*
X0107468Y0071839D02*
X0100379Y0071839D01*
X0100771Y0071447D02*
X0107468Y0071447D01*
X0107468Y0071055D02*
X0101164Y0071055D01*
X0101556Y0070663D02*
X0107624Y0070663D01*
X0107786Y0070270D02*
X0101948Y0070270D01*
X0102340Y0069878D02*
X0107949Y0069878D01*
X0108337Y0069486D02*
X0102733Y0069486D01*
X0103125Y0069094D02*
X0108729Y0069094D01*
X0109512Y0068702D02*
X0103517Y0068702D01*
X0103909Y0068309D02*
X0111913Y0068309D01*
X0111913Y0067917D02*
X0104301Y0067917D01*
X0104694Y0067525D02*
X0111913Y0067525D01*
X0111913Y0067133D02*
X0105086Y0067133D01*
X0105478Y0066740D02*
X0111913Y0066740D01*
X0111913Y0066348D02*
X0105870Y0066348D01*
X0106262Y0065956D02*
X0111913Y0065956D01*
X0111913Y0065564D02*
X0106655Y0065564D01*
X0107047Y0065172D02*
X0111913Y0065172D01*
X0111913Y0064779D02*
X0107439Y0064779D01*
X0107831Y0064387D02*
X0111913Y0064387D01*
X0111913Y0063995D02*
X0108223Y0063995D01*
X0108616Y0063603D02*
X0111913Y0063603D01*
X0111913Y0063211D02*
X0108985Y0063211D01*
X0108985Y0062818D02*
X0111913Y0062818D01*
X0111913Y0062426D02*
X0108985Y0062426D01*
X0108985Y0062034D02*
X0111913Y0062034D01*
X0111913Y0061642D02*
X0108985Y0061642D01*
X0108985Y0061250D02*
X0111913Y0061250D01*
X0111913Y0060857D02*
X0108985Y0060857D01*
X0108985Y0060465D02*
X0111913Y0060465D01*
X0111913Y0060073D02*
X0109029Y0060073D01*
X0109808Y0059681D02*
X0111913Y0059681D01*
X0111913Y0059288D02*
X0110200Y0059288D01*
X0110588Y0058896D02*
X0111913Y0058896D01*
X0111913Y0058504D02*
X0110750Y0058504D01*
X0110912Y0058112D02*
X0111913Y0058112D01*
X0111913Y0057720D02*
X0111068Y0057720D01*
X0111068Y0057327D02*
X0111913Y0057327D01*
X0111913Y0056935D02*
X0111068Y0056935D01*
X0111068Y0056543D02*
X0111913Y0056543D01*
X0111913Y0056151D02*
X0110934Y0056151D01*
X0110772Y0055759D02*
X0111913Y0055759D01*
X0111913Y0055366D02*
X0110609Y0055366D01*
X0110253Y0054974D02*
X0111913Y0054974D01*
X0111913Y0054582D02*
X0109861Y0054582D01*
X0109379Y0054190D02*
X0111913Y0054190D01*
X0111913Y0053797D02*
X0109379Y0053797D01*
X0109379Y0053405D02*
X0111913Y0053405D01*
X0111913Y0053013D02*
X0109379Y0053013D01*
X0109379Y0052621D02*
X0111913Y0052621D01*
X0111913Y0052229D02*
X0109379Y0052229D01*
X0109379Y0051836D02*
X0111913Y0051836D01*
X0111913Y0051444D02*
X0109379Y0051444D01*
X0109379Y0051052D02*
X0111913Y0051052D01*
X0111913Y0050660D02*
X0109379Y0050660D01*
X0109379Y0050268D02*
X0111913Y0050268D01*
X0111913Y0049875D02*
X0109379Y0049875D01*
X0109379Y0049483D02*
X0111913Y0049483D01*
X0111913Y0049091D02*
X0109379Y0049091D01*
X0109379Y0048699D02*
X0111913Y0048699D01*
X0111913Y0048307D02*
X0109379Y0048307D01*
X0109379Y0047914D02*
X0111913Y0047914D01*
X0111913Y0047522D02*
X0109379Y0047522D01*
X0109379Y0047130D02*
X0111913Y0047130D01*
X0111913Y0046738D02*
X0109379Y0046738D01*
X0109379Y0046345D02*
X0111913Y0046345D01*
X0111913Y0045953D02*
X0109379Y0045953D01*
X0109379Y0045561D02*
X0111913Y0045561D01*
X0111913Y0045169D02*
X0109379Y0045169D01*
X0109379Y0044777D02*
X0111913Y0044777D01*
X0111541Y0044384D02*
X0109379Y0044384D01*
X0109379Y0043992D02*
X0111149Y0043992D01*
X0110757Y0043600D02*
X0109379Y0043600D01*
X0109379Y0043208D02*
X0110565Y0043208D01*
X0110403Y0042816D02*
X0109379Y0042816D01*
X0109379Y0042423D02*
X0110240Y0042423D01*
X0110224Y0042031D02*
X0109379Y0042031D01*
X0109379Y0041639D02*
X0110224Y0041639D01*
X0110224Y0041247D02*
X0109379Y0041247D01*
X0109379Y0040854D02*
X0110333Y0040854D01*
X0110495Y0040462D02*
X0109379Y0040462D01*
X0109379Y0040070D02*
X0110658Y0040070D01*
X0110980Y0039678D02*
X0109379Y0039678D01*
X0109379Y0039286D02*
X0111372Y0039286D01*
X0111995Y0038893D02*
X0109379Y0038893D01*
X0148355Y0038501D02*
X0164913Y0038501D01*
X0165456Y0038109D02*
X0148355Y0038109D01*
X0148355Y0037717D02*
X0165456Y0037717D01*
X0165456Y0037325D02*
X0148355Y0037325D01*
X0148355Y0036932D02*
X0165456Y0036932D01*
X0165456Y0036540D02*
X0148355Y0036540D01*
X0148355Y0036148D02*
X0165456Y0036148D01*
X0165456Y0035756D02*
X0148355Y0035756D01*
X0148355Y0035364D02*
X0165456Y0035364D01*
X0165456Y0034971D02*
X0148355Y0034971D01*
X0148355Y0034579D02*
X0165711Y0034579D01*
X0166104Y0034187D02*
X0148355Y0034187D01*
X0148660Y0033795D02*
X0166496Y0033795D01*
X0166888Y0033402D02*
X0149052Y0033402D01*
X0149444Y0033010D02*
X0167280Y0033010D01*
X0167672Y0032618D02*
X0149837Y0032618D01*
X0150229Y0032226D02*
X0168065Y0032226D01*
X0168457Y0031834D02*
X0150621Y0031834D01*
X0151013Y0031441D02*
X0168849Y0031441D01*
X0169241Y0031049D02*
X0151406Y0031049D01*
X0151798Y0030657D02*
X0169634Y0030657D01*
X0170026Y0030265D02*
X0152190Y0030265D01*
X0090875Y0054190D02*
X0074339Y0054190D01*
X0074339Y0054582D02*
X0090170Y0054582D01*
X0089778Y0054974D02*
X0074339Y0054974D01*
X0074339Y0055366D02*
X0089422Y0055366D01*
X0089260Y0055759D02*
X0074339Y0055759D01*
X0074339Y0056151D02*
X0089097Y0056151D01*
X0088964Y0056543D02*
X0074339Y0056543D01*
X0074339Y0056935D02*
X0088964Y0056935D01*
X0088964Y0057327D02*
X0074339Y0057327D01*
X0074339Y0057720D02*
X0088964Y0057720D01*
X0089119Y0058112D02*
X0074339Y0058112D01*
X0074339Y0058504D02*
X0089281Y0058504D01*
X0089444Y0058896D02*
X0074339Y0058896D01*
X0074339Y0059288D02*
X0089831Y0059288D01*
X0090223Y0059681D02*
X0074339Y0059681D01*
X0074339Y0060073D02*
X0091003Y0060073D01*
X0091046Y0060465D02*
X0074339Y0060465D01*
X0074339Y0060857D02*
X0091046Y0060857D01*
X0091046Y0061250D02*
X0074339Y0061250D01*
X0074339Y0061642D02*
X0091046Y0061642D01*
X0091046Y0062034D02*
X0074339Y0062034D01*
X0074339Y0062426D02*
X0091046Y0062426D01*
X0091046Y0062818D02*
X0074339Y0062818D01*
X0074339Y0063211D02*
X0091046Y0063211D01*
X0091046Y0063603D02*
X0074339Y0063603D01*
X0074339Y0063995D02*
X0091046Y0063995D01*
X0091021Y0064387D02*
X0074339Y0064387D01*
X0074339Y0064779D02*
X0090629Y0064779D01*
X0090237Y0065172D02*
X0074339Y0065172D01*
X0074339Y0065564D02*
X0089845Y0065564D01*
X0086697Y0065956D02*
X0074339Y0065956D01*
X0074339Y0066348D02*
X0086304Y0066348D01*
X0085912Y0066740D02*
X0073982Y0066740D01*
X0073590Y0067133D02*
X0085520Y0067133D01*
X0085128Y0067525D02*
X0073198Y0067525D01*
X0072805Y0067917D02*
X0084736Y0067917D01*
X0084343Y0068309D02*
X0072413Y0068309D01*
X0072021Y0068702D02*
X0083951Y0068702D01*
X0083559Y0069094D02*
X0071629Y0069094D01*
X0071236Y0069486D02*
X0083167Y0069486D01*
X0082775Y0069878D02*
X0070844Y0069878D01*
X0070452Y0070270D02*
X0082382Y0070270D01*
X0081990Y0070663D02*
X0070060Y0070663D01*
X0069668Y0071055D02*
X0081598Y0071055D01*
X0081206Y0071447D02*
X0069275Y0071447D01*
X0068846Y0073016D02*
X0079637Y0073016D01*
X0080029Y0072624D02*
X0068042Y0072624D01*
X0069238Y0073408D02*
X0079245Y0073408D01*
X0078852Y0073800D02*
X0069631Y0073800D01*
X0065847Y0072624D02*
X0065660Y0072624D01*
X0065792Y0072231D02*
X0080421Y0072231D01*
X0080813Y0071839D02*
X0065792Y0071839D01*
X0063929Y0074585D02*
X0063886Y0074585D01*
X0050487Y0068702D02*
X0046970Y0068702D01*
X0046781Y0069094D02*
X0050094Y0069094D01*
X0049702Y0069486D02*
X0046592Y0069486D01*
X0046404Y0069878D02*
X0049310Y0069878D01*
X0048918Y0070270D02*
X0046215Y0070270D01*
X0046075Y0070560D02*
X0046075Y0070560D01*
X0045980Y0070663D02*
X0048526Y0070663D01*
X0048133Y0071055D02*
X0045616Y0071055D01*
X0045252Y0071447D02*
X0047741Y0071447D01*
X0047349Y0071839D02*
X0044888Y0071839D01*
X0044524Y0072231D02*
X0046957Y0072231D01*
X0046564Y0072624D02*
X0044160Y0072624D01*
X0043796Y0073016D02*
X0046172Y0073016D01*
X0045780Y0073408D02*
X0043432Y0073408D01*
X0043068Y0073800D02*
X0045388Y0073800D01*
X0044996Y0074193D02*
X0042629Y0074193D01*
X0042791Y0074099D02*
X0042791Y0074099D01*
X0041950Y0074585D02*
X0044603Y0074585D01*
X0044211Y0074977D02*
X0041270Y0074977D01*
X0040591Y0075369D02*
X0043819Y0075369D01*
X0043427Y0075761D02*
X0039912Y0075761D01*
X0039233Y0076154D02*
X0043035Y0076154D01*
X0042642Y0076546D02*
X0038466Y0076546D01*
X0038610Y0076513D02*
X0038610Y0076513D01*
X0036747Y0076938D02*
X0042250Y0076938D01*
X0041858Y0077330D02*
X0035029Y0077330D01*
X0033903Y0077587D02*
X0033903Y0077587D01*
X0049930Y0082429D02*
X0134441Y0082429D01*
X0133585Y0082821D02*
X0049930Y0082821D01*
X0049930Y0083213D02*
X0133192Y0083213D01*
X0133622Y0080076D02*
X0172183Y0080076D01*
X0111913Y0068702D02*
X0111779Y0068702D01*
X0110722Y0075369D02*
X0096849Y0075369D01*
X0096457Y0075761D02*
X0110330Y0075761D01*
X0110158Y0076154D02*
X0096065Y0076154D01*
X0052448Y0066740D02*
X0047915Y0066740D01*
X0048103Y0066348D02*
X0052464Y0066348D01*
X0052464Y0065956D02*
X0048208Y0065956D01*
X0048170Y0066210D02*
X0048170Y0066210D01*
X0048268Y0065564D02*
X0052464Y0065564D01*
X0052464Y0065172D02*
X0048327Y0065172D01*
X0048386Y0064779D02*
X0052464Y0064779D01*
X0052464Y0064387D02*
X0048445Y0064387D01*
X0048504Y0063995D02*
X0052464Y0063995D01*
X0052464Y0063603D02*
X0048563Y0063603D01*
X0048622Y0063211D02*
X0052464Y0063211D01*
X0052464Y0062818D02*
X0048681Y0062818D01*
X0048740Y0062426D02*
X0052464Y0062426D01*
X0052464Y0062034D02*
X0048800Y0062034D01*
X0048859Y0061642D02*
X0052464Y0061642D01*
X0052464Y0061250D02*
X0048862Y0061250D01*
X0048803Y0060857D02*
X0052464Y0060857D01*
X0052464Y0060465D02*
X0048743Y0060465D01*
X0048684Y0060073D02*
X0052464Y0060073D01*
X0052464Y0059681D02*
X0048625Y0059681D01*
X0048566Y0059288D02*
X0052464Y0059288D01*
X0052464Y0058896D02*
X0048507Y0058896D01*
X0048448Y0058504D02*
X0052464Y0058504D01*
X0052464Y0058112D02*
X0048389Y0058112D01*
X0048330Y0057720D02*
X0052464Y0057720D01*
X0052464Y0057327D02*
X0048271Y0057327D01*
X0048211Y0056935D02*
X0052464Y0056935D01*
X0052464Y0056543D02*
X0048113Y0056543D01*
X0047924Y0056151D02*
X0052464Y0056151D01*
X0052464Y0055759D02*
X0047735Y0055759D01*
X0047546Y0055366D02*
X0052464Y0055366D01*
X0052464Y0054974D02*
X0047358Y0054974D01*
X0047169Y0054582D02*
X0052464Y0054582D01*
X0052464Y0054190D02*
X0046980Y0054190D01*
X0046791Y0053797D02*
X0052464Y0053797D01*
X0052464Y0053405D02*
X0046602Y0053405D01*
X0046413Y0053013D02*
X0052464Y0053013D01*
X0052464Y0052621D02*
X0046224Y0052621D01*
X0046075Y0052312D02*
X0046075Y0052312D01*
X0045998Y0052229D02*
X0052464Y0052229D01*
X0052464Y0051836D02*
X0045634Y0051836D01*
X0045271Y0051444D02*
X0052464Y0051444D01*
X0052464Y0051052D02*
X0044907Y0051052D01*
X0044543Y0050660D02*
X0052464Y0050660D01*
X0052464Y0050268D02*
X0044179Y0050268D01*
X0043815Y0049875D02*
X0052464Y0049875D01*
X0052099Y0049483D02*
X0043451Y0049483D01*
X0043087Y0049091D02*
X0051707Y0049091D01*
X0051315Y0048699D02*
X0042664Y0048699D01*
X0041985Y0048307D02*
X0050923Y0048307D01*
X0050530Y0047914D02*
X0041305Y0047914D01*
X0040626Y0047522D02*
X0050138Y0047522D01*
X0049746Y0047130D02*
X0039947Y0047130D01*
X0039267Y0046738D02*
X0049354Y0046738D01*
X0048962Y0046345D02*
X0038554Y0046345D01*
X0038610Y0046358D02*
X0038610Y0046358D01*
X0036835Y0045953D02*
X0048569Y0045953D01*
X0048177Y0045561D02*
X0035117Y0045561D01*
X0047726Y0067133D02*
X0052055Y0067133D01*
X0051663Y0067525D02*
X0047537Y0067525D01*
X0047348Y0067917D02*
X0051271Y0067917D01*
X0050879Y0068309D02*
X0047159Y0068309D01*
X0045371Y0087920D02*
X0045349Y0087920D01*
X0045534Y0088312D02*
X0044721Y0088312D01*
X0049853Y0089881D02*
X0050889Y0089881D01*
X0050881Y0089489D02*
X0050473Y0089489D01*
X0040460Y0118120D02*
X0061913Y0118120D01*
X0061913Y0118512D02*
X0041407Y0118512D01*
X0041900Y0118905D02*
X0061913Y0118905D01*
X0061913Y0119297D02*
X0042293Y0119297D01*
X0042561Y0119689D02*
X0062069Y0119689D01*
X0062461Y0120081D02*
X0042724Y0120081D01*
X0042886Y0120474D02*
X0062853Y0120474D01*
X0063246Y0120866D02*
X0042957Y0120866D01*
X0042957Y0121258D02*
X0063638Y0121258D01*
X0064030Y0121650D02*
X0042957Y0121650D01*
X0042903Y0122042D02*
X0064422Y0122042D01*
X0064815Y0122435D02*
X0043042Y0122435D01*
X0043434Y0122827D02*
X0065207Y0122827D01*
X0065599Y0123219D02*
X0043826Y0123219D01*
X0044218Y0123611D02*
X0065991Y0123611D01*
X0066383Y0124003D02*
X0044611Y0124003D01*
X0042360Y0125965D02*
X0002394Y0125965D01*
X0002394Y0126357D02*
X0042752Y0126357D01*
X0043145Y0126749D02*
X0002394Y0126749D01*
X0002394Y0127926D02*
X0384646Y0127926D01*
X0384646Y0128318D02*
X0002394Y0128318D01*
X0002394Y0128710D02*
X0384646Y0128710D01*
X0384646Y0129102D02*
X0002394Y0129102D01*
X0002394Y0125572D02*
X0041968Y0125572D01*
X0041576Y0125180D02*
X0002394Y0125180D01*
X0002394Y0124788D02*
X0041184Y0124788D01*
X0040791Y0124396D02*
X0040557Y0124396D01*
X0039002Y0124396D02*
X0002394Y0124396D01*
X0002394Y0124003D02*
X0038055Y0124003D01*
X0037618Y0123611D02*
X0002394Y0123611D01*
X0002394Y0123219D02*
X0037226Y0123219D01*
X0036981Y0122827D02*
X0002394Y0122827D01*
X0002394Y0122435D02*
X0036819Y0122435D01*
X0036656Y0122042D02*
X0002394Y0122042D01*
X0002394Y0121650D02*
X0036602Y0121650D01*
X0036602Y0121258D02*
X0002394Y0121258D01*
X0002394Y0120866D02*
X0036602Y0120866D01*
X0036673Y0120474D02*
X0002394Y0120474D01*
X0002394Y0120081D02*
X0036835Y0120081D01*
X0036998Y0119689D02*
X0002394Y0119689D01*
X0002394Y0119297D02*
X0037266Y0119297D01*
X0037659Y0118905D02*
X0002394Y0118905D01*
X0002394Y0118512D02*
X0038152Y0118512D01*
X0039099Y0118120D02*
X0002394Y0118120D01*
X0274835Y0085174D02*
X0275003Y0085174D01*
X0275003Y0084782D02*
X0274835Y0084782D01*
X0274835Y0084390D02*
X0275003Y0084390D01*
X0275003Y0083998D02*
X0274835Y0083998D01*
X0283532Y0086743D02*
X0292033Y0086743D01*
X0366690Y0114590D02*
X0384646Y0114590D01*
X0384646Y0114983D02*
X0367082Y0114983D01*
X0367132Y0115375D02*
X0384646Y0115375D01*
X0384646Y0115767D02*
X0367132Y0115767D01*
X0367132Y0116159D02*
X0384646Y0116159D01*
X0384646Y0116551D02*
X0367132Y0116551D01*
X0367132Y0116944D02*
X0384646Y0116944D01*
X0384646Y0117336D02*
X0367132Y0117336D01*
X0367132Y0117728D02*
X0384646Y0117728D01*
X0384646Y0118120D02*
X0367132Y0118120D01*
X0367132Y0118512D02*
X0384646Y0118512D01*
X0384646Y0118905D02*
X0367132Y0118905D01*
X0367132Y0119297D02*
X0384646Y0119297D01*
X0384646Y0119689D02*
X0367132Y0119689D01*
X0367132Y0120081D02*
X0384646Y0120081D01*
X0384646Y0120474D02*
X0367132Y0120474D01*
X0367132Y0120866D02*
X0384646Y0120866D01*
X0384646Y0121258D02*
X0367132Y0121258D01*
X0367132Y0121650D02*
X0384646Y0121650D01*
X0384646Y0122042D02*
X0367132Y0122042D01*
X0367132Y0122435D02*
X0384646Y0122435D01*
X0384646Y0122827D02*
X0367132Y0122827D01*
X0367132Y0123219D02*
X0384646Y0123219D01*
X0384646Y0123611D02*
X0367132Y0123611D01*
X0367132Y0124003D02*
X0384646Y0124003D01*
X0384646Y0124396D02*
X0366895Y0124396D01*
M02*
